<svg version="1.1" viewBox="0.0 0.0 600.0 371.0" fill="none" stroke="none" stroke-linecap="square" stroke-miterlimit="10" width="600" height="371" xmlns:xlink="http://www.w3.org/1999/xlink" xmlns="http://www.w3.org/2000/svg"><path fill="#ffffff" d="M0 0L600.0 0L600.0 371.0L0 371.0L0 0Z" fill-rule="nonzero"/><path stroke="#333333" stroke-width="1.0" stroke-linecap="butt" d="M77.5 300.5L581.5 300.5" fill-rule="nonzero"/><path stroke="#cccccc" stroke-width="1.0" stroke-linecap="butt" d="M77.5 255.5L581.5 255.5" fill-rule="nonzero"/><path stroke="#cccccc" stroke-width="1.0" stroke-linecap="butt" d="M77.5 209.5L581.5 209.5" fill-rule="nonzero"/><path stroke="#cccccc" stroke-width="1.0" stroke-linecap="butt" d="M77.5 164.5L581.5 164.5" fill-rule="nonzero"/><path stroke="#cccccc" stroke-width="1.0" stroke-linecap="butt" d="M77.5 119.5L581.5 119.5" fill-rule="nonzero"/><path stroke="#e6e6e6" stroke-width="1.0" stroke-linecap="butt" d="M77.5 291.5L581.5 291.5" fill-rule="nonzero"/><path stroke="#e6e6e6" stroke-width="1.0" stroke-linecap="butt" d="M77.5 282.5L581.5 282.5" fill-rule="nonzero"/><path stroke="#e6e6e6" stroke-width="1.0" stroke-linecap="butt" d="M77.5 273.5L581.5 273.5" fill-rule="nonzero"/><path stroke="#e6e6e6" stroke-width="1.0" stroke-linecap="butt" d="M77.5 264.5L581.5 264.5" fill-rule="nonzero"/><path stroke="#e6e6e6" stroke-width="1.0" stroke-linecap="butt" d="M77.5 246.5L581.5 246.5" fill-rule="nonzero"/><path stroke="#e6e6e6" stroke-width="1.0" stroke-linecap="butt" d="M77.5 237.5L581.5 237.5" fill-rule="nonzero"/><path stroke="#e6e6e6" stroke-width="1.0" stroke-linecap="butt" d="M77.5 228.5L581.5 228.5" fill-rule="nonzero"/><path stroke="#e6e6e6" stroke-width="1.0" stroke-linecap="butt" d="M77.5 219.5L581.5 219.5" fill-rule="nonzero"/><path stroke="#e6e6e6" stroke-width="1.0" stroke-linecap="butt" d="M77.5 200.5L581.5 200.5" fill-rule="nonzero"/><path stroke="#e6e6e6" stroke-width="1.0" stroke-linecap="butt" d="M77.5 191.5L581.5 191.5" fill-rule="nonzero"/><path stroke="#e6e6e6" stroke-width="1.0" stroke-linecap="butt" d="M77.5 182.5L581.5 182.5" fill-rule="nonzero"/><path stroke="#e6e6e6" stroke-width="1.0" stroke-linecap="butt" d="M77.5 173.5L581.5 173.5" fill-rule="nonzero"/><path stroke="#e6e6e6" stroke-width="1.0" stroke-linecap="butt" d="M77.5 155.5L581.5 155.5" fill-rule="nonzero"/><path stroke="#e6e6e6" stroke-width="1.0" stroke-linecap="butt" d="M77.5 146.5L581.5 146.5" fill-rule="nonzero"/><path stroke="#e6e6e6" stroke-width="1.0" stroke-linecap="butt" d="M77.5 137.5L581.5 137.5" fill-rule="nonzero"/><path stroke="#e6e6e6" stroke-width="1.0" stroke-linecap="butt" d="M77.5 128.5L581.5 128.5" fill-rule="nonzero"/><clipPath id="id_0"><path d="M77.55 111.78333L581.45 111.78333L581.45 300.45L77.55 300.45L77.55 111.78333Z" clip-rule="nonzero"/></clipPath><path stroke="#4285f4" stroke-width="2.0" stroke-linecap="butt" clip-path="url(#id_0)" d="M161.53334 117.66769L329.5 111.78333L497.46667 141.69511" fill-rule="nonzero"/><path stroke="#ea4335" stroke-width="2.0" stroke-linecap="butt" clip-path="url(#id_0)" d="M161.53334 141.6011L329.5 143.8666L497.46667 118.23423" fill-rule="nonzero"/><path fill="#000000" fill-opacity="0.0" clip-path="url(#id_0)" d="M164.53334 117.66769C164.53334 119.32454 163.19019 120.66769 161.53334 120.66769C159.87648 120.66769 158.53334 119.32454 158.53334 117.66769C158.53334 116.01083 159.87648 114.66769 161.53334 114.66769C163.19019 114.66769 164.53334 116.01083 164.53334 117.66769Z" fill-rule="nonzero"/><path fill="#000000" fill-opacity="0.0" clip-path="url(#id_0)" d="M332.5 111.78333C332.5 113.440186 331.15686 114.78333 329.5 114.78333C327.84314 114.78333 326.5 113.440186 326.5 111.78333C326.5 110.12648 327.84314 108.78333 329.5 108.78333C331.15686 108.78333 332.5 110.12648 332.5 111.78333Z" fill-rule="nonzero"/><path fill="#000000" fill-opacity="0.0" clip-path="url(#id_0)" d="M500.46667 141.69511C500.46667 143.35196 499.12354 144.69511 497.46667 144.69511C495.8098 144.69511 494.46667 143.35196 494.46667 141.69511C494.46667 140.03825 495.8098 138.69511 497.46667 138.69511C499.12354 138.69511 500.46667 140.03825 500.46667 141.69511Z" fill-rule="nonzero"/><path fill="#000000" fill-opacity="0.0" clip-path="url(#id_0)" d="M164.53334 141.6011C164.53334 143.25797 163.19019 144.6011 161.53334 144.6011C159.87648 144.6011 158.53334 143.25797 158.53334 141.6011C158.53334 139.94424 159.87648 138.6011 161.53334 138.6011C163.19019 138.6011 164.53334 139.94424 164.53334 141.6011Z" fill-rule="nonzero"/><path fill="#000000" fill-opacity="0.0" clip-path="url(#id_0)" d="M332.5 143.8666C332.5 145.52344 331.15686 146.8666 329.5 146.8666C327.84314 146.8666 326.5 145.52344 326.5 143.8666C326.5 142.20973 327.84314 140.8666 329.5 140.8666C331.15686 140.8666 332.5 142.20973 332.5 143.8666Z" fill-rule="nonzero"/><path fill="#000000" fill-opacity="0.0" clip-path="url(#id_0)" d="M500.46667 118.23423C500.46667 119.89108 499.12354 121.23423 497.46667 121.23423C495.8098 121.23423 494.46667 119.89108 494.46667 118.23423C494.46667 116.57738 495.8098 115.23423 497.46667 115.23423C499.12354 115.23423 500.46667 116.57738 500.46667 118.23423Z" fill-rule="nonzero"/><path fill="#000000" d="M271.39062 349.45L271.39062 340.85626L273.10938 340.85626L275.14062 346.9344Q275.42188 347.79376 275.54688 348.21564Q275.6875 347.7469 276.0 346.84064L278.0625 340.85626L279.59375 340.85626L279.59375 349.45L278.5 349.45L278.5 342.2625L276.0 349.45L274.96875 349.45L272.48438 342.1375L272.48438 349.45L271.39062 349.45ZM285.54688 347.45L286.64062 347.575Q286.39062 348.52814 285.6875 349.0594Q284.98438 349.59064 283.90625 349.59064Q282.54688 349.59064 281.73438 348.7469Q280.9375 347.90314 280.9375 346.3875Q280.9375 344.825 281.75 343.96564Q282.5625 343.09064 283.84375 343.09064Q285.09375 343.09064 285.875 343.9344Q286.67188 344.77814 286.67188 346.325Q286.67188 346.41876 286.67188 346.60626L282.03125 346.60626Q282.09375 347.6375 282.60938 348.1844Q283.125 348.71564 283.90625 348.71564Q284.48438 348.71564 284.89062 348.41876Q285.3125 348.10626 285.54688 347.45ZM282.09375 345.7469L285.5625 345.7469Q285.5 344.95 285.17188 344.5594Q284.65625 343.95 283.85938 343.95Q283.125 343.95 282.625 344.4344Q282.14062 344.91876 282.09375 345.7469ZM287.875 347.59064L288.90625 347.4344Q289.0 348.0594 289.39062 348.3875Q289.79688 348.71564 290.53125 348.71564Q291.25 348.71564 291.59375 348.4344Q291.95312 348.1375 291.95312 347.73126Q291.95312 347.3719 291.64062 347.16876Q291.42188 347.02814 290.5625 346.8094Q289.40625 346.5125 288.95312 346.3094Q288.51562 346.09064 288.28125 345.71564Q288.04688 345.34064 288.04688 344.8719Q288.04688 344.46564 288.23438 344.10626Q288.42188 343.7469 288.75 343.5125Q289.0 343.34064 289.42188 343.21564Q289.84375 343.09064 290.34375 343.09064Q291.0625 343.09064 291.60938 343.3094Q292.17188 343.5125 292.4375 343.8719Q292.70312 344.23126 292.79688 344.825L291.76562 344.96564Q291.70312 344.4969 291.35938 344.23126Q291.03125 343.95 290.40625 343.95Q289.6875 343.95 289.375 344.2Q289.0625 344.4344 289.0625 344.7625Q289.0625 344.96564 289.1875 345.1219Q289.32812 345.29376 289.59375 345.40314Q289.75 345.46564 290.53125 345.66876Q291.65625 345.98126 292.09375 346.16876Q292.53125 346.35626 292.78125 346.71564Q293.03125 347.075 293.03125 347.6219Q293.03125 348.15314 292.71875 348.6219Q292.42188 349.075 291.84375 349.34064Q291.26562 349.59064 290.53125 349.59064Q289.3125 349.59064 288.67188 349.09064Q288.04688 348.575 287.875 347.59064ZM293.875 347.59064L294.90625 347.4344Q295.0 348.0594 295.39062 348.3875Q295.79688 348.71564 296.53125 348.71564Q297.25 348.71564 297.59375 348.4344Q297.95312 348.1375 297.95312 347.73126Q297.95312 347.3719 297.64062 347.16876Q297.42188 347.02814 296.5625 346.8094Q295.40625 346.5125 294.95312 346.3094Q294.51562 346.09064 294.28125 345.71564Q294.04688 345.34064 294.04688 344.8719Q294.04688 344.46564 294.23438 344.10626Q294.42188 343.7469 294.75 343.5125Q295.0 343.34064 295.42188 343.21564Q295.84375 343.09064 296.34375 343.09064Q297.0625 343.09064 297.60938 343.3094Q298.17188 343.5125 298.4375 343.8719Q298.70312 344.23126 298.79688 344.825L297.76562 344.96564Q297.70312 344.4969 297.35938 344.23126Q297.03125 343.95 296.40625 343.95Q295.6875 343.95 295.375 344.2Q295.0625 344.4344 295.0625 344.7625Q295.0625 344.96564 295.1875 345.1219Q295.32812 345.29376 295.59375 345.40314Q295.75 345.46564 296.53125 345.66876Q297.65625 345.98126 298.09375 346.16876Q298.53125 346.35626 298.78125 346.71564Q299.03125 347.075 299.03125 347.6219Q299.03125 348.15314 298.71875 348.6219Q298.42188 349.075 297.84375 349.34064Q297.26562 349.59064 296.53125 349.59064Q295.3125 349.59064 294.67188 349.09064Q294.04688 348.575 293.875 347.59064ZM304.35938 348.6844Q303.76562 349.1844 303.21875 349.3875Q302.6875 349.59064 302.0625 349.59064Q301.03125 349.59064 300.48438 349.09064Q299.9375 348.59064 299.9375 347.8094Q299.9375 347.35626 300.14062 346.98126Q300.34375 346.59064 300.6875 346.3719Q301.03125 346.1375 301.45312 346.02814Q301.75 345.9344 302.39062 345.85626Q303.65625 345.71564 304.26562 345.4969Q304.26562 345.27814 304.26562 345.23126Q304.26562 344.575 303.96875 344.3094Q303.5625 343.96564 302.76562 343.96564Q302.03125 343.96564 301.67188 344.23126Q301.3125 344.48126 301.14062 345.1375L300.10938 344.9969Q300.25 344.34064 300.57812 343.9344Q300.90625 343.52814 301.51562 343.3094Q302.125 343.09064 302.92188 343.09064Q303.71875 343.09064 304.21875 343.27814Q304.71875 343.46564 304.95312 343.7469Q305.1875 344.02814 305.28125 344.46564Q305.32812 344.73126 305.32812 345.4344L305.32812 346.84064Q305.32812 348.3094 305.39062 348.7Q305.46875 349.09064 305.67188 349.45L304.5625 349.45Q304.40625 349.1219 304.35938 348.6844ZM304.26562 346.325Q303.6875 346.5594 302.54688 346.73126Q301.89062 346.825 301.625 346.95Q301.35938 347.0594 301.20312 347.27814Q301.0625 347.4969 301.0625 347.77814Q301.0625 348.2 301.375 348.48126Q301.70312 348.7625 302.3125 348.7625Q302.92188 348.7625 303.39062 348.4969Q303.875 348.23126 304.09375 347.7625Q304.26562 347.40314 304.26562 346.71564L304.26562 346.325ZM307.09375 349.96564L308.125 350.1219Q308.1875 350.59064 308.48438 350.8094Q308.875 351.10626 309.54688 351.10626Q310.28125 351.10626 310.67188 350.8094Q311.07812 350.5125 311.21875 349.9969Q311.3125 349.66876 311.29688 348.6375Q310.60938 349.45 309.57812 349.45Q308.29688 349.45 307.59375 348.52814Q306.89062 347.59064 306.89062 346.3094Q306.89062 345.41876 307.20312 344.66876Q307.53125 343.90314 308.14062 343.4969Q308.75 343.09064 309.57812 343.09064Q310.6875 343.09064 311.40625 343.98126L311.40625 343.23126L312.375 343.23126L312.375 348.60626Q312.375 350.0594 312.07812 350.66876Q311.78125 351.27814 311.14062 351.6219Q310.5 351.98126 309.5625 351.98126Q308.45312 351.98126 307.76562 351.48126Q307.07812 350.98126 307.09375 349.96564ZM307.96875 346.23126Q307.96875 347.45 308.45312 348.0125Q308.9375 348.575 309.67188 348.575Q310.40625 348.575 310.89062 348.0125Q311.39062 347.45 311.39062 346.2625Q311.39062 345.1219 310.875 344.54376Q310.375 343.96564 309.65625 343.96564Q308.95312 343.96564 308.45312 344.54376Q307.96875 345.10626 307.96875 346.23126ZM318.54688 347.45L319.64062 347.575Q319.39062 348.52814 318.6875 349.0594Q317.98438 349.59064 316.90625 349.59064Q315.54688 349.59064 314.73438 348.7469Q313.9375 347.90314 313.9375 346.3875Q313.9375 344.825 314.75 343.96564Q315.5625 343.09064 316.84375 343.09064Q318.09375 343.09064 318.875 343.9344Q319.67188 344.77814 319.67188 346.325Q319.67188 346.41876 319.67188 346.60626L315.03125 346.60626Q315.09375 347.6375 315.60938 348.1844Q316.125 348.71564 316.90625 348.71564Q317.48438 348.71564 317.89062 348.41876Q318.3125 348.10626 318.54688 347.45ZM315.09375 345.7469L318.5625 345.7469Q318.5 344.95 318.17188 344.5594Q317.65625 343.95 316.85938 343.95Q316.125 343.95 315.625 344.4344Q315.14062 344.91876 315.09375 345.7469ZM324.04688 346.6844L325.10938 346.59064Q325.1875 347.2469 325.46875 347.65314Q325.75 348.0594 326.32812 348.325Q326.92188 348.575 327.65625 348.575Q328.29688 348.575 328.79688 348.3875Q329.29688 348.1844 329.53125 347.85626Q329.78125 347.5125 329.78125 347.1219Q329.78125 346.71564 329.54688 346.41876Q329.3125 346.10626 328.78125 345.90314Q328.42188 345.7625 327.23438 345.48126Q326.0625 345.2 325.59375 344.95Q324.96875 344.6219 324.67188 344.15314Q324.375 343.66876 324.375 343.075Q324.375 342.4344 324.73438 341.8719Q325.10938 341.29376 325.8125 341.0125Q326.53125 340.71564 327.39062 340.71564Q328.34375 340.71564 329.07812 341.02814Q329.8125 341.325 330.20312 341.9344Q330.59375 342.52814 330.625 343.27814L329.53125 343.35626Q329.4375 342.54376 328.92188 342.1375Q328.42188 341.71564 327.4375 341.71564Q326.40625 341.71564 325.9375 342.09064Q325.46875 342.46564 325.46875 342.9969Q325.46875 343.46564 325.79688 343.7625Q326.125 344.0594 327.5 344.3719Q328.89062 344.6844 329.40625 344.91876Q330.15625 345.27814 330.51562 345.8094Q330.875 346.325 330.875 347.02814Q330.875 347.71564 330.48438 348.325Q330.09375 348.91876 329.35938 349.2625Q328.625 349.59064 327.70312 349.59064Q326.53125 349.59064 325.73438 349.2625Q324.95312 348.91876 324.5 348.23126Q324.0625 347.54376 324.04688 346.6844ZM332.29688 342.075L332.29688 340.85626L333.35938 340.85626L333.35938 342.075L332.29688 342.075ZM332.29688 349.45L332.29688 343.23126L333.35938 343.23126L333.35938 349.45L332.29688 349.45ZM334.73438 349.45L334.73438 348.59064L338.70312 344.04376Q338.01562 344.075 337.5 344.075L334.96875 344.075L334.96875 343.23126L340.0625 343.23126L340.0625 343.91876L336.6875 347.8719L336.03125 348.59064Q336.75 348.54376 337.35938 348.54376L340.25 348.54376L340.25 349.45L334.73438 349.45ZM345.54688 347.45L346.64062 347.575Q346.39062 348.52814 345.6875 349.0594Q344.98438 349.59064 343.90625 349.59064Q342.54688 349.59064 341.73438 348.7469Q340.9375 347.90314 340.9375 346.3875Q340.9375 344.825 341.75 343.96564Q342.5625 343.09064 343.84375 343.09064Q345.09375 343.09064 345.875 343.9344Q346.67188 344.77814 346.67188 346.325Q346.67188 346.41876 346.67188 346.60626L342.03125 346.60626Q342.09375 347.6375 342.60938 348.1844Q343.125 348.71564 343.90625 348.71564Q344.48438 348.71564 344.89062 348.41876Q345.3125 348.10626 345.54688 347.45ZM342.09375 345.7469L345.5625 345.7469Q345.5 344.95 345.17188 344.5594Q344.65625 343.95 343.85938 343.95Q343.125 343.95 342.625 344.4344Q342.14062 344.91876 342.09375 345.7469ZM353.3125 351.98126Q352.4375 350.8719 351.82812 349.40314Q351.23438 347.91876 351.23438 346.34064Q351.23438 344.95 351.67188 343.66876Q352.20312 342.1844 353.3125 340.71564L354.0625 340.71564Q353.35938 341.9344 353.125 342.45Q352.76562 343.2625 352.5625 344.1375Q352.3125 345.23126 352.3125 346.34064Q352.3125 349.16876 354.0625 351.98126L353.3125 351.98126ZM355.375 349.45L355.375 340.85626L358.60938 340.85626Q359.59375 340.85626 360.1875 341.1219Q360.78125 341.3875 361.10938 341.9344Q361.45312 342.46564 361.45312 343.0594Q361.45312 343.60626 361.15625 344.09064Q360.85938 344.575 360.25 344.8719Q361.03125 345.10626 361.4375 345.66876Q361.85938 346.21564 361.85938 346.96564Q361.85938 347.5594 361.60938 348.09064Q361.35938 348.60626 360.98438 348.8875Q360.60938 349.16876 360.03125 349.3094Q359.46875 349.45 358.65625 349.45L355.375 349.45ZM356.51562 344.46564L358.375 344.46564Q359.125 344.46564 359.45312 344.3719Q359.89062 344.2469 360.10938 343.95Q360.32812 343.6375 360.32812 343.1844Q360.32812 342.7625 360.125 342.4344Q359.92188 342.10626 359.53125 341.9969Q359.15625 341.8719 358.23438 341.8719L356.51562 341.8719L356.51562 344.46564ZM356.51562 348.4344L358.65625 348.4344Q359.20312 348.4344 359.42188 348.3875Q359.82812 348.325 360.07812 348.16876Q360.34375 347.9969 360.51562 347.6844Q360.6875 347.3719 360.6875 346.96564Q360.6875 346.48126 360.4375 346.1219Q360.20312 345.7625 359.76562 345.6219Q359.32812 345.48126 358.5 345.48126L356.51562 345.48126L356.51562 348.4344ZM363.25 351.84064L363.125 350.85626Q363.46875 350.95 363.73438 350.95Q364.07812 350.95 364.28125 350.825Q364.5 350.71564 364.64062 350.5125Q364.73438 350.34064 364.96875 349.71564Q364.98438 349.6375 365.0625 349.46564L362.6875 343.23126L363.82812 343.23126L365.125 346.825Q365.375 347.5125 365.57812 348.27814Q365.76562 347.54376 366.01562 346.85626L367.34375 343.23126L368.39062 343.23126L366.03125 349.5594Q365.64062 350.575 365.4375 350.96564Q365.15625 351.4969 364.78125 351.73126Q364.42188 351.98126 363.92188 351.98126Q363.625 351.98126 363.25 351.84064ZM371.59375 348.5125L371.75 349.4344Q371.29688 349.52814 370.95312 349.52814Q370.375 349.52814 370.0625 349.35626Q369.75 349.16876 369.60938 348.8719Q369.48438 348.575 369.48438 347.6219L369.48438 344.04376L368.71875 344.04376L368.71875 343.23126L369.48438 343.23126L369.48438 341.6844L370.53125 341.0594L370.53125 343.23126L371.59375 343.23126L371.59375 344.04376L370.53125 344.04376L370.53125 347.6844Q370.53125 348.1375 370.57812 348.2625Q370.64062 348.3875 370.76562 348.46564Q370.89062 348.54376 371.125 348.54376Q371.3125 348.54376 371.59375 348.5125ZM376.54688 347.45L377.64062 347.575Q377.39062 348.52814 376.6875 349.0594Q375.98438 349.59064 374.90625 349.59064Q373.54688 349.59064 372.73438 348.7469Q371.9375 347.90314 371.9375 346.3875Q371.9375 344.825 372.75 343.96564Q373.5625 343.09064 374.84375 343.09064Q376.09375 343.09064 376.875 343.9344Q377.67188 344.77814 377.67188 346.325Q377.67188 346.41876 377.67188 346.60626L373.03125 346.60626Q373.09375 347.6375 373.60938 348.1844Q374.125 348.71564 374.90625 348.71564Q375.48438 348.71564 375.89062 348.41876Q376.3125 348.10626 376.54688 347.45ZM373.09375 345.7469L376.5625 345.7469Q376.5 344.95 376.17188 344.5594Q375.65625 343.95 374.85938 343.95Q374.125 343.95 373.625 344.4344Q373.14062 344.91876 373.09375 345.7469ZM378.875 347.59064L379.90625 347.4344Q380.0 348.0594 380.39062 348.3875Q380.79688 348.71564 381.53125 348.71564Q382.25 348.71564 382.59375 348.4344Q382.95312 348.1375 382.95312 347.73126Q382.95312 347.3719 382.64062 347.16876Q382.42188 347.02814 381.5625 346.8094Q380.40625 346.5125 379.95312 346.3094Q379.51562 346.09064 379.28125 345.71564Q379.04688 345.34064 379.04688 344.8719Q379.04688 344.46564 379.23438 344.10626Q379.42188 343.7469 379.75 343.5125Q380.0 343.34064 380.42188 343.21564Q380.84375 343.09064 381.34375 343.09064Q382.0625 343.09064 382.60938 343.3094Q383.17188 343.5125 383.4375 343.8719Q383.70312 344.23126 383.79688 344.825L382.76562 344.96564Q382.70312 344.4969 382.35938 344.23126Q382.03125 343.95 381.40625 343.95Q380.6875 343.95 380.375 344.2Q380.0625 344.4344 380.0625 344.7625Q380.0625 344.96564 380.1875 345.1219Q380.32812 345.29376 380.59375 345.40314Q380.75 345.46564 381.53125 345.66876Q382.65625 345.98126 383.09375 346.16876Q383.53125 346.35626 383.78125 346.71564Q384.03125 347.075 384.03125 347.6219Q384.03125 348.15314 383.71875 348.6219Q383.42188 349.075 382.84375 349.34064Q382.26562 349.59064 381.53125 349.59064Q380.3125 349.59064 379.67188 349.09064Q379.04688 348.575 378.875 347.59064ZM385.98438 351.98126L385.23438 351.98126Q386.98438 349.16876 386.98438 346.34064Q386.98438 345.2469 386.73438 344.15314Q386.53125 343.27814 386.17188 342.46564Q385.9375 341.95 385.23438 340.71564L385.98438 340.71564Q387.07812 342.1844 387.60938 343.66876Q388.0625 344.95 388.0625 346.34064Q388.0625 347.91876 387.45312 349.40314Q386.84375 350.8719 385.98438 351.98126Z" fill-rule="nonzero"/><path fill="#000000" d="M29.550013 276.74167L20.956263 276.74167L20.956263 275.60104L28.534388 275.60104L28.534388 271.36667L29.550013 271.36667L29.550013 276.74167ZM28.784388 265.7573Q29.284388 266.35104 29.487513 266.89792Q29.690638 267.42917 29.690638 268.05417Q29.690638 269.08542 29.190638 269.6323Q28.690638 270.17917 27.909388 270.17917Q27.456263 270.17917 27.081263 269.97604Q26.690638 269.77292 26.471888 269.42917Q26.237513 269.08542 26.128138 268.66354Q26.034388 268.36667 25.956263 267.72604Q25.815638 266.46042 25.596888 265.85104Q25.378138 265.85104 25.331263 265.85104Q24.675013 265.85104 24.409388 266.14792Q24.065638 266.55417 24.065638 267.35104Q24.065638 268.08542 24.331263 268.4448Q24.581263 268.80417 25.237513 268.97604L25.096888 270.0073Q24.440638 269.86667 24.034388 269.53854Q23.628138 269.21042 23.409388 268.60104Q23.190638 267.99167 23.190638 267.1948Q23.190638 266.39792 23.378138 265.89792Q23.565638 265.39792 23.846888 265.16354Q24.128138 264.92917 24.565638 264.83542Q24.831263 264.78854 25.534388 264.78854L26.940638 264.78854Q28.409388 264.78854 28.800013 264.72604Q29.190638 264.64792 29.550013 264.4448L29.550013 265.55417Q29.221888 265.71042 28.784388 265.7573ZM26.425013 265.85104Q26.659388 266.42917 26.831263 267.5698Q26.925013 268.22604 27.050013 268.49167Q27.159388 268.7573 27.378138 268.91354Q27.596888 269.05417 27.878138 269.05417Q28.300013 269.05417 28.581263 268.74167Q28.862513 268.41354 28.862513 267.80417Q28.862513 267.1948 28.596888 266.72604Q28.331263 266.24167 27.862513 266.02292Q27.503138 265.85104 26.815638 265.85104L26.425013 265.85104ZM28.612513 260.52292L29.534388 260.36667Q29.628138 260.8198 29.628138 261.16354Q29.628138 261.74167 29.456263 262.05417Q29.268763 262.36667 28.971888 262.5073Q28.675013 262.6323 27.721888 262.6323L24.143763 262.6323L24.143763 263.39792L23.331263 263.39792L23.331263 262.6323L21.784388 262.6323L21.159388 261.58542L23.331263 261.58542L23.331263 260.52292L24.143763 260.52292L24.143763 261.58542L27.784388 261.58542Q28.237513 261.58542 28.362513 261.53854Q28.487513 261.47604 28.565638 261.35104Q28.643763 261.22604 28.643763 260.99167Q28.643763 260.80417 28.612513 260.52292ZM27.550013 255.5698L27.675013 254.47604Q28.628138 254.72604 29.159388 255.42917Q29.690638 256.1323 29.690638 257.21042Q29.690638 258.5698 28.846888 259.3823Q28.003138 260.17917 26.487513 260.17917Q24.925013 260.17917 24.065638 259.36667Q23.190638 258.55417 23.190638 257.27292Q23.190638 256.02292 24.034388 255.24167Q24.878138 254.4448 26.425013 254.4448Q26.518763 254.4448 26.706263 254.4448L26.706263 259.08542Q27.737513 259.02292 28.284388 258.5073Q28.815638 257.99167 28.815638 257.21042Q28.815638 256.6323 28.518763 256.22604Q28.206263 255.80417 27.550013 255.5698ZM25.846888 259.02292L25.846888 255.55417Q25.050013 255.61667 24.659388 255.9448Q24.050013 256.46042 24.050013 257.2573Q24.050013 257.99167 24.534388 258.49167Q25.018763 258.97604 25.846888 259.02292ZM29.550013 252.8198L23.331263 252.8198L23.331263 251.8823L24.206263 251.8823Q23.190638 251.1948 23.190638 249.89792Q23.190638 249.33542 23.393763 248.86667Q23.596888 248.3823 23.925013 248.14792Q24.253138 247.91354 24.690638 247.8198Q24.987513 247.77292 25.721888 247.77292L29.550013 247.77292L29.550013 248.8198L25.768763 248.8198Q25.112513 248.8198 24.800013 248.9448Q24.487513 249.0698 24.300013 249.3823Q24.096888 249.6948 24.096888 250.11667Q24.096888 250.78854 24.534388 251.28854Q24.956263 251.77292 26.143763 251.77292L29.550013 251.77292L29.550013 252.8198ZM27.268763 241.7573L27.409388 240.72604Q28.471888 240.89792 29.081263 241.60104Q29.690638 242.30417 29.690638 243.3198Q29.690638 244.60104 28.862513 245.3823Q28.018763 246.14792 26.456263 246.14792Q25.456263 246.14792 24.706263 245.8198Q23.940638 245.47604 23.565638 244.80417Q23.190638 244.11667 23.190638 243.30417Q23.190638 242.30417 23.706263 241.66354Q24.206263 241.0073 25.159388 240.8198L25.315638 241.85104Q24.690638 241.99167 24.378138 242.36667Q24.050013 242.74167 24.050013 243.27292Q24.050013 244.0698 24.628138 244.5698Q25.190638 245.0698 26.425013 245.0698Q27.690638 245.0698 28.253138 244.58542Q28.815638 244.10104 28.815638 243.33542Q28.815638 242.71042 28.440638 242.30417Q28.065638 241.8823 27.268763 241.7573ZM31.940638 239.86667L30.956263 239.99167Q31.050013 239.64792 31.050013 239.3823Q31.050013 239.03854 30.925013 238.83542Q30.815638 238.61667 30.612513 238.47604Q30.440638 238.3823 29.815638 238.14792Q29.737513 238.1323 29.565638 238.05417L23.331263 240.42917L23.331263 239.28854L26.925013 237.99167Q27.612513 237.74167 28.378138 237.53854Q27.643763 237.35104 26.956263 237.10104L23.331263 235.77292L23.331263 234.72604L29.659388 237.08542Q30.675013 237.47604 31.065638 237.67917Q31.596888 237.96042 31.831263 238.33542Q32.08126 238.6948 32.08126 239.1948Q32.08126 239.49167 31.940638 239.86667ZM32.08126 228.80417Q30.971888 229.67917 29.503138 230.28854Q28.018763 230.8823 26.440638 230.8823Q25.050013 230.8823 23.768763 230.4448Q22.284388 229.91354 20.815638 228.80417L20.815638 228.05417Q22.034388 228.7573 22.550013 228.99167Q23.362513 229.35104 24.237513 229.55417Q25.331263 229.80417 26.440638 229.80417Q29.268763 229.80417 32.08126 228.05417L32.08126 228.80417ZM29.550013 226.72604L20.956263 226.72604L20.956263 225.0073L27.034388 222.97604Q27.893763 222.6948 28.315638 222.5698Q27.846888 222.42917 26.940638 222.11667L20.956263 220.05417L20.956263 218.52292L29.550013 218.52292L29.550013 219.61667L22.362513 219.61667L29.550013 222.11667L29.550013 223.14792L22.237513 225.6323L29.550013 225.6323L29.550013 226.72604ZM22.175013 216.8198L20.956263 216.8198L20.956263 215.7573L22.175013 215.7573L22.175013 216.8198ZM29.550013 216.8198L23.331263 216.8198L23.331263 215.7573L29.550013 215.7573L29.550013 216.8198ZM27.268763 209.7573L27.409388 208.72604Q28.471888 208.89792 29.081263 209.60104Q29.690638 210.30417 29.690638 211.3198Q29.690638 212.60104 28.862513 213.3823Q28.018763 214.14792 26.456263 214.14792Q25.456263 214.14792 24.706263 213.8198Q23.940638 213.47604 23.565638 212.80417Q23.190638 212.11667 23.190638 211.30417Q23.190638 210.30417 23.706263 209.66354Q24.206263 209.0073 25.159388 208.8198L25.315638 209.85104Q24.690638 209.99167 24.378138 210.36667Q24.050013 210.74167 24.050013 211.27292Q24.050013 212.0698 24.628138 212.5698Q25.190638 213.0698 26.425013 213.0698Q27.690638 213.0698 28.253138 212.58542Q28.815638 212.10104 28.815638 211.33542Q28.815638 210.71042 28.440638 210.30417Q28.065638 209.8823 27.268763 209.7573ZM29.550013 207.83542L23.331263 207.83542L23.331263 206.8823L24.268763 206.8823Q23.612513 206.52292 23.409388 206.22604Q23.190638 205.91354 23.190638 205.53854Q23.190638 205.0073 23.518763 204.46042L24.503138 204.8198Q24.268763 205.21042 24.268763 205.58542Q24.268763 205.9448 24.487513 206.22604Q24.690638 206.49167 25.065638 206.60104Q25.628138 206.78854 26.284388 206.78854L29.550013 206.78854L29.550013 207.83542ZM26.440638 204.21042Q24.706263 204.21042 23.878138 203.2573Q23.190638 202.46042 23.190638 201.30417Q23.190638 200.02292 24.034388 199.21042Q24.862513 198.3823 26.346888 198.3823Q27.550013 198.3823 28.237513 198.74167Q28.925013 199.10104 29.315638 199.80417Q29.690638 200.49167 29.690638 201.30417Q29.690638 202.60104 28.862513 203.41354Q28.018763 204.21042 26.440638 204.21042ZM26.440638 203.1323Q27.628138 203.1323 28.221888 202.61667Q28.815638 202.08542 28.815638 201.30417Q28.815638 200.5073 28.221888 199.99167Q27.628138 199.47604 26.409388 199.47604Q25.253138 199.47604 24.659388 200.0073Q24.065638 200.52292 24.065638 201.30417Q24.065638 202.08542 24.659388 202.61667Q25.237513 203.1323 26.440638 203.1323ZM27.690638 197.24167L27.534388 196.21042Q28.159388 196.11667 28.487513 195.72604Q28.815638 195.3198 28.815638 194.58542Q28.815638 193.86667 28.534388 193.52292Q28.237513 193.16354 27.831263 193.16354Q27.471888 193.16354 27.268763 193.47604Q27.128138 193.6948 26.909388 194.55417Q26.612513 195.71042 26.409388 196.16354Q26.190638 196.60104 25.815638 196.83542Q25.440638 197.0698 24.971888 197.0698Q24.565638 197.0698 24.206263 196.8823Q23.846888 196.6948 23.612513 196.36667Q23.440638 196.11667 23.315638 195.6948Q23.190638 195.27292 23.190638 194.77292Q23.190638 194.05417 23.409388 193.5073Q23.612513 192.9448 23.971888 192.67917Q24.331263 192.41354 24.925013 192.3198L25.065638 193.35104Q24.596888 193.41354 24.331263 193.7573Q24.050013 194.08542 24.050013 194.71042Q24.050013 195.42917 24.300013 195.74167Q24.534388 196.05417 24.862513 196.05417Q25.065638 196.05417 25.221888 195.92917Q25.393763 195.78854 25.503138 195.52292Q25.565638 195.36667 25.768763 194.58542Q26.081263 193.46042 26.268763 193.02292Q26.456263 192.58542 26.815638 192.33542Q27.175013 192.08542 27.721888 192.08542Q28.253138 192.08542 28.721888 192.39792Q29.175013 192.6948 29.440638 193.27292Q29.690638 193.85104 29.690638 194.58542Q29.690638 195.80417 29.190638 196.4448Q28.675013 197.0698 27.690638 197.24167ZM27.550013 186.5698L27.675013 185.47604Q28.628138 185.72604 29.159388 186.42917Q29.690638 187.1323 29.690638 188.21042Q29.690638 189.5698 28.846888 190.3823Q28.003138 191.17917 26.487513 191.17917Q24.925013 191.17917 24.065638 190.36667Q23.190638 189.55417 23.190638 188.27292Q23.190638 187.02292 24.034388 186.24167Q24.878138 185.4448 26.425013 185.4448Q26.518763 185.4448 26.706263 185.4448L26.706263 190.08542Q27.737513 190.02292 28.284388 189.5073Q28.815638 188.99167 28.815638 188.21042Q28.815638 187.6323 28.518763 187.22604Q28.206263 186.80417 27.550013 186.5698ZM25.846888 190.02292L25.846888 186.55417Q25.050013 186.61667 24.659388 186.9448Q24.050013 187.46042 24.050013 188.2573Q24.050013 188.99167 24.534388 189.49167Q25.018763 189.97604 25.846888 190.02292ZM27.268763 179.7573L27.409388 178.72604Q28.471888 178.89792 29.081263 179.60104Q29.690638 180.30417 29.690638 181.3198Q29.690638 182.60104 28.862513 183.3823Q28.018763 184.14792 26.456263 184.14792Q25.456263 184.14792 24.706263 183.8198Q23.940638 183.47604 23.565638 182.80417Q23.190638 182.11667 23.190638 181.30417Q23.190638 180.30417 23.706263 179.66354Q24.206263 179.0073 25.159388 178.8198L25.315638 179.85104Q24.690638 179.99167 24.378138 180.36667Q24.050013 180.74167 24.050013 181.27292Q24.050013 182.0698 24.628138 182.5698Q25.190638 183.0698 26.425013 183.0698Q27.690638 183.0698 28.253138 182.58542Q28.815638 182.10104 28.815638 181.33542Q28.815638 180.71042 28.440638 180.30417Q28.065638 179.8823 27.268763 179.7573ZM26.440638 178.21042Q24.706263 178.21042 23.878138 177.2573Q23.190638 176.46042 23.190638 175.30417Q23.190638 174.02292 24.034388 173.21042Q24.862513 172.3823 26.346888 172.3823Q27.550013 172.3823 28.237513 172.74167Q28.925013 173.10104 29.315638 173.80417Q29.690638 174.49167 29.690638 175.30417Q29.690638 176.60104 28.862513 177.41354Q28.018763 178.21042 26.440638 178.21042ZM26.440638 177.1323Q27.628138 177.1323 28.221888 176.61667Q28.815638 176.08542 28.815638 175.30417Q28.815638 174.5073 28.221888 173.99167Q27.628138 173.47604 26.409388 173.47604Q25.253138 173.47604 24.659388 174.0073Q24.065638 174.52292 24.065638 175.30417Q24.065638 176.08542 24.659388 176.61667Q25.237513 177.1323 26.440638 177.1323ZM29.550013 170.8198L23.331263 170.8198L23.331263 169.8823L24.206263 169.8823Q23.190638 169.1948 23.190638 167.89792Q23.190638 167.33542 23.393763 166.86667Q23.596888 166.3823 23.925013 166.14792Q24.253138 165.91354 24.690638 165.8198Q24.987513 165.77292 25.721888 165.77292L29.550013 165.77292L29.550013 166.8198L25.768763 166.8198Q25.112513 166.8198 24.800013 166.9448Q24.487513 167.0698 24.300013 167.3823Q24.096888 167.6948 24.096888 168.11667Q24.096888 168.78854 24.534388 169.28854Q24.956263 169.77292 26.143763 169.77292L29.550013 169.77292L29.550013 170.8198ZM29.550013 159.78854L28.768763 159.78854Q29.690638 160.3823 29.690638 161.52292Q29.690638 162.27292 29.284388 162.89792Q28.862513 163.52292 28.128138 163.86667Q27.393763 164.21042 26.440638 164.21042Q25.518763 164.21042 24.753138 163.89792Q23.987513 163.58542 23.596888 162.96042Q23.190638 162.33542 23.190638 161.5698Q23.190638 161.0073 23.425013 160.5698Q23.659388 160.1323 24.034388 159.85104L20.956263 159.85104L20.956263 158.80417L29.550013 158.80417L29.550013 159.78854ZM26.440638 163.11667Q27.643763 163.11667 28.237513 162.61667Q28.815638 162.11667 28.815638 161.42917Q28.815638 160.74167 28.253138 160.2573Q27.690638 159.77292 26.534388 159.77292Q25.253138 159.77292 24.659388 160.27292Q24.065638 160.7573 24.065638 161.47604Q24.065638 162.17917 24.643763 162.64792Q25.206263 163.11667 26.440638 163.11667ZM27.690638 157.24167L27.534388 156.21042Q28.159388 156.11667 28.487513 155.72604Q28.815638 155.3198 28.815638 154.58542Q28.815638 153.86667 28.534388 153.52292Q28.237513 153.16354 27.831263 153.16354Q27.471888 153.16354 27.268763 153.47604Q27.128138 153.6948 26.909388 154.55417Q26.612513 155.71042 26.409388 156.16354Q26.190638 156.60104 25.815638 156.83542Q25.440638 157.0698 24.971888 157.0698Q24.565638 157.0698 24.206263 156.8823Q23.846888 156.6948 23.612513 156.36667Q23.440638 156.11667 23.315638 155.6948Q23.190638 155.27292 23.190638 154.77292Q23.190638 154.05417 23.409388 153.5073Q23.612513 152.9448 23.971888 152.67917Q24.331263 152.41354 24.925013 152.3198L25.065638 153.35104Q24.596888 153.41354 24.331263 153.7573Q24.050013 154.08542 24.050013 154.71042Q24.050013 155.42917 24.300013 155.74167Q24.534388 156.05417 24.862513 156.05417Q25.065638 156.05417 25.221888 155.92917Q25.393763 155.78854 25.503138 155.52292Q25.565638 155.36667 25.768763 154.58542Q26.081263 153.46042 26.268763 153.02292Q26.456263 152.58542 26.815638 152.33542Q27.175013 152.08542 27.721888 152.08542Q28.253138 152.08542 28.721888 152.39792Q29.175013 152.6948 29.440638 153.27292Q29.690638 153.85104 29.690638 154.58542Q29.690638 155.80417 29.190638 156.4448Q28.675013 157.0698 27.690638 157.24167ZM32.08126 150.1323L32.08126 150.8823Q29.268763 149.1323 26.440638 149.1323Q25.346888 149.1323 24.253138 149.3823Q23.378138 149.58542 22.565638 149.9448Q22.050013 150.17917 20.815638 150.8823L20.815638 150.1323Q22.284388 149.03854 23.768763 148.5073Q25.050013 148.05417 26.440638 148.05417Q28.018763 148.05417 29.503138 148.66354Q30.971888 149.27292 32.08126 150.1323Z" fill-rule="nonzero"/><path fill="#000000" d="M65.05 300.21564Q65.05 298.6844 65.3625 297.7625Q65.675 296.825 66.28438 296.325Q66.90938 295.825 67.84688 295.825Q68.53438 295.825 69.05 296.10626Q69.58125 296.3875 69.925 296.91876Q70.26875 297.4344 70.45625 298.1844Q70.64375 298.9344 70.64375 300.21564Q70.64375 301.73126 70.33125 302.65314Q70.03438 303.575 69.40938 304.09064Q68.8 304.59064 67.84688 304.59064Q66.6125 304.59064 65.89375 303.7Q65.05 302.6375 65.05 300.21564ZM66.12813 300.21564Q66.12813 302.325 66.62813 303.02814Q67.12813 303.73126 67.84688 303.73126Q68.58125 303.73126 69.06563 303.02814Q69.56563 302.325 69.56563 300.21564Q69.56563 298.09064 69.06563 297.40314Q68.58125 296.7 67.83125 296.7Q67.1125 296.7 66.675 297.3094Q66.12813 298.09064 66.12813 300.21564Z" fill-rule="nonzero"/><path fill="#000000" d="M55.01875 259.21338L53.971874 259.21338L53.971874 252.49463Q53.58125 252.854 52.95625 253.229Q52.346874 253.58838 51.8625 253.76025L51.8625 252.74463Q52.7375 252.32275 53.39375 251.74463Q54.065624 251.15088 54.346874 250.58838L55.01875 250.58838L55.01875 259.21338ZM58.05 254.979Q58.05 253.44775 58.3625 252.52588Q58.675 251.58838 59.284374 251.08838Q59.909374 250.58838 60.846874 250.58838Q61.534374 250.58838 62.05 250.86963Q62.58125 251.15088 62.925 251.68213Q63.26875 252.19775 63.45625 252.94775Q63.64375 253.69775 63.64375 254.979Q63.64375 256.49463 63.33125 257.4165Q63.034374 258.33838 62.409374 258.854Q61.8 259.354 60.846874 259.354Q59.6125 259.354 58.89375 258.46338Q58.05 257.40088 58.05 254.979ZM59.128124 254.979Q59.128124 257.08838 59.628124 257.7915Q60.128124 258.49463 60.846874 258.49463Q61.58125 258.49463 62.065624 257.7915Q62.565624 257.08838 62.565624 254.979Q62.565624 252.854 62.065624 252.1665Q61.58125 251.46338 60.83125 251.46338Q60.1125 251.46338 59.675 252.07275Q59.128124 252.854 59.128124 254.979ZM65.05 254.979Q65.05 253.44775 65.3625 252.52588Q65.675 251.58838 66.28438 251.08838Q66.90938 250.58838 67.84688 250.58838Q68.53438 250.58838 69.05 250.86963Q69.58125 251.15088 69.925 251.68213Q70.26875 252.19775 70.45625 252.94775Q70.64375 253.69775 70.64375 254.979Q70.64375 256.49463 70.33125 257.4165Q70.03438 258.33838 69.40938 258.854Q68.8 259.354 67.84688 259.354Q66.6125 259.354 65.89375 258.46338Q65.05 257.40088 65.05 254.979ZM66.12813 254.979Q66.12813 257.08838 66.62813 257.7915Q67.12813 258.49463 67.84688 258.49463Q68.58125 258.49463 69.06563 257.7915Q69.56563 257.08838 69.56563 254.979Q69.56563 252.854 69.06563 252.1665Q68.58125 251.46338 67.83125 251.46338Q67.1125 251.46338 66.675 252.07275Q66.12813 252.854 66.12813 254.979Z" fill-rule="nonzero"/><path fill="#000000" d="M56.596874 212.9611L56.596874 213.97673L50.909374 213.97673Q50.909374 213.60173 51.034374 213.24236Q51.253124 212.66423 51.721874 212.10173Q52.20625 211.53923 53.1125 210.80486Q54.51875 209.6486 55.003124 208.97673Q55.503124 208.30486 55.503124 207.7111Q55.503124 207.0861 55.05 206.66423Q54.596874 206.22673 53.878124 206.22673Q53.1125 206.22673 52.659374 206.67986Q52.20625 207.13298 52.190624 207.94548L51.1125 207.8361Q51.221874 206.61736 51.940624 205.99236Q52.675 205.35173 53.909374 205.35173Q55.14375 205.35173 55.8625 206.03923Q56.58125 206.72673 56.58125 207.74236Q56.58125 208.25798 56.3625 208.75798Q56.159374 209.24236 55.659374 209.80486Q55.175 210.35173 54.05 211.30486Q53.096874 212.10173 52.815624 212.3986Q52.55 212.67986 52.378124 212.9611L56.596874 212.9611ZM58.05 209.74236Q58.05 208.2111 58.3625 207.28923Q58.675 206.35173 59.284374 205.85173Q59.909374 205.35173 60.846874 205.35173Q61.534374 205.35173 62.05 205.63298Q62.58125 205.91423 62.925 206.44548Q63.26875 206.9611 63.45625 207.7111Q63.64375 208.4611 63.64375 209.74236Q63.64375 211.25798 63.33125 212.17986Q63.034374 213.10173 62.409374 213.61736Q61.8 214.11736 60.846874 214.11736Q59.6125 214.11736 58.89375 213.22673Q58.05 212.16423 58.05 209.74236ZM59.128124 209.74236Q59.128124 211.85173 59.628124 212.55486Q60.128124 213.25798 60.846874 213.25798Q61.58125 213.25798 62.065624 212.55486Q62.565624 211.85173 62.565624 209.74236Q62.565624 207.61736 62.065624 206.92986Q61.58125 206.22673 60.83125 206.22673Q60.1125 206.22673 59.675 206.8361Q59.128124 207.61736 59.128124 209.74236ZM65.05 209.74236Q65.05 208.2111 65.3625 207.28923Q65.675 206.35173 66.28438 205.85173Q66.90938 205.35173 67.84688 205.35173Q68.53438 205.35173 69.05 205.63298Q69.58125 205.91423 69.925 206.44548Q70.26875 206.9611 70.45625 207.7111Q70.64375 208.4611 70.64375 209.74236Q70.64375 211.25798 70.33125 212.17986Q70.03438 213.10173 69.40938 213.61736Q68.8 214.11736 67.84688 214.11736Q66.6125 214.11736 65.89375 213.22673Q65.05 212.16423 65.05 209.74236ZM66.12813 209.74236Q66.12813 211.85173 66.62813 212.55486Q67.12813 213.25798 67.84688 213.25798Q68.58125 213.25798 69.06563 212.55486Q69.56563 211.85173 69.56563 209.74236Q69.56563 207.61736 69.06563 206.92986Q68.58125 206.22673 67.83125 206.22673Q67.1125 206.22673 66.675 206.8361Q66.12813 207.61736 66.12813 209.74236Z" fill-rule="nonzero"/><path fill="#000000" d="M51.05 166.47447L52.1125 166.33385Q52.284374 167.22447 52.721874 167.63072Q53.159374 168.02135 53.784374 168.02135Q54.534374 168.02135 55.05 167.50572Q55.565624 166.9901 55.565624 166.22447Q55.565624 165.50572 55.08125 165.03697Q54.6125 164.5526 53.878124 164.5526Q53.58125 164.5526 53.128124 164.6776L53.253124 163.7401Q53.3625 163.75572 53.425 163.75572Q54.096874 163.75572 54.628124 163.41197Q55.175 163.0526 55.175 162.31822Q55.175 161.7401 54.784374 161.3651Q54.39375 160.97447 53.76875 160.97447Q53.159374 160.97447 52.7375 161.3651Q52.33125 161.75572 52.221874 162.52135L51.159374 162.33385Q51.346874 161.28697 52.034374 160.70885Q52.721874 160.1151 53.7375 160.1151Q54.440624 160.1151 55.034374 160.4276Q55.628124 160.72447 55.940624 161.2401Q56.253124 161.75572 56.253124 162.34947Q56.253124 162.89635 55.95625 163.3651Q55.659374 163.81822 55.08125 164.08385Q55.83125 164.25572 56.253124 164.81822Q56.675 165.3651 56.675 166.20885Q56.675 167.33385 55.846874 168.1151Q55.034374 168.89635 53.784374 168.89635Q52.659374 168.89635 51.909374 168.22447Q51.159374 167.53697 51.05 166.47447ZM58.05 164.50572Q58.05 162.97447 58.3625 162.0526Q58.675 161.1151 59.284374 160.6151Q59.909374 160.1151 60.846874 160.1151Q61.534374 160.1151 62.05 160.39635Q62.58125 160.6776 62.925 161.20885Q63.26875 161.72447 63.45625 162.47447Q63.64375 163.22447 63.64375 164.50572Q63.64375 166.02135 63.33125 166.94322Q63.034374 167.8651 62.409374 168.38072Q61.8 168.88072 60.846874 168.88072Q59.6125 168.88072 58.89375 167.9901Q58.05 166.9276 58.05 164.50572ZM59.128124 164.50572Q59.128124 166.6151 59.628124 167.31822Q60.128124 168.02135 60.846874 168.02135Q61.58125 168.02135 62.065624 167.31822Q62.565624 166.6151 62.565624 164.50572Q62.565624 162.38072 62.065624 161.69322Q61.58125 160.9901 60.83125 160.9901Q60.1125 160.9901 59.675 161.59947Q59.128124 162.38072 59.128124 164.50572ZM65.05 164.50572Q65.05 162.97447 65.3625 162.0526Q65.675 161.1151 66.28438 160.6151Q66.90938 160.1151 67.84688 160.1151Q68.53438 160.1151 69.05 160.39635Q69.58125 160.6776 69.925 161.20885Q70.26875 161.72447 70.45625 162.47447Q70.64375 163.22447 70.64375 164.50572Q70.64375 166.02135 70.33125 166.94322Q70.03438 167.8651 69.40938 168.38072Q68.8 168.88072 67.84688 168.88072Q66.6125 168.88072 65.89375 167.9901Q65.05 166.9276 65.05 164.50572ZM66.12813 164.50572Q66.12813 166.6151 66.62813 167.31822Q67.12813 168.02135 67.84688 168.02135Q68.58125 168.02135 69.06563 167.31822Q69.56563 166.6151 69.56563 164.50572Q69.56563 162.38072 69.06563 161.69322Q68.58125 160.9901 67.83125 160.9901Q67.1125 160.9901 66.675 161.59947Q66.12813 162.38072 66.12813 164.50572Z" fill-rule="nonzero"/><path fill="#000000" d="M54.425 123.50346L54.425 121.44096L50.70625 121.44096L50.70625 120.47221L54.628124 114.90971L55.4875 114.90971L55.4875 120.47221L56.64375 120.47221L56.64375 121.44096L55.4875 121.44096L55.4875 123.50346L54.425 123.50346ZM54.425 120.47221L54.425 116.61284L51.7375 120.47221L54.425 120.47221ZM58.05 119.26909Q58.05 117.73784 58.3625 116.81596Q58.675 115.87846 59.284374 115.37846Q59.909374 114.87846 60.846874 114.87846Q61.534374 114.87846 62.05 115.15971Q62.58125 115.44096 62.925 115.97221Q63.26875 116.48784 63.45625 117.23784Q63.64375 117.98784 63.64375 119.26909Q63.64375 120.78471 63.33125 121.70659Q63.034374 122.62846 62.409374 123.14409Q61.8 123.64409 60.846874 123.64409Q59.6125 123.64409 58.89375 122.75346Q58.05 121.69096 58.05 119.26909ZM59.128124 119.26909Q59.128124 121.37846 59.628124 122.08159Q60.128124 122.78471 60.846874 122.78471Q61.58125 122.78471 62.065624 122.08159Q62.565624 121.37846 62.565624 119.26909Q62.565624 117.14409 62.065624 116.45659Q61.58125 115.75346 60.83125 115.75346Q60.1125 115.75346 59.675 116.36284Q59.128124 117.14409 59.128124 119.26909ZM65.05 119.26909Q65.05 117.73784 65.3625 116.81596Q65.675 115.87846 66.28438 115.37846Q66.90938 114.87846 67.84688 114.87846Q68.53438 114.87846 69.05 115.15971Q69.58125 115.44096 69.925 115.97221Q70.26875 116.48784 70.45625 117.23784Q70.64375 117.98784 70.64375 119.26909Q70.64375 120.78471 70.33125 121.70659Q70.03438 122.62846 69.40938 123.14409Q68.8 123.64409 67.84688 123.64409Q66.6125 123.64409 65.89375 122.75346Q65.05 121.69096 65.05 119.26909ZM66.12813 119.26909Q66.12813 121.37846 66.62813 122.08159Q67.12813 122.78471 67.84688 122.78471Q68.58125 122.78471 69.06563 122.08159Q69.56563 121.37846 69.56563 119.26909Q69.56563 117.14409 69.06563 116.45659Q68.58125 115.75346 67.83125 115.75346Q67.1125 115.75346 66.675 116.36284Q66.12813 117.14409 66.12813 119.26909Z" fill-rule="nonzero"/><path fill="#000000" d="M160.15834 312.79376Q159.50209 312.54376 159.17397 312.10626Q158.86147 311.65314 158.86147 311.04376Q158.86147 310.10626 159.53334 309.46564Q160.22084 308.825 161.33022 308.825Q162.45522 308.825 163.14272 309.48126Q163.83022 310.1375 163.83022 311.075Q163.83022 311.66876 163.51772 312.10626Q163.20522 312.54376 162.56459 312.79376Q163.36147 313.04376 163.76772 313.6219Q164.17397 314.2 164.17397 314.9969Q164.17397 316.09064 163.39272 316.84064Q162.62709 317.59064 161.34584 317.59064Q160.08022 317.59064 159.29897 316.84064Q158.51772 316.09064 158.51772 314.96564Q158.51772 314.1219 158.93959 313.5594Q159.37709 312.9969 160.15834 312.79376ZM159.93959 310.9969Q159.93959 311.60626 160.33022 311.9969Q160.73647 312.3875 161.36147 312.3875Q161.97084 312.3875 162.36147 312.0125Q162.75209 311.6219 162.75209 311.0594Q162.75209 310.48126 162.34584 310.09064Q161.93959 309.6844 161.34584 309.6844Q160.73647 309.6844 160.33022 310.075Q159.93959 310.46564 159.93959 310.9969ZM159.61147 314.96564Q159.61147 315.41876 159.81459 315.84064Q160.03334 316.2625 160.45522 316.4969Q160.87709 316.73126 161.36147 316.73126Q162.11147 316.73126 162.59584 316.2469Q163.09584 315.7625 163.09584 315.0125Q163.09584 314.2469 162.59584 313.7469Q162.09584 313.2469 161.33022 313.2469Q160.58022 313.2469 160.09584 313.7469Q159.61147 314.23126 159.61147 314.96564Z" fill-rule="nonzero"/><path fill="#000000" d="M328.46875 310.96564L327.42188 311.04376Q327.28125 310.41876 327.03125 310.1375Q326.59375 309.6844 325.96875 309.6844Q325.46875 309.6844 325.07812 309.96564Q324.59375 310.34064 324.29688 311.04376Q324.01562 311.73126 324.0 313.0125Q324.375 312.4344 324.92188 312.15314Q325.48438 311.8719 326.09375 311.8719Q327.14062 311.8719 327.875 312.65314Q328.625 313.4344 328.625 314.65314Q328.625 315.46564 328.26562 316.16876Q327.92188 316.85626 327.3125 317.23126Q326.70312 317.59064 325.9375 317.59064Q324.60938 317.59064 323.78125 316.6219Q322.95312 315.65314 322.95312 313.4344Q322.95312 310.9344 323.875 309.8094Q324.67188 308.825 326.03125 308.825Q327.04688 308.825 327.6875 309.40314Q328.34375 309.96564 328.46875 310.96564ZM324.17188 314.66876Q324.17188 315.21564 324.39062 315.71564Q324.625 316.2 325.03125 316.46564Q325.45312 316.73126 325.92188 316.73126Q326.57812 316.73126 327.0625 316.2Q327.54688 315.65314 327.54688 314.73126Q327.54688 313.84064 327.0625 313.325Q326.59375 312.8094 325.875 312.8094Q325.15625 312.8094 324.65625 313.325Q324.17188 313.84064 324.17188 314.66876ZM333.375 317.45L333.375 315.3875L329.65625 315.3875L329.65625 314.41876L333.57812 308.85626L334.4375 308.85626L334.4375 314.41876L335.59375 314.41876L335.59375 315.3875L334.4375 315.3875L334.4375 317.45L333.375 317.45ZM333.375 314.41876L333.375 310.5594L330.6875 314.41876L333.375 314.41876Z" fill-rule="nonzero"/><path fill="#000000" d="M487.93542 317.45L486.88855 317.45L486.88855 310.73126Q486.49792 311.09064 485.87292 311.46564Q485.26355 311.825 484.77917 311.9969L484.77917 310.98126Q485.65417 310.5594 486.31042 309.98126Q486.9823 309.3875 487.26355 308.825L487.93542 308.825L487.93542 317.45ZM490.96667 313.21564Q490.96667 311.6844 491.27917 310.7625Q491.59167 309.825 492.20105 309.325Q492.82605 308.825 493.76355 308.825Q494.45105 308.825 494.96667 309.10626Q495.49792 309.3875 495.84167 309.91876Q496.18542 310.4344 496.37292 311.1844Q496.56042 311.9344 496.56042 313.21564Q496.56042 314.73126 496.24792 315.65314Q495.95105 316.575 495.32605 317.09064Q494.71667 317.59064 493.76355 317.59064Q492.52917 317.59064 491.81042 316.7Q490.96667 315.6375 490.96667 313.21564ZM492.0448 313.21564Q492.0448 315.325 492.5448 316.02814Q493.0448 316.73126 493.76355 316.73126Q494.49792 316.73126 494.9823 316.02814Q495.4823 315.325 495.4823 313.21564Q495.4823 311.09064 494.9823 310.40314Q494.49792 309.7 493.74792 309.7Q493.02917 309.7 492.59167 310.3094Q492.0448 311.09064 492.0448 313.21564ZM503.51355 316.4344L503.51355 317.45L497.82605 317.45Q497.82605 317.075 497.95105 316.71564Q498.1698 316.1375 498.63855 315.575Q499.12292 315.0125 500.02917 314.27814Q501.43542 313.1219 501.9198 312.45Q502.4198 311.77814 502.4198 311.1844Q502.4198 310.5594 501.96667 310.1375Q501.51355 309.7 500.7948 309.7Q500.02917 309.7 499.57605 310.15314Q499.12292 310.60626 499.1073 311.41876L498.02917 311.3094Q498.13855 310.09064 498.8573 309.46564Q499.59167 308.825 500.82605 308.825Q502.06042 308.825 502.77917 309.5125Q503.49792 310.2 503.49792 311.21564Q503.49792 311.73126 503.27917 312.23126Q503.07605 312.71564 502.57605 313.27814Q502.09167 313.825 500.96667 314.77814Q500.01355 315.575 499.7323 315.8719Q499.46667 316.15314 499.2948 316.4344L503.51355 316.4344ZM508.34167 317.45L508.34167 315.3875L504.62292 315.3875L504.62292 314.41876L508.5448 308.85626L509.40417 308.85626L509.40417 314.41876L510.56042 314.41876L510.56042 315.3875L509.40417 315.3875L509.40417 317.45L508.34167 317.45ZM508.34167 314.41876L508.34167 310.5594L505.65417 314.41876L508.34167 314.41876Z" fill-rule="nonzero"/><path stroke="#4285f4" stroke-width="4.0" stroke-linecap="butt" d="M247.0 85.416664L259.0 85.416664" fill-rule="nonzero"/><path fill="#1a1a1a" d="M270.10938 89.416664L270.10938 81.83854L267.28125 81.83854L267.28125 80.822914L274.09375 80.822914L274.09375 81.83854L271.25 81.83854L271.25 89.416664L270.10938 89.416664ZM281.0625 86.40104L282.1875 86.697914Q281.82812 88.08854 280.90625 88.822914Q279.98438 89.55729 278.64062 89.55729Q277.25 89.55729 276.375 88.99479Q275.5 88.43229 275.04688 87.36979Q274.59375 86.291664 274.59375 85.05729Q274.59375 83.71354 275.10938 82.71354Q275.625 81.71354 276.5625 81.197914Q277.51562 80.68229 278.65625 80.68229Q279.9375 80.68229 280.8125 81.33854Q281.70312 81.99479 282.04688 83.18229L280.92188 83.447914Q280.625 82.510414 280.04688 82.08854Q279.48438 81.65104 278.625 81.65104Q277.64062 81.65104 276.96875 82.135414Q276.3125 82.604164 276.03125 83.40104Q275.76562 84.197914 275.76562 85.05729Q275.76562 86.15104 276.07812 86.96354Q276.40625 87.77604 277.07812 88.18229Q277.75 88.58854 278.54688 88.58854Q279.5 88.58854 280.15625 88.041664Q280.82812 87.49479 281.0625 86.40104ZM283.92188 89.416664L283.92188 80.822914L287.17188 80.822914Q288.01562 80.822914 288.46875 80.90104Q289.10938 81.010414 289.53125 81.30729Q289.96875 81.604164 290.21875 82.135414Q290.48438 82.666664 290.48438 83.30729Q290.48438 84.40104 289.78125 85.166664Q289.09375 85.916664 287.26562 85.916664L285.0625 85.916664L285.0625 89.416664L283.92188 89.416664ZM285.0625 84.916664L287.28125 84.916664Q288.39062 84.916664 288.84375 84.510414Q289.3125 84.08854 289.3125 83.33854Q289.3125 82.80729 289.03125 82.43229Q288.76562 82.041664 288.32812 81.916664Q288.03125 81.83854 287.26562 81.83854L285.0625 81.83854L285.0625 84.916664Z" fill-rule="nonzero"/><path stroke="#ea4335" stroke-width="4.0" stroke-linecap="butt" d="M307.0 85.416664L319.0 85.416664" fill-rule="nonzero"/><path fill="#1a1a1a" d="M333.5625 80.822914L334.70312 80.822914L334.70312 85.791664Q334.70312 87.08854 334.40625 87.854164Q334.10938 88.604164 333.34375 89.08854Q332.57812 89.55729 331.34375 89.55729Q330.14062 89.55729 329.35938 89.15104Q328.59375 88.729164 328.26562 87.947914Q327.9375 87.15104 327.9375 85.791664L327.9375 80.822914L329.07812 80.822914L329.07812 85.77604Q329.07812 86.90104 329.28125 87.43229Q329.5 87.96354 330.0 88.260414Q330.51562 88.541664 331.25 88.541664Q332.5 88.541664 333.03125 87.979164Q333.5625 87.40104 333.5625 85.77604L333.5625 80.822914ZM336.92188 89.416664L336.92188 80.822914L339.89062 80.822914Q340.89062 80.822914 341.42188 80.947914Q342.15625 81.11979 342.67188 81.55729Q343.35938 82.135414 343.6875 83.041664Q344.03125 83.93229 344.03125 85.072914Q344.03125 86.05729 343.79688 86.80729Q343.57812 87.55729 343.21875 88.05729Q342.85938 88.55729 342.42188 88.83854Q342.0 89.11979 341.40625 89.27604Q340.8125 89.416664 340.03125 89.416664L336.92188 89.416664ZM338.0625 88.40104L339.89062 88.40104Q340.75 88.40104 341.23438 88.24479Q341.71875 88.08854 342.0 87.791664Q342.40625 87.40104 342.625 86.71354Q342.85938 86.02604 342.85938 85.05729Q342.85938 83.71354 342.40625 82.99479Q341.96875 82.260414 341.34375 82.010414Q340.875 81.83854 339.875 81.83854L338.0625 81.83854L338.0625 88.40104ZM345.92188 89.416664L345.92188 80.822914L349.17188 80.822914Q350.01562 80.822914 350.46875 80.90104Q351.10938 81.010414 351.53125 81.30729Q351.96875 81.604164 352.21875 82.135414Q352.48438 82.666664 352.48438 83.30729Q352.48438 84.40104 351.78125 85.166664Q351.09375 85.916664 349.26562 85.916664L347.0625 85.916664L347.0625 89.416664L345.92188 89.416664ZM347.0625 84.916664L349.28125 84.916664Q350.39062 84.916664 350.84375 84.510414Q351.3125 84.08854 351.3125 83.33854Q351.3125 82.80729 351.03125 82.43229Q350.76562 82.041664 350.32812 81.916664Q350.03125 81.83854 349.26562 81.83854L347.0625 81.83854L347.0625 84.916664Z" fill-rule="nonzero"/><path fill="#999999" d="M266.82812 63.05L264.17188 53.034374L265.53125 53.034374L267.0625 59.596874Q267.29688 60.628124 267.48438 61.64375Q267.85938 60.034374 267.9375 59.8L269.84375 53.034374L271.4375 53.034374L272.875 58.096874Q273.40625 59.9875 273.65625 61.64375Q273.84375 60.690624 274.15625 59.471874L275.71875 53.034374L277.0625 53.034374L274.3125 63.05L273.03125 63.05L270.92188 55.409374Q270.65625 54.45625 270.60938 54.2375Q270.45312 54.925 270.3125 55.409374L268.1875 63.05L266.82812 63.05ZM277.46875 59.425Q277.46875 57.409374 278.59375 56.425Q279.51562 55.628124 280.875 55.628124Q282.35938 55.628124 283.3125 56.6125Q284.26562 57.58125 284.26562 59.315624Q284.26562 60.721874 283.84375 61.534374Q283.42188 62.33125 282.60938 62.784374Q281.8125 63.221874 280.875 63.221874Q279.34375 63.221874 278.40625 62.2375Q277.46875 61.253124 277.46875 59.425ZM278.73438 59.425Q278.73438 60.815624 279.34375 61.51875Q279.95312 62.20625 280.875 62.20625Q281.78125 62.20625 282.39062 61.503124Q283.0 60.8 283.0 59.378124Q283.0 58.034374 282.39062 57.346874Q281.78125 56.64375 280.875 56.64375Q279.95312 56.64375 279.34375 57.33125Q278.73438 58.01875 278.73438 59.425ZM285.89062 63.05L285.89062 53.034374L287.125 53.034374L287.125 63.05L285.89062 63.05ZM289.21875 63.05L289.21875 56.753124L288.125 56.753124L288.125 55.784374L289.21875 55.784374L289.21875 55.01875Q289.21875 54.284374 289.34375 53.925Q289.53125 53.45625 289.96875 53.159374Q290.42188 52.8625 291.23438 52.8625Q291.75 52.8625 292.375 52.9875L292.1875 54.05Q291.8125 53.9875 291.46875 53.9875Q290.90625 53.9875 290.67188 54.221874Q290.4375 54.45625 290.4375 55.1125L290.4375 55.784374L291.85938 55.784374L291.85938 56.753124L290.4375 56.753124L290.4375 63.05L289.21875 63.05ZM296.4375 60.034374L296.4375 58.8L300.21875 58.8L300.21875 60.034374L296.4375 60.034374ZM306.09375 63.05L306.09375 53.034374L310.54688 53.034374Q311.89062 53.034374 312.57812 53.3Q313.28125 53.565624 313.6875 54.253124Q314.10938 54.940624 314.10938 55.76875Q314.10938 56.83125 313.42188 57.565624Q312.73438 58.284374 311.29688 58.4875Q311.8125 58.7375 312.09375 58.9875Q312.67188 59.51875 313.1875 60.315624L314.9375 63.05L313.26562 63.05L311.9375 60.971874Q311.35938 60.065624 310.98438 59.596874Q310.60938 59.1125 310.3125 58.925Q310.01562 58.721874 309.70312 58.64375Q309.48438 58.596874 308.96875 58.596874L307.42188 58.596874L307.42188 63.05L306.09375 63.05ZM307.42188 57.45625L310.28125 57.45625Q311.1875 57.45625 311.70312 57.26875Q312.21875 57.08125 312.48438 56.675Q312.75 56.253124 312.75 55.76875Q312.75 55.05 312.23438 54.596874Q311.71875 54.128124 310.59375 54.128124L307.42188 54.128124L307.42188 57.45625ZM316.125 63.05L316.125 53.034374L317.45312 53.034374L317.45312 57.14375L322.65625 57.14375L322.65625 53.034374L323.98438 53.034374L323.98438 63.05L322.65625 63.05L322.65625 58.33125L317.45312 58.33125L317.45312 63.05L316.125 63.05ZM325.67188 58.175Q325.67188 55.675 327.01562 54.26875Q328.35938 52.846874 330.46875 52.846874Q331.85938 52.846874 332.96875 53.51875Q334.09375 54.175 334.67188 55.3625Q335.26562 56.55 335.26562 58.05Q335.26562 59.58125 334.64062 60.784374Q334.03125 61.9875 332.90625 62.6125Q331.78125 63.221874 330.46875 63.221874Q329.04688 63.221874 327.9375 62.534374Q326.82812 61.846874 326.25 60.675Q325.67188 59.4875 325.67188 58.175ZM327.04688 58.190624Q327.04688 60.003124 328.01562 61.05Q329.0 62.08125 330.46875 62.08125Q331.95312 62.08125 332.92188 61.034374Q333.89062 59.9875 333.89062 58.05Q333.89062 56.815624 333.46875 55.909374Q333.0625 55.003124 332.26562 54.503124Q331.46875 53.9875 330.48438 53.9875Q329.07812 53.9875 328.0625 54.95625Q327.04688 55.925 327.04688 58.190624Z" fill-rule="nonzero"/><path fill="#757575" d="M163.07812 37.55L163.07812 23.2375L169.42188 23.2375Q171.32812 23.2375 172.32812 23.628124Q173.32812 24.003124 173.92188 24.9875Q174.51562 25.95625 174.51562 27.14375Q174.51562 28.659374 173.53125 29.70625Q172.54688 30.753124 170.48438 31.034374Q171.23438 31.39375 171.625 31.753124Q172.45312 32.503124 173.20312 33.659374L175.6875 37.55L173.3125 37.55L171.40625 34.565624Q170.57812 33.284374 170.04688 32.596874Q169.51562 31.909374 169.07812 31.64375Q168.65625 31.3625 168.21875 31.253124Q167.89062 31.190624 167.17188 31.190624L164.96875 31.190624L164.96875 37.55L163.07812 37.55ZM164.96875 29.55L169.04688 29.55Q170.34375 29.55 171.0625 29.284374Q171.79688 29.01875 172.17188 28.425Q172.5625 27.83125 172.5625 27.14375Q172.5625 26.128124 171.82812 25.471874Q171.09375 24.815624 169.5 24.815624L164.96875 24.815624L164.96875 29.55ZM180.6875 37.55L180.6875 24.925L175.96875 24.925L175.96875 23.2375L187.3125 23.2375L187.3125 24.925L182.57812 24.925L182.57812 37.55L180.6875 37.55ZM192.6875 37.55L192.6875 24.925L187.96875 24.925L187.96875 23.2375L199.3125 23.2375L199.3125 24.925L194.57812 24.925L194.57812 37.55L192.6875 37.55ZM206.96875 37.55L206.96875 23.2375L208.85938 23.2375L208.85938 35.8625L215.90625 35.8625L215.90625 37.55L206.96875 37.55ZM224.59375 36.26875Q223.60938 37.096874 222.70312 37.440624Q221.79688 37.784374 220.76562 37.784374Q219.0625 37.784374 218.14062 36.95625Q217.21875 36.1125 217.21875 34.815624Q217.21875 34.05 217.5625 33.425Q217.92188 32.8 218.48438 32.425Q219.04688 32.034374 219.75 31.83125Q220.26562 31.70625 221.3125 31.565624Q223.4375 31.315624 224.4375 30.971874Q224.45312 30.6125 224.45312 30.503124Q224.45312 29.440624 223.95312 28.9875Q223.28125 28.39375 221.95312 28.39375Q220.70312 28.39375 220.10938 28.83125Q219.53125 29.26875 219.25 30.378124L217.53125 30.14375Q217.76562 29.034374 218.29688 28.3625Q218.82812 27.675 219.84375 27.315624Q220.85938 26.940624 222.20312 26.940624Q223.53125 26.940624 224.35938 27.253124Q225.1875 27.565624 225.57812 28.05Q225.96875 28.51875 226.125 29.2375Q226.21875 29.690624 226.21875 30.8625L226.21875 33.20625Q226.21875 35.659374 226.32812 36.315624Q226.4375 36.95625 226.78125 37.55L224.9375 37.55Q224.67188 37.003124 224.59375 36.26875ZM224.4375 32.346874Q223.48438 32.7375 221.5625 33.003124Q220.48438 33.159374 220.03125 33.3625Q219.59375 33.55 219.34375 33.925Q219.09375 34.3 219.09375 34.76875Q219.09375 35.471874 219.625 35.940624Q220.15625 36.409374 221.1875 36.409374Q222.20312 36.409374 222.98438 35.971874Q223.78125 35.51875 224.15625 34.753124Q224.4375 34.14375 224.4375 32.9875L224.4375 32.346874ZM232.65625 35.971874L232.90625 37.534374Q232.17188 37.690624 231.57812 37.690624Q230.625 37.690624 230.09375 37.39375Q229.57812 37.08125 229.35938 36.596874Q229.14062 36.096874 229.14062 34.51875L229.14062 28.55L227.85938 28.55L227.85938 27.175L229.14062 27.175L229.14062 24.6125L230.89062 23.55L230.89062 27.175L232.65625 27.175L232.65625 28.55L230.89062 28.55L230.89062 34.6125Q230.89062 35.3625 230.98438 35.58125Q231.07812 35.784374 231.28125 35.925Q231.5 36.05 231.89062 36.05Q232.17188 36.05 232.65625 35.971874ZM241.92188 34.20625L243.73438 34.440624Q243.3125 36.01875 242.14062 36.909374Q240.98438 37.784374 239.17188 37.784374Q236.90625 37.784374 235.5625 36.39375Q234.23438 34.9875 234.23438 32.45625Q234.23438 29.83125 235.57812 28.39375Q236.92188 26.940624 239.07812 26.940624Q241.15625 26.940624 242.46875 28.3625Q243.79688 29.76875 243.79688 32.346874Q243.79688 32.503124 243.78125 32.815624L236.04688 32.815624Q236.14062 34.51875 237.01562 35.425Q237.89062 36.33125 239.1875 36.33125Q240.15625 36.33125 240.82812 35.83125Q241.51562 35.315624 241.92188 34.20625ZM236.14062 31.3625L241.9375 31.3625Q241.82812 30.065624 241.28125 29.409374Q240.4375 28.39375 239.09375 28.39375Q237.89062 28.39375 237.0625 29.20625Q236.23438 30.003124 236.14062 31.3625ZM245.8125 37.55L245.8125 27.175L247.40625 27.175L247.40625 28.659374Q248.54688 26.940624 250.70312 26.940624Q251.64062 26.940624 252.42188 27.284374Q253.21875 27.6125 253.60938 28.159374Q254.0 28.70625 254.15625 29.45625Q254.25 29.95625 254.25 31.175L254.25 37.55L252.48438 37.55L252.48438 31.2375Q252.48438 30.159374 252.28125 29.628124Q252.07812 29.096874 251.54688 28.784374Q251.03125 28.471874 250.32812 28.471874Q249.20312 28.471874 248.39062 29.190624Q247.57812 29.89375 247.57812 31.878124L247.57812 37.55L245.8125 37.55ZM263.59375 33.753124L265.3125 33.971874Q265.03125 35.76875 263.85938 36.784374Q262.70312 37.784374 261.0 37.784374Q258.875 37.784374 257.57812 36.39375Q256.28125 35.003124 256.28125 32.409374Q256.28125 30.721874 256.82812 29.471874Q257.39062 28.20625 258.53125 27.58125Q259.67188 26.940624 261.01562 26.940624Q262.70312 26.940624 263.76562 27.8Q264.84375 28.659374 265.15625 30.221874L263.4375 30.4875Q263.20312 29.440624 262.57812 28.925Q261.95312 28.39375 261.07812 28.39375Q259.75 28.39375 258.92188 29.346874Q258.09375 30.3 258.09375 32.346874Q258.09375 34.440624 258.89062 35.39375Q259.6875 36.33125 260.98438 36.33125Q262.01562 36.33125 262.70312 35.70625Q263.40625 35.065624 263.59375 33.753124ZM266.73438 41.55L266.54688 39.89375Q267.125 40.05 267.54688 40.05Q268.14062 40.05 268.48438 39.846874Q268.84375 39.659374 269.0625 39.315624Q269.23438 39.05 269.60938 38.003124Q269.65625 37.846874 269.76562 37.565624L265.82812 27.175L267.71875 27.175L269.875 33.190624Q270.29688 34.33125 270.625 35.58125Q270.9375 34.378124 271.34375 33.221874L273.5625 27.175L275.32812 27.175L271.375 37.721874Q270.75 39.440624 270.39062 40.08125Q269.92188 40.95625 269.3125 41.346874Q268.71875 41.753124 267.875 41.753124Q267.35938 41.753124 266.73438 41.55ZM287.14062 37.55L281.59375 23.2375L283.64062 23.2375L287.35938 33.628124Q287.8125 34.878124 288.10938 35.971874Q288.4375 34.8 288.89062 33.628124L292.75 23.2375L294.6875 23.2375L289.07812 37.55L287.14062 37.55ZM295.40625 32.95625L297.1875 32.8Q297.3125 33.8625 297.76562 34.55Q298.23438 35.2375 299.20312 35.675Q300.1875 36.096874 301.42188 36.096874Q302.5 36.096874 303.32812 35.784374Q304.15625 35.45625 304.5625 34.89375Q304.96875 34.33125 304.96875 33.659374Q304.96875 32.9875 304.57812 32.4875Q304.1875 31.9875 303.29688 31.64375Q302.71875 31.409374 300.73438 30.940624Q298.76562 30.471874 297.98438 30.05Q296.95312 29.51875 296.45312 28.721874Q295.95312 27.925 295.95312 26.940624Q295.95312 25.846874 296.5625 24.909374Q297.17188 23.971874 298.35938 23.4875Q299.54688 22.9875 300.98438 22.9875Q302.57812 22.9875 303.79688 23.503124Q305.01562 24.01875 305.65625 25.01875Q306.3125 26.003124 306.35938 27.26875L304.54688 27.409374Q304.40625 26.05 303.5625 25.3625Q302.71875 24.659374 301.0625 24.659374Q299.34375 24.659374 298.54688 25.3Q297.76562 25.925 297.76562 26.8Q297.76562 27.58125 298.32812 28.08125Q298.875 28.58125 301.1875 29.096874Q303.5 29.6125 304.35938 30.003124Q305.60938 30.58125 306.20312 31.471874Q306.79688 32.346874 306.79688 33.503124Q306.79688 34.64375 306.14062 35.659374Q305.48438 36.675 304.25 37.2375Q303.03125 37.8 301.5 37.8Q299.5625 37.8 298.25 37.2375Q296.9375 36.659374 296.1875 35.51875Q295.4375 34.378124 295.40625 32.95625ZM314.98438 37.55L314.98438 23.2375L317.84375 23.2375L321.21875 33.3625Q321.6875 34.784374 321.90625 35.4875Q322.15625 34.70625 322.67188 33.190624L326.09375 23.2375L328.64062 23.2375L328.64062 37.55L326.82812 37.55L326.82812 25.565624L322.65625 37.55L320.95312 37.55L316.8125 25.3625L316.8125 37.55L314.98438 37.55ZM338.92188 34.20625L340.73438 34.440624Q340.3125 36.01875 339.14062 36.909374Q337.98438 37.784374 336.17188 37.784374Q333.90625 37.784374 332.5625 36.39375Q331.23438 34.9875 331.23438 32.45625Q331.23438 29.83125 332.57812 28.39375Q333.92188 26.940624 336.07812 26.940624Q338.15625 26.940624 339.46875 28.3625Q340.79688 29.76875 340.79688 32.346874Q340.79688 32.503124 340.78125 32.815624L333.04688 32.815624Q333.14062 34.51875 334.01562 35.425Q334.89062 36.33125 336.1875 36.33125Q337.15625 36.33125 337.82812 35.83125Q338.51562 35.315624 338.92188 34.20625ZM333.14062 31.3625L338.9375 31.3625Q338.82812 30.065624 338.28125 29.409374Q337.4375 28.39375 336.09375 28.39375Q334.89062 28.39375 334.0625 29.20625Q333.23438 30.003124 333.14062 31.3625ZM342.10938 34.45625L343.85938 34.175Q344.0 35.221874 344.67188 35.784374Q345.34375 36.33125 346.54688 36.33125Q347.75 36.33125 348.32812 35.846874Q348.92188 35.346874 348.92188 34.690624Q348.92188 34.096874 348.40625 33.753124Q348.04688 33.51875 346.60938 33.159374Q344.67188 32.659374 343.92188 32.315624Q343.1875 31.95625 342.79688 31.33125Q342.40625 30.690624 342.40625 29.925Q342.40625 29.2375 342.71875 28.64375Q343.04688 28.05 343.59375 27.659374Q344.0 27.3625 344.70312 27.159374Q345.42188 26.940624 346.23438 26.940624Q347.45312 26.940624 348.375 27.3Q349.29688 27.64375 349.73438 28.253124Q350.17188 28.846874 350.34375 29.846874L348.625 30.08125Q348.5 29.284374 347.9375 28.846874Q347.375 28.39375 346.35938 28.39375Q345.14062 28.39375 344.625 28.8Q344.10938 29.190624 344.10938 29.721874Q344.10938 30.065624 344.32812 30.346874Q344.53125 30.628124 345.0 30.815624Q345.26562 30.909374 346.54688 31.253124Q348.42188 31.753124 349.15625 32.08125Q349.89062 32.39375 350.3125 33.003124Q350.73438 33.596874 350.73438 34.503124Q350.73438 35.378124 350.21875 36.159374Q349.70312 36.940624 348.73438 37.3625Q347.76562 37.784374 346.54688 37.784374Q344.53125 37.784374 343.46875 36.940624Q342.40625 36.096874 342.10938 34.45625ZM352.10938 34.45625L353.85938 34.175Q354.0 35.221874 354.67188 35.784374Q355.34375 36.33125 356.54688 36.33125Q357.75 36.33125 358.32812 35.846874Q358.92188 35.346874 358.92188 34.690624Q358.92188 34.096874 358.40625 33.753124Q358.04688 33.51875 356.60938 33.159374Q354.67188 32.659374 353.92188 32.315624Q353.1875 31.95625 352.79688 31.33125Q352.40625 30.690624 352.40625 29.925Q352.40625 29.2375 352.71875 28.64375Q353.04688 28.05 353.59375 27.659374Q354.0 27.3625 354.70312 27.159374Q355.42188 26.940624 356.23438 26.940624Q357.45312 26.940624 358.375 27.3Q359.29688 27.64375 359.73438 28.253124Q360.17188 28.846874 360.34375 29.846874L358.625 30.08125Q358.5 29.284374 357.9375 28.846874Q357.375 28.39375 356.35938 28.39375Q355.14062 28.39375 354.625 28.8Q354.10938 29.190624 354.10938 29.721874Q354.10938 30.065624 354.32812 30.346874Q354.53125 30.628124 355.0 30.815624Q355.26562 30.909374 356.54688 31.253124Q358.42188 31.753124 359.15625 32.08125Q359.89062 32.39375 360.3125 33.003124Q360.73438 33.596874 360.73438 34.503124Q360.73438 35.378124 360.21875 36.159374Q359.70312 36.940624 358.73438 37.3625Q357.76562 37.784374 356.54688 37.784374Q354.53125 37.784374 353.46875 36.940624Q352.40625 36.096874 352.10938 34.45625ZM369.59375 36.26875Q368.60938 37.096874 367.70312 37.440624Q366.79688 37.784374 365.76562 37.784374Q364.0625 37.784374 363.14062 36.95625Q362.21875 36.1125 362.21875 34.815624Q362.21875 34.05 362.5625 33.425Q362.92188 32.8 363.48438 32.425Q364.04688 32.034374 364.75 31.83125Q365.26562 31.70625 366.3125 31.565624Q368.4375 31.315624 369.4375 30.971874Q369.45312 30.6125 369.45312 30.503124Q369.45312 29.440624 368.95312 28.9875Q368.28125 28.39375 366.95312 28.39375Q365.70312 28.39375 365.10938 28.83125Q364.53125 29.26875 364.25 30.378124L362.53125 30.14375Q362.76562 29.034374 363.29688 28.3625Q363.82812 27.675 364.84375 27.315624Q365.85938 26.940624 367.20312 26.940624Q368.53125 26.940624 369.35938 27.253124Q370.1875 27.565624 370.57812 28.05Q370.96875 28.51875 371.125 29.2375Q371.21875 29.690624 371.21875 30.8625L371.21875 33.20625Q371.21875 35.659374 371.32812 36.315624Q371.4375 36.95625 371.78125 37.55L369.9375 37.55Q369.67188 37.003124 369.59375 36.26875ZM369.4375 32.346874Q368.48438 32.7375 366.5625 33.003124Q365.48438 33.159374 365.03125 33.3625Q364.59375 33.55 364.34375 33.925Q364.09375 34.3 364.09375 34.76875Q364.09375 35.471874 364.625 35.940624Q365.15625 36.409374 366.1875 36.409374Q367.20312 36.409374 367.98438 35.971874Q368.78125 35.51875 369.15625 34.753124Q369.4375 34.14375 369.4375 32.9875L369.4375 32.346874ZM373.5 38.409374L375.20312 38.659374Q375.3125 39.45625 375.79688 39.815624Q376.45312 40.3 377.59375 40.3Q378.8125 40.3 379.46875 39.815624Q380.14062 39.33125 380.375 38.45625Q380.51562 37.909374 380.5 36.190624Q379.34375 37.55 377.625 37.55Q375.48438 37.55 374.3125 36.003124Q373.14062 34.45625 373.14062 32.3Q373.14062 30.815624 373.67188 29.565624Q374.21875 28.315624 375.23438 27.628124Q376.26562 26.940624 377.64062 26.940624Q379.46875 26.940624 380.67188 28.425L380.67188 27.175L382.28125 27.175L382.28125 36.14375Q382.28125 38.565624 381.78125 39.565624Q381.29688 40.58125 380.21875 41.159374Q379.15625 41.753124 377.59375 41.753124Q375.75 41.753124 374.59375 40.925Q373.45312 40.096874 373.5 38.409374ZM374.95312 32.175Q374.95312 34.221874 375.76562 35.159374Q376.57812 36.096874 377.79688 36.096874Q379.0 36.096874 379.8125 35.159374Q380.64062 34.221874 380.64062 32.2375Q380.64062 30.33125 379.79688 29.3625Q378.95312 28.39375 377.76562 28.39375Q376.59375 28.39375 375.76562 29.346874Q374.95312 30.3 374.95312 32.175ZM391.92188 34.20625L393.73438 34.440624Q393.3125 36.01875 392.14062 36.909374Q390.98438 37.784374 389.17188 37.784374Q386.90625 37.784374 385.5625 36.39375Q384.23438 34.9875 384.23438 32.45625Q384.23438 29.83125 385.57812 28.39375Q386.92188 26.940624 389.07812 26.940624Q391.15625 26.940624 392.46875 28.3625Q393.79688 29.76875 393.79688 32.346874Q393.79688 32.503124 393.78125 32.815624L386.04688 32.815624Q386.14062 34.51875 387.01562 35.425Q387.89062 36.33125 389.1875 36.33125Q390.15625 36.33125 390.82812 35.83125Q391.51562 35.315624 391.92188 34.20625ZM386.14062 31.3625L391.9375 31.3625Q391.82812 30.065624 391.28125 29.409374Q390.4375 28.39375 389.09375 28.39375Q387.89062 28.39375 387.0625 29.20625Q386.23438 30.003124 386.14062 31.3625ZM401.40625 32.95625L403.1875 32.8Q403.3125 33.8625 403.76562 34.55Q404.23438 35.2375 405.20312 35.675Q406.1875 36.096874 407.42188 36.096874Q408.5 36.096874 409.32812 35.784374Q410.15625 35.45625 410.5625 34.89375Q410.96875 34.33125 410.96875 33.659374Q410.96875 32.9875 410.57812 32.4875Q410.1875 31.9875 409.29688 31.64375Q408.71875 31.409374 406.73438 30.940624Q404.76562 30.471874 403.98438 30.05Q402.95312 29.51875 402.45312 28.721874Q401.95312 27.925 401.95312 26.940624Q401.95312 25.846874 402.5625 24.909374Q403.17188 23.971874 404.35938 23.4875Q405.54688 22.9875 406.98438 22.9875Q408.57812 22.9875 409.79688 23.503124Q411.01562 24.01875 411.65625 25.01875Q412.3125 26.003124 412.35938 27.26875L410.54688 27.409374Q410.40625 26.05 409.5625 25.3625Q408.71875 24.659374 407.0625 24.659374Q405.34375 24.659374 404.54688 25.3Q403.76562 25.925 403.76562 26.8Q403.76562 27.58125 404.32812 28.08125Q404.875 28.58125 407.1875 29.096874Q409.5 29.6125 410.35938 30.003124Q411.60938 30.58125 412.20312 31.471874Q412.79688 32.346874 412.79688 33.503124Q412.79688 34.64375 412.14062 35.659374Q411.48438 36.675 410.25 37.2375Q409.03125 37.8 407.5 37.8Q405.5625 37.8 404.25 37.2375Q402.9375 36.659374 402.1875 35.51875Q401.4375 34.378124 401.40625 32.95625ZM414.82812 25.253124L414.82812 23.2375L416.59375 23.2375L416.59375 25.253124L414.82812 25.253124ZM414.82812 37.55L414.82812 27.175L416.59375 27.175L416.59375 37.55L414.82812 37.55ZM417.89062 37.55L417.89062 36.128124L424.5 28.55Q423.375 28.596874 422.51562 28.596874L418.28125 28.596874L418.28125 27.175L426.76562 27.175L426.76562 28.346874L421.14062 34.925L420.0625 36.128124Q421.23438 36.034374 422.28125 36.034374L427.07812 36.034374L427.07812 37.55L417.89062 37.55ZM435.92188 34.20625L437.73438 34.440624Q437.3125 36.01875 436.14062 36.909374Q434.98438 37.784374 433.17188 37.784374Q430.90625 37.784374 429.5625 36.39375Q428.23438 34.9875 428.23438 32.45625Q428.23438 29.83125 429.57812 28.39375Q430.92188 26.940624 433.07812 26.940624Q435.15625 26.940624 436.46875 28.3625Q437.79688 29.76875 437.79688 32.346874Q437.79688 32.503124 437.78125 32.815624L430.04688 32.815624Q430.14062 34.51875 431.01562 35.425Q431.89062 36.33125 433.1875 36.33125Q434.15625 36.33125 434.82812 35.83125Q435.51562 35.315624 435.92188 34.20625ZM430.14062 31.3625L435.9375 31.3625Q435.82812 30.065624 435.28125 29.409374Q434.4375 28.39375 433.09375 28.39375Q431.89062 28.39375 431.0625 29.20625Q430.23438 30.003124 430.14062 31.3625Z" fill-rule="nonzero"/></svg>