<svg version="1.1" viewBox="0.0 0.0 600.0 371.0" fill="none" stroke="none" stroke-linecap="square" stroke-miterlimit="10" width="600" height="371" xmlns:xlink="http://www.w3.org/1999/xlink" xmlns="http://www.w3.org/2000/svg"><path fill="#ffffff" d="M0 0L600.0 0L600.0 371.0L0 371.0L0 0Z" fill-rule="nonzero"/><path stroke="#333333" stroke-width="1.0" stroke-linecap="butt" d="M84.5 300.5L581.5 300.5" fill-rule="nonzero"/><path stroke="#cccccc" stroke-width="1.0" stroke-linecap="butt" d="M84.5 253.5L581.5 253.5" fill-rule="nonzero"/><path stroke="#cccccc" stroke-width="1.0" stroke-linecap="butt" d="M84.5 206.5L581.5 206.5" fill-rule="nonzero"/><path stroke="#cccccc" stroke-width="1.0" stroke-linecap="butt" d="M84.5 158.5L581.5 158.5" fill-rule="nonzero"/><path stroke="#cccccc" stroke-width="1.0" stroke-linecap="butt" d="M84.5 111.5L581.5 111.5" fill-rule="nonzero"/><path stroke="#e6e6e6" stroke-width="1.0" stroke-linecap="butt" d="M84.5 291.5L581.5 291.5" fill-rule="nonzero"/><path stroke="#e6e6e6" stroke-width="1.0" stroke-linecap="butt" d="M84.5 281.5L581.5 281.5" fill-rule="nonzero"/><path stroke="#e6e6e6" stroke-width="1.0" stroke-linecap="butt" d="M84.5 272.5L581.5 272.5" fill-rule="nonzero"/><path stroke="#e6e6e6" stroke-width="1.0" stroke-linecap="butt" d="M84.5 262.5L581.5 262.5" fill-rule="nonzero"/><path stroke="#e6e6e6" stroke-width="1.0" stroke-linecap="butt" d="M84.5 243.5L581.5 243.5" fill-rule="nonzero"/><path stroke="#e6e6e6" stroke-width="1.0" stroke-linecap="butt" d="M84.5 234.5L581.5 234.5" fill-rule="nonzero"/><path stroke="#e6e6e6" stroke-width="1.0" stroke-linecap="butt" d="M84.5 224.5L581.5 224.5" fill-rule="nonzero"/><path stroke="#e6e6e6" stroke-width="1.0" stroke-linecap="butt" d="M84.5 215.5L581.5 215.5" fill-rule="nonzero"/><path stroke="#e6e6e6" stroke-width="1.0" stroke-linecap="butt" d="M84.5 196.5L581.5 196.5" fill-rule="nonzero"/><path stroke="#e6e6e6" stroke-width="1.0" stroke-linecap="butt" d="M84.5 187.5L581.5 187.5" fill-rule="nonzero"/><path stroke="#e6e6e6" stroke-width="1.0" stroke-linecap="butt" d="M84.5 177.5L581.5 177.5" fill-rule="nonzero"/><path stroke="#e6e6e6" stroke-width="1.0" stroke-linecap="butt" d="M84.5 168.5L581.5 168.5" fill-rule="nonzero"/><path stroke="#e6e6e6" stroke-width="1.0" stroke-linecap="butt" d="M84.5 149.5L581.5 149.5" fill-rule="nonzero"/><path stroke="#e6e6e6" stroke-width="1.0" stroke-linecap="butt" d="M84.5 140.5L581.5 140.5" fill-rule="nonzero"/><path stroke="#e6e6e6" stroke-width="1.0" stroke-linecap="butt" d="M84.5 130.5L581.5 130.5" fill-rule="nonzero"/><path stroke="#e6e6e6" stroke-width="1.0" stroke-linecap="butt" d="M84.5 121.5L581.5 121.5" fill-rule="nonzero"/><clipPath id="id_0"><path d="M84.55 111.78333L581.45 111.78333L581.45 300.45L84.55 300.45L84.55 111.78333Z" clip-rule="nonzero"/></clipPath><path stroke="#4285f4" stroke-width="2.0" stroke-linecap="butt" clip-path="url(#id_0)" d="M167.36667 191.24112L333.0 164.88113L498.63333 180.61089" fill-rule="nonzero"/><path stroke="#ea4335" stroke-width="2.0" stroke-linecap="butt" clip-path="url(#id_0)" d="M167.36667 160.65994L333.0 169.23296L498.63333 154.64775" fill-rule="nonzero"/><path fill="#000000" fill-opacity="0.0" clip-path="url(#id_0)" d="M170.36667 191.24112C170.36667 192.89796 169.02351 194.24112 167.36667 194.24112C165.70981 194.24112 164.36667 192.89796 164.36667 191.24112C164.36667 189.58426 165.70981 188.24112 167.36667 188.24112C169.02351 188.24112 170.36667 189.58426 170.36667 191.24112Z" fill-rule="nonzero"/><path fill="#000000" fill-opacity="0.0" clip-path="url(#id_0)" d="M336.0 164.88113C336.0 166.53798 334.65686 167.88113 333.0 167.88113C331.34314 167.88113 330.0 166.53798 330.0 164.88113C330.0 163.22427 331.34314 161.88113 333.0 161.88113C334.65686 161.88113 336.0 163.22427 336.0 164.88113Z" fill-rule="nonzero"/><path fill="#000000" fill-opacity="0.0" clip-path="url(#id_0)" d="M501.63333 180.61089C501.63333 182.26775 500.2902 183.61089 498.63333 183.61089C496.97647 183.61089 495.63333 182.26775 495.63333 180.61089C495.63333 178.95403 496.97647 177.61089 498.63333 177.61089C500.2902 177.61089 501.63333 178.95403 501.63333 180.61089Z" fill-rule="nonzero"/><path fill="#000000" fill-opacity="0.0" clip-path="url(#id_0)" d="M170.36667 160.65994C170.36667 162.3168 169.02351 163.65994 167.36667 163.65994C165.70981 163.65994 164.36667 162.3168 164.36667 160.65994C164.36667 159.0031 165.70981 157.65994 167.36667 157.65994C169.02351 157.65994 170.36667 159.0031 170.36667 160.65994Z" fill-rule="nonzero"/><path fill="#000000" fill-opacity="0.0" clip-path="url(#id_0)" d="M336.0 169.23296C336.0 170.88982 334.65686 172.23296 333.0 172.23296C331.34314 172.23296 330.0 170.88982 330.0 169.23296C330.0 167.57611 331.34314 166.23296 333.0 166.23296C334.65686 166.23296 336.0 167.57611 336.0 169.23296Z" fill-rule="nonzero"/><path fill="#000000" fill-opacity="0.0" clip-path="url(#id_0)" d="M501.63333 154.64775C501.63333 156.30461 500.2902 157.64775 498.63333 157.64775C496.97647 157.64775 495.63333 156.30461 495.63333 154.64775C495.63333 152.99089 496.97647 151.64775 498.63333 151.64775C500.2902 151.64775 501.63333 152.99089 501.63333 154.64775Z" fill-rule="nonzero"/><path fill="#000000" d="M274.89062 349.45L274.89062 340.85626L276.60938 340.85626L278.64062 346.9344Q278.92188 347.79376 279.04688 348.21564Q279.1875 347.7469 279.5 346.84064L281.5625 340.85626L283.09375 340.85626L283.09375 349.45L282.0 349.45L282.0 342.2625L279.5 349.45L278.46875 349.45L275.98438 342.1375L275.98438 349.45L274.89062 349.45ZM289.04688 347.45L290.14062 347.575Q289.89062 348.52814 289.1875 349.0594Q288.48438 349.59064 287.40625 349.59064Q286.04688 349.59064 285.23438 348.7469Q284.4375 347.90314 284.4375 346.3875Q284.4375 344.825 285.25 343.96564Q286.0625 343.09064 287.34375 343.09064Q288.59375 343.09064 289.375 343.9344Q290.17188 344.77814 290.17188 346.325Q290.17188 346.41876 290.17188 346.60626L285.53125 346.60626Q285.59375 347.6375 286.10938 348.1844Q286.625 348.71564 287.40625 348.71564Q287.98438 348.71564 288.39062 348.41876Q288.8125 348.10626 289.04688 347.45ZM285.59375 345.7469L289.0625 345.7469Q289.0 344.95 288.67188 344.5594Q288.15625 343.95 287.35938 343.95Q286.625 343.95 286.125 344.4344Q285.64062 344.91876 285.59375 345.7469ZM291.375 347.59064L292.40625 347.4344Q292.5 348.0594 292.89062 348.3875Q293.29688 348.71564 294.03125 348.71564Q294.75 348.71564 295.09375 348.4344Q295.45312 348.1375 295.45312 347.73126Q295.45312 347.3719 295.14062 347.16876Q294.92188 347.02814 294.0625 346.8094Q292.90625 346.5125 292.45312 346.3094Q292.01562 346.09064 291.78125 345.71564Q291.54688 345.34064 291.54688 344.8719Q291.54688 344.46564 291.73438 344.10626Q291.92188 343.7469 292.25 343.5125Q292.5 343.34064 292.92188 343.21564Q293.34375 343.09064 293.84375 343.09064Q294.5625 343.09064 295.10938 343.3094Q295.67188 343.5125 295.9375 343.8719Q296.20312 344.23126 296.29688 344.825L295.26562 344.96564Q295.20312 344.4969 294.85938 344.23126Q294.53125 343.95 293.90625 343.95Q293.1875 343.95 292.875 344.2Q292.5625 344.4344 292.5625 344.7625Q292.5625 344.96564 292.6875 345.1219Q292.82812 345.29376 293.09375 345.40314Q293.25 345.46564 294.03125 345.66876Q295.15625 345.98126 295.59375 346.16876Q296.03125 346.35626 296.28125 346.71564Q296.53125 347.075 296.53125 347.6219Q296.53125 348.15314 296.21875 348.6219Q295.92188 349.075 295.34375 349.34064Q294.76562 349.59064 294.03125 349.59064Q292.8125 349.59064 292.17188 349.09064Q291.54688 348.575 291.375 347.59064ZM297.375 347.59064L298.40625 347.4344Q298.5 348.0594 298.89062 348.3875Q299.29688 348.71564 300.03125 348.71564Q300.75 348.71564 301.09375 348.4344Q301.45312 348.1375 301.45312 347.73126Q301.45312 347.3719 301.14062 347.16876Q300.92188 347.02814 300.0625 346.8094Q298.90625 346.5125 298.45312 346.3094Q298.01562 346.09064 297.78125 345.71564Q297.54688 345.34064 297.54688 344.8719Q297.54688 344.46564 297.73438 344.10626Q297.92188 343.7469 298.25 343.5125Q298.5 343.34064 298.92188 343.21564Q299.34375 343.09064 299.84375 343.09064Q300.5625 343.09064 301.10938 343.3094Q301.67188 343.5125 301.9375 343.8719Q302.20312 344.23126 302.29688 344.825L301.26562 344.96564Q301.20312 344.4969 300.85938 344.23126Q300.53125 343.95 299.90625 343.95Q299.1875 343.95 298.875 344.2Q298.5625 344.4344 298.5625 344.7625Q298.5625 344.96564 298.6875 345.1219Q298.82812 345.29376 299.09375 345.40314Q299.25 345.46564 300.03125 345.66876Q301.15625 345.98126 301.59375 346.16876Q302.03125 346.35626 302.28125 346.71564Q302.53125 347.075 302.53125 347.6219Q302.53125 348.15314 302.21875 348.6219Q301.92188 349.075 301.34375 349.34064Q300.76562 349.59064 300.03125 349.59064Q298.8125 349.59064 298.17188 349.09064Q297.54688 348.575 297.375 347.59064ZM307.85938 348.6844Q307.26562 349.1844 306.71875 349.3875Q306.1875 349.59064 305.5625 349.59064Q304.53125 349.59064 303.98438 349.09064Q303.4375 348.59064 303.4375 347.8094Q303.4375 347.35626 303.64062 346.98126Q303.84375 346.59064 304.1875 346.3719Q304.53125 346.1375 304.95312 346.02814Q305.25 345.9344 305.89062 345.85626Q307.15625 345.71564 307.76562 345.4969Q307.76562 345.27814 307.76562 345.23126Q307.76562 344.575 307.46875 344.3094Q307.0625 343.96564 306.26562 343.96564Q305.53125 343.96564 305.17188 344.23126Q304.8125 344.48126 304.64062 345.1375L303.60938 344.9969Q303.75 344.34064 304.07812 343.9344Q304.40625 343.52814 305.01562 343.3094Q305.625 343.09064 306.42188 343.09064Q307.21875 343.09064 307.71875 343.27814Q308.21875 343.46564 308.45312 343.7469Q308.6875 344.02814 308.78125 344.46564Q308.82812 344.73126 308.82812 345.4344L308.82812 346.84064Q308.82812 348.3094 308.89062 348.7Q308.96875 349.09064 309.17188 349.45L308.0625 349.45Q307.90625 349.1219 307.85938 348.6844ZM307.76562 346.325Q307.1875 346.5594 306.04688 346.73126Q305.39062 346.825 305.125 346.95Q304.85938 347.0594 304.70312 347.27814Q304.5625 347.4969 304.5625 347.77814Q304.5625 348.2 304.875 348.48126Q305.20312 348.7625 305.8125 348.7625Q306.42188 348.7625 306.89062 348.4969Q307.375 348.23126 307.59375 347.7625Q307.76562 347.40314 307.76562 346.71564L307.76562 346.325ZM310.59375 349.96564L311.625 350.1219Q311.6875 350.59064 311.98438 350.8094Q312.375 351.10626 313.04688 351.10626Q313.78125 351.10626 314.17188 350.8094Q314.57812 350.5125 314.71875 349.9969Q314.8125 349.66876 314.79688 348.6375Q314.10938 349.45 313.07812 349.45Q311.79688 349.45 311.09375 348.52814Q310.39062 347.59064 310.39062 346.3094Q310.39062 345.41876 310.70312 344.66876Q311.03125 343.90314 311.64062 343.4969Q312.25 343.09064 313.07812 343.09064Q314.1875 343.09064 314.90625 343.98126L314.90625 343.23126L315.875 343.23126L315.875 348.60626Q315.875 350.0594 315.57812 350.66876Q315.28125 351.27814 314.64062 351.6219Q314.0 351.98126 313.0625 351.98126Q311.95312 351.98126 311.26562 351.48126Q310.57812 350.98126 310.59375 349.96564ZM311.46875 346.23126Q311.46875 347.45 311.95312 348.0125Q312.4375 348.575 313.17188 348.575Q313.90625 348.575 314.39062 348.0125Q314.89062 347.45 314.89062 346.2625Q314.89062 345.1219 314.375 344.54376Q313.875 343.96564 313.15625 343.96564Q312.45312 343.96564 311.95312 344.54376Q311.46875 345.10626 311.46875 346.23126ZM322.04688 347.45L323.14062 347.575Q322.89062 348.52814 322.1875 349.0594Q321.48438 349.59064 320.40625 349.59064Q319.04688 349.59064 318.23438 348.7469Q317.4375 347.90314 317.4375 346.3875Q317.4375 344.825 318.25 343.96564Q319.0625 343.09064 320.34375 343.09064Q321.59375 343.09064 322.375 343.9344Q323.17188 344.77814 323.17188 346.325Q323.17188 346.41876 323.17188 346.60626L318.53125 346.60626Q318.59375 347.6375 319.10938 348.1844Q319.625 348.71564 320.40625 348.71564Q320.98438 348.71564 321.39062 348.41876Q321.8125 348.10626 322.04688 347.45ZM318.59375 345.7469L322.0625 345.7469Q322.0 344.95 321.67188 344.5594Q321.15625 343.95 320.35938 343.95Q319.625 343.95 319.125 344.4344Q318.64062 344.91876 318.59375 345.7469ZM327.54688 346.6844L328.60938 346.59064Q328.6875 347.2469 328.96875 347.65314Q329.25 348.0594 329.82812 348.325Q330.42188 348.575 331.15625 348.575Q331.79688 348.575 332.29688 348.3875Q332.79688 348.1844 333.03125 347.85626Q333.28125 347.5125 333.28125 347.1219Q333.28125 346.71564 333.04688 346.41876Q332.8125 346.10626 332.28125 345.90314Q331.92188 345.7625 330.73438 345.48126Q329.5625 345.2 329.09375 344.95Q328.46875 344.6219 328.17188 344.15314Q327.875 343.66876 327.875 343.075Q327.875 342.4344 328.23438 341.8719Q328.60938 341.29376 329.3125 341.0125Q330.03125 340.71564 330.89062 340.71564Q331.84375 340.71564 332.57812 341.02814Q333.3125 341.325 333.70312 341.9344Q334.09375 342.52814 334.125 343.27814L333.03125 343.35626Q332.9375 342.54376 332.42188 342.1375Q331.92188 341.71564 330.9375 341.71564Q329.90625 341.71564 329.4375 342.09064Q328.96875 342.46564 328.96875 342.9969Q328.96875 343.46564 329.29688 343.7625Q329.625 344.0594 331.0 344.3719Q332.39062 344.6844 332.90625 344.91876Q333.65625 345.27814 334.01562 345.8094Q334.375 346.325 334.375 347.02814Q334.375 347.71564 333.98438 348.325Q333.59375 348.91876 332.85938 349.2625Q332.125 349.59064 331.20312 349.59064Q330.03125 349.59064 329.23438 349.2625Q328.45312 348.91876 328.0 348.23126Q327.5625 347.54376 327.54688 346.6844ZM335.79688 342.075L335.79688 340.85626L336.85938 340.85626L336.85938 342.075L335.79688 342.075ZM335.79688 349.45L335.79688 343.23126L336.85938 343.23126L336.85938 349.45L335.79688 349.45ZM338.23438 349.45L338.23438 348.59064L342.20312 344.04376Q341.51562 344.075 341.0 344.075L338.46875 344.075L338.46875 343.23126L343.5625 343.23126L343.5625 343.91876L340.1875 347.8719L339.53125 348.59064Q340.25 348.54376 340.85938 348.54376L343.75 348.54376L343.75 349.45L338.23438 349.45ZM349.04688 347.45L350.14062 347.575Q349.89062 348.52814 349.1875 349.0594Q348.48438 349.59064 347.40625 349.59064Q346.04688 349.59064 345.23438 348.7469Q344.4375 347.90314 344.4375 346.3875Q344.4375 344.825 345.25 343.96564Q346.0625 343.09064 347.34375 343.09064Q348.59375 343.09064 349.375 343.9344Q350.17188 344.77814 350.17188 346.325Q350.17188 346.41876 350.17188 346.60626L345.53125 346.60626Q345.59375 347.6375 346.10938 348.1844Q346.625 348.71564 347.40625 348.71564Q347.98438 348.71564 348.39062 348.41876Q348.8125 348.10626 349.04688 347.45ZM345.59375 345.7469L349.0625 345.7469Q349.0 344.95 348.67188 344.5594Q348.15625 343.95 347.35938 343.95Q346.625 343.95 346.125 344.4344Q345.64062 344.91876 345.59375 345.7469ZM356.8125 351.98126Q355.9375 350.8719 355.32812 349.40314Q354.73438 347.91876 354.73438 346.34064Q354.73438 344.95 355.17188 343.66876Q355.70312 342.1844 356.8125 340.71564L357.5625 340.71564Q356.85938 341.9344 356.625 342.45Q356.26562 343.2625 356.0625 344.1375Q355.8125 345.23126 355.8125 346.34064Q355.8125 349.16876 357.5625 351.98126L356.8125 351.98126ZM358.875 349.45L358.875 340.85626L362.10938 340.85626Q363.09375 340.85626 363.6875 341.1219Q364.28125 341.3875 364.60938 341.9344Q364.95312 342.46564 364.95312 343.0594Q364.95312 343.60626 364.65625 344.09064Q364.35938 344.575 363.75 344.8719Q364.53125 345.10626 364.9375 345.66876Q365.35938 346.21564 365.35938 346.96564Q365.35938 347.5594 365.10938 348.09064Q364.85938 348.60626 364.48438 348.8875Q364.10938 349.16876 363.53125 349.3094Q362.96875 349.45 362.15625 349.45L358.875 349.45ZM360.01562 344.46564L361.875 344.46564Q362.625 344.46564 362.95312 344.3719Q363.39062 344.2469 363.60938 343.95Q363.82812 343.6375 363.82812 343.1844Q363.82812 342.7625 363.625 342.4344Q363.42188 342.10626 363.03125 341.9969Q362.65625 341.8719 361.73438 341.8719L360.01562 341.8719L360.01562 344.46564ZM360.01562 348.4344L362.15625 348.4344Q362.70312 348.4344 362.92188 348.3875Q363.32812 348.325 363.57812 348.16876Q363.84375 347.9969 364.01562 347.6844Q364.1875 347.3719 364.1875 346.96564Q364.1875 346.48126 363.9375 346.1219Q363.70312 345.7625 363.26562 345.6219Q362.82812 345.48126 362.0 345.48126L360.01562 345.48126L360.01562 348.4344ZM366.75 351.84064L366.625 350.85626Q366.96875 350.95 367.23438 350.95Q367.57812 350.95 367.78125 350.825Q368.0 350.71564 368.14062 350.5125Q368.23438 350.34064 368.46875 349.71564Q368.48438 349.6375 368.5625 349.46564L366.1875 343.23126L367.32812 343.23126L368.625 346.825Q368.875 347.5125 369.07812 348.27814Q369.26562 347.54376 369.51562 346.85626L370.84375 343.23126L371.89062 343.23126L369.53125 349.5594Q369.14062 350.575 368.9375 350.96564Q368.65625 351.4969 368.28125 351.73126Q367.92188 351.98126 367.42188 351.98126Q367.125 351.98126 366.75 351.84064ZM375.09375 348.5125L375.25 349.4344Q374.79688 349.52814 374.45312 349.52814Q373.875 349.52814 373.5625 349.35626Q373.25 349.16876 373.10938 348.8719Q372.98438 348.575 372.98438 347.6219L372.98438 344.04376L372.21875 344.04376L372.21875 343.23126L372.98438 343.23126L372.98438 341.6844L374.03125 341.0594L374.03125 343.23126L375.09375 343.23126L375.09375 344.04376L374.03125 344.04376L374.03125 347.6844Q374.03125 348.1375 374.07812 348.2625Q374.14062 348.3875 374.26562 348.46564Q374.39062 348.54376 374.625 348.54376Q374.8125 348.54376 375.09375 348.5125ZM380.04688 347.45L381.14062 347.575Q380.89062 348.52814 380.1875 349.0594Q379.48438 349.59064 378.40625 349.59064Q377.04688 349.59064 376.23438 348.7469Q375.4375 347.90314 375.4375 346.3875Q375.4375 344.825 376.25 343.96564Q377.0625 343.09064 378.34375 343.09064Q379.59375 343.09064 380.375 343.9344Q381.17188 344.77814 381.17188 346.325Q381.17188 346.41876 381.17188 346.60626L376.53125 346.60626Q376.59375 347.6375 377.10938 348.1844Q377.625 348.71564 378.40625 348.71564Q378.98438 348.71564 379.39062 348.41876Q379.8125 348.10626 380.04688 347.45ZM376.59375 345.7469L380.0625 345.7469Q380.0 344.95 379.67188 344.5594Q379.15625 343.95 378.35938 343.95Q377.625 343.95 377.125 344.4344Q376.64062 344.91876 376.59375 345.7469ZM382.375 347.59064L383.40625 347.4344Q383.5 348.0594 383.89062 348.3875Q384.29688 348.71564 385.03125 348.71564Q385.75 348.71564 386.09375 348.4344Q386.45312 348.1375 386.45312 347.73126Q386.45312 347.3719 386.14062 347.16876Q385.92188 347.02814 385.0625 346.8094Q383.90625 346.5125 383.45312 346.3094Q383.01562 346.09064 382.78125 345.71564Q382.54688 345.34064 382.54688 344.8719Q382.54688 344.46564 382.73438 344.10626Q382.92188 343.7469 383.25 343.5125Q383.5 343.34064 383.92188 343.21564Q384.34375 343.09064 384.84375 343.09064Q385.5625 343.09064 386.10938 343.3094Q386.67188 343.5125 386.9375 343.8719Q387.20312 344.23126 387.29688 344.825L386.26562 344.96564Q386.20312 344.4969 385.85938 344.23126Q385.53125 343.95 384.90625 343.95Q384.1875 343.95 383.875 344.2Q383.5625 344.4344 383.5625 344.7625Q383.5625 344.96564 383.6875 345.1219Q383.82812 345.29376 384.09375 345.40314Q384.25 345.46564 385.03125 345.66876Q386.15625 345.98126 386.59375 346.16876Q387.03125 346.35626 387.28125 346.71564Q387.53125 347.075 387.53125 347.6219Q387.53125 348.15314 387.21875 348.6219Q386.92188 349.075 386.34375 349.34064Q385.76562 349.59064 385.03125 349.59064Q383.8125 349.59064 383.17188 349.09064Q382.54688 348.575 382.375 347.59064ZM389.48438 351.98126L388.73438 351.98126Q390.48438 349.16876 390.48438 346.34064Q390.48438 345.2469 390.23438 344.15314Q390.03125 343.27814 389.67188 342.46564Q389.4375 341.95 388.73438 340.71564L389.48438 340.71564Q390.57812 342.1844 391.10938 343.66876Q391.5625 344.95 391.5625 346.34064Q391.5625 347.91876 390.95312 349.40314Q390.34375 350.8719 389.48438 351.98126Z" fill-rule="nonzero"/><path fill="#000000" d="M29.550013 276.74167L20.956263 276.74167L20.956263 275.60104L28.534388 275.60104L28.534388 271.36667L29.550013 271.36667L29.550013 276.74167ZM28.784388 265.7573Q29.284388 266.35104 29.487513 266.89792Q29.690638 267.42917 29.690638 268.05417Q29.690638 269.08542 29.190638 269.6323Q28.690638 270.17917 27.909388 270.17917Q27.456263 270.17917 27.081263 269.97604Q26.690638 269.77292 26.471888 269.42917Q26.237513 269.08542 26.128138 268.66354Q26.034388 268.36667 25.956263 267.72604Q25.815638 266.46042 25.596888 265.85104Q25.378138 265.85104 25.331263 265.85104Q24.675013 265.85104 24.409388 266.14792Q24.065638 266.55417 24.065638 267.35104Q24.065638 268.08542 24.331263 268.4448Q24.581263 268.80417 25.237513 268.97604L25.096888 270.0073Q24.440638 269.86667 24.034388 269.53854Q23.628138 269.21042 23.409388 268.60104Q23.190638 267.99167 23.190638 267.1948Q23.190638 266.39792 23.378138 265.89792Q23.565638 265.39792 23.846888 265.16354Q24.128138 264.92917 24.565638 264.83542Q24.831263 264.78854 25.534388 264.78854L26.940638 264.78854Q28.409388 264.78854 28.800013 264.72604Q29.190638 264.64792 29.550013 264.4448L29.550013 265.55417Q29.221888 265.71042 28.784388 265.7573ZM26.425013 265.85104Q26.659388 266.42917 26.831263 267.5698Q26.925013 268.22604 27.050013 268.49167Q27.159388 268.7573 27.378138 268.91354Q27.596888 269.05417 27.878138 269.05417Q28.300013 269.05417 28.581263 268.74167Q28.862513 268.41354 28.862513 267.80417Q28.862513 267.1948 28.596888 266.72604Q28.331263 266.24167 27.862513 266.02292Q27.503138 265.85104 26.815638 265.85104L26.425013 265.85104ZM28.612513 260.52292L29.534388 260.36667Q29.628138 260.8198 29.628138 261.16354Q29.628138 261.74167 29.456263 262.05417Q29.268763 262.36667 28.971888 262.5073Q28.675013 262.6323 27.721888 262.6323L24.143763 262.6323L24.143763 263.39792L23.331263 263.39792L23.331263 262.6323L21.784388 262.6323L21.159388 261.58542L23.331263 261.58542L23.331263 260.52292L24.143763 260.52292L24.143763 261.58542L27.784388 261.58542Q28.237513 261.58542 28.362513 261.53854Q28.487513 261.47604 28.565638 261.35104Q28.643763 261.22604 28.643763 260.99167Q28.643763 260.80417 28.612513 260.52292ZM27.550013 255.5698L27.675013 254.47604Q28.628138 254.72604 29.159388 255.42917Q29.690638 256.1323 29.690638 257.21042Q29.690638 258.5698 28.846888 259.3823Q28.003138 260.17917 26.487513 260.17917Q24.925013 260.17917 24.065638 259.36667Q23.190638 258.55417 23.190638 257.27292Q23.190638 256.02292 24.034388 255.24167Q24.878138 254.4448 26.425013 254.4448Q26.518763 254.4448 26.706263 254.4448L26.706263 259.08542Q27.737513 259.02292 28.284388 258.5073Q28.815638 257.99167 28.815638 257.21042Q28.815638 256.6323 28.518763 256.22604Q28.206263 255.80417 27.550013 255.5698ZM25.846888 259.02292L25.846888 255.55417Q25.050013 255.61667 24.659388 255.9448Q24.050013 256.46042 24.050013 257.2573Q24.050013 257.99167 24.534388 258.49167Q25.018763 258.97604 25.846888 259.02292ZM29.550013 252.8198L23.331263 252.8198L23.331263 251.8823L24.206263 251.8823Q23.190638 251.1948 23.190638 249.89792Q23.190638 249.33542 23.393763 248.86667Q23.596888 248.3823 23.925013 248.14792Q24.253138 247.91354 24.690638 247.8198Q24.987513 247.77292 25.721888 247.77292L29.550013 247.77292L29.550013 248.8198L25.768763 248.8198Q25.112513 248.8198 24.800013 248.9448Q24.487513 249.0698 24.300013 249.3823Q24.096888 249.6948 24.096888 250.11667Q24.096888 250.78854 24.534388 251.28854Q24.956263 251.77292 26.143763 251.77292L29.550013 251.77292L29.550013 252.8198ZM27.268763 241.7573L27.409388 240.72604Q28.471888 240.89792 29.081263 241.60104Q29.690638 242.30417 29.690638 243.3198Q29.690638 244.60104 28.862513 245.3823Q28.018763 246.14792 26.456263 246.14792Q25.456263 246.14792 24.706263 245.8198Q23.940638 245.47604 23.565638 244.80417Q23.190638 244.11667 23.190638 243.30417Q23.190638 242.30417 23.706263 241.66354Q24.206263 241.0073 25.159388 240.8198L25.315638 241.85104Q24.690638 241.99167 24.378138 242.36667Q24.050013 242.74167 24.050013 243.27292Q24.050013 244.0698 24.628138 244.5698Q25.190638 245.0698 26.425013 245.0698Q27.690638 245.0698 28.253138 244.58542Q28.815638 244.10104 28.815638 243.33542Q28.815638 242.71042 28.440638 242.30417Q28.065638 241.8823 27.268763 241.7573ZM31.940638 239.86667L30.956263 239.99167Q31.050013 239.64792 31.050013 239.3823Q31.050013 239.03854 30.925013 238.83542Q30.815638 238.61667 30.612513 238.47604Q30.440638 238.3823 29.815638 238.14792Q29.737513 238.1323 29.565638 238.05417L23.331263 240.42917L23.331263 239.28854L26.925013 237.99167Q27.612513 237.74167 28.378138 237.53854Q27.643763 237.35104 26.956263 237.10104L23.331263 235.77292L23.331263 234.72604L29.659388 237.08542Q30.675013 237.47604 31.065638 237.67917Q31.596888 237.96042 31.831263 238.33542Q32.08126 238.6948 32.08126 239.1948Q32.08126 239.49167 31.940638 239.86667ZM32.08126 228.80417Q30.971888 229.67917 29.503138 230.28854Q28.018763 230.8823 26.440638 230.8823Q25.050013 230.8823 23.768763 230.4448Q22.284388 229.91354 20.815638 228.80417L20.815638 228.05417Q22.034388 228.7573 22.550013 228.99167Q23.362513 229.35104 24.237513 229.55417Q25.331263 229.80417 26.440638 229.80417Q29.268763 229.80417 32.08126 228.05417L32.08126 228.80417ZM29.550013 226.72604L20.956263 226.72604L20.956263 225.0073L27.034388 222.97604Q27.893763 222.6948 28.315638 222.5698Q27.846888 222.42917 26.940638 222.11667L20.956263 220.05417L20.956263 218.52292L29.550013 218.52292L29.550013 219.61667L22.362513 219.61667L29.550013 222.11667L29.550013 223.14792L22.237513 225.6323L29.550013 225.6323L29.550013 226.72604ZM22.175013 216.8198L20.956263 216.8198L20.956263 215.7573L22.175013 215.7573L22.175013 216.8198ZM29.550013 216.8198L23.331263 216.8198L23.331263 215.7573L29.550013 215.7573L29.550013 216.8198ZM27.268763 209.7573L27.409388 208.72604Q28.471888 208.89792 29.081263 209.60104Q29.690638 210.30417 29.690638 211.3198Q29.690638 212.60104 28.862513 213.3823Q28.018763 214.14792 26.456263 214.14792Q25.456263 214.14792 24.706263 213.8198Q23.940638 213.47604 23.565638 212.80417Q23.190638 212.11667 23.190638 211.30417Q23.190638 210.30417 23.706263 209.66354Q24.206263 209.0073 25.159388 208.8198L25.315638 209.85104Q24.690638 209.99167 24.378138 210.36667Q24.050013 210.74167 24.050013 211.27292Q24.050013 212.0698 24.628138 212.5698Q25.190638 213.0698 26.425013 213.0698Q27.690638 213.0698 28.253138 212.58542Q28.815638 212.10104 28.815638 211.33542Q28.815638 210.71042 28.440638 210.30417Q28.065638 209.8823 27.268763 209.7573ZM29.550013 207.83542L23.331263 207.83542L23.331263 206.8823L24.268763 206.8823Q23.612513 206.52292 23.409388 206.22604Q23.190638 205.91354 23.190638 205.53854Q23.190638 205.0073 23.518763 204.46042L24.503138 204.8198Q24.268763 205.21042 24.268763 205.58542Q24.268763 205.9448 24.487513 206.22604Q24.690638 206.49167 25.065638 206.60104Q25.628138 206.78854 26.284388 206.78854L29.550013 206.78854L29.550013 207.83542ZM26.440638 204.21042Q24.706263 204.21042 23.878138 203.2573Q23.190638 202.46042 23.190638 201.30417Q23.190638 200.02292 24.034388 199.21042Q24.862513 198.3823 26.346888 198.3823Q27.550013 198.3823 28.237513 198.74167Q28.925013 199.10104 29.315638 199.80417Q29.690638 200.49167 29.690638 201.30417Q29.690638 202.60104 28.862513 203.41354Q28.018763 204.21042 26.440638 204.21042ZM26.440638 203.1323Q27.628138 203.1323 28.221888 202.61667Q28.815638 202.08542 28.815638 201.30417Q28.815638 200.5073 28.221888 199.99167Q27.628138 199.47604 26.409388 199.47604Q25.253138 199.47604 24.659388 200.0073Q24.065638 200.52292 24.065638 201.30417Q24.065638 202.08542 24.659388 202.61667Q25.237513 203.1323 26.440638 203.1323ZM27.690638 197.24167L27.534388 196.21042Q28.159388 196.11667 28.487513 195.72604Q28.815638 195.3198 28.815638 194.58542Q28.815638 193.86667 28.534388 193.52292Q28.237513 193.16354 27.831263 193.16354Q27.471888 193.16354 27.268763 193.47604Q27.128138 193.6948 26.909388 194.55417Q26.612513 195.71042 26.409388 196.16354Q26.190638 196.60104 25.815638 196.83542Q25.440638 197.0698 24.971888 197.0698Q24.565638 197.0698 24.206263 196.8823Q23.846888 196.6948 23.612513 196.36667Q23.440638 196.11667 23.315638 195.6948Q23.190638 195.27292 23.190638 194.77292Q23.190638 194.05417 23.409388 193.5073Q23.612513 192.9448 23.971888 192.67917Q24.331263 192.41354 24.925013 192.3198L25.065638 193.35104Q24.596888 193.41354 24.331263 193.7573Q24.050013 194.08542 24.050013 194.71042Q24.050013 195.42917 24.300013 195.74167Q24.534388 196.05417 24.862513 196.05417Q25.065638 196.05417 25.221888 195.92917Q25.393763 195.78854 25.503138 195.52292Q25.565638 195.36667 25.768763 194.58542Q26.081263 193.46042 26.268763 193.02292Q26.456263 192.58542 26.815638 192.33542Q27.175013 192.08542 27.721888 192.08542Q28.253138 192.08542 28.721888 192.39792Q29.175013 192.6948 29.440638 193.27292Q29.690638 193.85104 29.690638 194.58542Q29.690638 195.80417 29.190638 196.4448Q28.675013 197.0698 27.690638 197.24167ZM27.550013 186.5698L27.675013 185.47604Q28.628138 185.72604 29.159388 186.42917Q29.690638 187.1323 29.690638 188.21042Q29.690638 189.5698 28.846888 190.3823Q28.003138 191.17917 26.487513 191.17917Q24.925013 191.17917 24.065638 190.36667Q23.190638 189.55417 23.190638 188.27292Q23.190638 187.02292 24.034388 186.24167Q24.878138 185.4448 26.425013 185.4448Q26.518763 185.4448 26.706263 185.4448L26.706263 190.08542Q27.737513 190.02292 28.284388 189.5073Q28.815638 188.99167 28.815638 188.21042Q28.815638 187.6323 28.518763 187.22604Q28.206263 186.80417 27.550013 186.5698ZM25.846888 190.02292L25.846888 186.55417Q25.050013 186.61667 24.659388 186.9448Q24.050013 187.46042 24.050013 188.2573Q24.050013 188.99167 24.534388 189.49167Q25.018763 189.97604 25.846888 190.02292ZM27.268763 179.7573L27.409388 178.72604Q28.471888 178.89792 29.081263 179.60104Q29.690638 180.30417 29.690638 181.3198Q29.690638 182.60104 28.862513 183.3823Q28.018763 184.14792 26.456263 184.14792Q25.456263 184.14792 24.706263 183.8198Q23.940638 183.47604 23.565638 182.80417Q23.190638 182.11667 23.190638 181.30417Q23.190638 180.30417 23.706263 179.66354Q24.206263 179.0073 25.159388 178.8198L25.315638 179.85104Q24.690638 179.99167 24.378138 180.36667Q24.050013 180.74167 24.050013 181.27292Q24.050013 182.0698 24.628138 182.5698Q25.190638 183.0698 26.425013 183.0698Q27.690638 183.0698 28.253138 182.58542Q28.815638 182.10104 28.815638 181.33542Q28.815638 180.71042 28.440638 180.30417Q28.065638 179.8823 27.268763 179.7573ZM26.440638 178.21042Q24.706263 178.21042 23.878138 177.2573Q23.190638 176.46042 23.190638 175.30417Q23.190638 174.02292 24.034388 173.21042Q24.862513 172.3823 26.346888 172.3823Q27.550013 172.3823 28.237513 172.74167Q28.925013 173.10104 29.315638 173.80417Q29.690638 174.49167 29.690638 175.30417Q29.690638 176.60104 28.862513 177.41354Q28.018763 178.21042 26.440638 178.21042ZM26.440638 177.1323Q27.628138 177.1323 28.221888 176.61667Q28.815638 176.08542 28.815638 175.30417Q28.815638 174.5073 28.221888 173.99167Q27.628138 173.47604 26.409388 173.47604Q25.253138 173.47604 24.659388 174.0073Q24.065638 174.52292 24.065638 175.30417Q24.065638 176.08542 24.659388 176.61667Q25.237513 177.1323 26.440638 177.1323ZM29.550013 170.8198L23.331263 170.8198L23.331263 169.8823L24.206263 169.8823Q23.190638 169.1948 23.190638 167.89792Q23.190638 167.33542 23.393763 166.86667Q23.596888 166.3823 23.925013 166.14792Q24.253138 165.91354 24.690638 165.8198Q24.987513 165.77292 25.721888 165.77292L29.550013 165.77292L29.550013 166.8198L25.768763 166.8198Q25.112513 166.8198 24.800013 166.9448Q24.487513 167.0698 24.300013 167.3823Q24.096888 167.6948 24.096888 168.11667Q24.096888 168.78854 24.534388 169.28854Q24.956263 169.77292 26.143763 169.77292L29.550013 169.77292L29.550013 170.8198ZM29.550013 159.78854L28.768763 159.78854Q29.690638 160.3823 29.690638 161.52292Q29.690638 162.27292 29.284388 162.89792Q28.862513 163.52292 28.128138 163.86667Q27.393763 164.21042 26.440638 164.21042Q25.518763 164.21042 24.753138 163.89792Q23.987513 163.58542 23.596888 162.96042Q23.190638 162.33542 23.190638 161.5698Q23.190638 161.0073 23.425013 160.5698Q23.659388 160.1323 24.034388 159.85104L20.956263 159.85104L20.956263 158.80417L29.550013 158.80417L29.550013 159.78854ZM26.440638 163.11667Q27.643763 163.11667 28.237513 162.61667Q28.815638 162.11667 28.815638 161.42917Q28.815638 160.74167 28.253138 160.2573Q27.690638 159.77292 26.534388 159.77292Q25.253138 159.77292 24.659388 160.27292Q24.065638 160.7573 24.065638 161.47604Q24.065638 162.17917 24.643763 162.64792Q25.206263 163.11667 26.440638 163.11667ZM27.690638 157.24167L27.534388 156.21042Q28.159388 156.11667 28.487513 155.72604Q28.815638 155.3198 28.815638 154.58542Q28.815638 153.86667 28.534388 153.52292Q28.237513 153.16354 27.831263 153.16354Q27.471888 153.16354 27.268763 153.47604Q27.128138 153.6948 26.909388 154.55417Q26.612513 155.71042 26.409388 156.16354Q26.190638 156.60104 25.815638 156.83542Q25.440638 157.0698 24.971888 157.0698Q24.565638 157.0698 24.206263 156.8823Q23.846888 156.6948 23.612513 156.36667Q23.440638 156.11667 23.315638 155.6948Q23.190638 155.27292 23.190638 154.77292Q23.190638 154.05417 23.409388 153.5073Q23.612513 152.9448 23.971888 152.67917Q24.331263 152.41354 24.925013 152.3198L25.065638 153.35104Q24.596888 153.41354 24.331263 153.7573Q24.050013 154.08542 24.050013 154.71042Q24.050013 155.42917 24.300013 155.74167Q24.534388 156.05417 24.862513 156.05417Q25.065638 156.05417 25.221888 155.92917Q25.393763 155.78854 25.503138 155.52292Q25.565638 155.36667 25.768763 154.58542Q26.081263 153.46042 26.268763 153.02292Q26.456263 152.58542 26.815638 152.33542Q27.175013 152.08542 27.721888 152.08542Q28.253138 152.08542 28.721888 152.39792Q29.175013 152.6948 29.440638 153.27292Q29.690638 153.85104 29.690638 154.58542Q29.690638 155.80417 29.190638 156.4448Q28.675013 157.0698 27.690638 157.24167ZM32.08126 150.1323L32.08126 150.8823Q29.268763 149.1323 26.440638 149.1323Q25.346888 149.1323 24.253138 149.3823Q23.378138 149.58542 22.565638 149.9448Q22.050013 150.17917 20.815638 150.8823L20.815638 150.1323Q22.284388 149.03854 23.768763 148.5073Q25.050013 148.05417 26.440638 148.05417Q28.018763 148.05417 29.503138 148.66354Q30.971888 149.27292 32.08126 150.1323Z" fill-rule="nonzero"/><path fill="#000000" d="M72.05 300.21564Q72.05 298.6844 72.3625 297.7625Q72.675 296.825 73.28438 296.325Q73.90938 295.825 74.84688 295.825Q75.53438 295.825 76.05 296.10626Q76.58125 296.3875 76.925 296.91876Q77.26875 297.4344 77.45625 298.1844Q77.64375 298.9344 77.64375 300.21564Q77.64375 301.73126 77.33125 302.65314Q77.03438 303.575 76.40938 304.09064Q75.8 304.59064 74.84688 304.59064Q73.6125 304.59064 72.89375 303.7Q72.05 302.6375 72.05 300.21564ZM73.12813 300.21564Q73.12813 302.325 73.62813 303.02814Q74.12813 303.73126 74.84688 303.73126Q75.58125 303.73126 76.06563 303.02814Q76.56563 302.325 76.56563 300.21564Q76.56563 298.09064 76.06563 297.40314Q75.58125 296.7 74.83125 296.7Q74.1125 296.7 73.675 297.3094Q73.12813 298.09064 73.12813 300.21564Z" fill-rule="nonzero"/><path fill="#000000" d="M55.01875 257.28333L53.971874 257.28333L53.971874 250.56458Q53.58125 250.92395 52.95625 251.29895Q52.346874 251.65833 51.8625 251.8302L51.8625 250.81458Q52.7375 250.3927 53.39375 249.81458Q54.065624 249.22083 54.346874 248.65833L55.01875 248.65833L55.01875 257.28333ZM58.05 253.04895Q58.05 251.5177 58.3625 250.59583Q58.675 249.65833 59.284374 249.15833Q59.909374 248.65833 60.846874 248.65833Q61.534374 248.65833 62.05 248.93958Q62.58125 249.22083 62.925 249.75208Q63.26875 250.2677 63.45625 251.0177Q63.64375 251.7677 63.64375 253.04895Q63.64375 254.56458 63.33125 255.48645Q63.034374 256.40833 62.409374 256.92395Q61.8 257.42395 60.846874 257.42395Q59.6125 257.42395 58.89375 256.53333Q58.05 255.47083 58.05 253.04895ZM59.128124 253.04895Q59.128124 255.15833 59.628124 255.86145Q60.128124 256.56458 60.846874 256.56458Q61.58125 256.56458 62.065624 255.86145Q62.565624 255.15833 62.565624 253.04895Q62.565624 250.92395 62.065624 250.23645Q61.58125 249.53333 60.83125 249.53333Q60.1125 249.53333 59.675 250.1427Q59.128124 250.92395 59.128124 253.04895ZM65.05 253.04895Q65.05 251.5177 65.3625 250.59583Q65.675 249.65833 66.28438 249.15833Q66.90938 248.65833 67.84688 248.65833Q68.53438 248.65833 69.05 248.93958Q69.58125 249.22083 69.925 249.75208Q70.26875 250.2677 70.45625 251.0177Q70.64375 251.7677 70.64375 253.04895Q70.64375 254.56458 70.33125 255.48645Q70.03438 256.40833 69.40938 256.92395Q68.8 257.42395 67.84688 257.42395Q66.6125 257.42395 65.89375 256.53333Q65.05 255.47083 65.05 253.04895ZM66.12813 253.04895Q66.12813 255.15833 66.62813 255.86145Q67.12813 256.56458 67.84688 256.56458Q68.58125 256.56458 69.06563 255.86145Q69.56563 255.15833 69.56563 253.04895Q69.56563 250.92395 69.06563 250.23645Q68.58125 249.53333 67.83125 249.53333Q67.1125 249.53333 66.675 250.1427Q66.12813 250.92395 66.12813 253.04895ZM72.05 253.04895Q72.05 251.5177 72.3625 250.59583Q72.675 249.65833 73.28438 249.15833Q73.90938 248.65833 74.84688 248.65833Q75.53438 248.65833 76.05 248.93958Q76.58125 249.22083 76.925 249.75208Q77.26875 250.2677 77.45625 251.0177Q77.64375 251.7677 77.64375 253.04895Q77.64375 254.56458 77.33125 255.48645Q77.03438 256.40833 76.40938 256.92395Q75.8 257.42395 74.84688 257.42395Q73.6125 257.42395 72.89375 256.53333Q72.05 255.47083 72.05 253.04895ZM73.12813 253.04895Q73.12813 255.15833 73.62813 255.86145Q74.12813 256.56458 74.84688 256.56458Q75.58125 256.56458 76.06563 255.86145Q76.56563 255.15833 76.56563 253.04895Q76.56563 250.92395 76.06563 250.23645Q75.58125 249.53333 74.83125 249.53333Q74.1125 249.53333 73.675 250.1427Q73.12813 250.92395 73.12813 253.04895Z" fill-rule="nonzero"/><path fill="#000000" d="M56.596874 209.10104L56.596874 210.11667L50.909374 210.11667Q50.909374 209.74167 51.034374 209.3823Q51.253124 208.80417 51.721874 208.24167Q52.20625 207.67917 53.1125 206.9448Q54.51875 205.78854 55.003124 205.11667Q55.503124 204.4448 55.503124 203.85104Q55.503124 203.22604 55.05 202.80417Q54.596874 202.36667 53.878124 202.36667Q53.1125 202.36667 52.659374 202.8198Q52.20625 203.27292 52.190624 204.08542L51.1125 203.97604Q51.221874 202.7573 51.940624 202.1323Q52.675 201.49167 53.909374 201.49167Q55.14375 201.49167 55.8625 202.17917Q56.58125 202.86667 56.58125 203.8823Q56.58125 204.39792 56.3625 204.89792Q56.159374 205.3823 55.659374 205.9448Q55.175 206.49167 54.05 207.4448Q53.096874 208.24167 52.815624 208.53854Q52.55 208.8198 52.378124 209.10104L56.596874 209.10104ZM58.05 205.8823Q58.05 204.35104 58.3625 203.42917Q58.675 202.49167 59.284374 201.99167Q59.909374 201.49167 60.846874 201.49167Q61.534374 201.49167 62.05 201.77292Q62.58125 202.05417 62.925 202.58542Q63.26875 203.10104 63.45625 203.85104Q63.64375 204.60104 63.64375 205.8823Q63.64375 207.39792 63.33125 208.3198Q63.034374 209.24167 62.409374 209.7573Q61.8 210.2573 60.846874 210.2573Q59.6125 210.2573 58.89375 209.36667Q58.05 208.30417 58.05 205.8823ZM59.128124 205.8823Q59.128124 207.99167 59.628124 208.6948Q60.128124 209.39792 60.846874 209.39792Q61.58125 209.39792 62.065624 208.6948Q62.565624 207.99167 62.565624 205.8823Q62.565624 203.7573 62.065624 203.0698Q61.58125 202.36667 60.83125 202.36667Q60.1125 202.36667 59.675 202.97604Q59.128124 203.7573 59.128124 205.8823ZM65.05 205.8823Q65.05 204.35104 65.3625 203.42917Q65.675 202.49167 66.28438 201.99167Q66.90938 201.49167 67.84688 201.49167Q68.53438 201.49167 69.05 201.77292Q69.58125 202.05417 69.925 202.58542Q70.26875 203.10104 70.45625 203.85104Q70.64375 204.60104 70.64375 205.8823Q70.64375 207.39792 70.33125 208.3198Q70.03438 209.24167 69.40938 209.7573Q68.8 210.2573 67.84688 210.2573Q66.6125 210.2573 65.89375 209.36667Q65.05 208.30417 65.05 205.8823ZM66.12813 205.8823Q66.12813 207.99167 66.62813 208.6948Q67.12813 209.39792 67.84688 209.39792Q68.58125 209.39792 69.06563 208.6948Q69.56563 207.99167 69.56563 205.8823Q69.56563 203.7573 69.06563 203.0698Q68.58125 202.36667 67.83125 202.36667Q67.1125 202.36667 66.675 202.97604Q66.12813 203.7573 66.12813 205.8823ZM72.05 205.8823Q72.05 204.35104 72.3625 203.42917Q72.675 202.49167 73.28438 201.99167Q73.90938 201.49167 74.84688 201.49167Q75.53438 201.49167 76.05 201.77292Q76.58125 202.05417 76.925 202.58542Q77.26875 203.10104 77.45625 203.85104Q77.64375 204.60104 77.64375 205.8823Q77.64375 207.39792 77.33125 208.3198Q77.03438 209.24167 76.40938 209.7573Q75.8 210.2573 74.84688 210.2573Q73.6125 210.2573 72.89375 209.36667Q72.05 208.30417 72.05 205.8823ZM73.12813 205.8823Q73.12813 207.99167 73.62813 208.6948Q74.12813 209.39792 74.84688 209.39792Q75.58125 209.39792 76.06563 208.6948Q76.56563 207.99167 76.56563 205.8823Q76.56563 203.7573 76.06563 203.0698Q75.58125 202.36667 74.83125 202.36667Q74.1125 202.36667 73.675 202.97604Q73.12813 203.7573 73.12813 205.8823Z" fill-rule="nonzero"/><path fill="#000000" d="M51.05 160.68437L52.1125 160.54375Q52.284374 161.43437 52.721874 161.84062Q53.159374 162.23125 53.784374 162.23125Q54.534374 162.23125 55.05 161.71562Q55.565624 161.2 55.565624 160.43437Q55.565624 159.71562 55.08125 159.24687Q54.6125 158.7625 53.878124 158.7625Q53.58125 158.7625 53.128124 158.8875L53.253124 157.95Q53.3625 157.96562 53.425 157.96562Q54.096874 157.96562 54.628124 157.62187Q55.175 157.2625 55.175 156.52812Q55.175 155.95 54.784374 155.575Q54.39375 155.18437 53.76875 155.18437Q53.159374 155.18437 52.7375 155.575Q52.33125 155.96562 52.221874 156.73125L51.159374 156.54375Q51.346874 155.49687 52.034374 154.91875Q52.721874 154.325 53.7375 154.325Q54.440624 154.325 55.034374 154.6375Q55.628124 154.93437 55.940624 155.45Q56.253124 155.96562 56.253124 156.55937Q56.253124 157.10625 55.95625 157.575Q55.659374 158.02812 55.08125 158.29375Q55.83125 158.46562 56.253124 159.02812Q56.675 159.575 56.675 160.41875Q56.675 161.54375 55.846874 162.325Q55.034374 163.10625 53.784374 163.10625Q52.659374 163.10625 51.909374 162.43437Q51.159374 161.74687 51.05 160.68437ZM58.05 158.71562Q58.05 157.18437 58.3625 156.2625Q58.675 155.325 59.284374 154.825Q59.909374 154.325 60.846874 154.325Q61.534374 154.325 62.05 154.60625Q62.58125 154.8875 62.925 155.41875Q63.26875 155.93437 63.45625 156.68437Q63.64375 157.43437 63.64375 158.71562Q63.64375 160.23125 63.33125 161.15312Q63.034374 162.075 62.409374 162.59062Q61.8 163.09062 60.846874 163.09062Q59.6125 163.09062 58.89375 162.2Q58.05 161.1375 58.05 158.71562ZM59.128124 158.71562Q59.128124 160.825 59.628124 161.52812Q60.128124 162.23125 60.846874 162.23125Q61.58125 162.23125 62.065624 161.52812Q62.565624 160.825 62.565624 158.71562Q62.565624 156.59062 62.065624 155.90312Q61.58125 155.2 60.83125 155.2Q60.1125 155.2 59.675 155.80937Q59.128124 156.59062 59.128124 158.71562ZM65.05 158.71562Q65.05 157.18437 65.3625 156.2625Q65.675 155.325 66.28438 154.825Q66.90938 154.325 67.84688 154.325Q68.53438 154.325 69.05 154.60625Q69.58125 154.8875 69.925 155.41875Q70.26875 155.93437 70.45625 156.68437Q70.64375 157.43437 70.64375 158.71562Q70.64375 160.23125 70.33125 161.15312Q70.03438 162.075 69.40938 162.59062Q68.8 163.09062 67.84688 163.09062Q66.6125 163.09062 65.89375 162.2Q65.05 161.1375 65.05 158.71562ZM66.12813 158.71562Q66.12813 160.825 66.62813 161.52812Q67.12813 162.23125 67.84688 162.23125Q68.58125 162.23125 69.06563 161.52812Q69.56563 160.825 69.56563 158.71562Q69.56563 156.59062 69.06563 155.90312Q68.58125 155.2 67.83125 155.2Q67.1125 155.2 66.675 155.80937Q66.12813 156.59062 66.12813 158.71562ZM72.05 158.71562Q72.05 157.18437 72.3625 156.2625Q72.675 155.325 73.28438 154.825Q73.90938 154.325 74.84688 154.325Q75.53438 154.325 76.05 154.60625Q76.58125 154.8875 76.925 155.41875Q77.26875 155.93437 77.45625 156.68437Q77.64375 157.43437 77.64375 158.71562Q77.64375 160.23125 77.33125 161.15312Q77.03438 162.075 76.40938 162.59062Q75.8 163.09062 74.84688 163.09062Q73.6125 163.09062 72.89375 162.2Q72.05 161.1375 72.05 158.71562ZM73.12813 158.71562Q73.12813 160.825 73.62813 161.52812Q74.12813 162.23125 74.84688 162.23125Q75.58125 162.23125 76.06563 161.52812Q76.56563 160.825 76.56563 158.71562Q76.56563 156.59062 76.06563 155.90312Q75.58125 155.2 74.83125 155.2Q74.1125 155.2 73.675 155.80937Q73.12813 156.59062 73.12813 158.71562Z" fill-rule="nonzero"/><path fill="#000000" d="M54.425 115.78333L54.425 113.72083L50.70625 113.72083L50.70625 112.75208L54.628124 107.18958L55.4875 107.18958L55.4875 112.75208L56.64375 112.75208L56.64375 113.72083L55.4875 113.72083L55.4875 115.78333L54.425 115.78333ZM54.425 112.75208L54.425 108.89271L51.7375 112.75208L54.425 112.75208ZM58.05 111.54896Q58.05 110.01771 58.3625 109.09583Q58.675 108.15833 59.284374 107.65833Q59.909374 107.15833 60.846874 107.15833Q61.534374 107.15833 62.05 107.43958Q62.58125 107.72083 62.925 108.25208Q63.26875 108.76771 63.45625 109.51771Q63.64375 110.26771 63.64375 111.54896Q63.64375 113.06458 63.33125 113.98646Q63.034374 114.90833 62.409374 115.42396Q61.8 115.92396 60.846874 115.92396Q59.6125 115.92396 58.89375 115.03333Q58.05 113.97083 58.05 111.54896ZM59.128124 111.54896Q59.128124 113.65833 59.628124 114.36146Q60.128124 115.06458 60.846874 115.06458Q61.58125 115.06458 62.065624 114.36146Q62.565624 113.65833 62.565624 111.54896Q62.565624 109.42396 62.065624 108.73646Q61.58125 108.03333 60.83125 108.03333Q60.1125 108.03333 59.675 108.64271Q59.128124 109.42396 59.128124 111.54896ZM65.05 111.54896Q65.05 110.01771 65.3625 109.09583Q65.675 108.15833 66.28438 107.65833Q66.90938 107.15833 67.84688 107.15833Q68.53438 107.15833 69.05 107.43958Q69.58125 107.72083 69.925 108.25208Q70.26875 108.76771 70.45625 109.51771Q70.64375 110.26771 70.64375 111.54896Q70.64375 113.06458 70.33125 113.98646Q70.03438 114.90833 69.40938 115.42396Q68.8 115.92396 67.84688 115.92396Q66.6125 115.92396 65.89375 115.03333Q65.05 113.97083 65.05 111.54896ZM66.12813 111.54896Q66.12813 113.65833 66.62813 114.36146Q67.12813 115.06458 67.84688 115.06458Q68.58125 115.06458 69.06563 114.36146Q69.56563 113.65833 69.56563 111.54896Q69.56563 109.42396 69.06563 108.73646Q68.58125 108.03333 67.83125 108.03333Q67.1125 108.03333 66.675 108.64271Q66.12813 109.42396 66.12813 111.54896ZM72.05 111.54896Q72.05 110.01771 72.3625 109.09583Q72.675 108.15833 73.28438 107.65833Q73.90938 107.15833 74.84688 107.15833Q75.53438 107.15833 76.05 107.43958Q76.58125 107.72083 76.925 108.25208Q77.26875 108.76771 77.45625 109.51771Q77.64375 110.26771 77.64375 111.54896Q77.64375 113.06458 77.33125 113.98646Q77.03438 114.90833 76.40938 115.42396Q75.8 115.92396 74.84688 115.92396Q73.6125 115.92396 72.89375 115.03333Q72.05 113.97083 72.05 111.54896ZM73.12813 111.54896Q73.12813 113.65833 73.62813 114.36146Q74.12813 115.06458 74.84688 115.06458Q75.58125 115.06458 76.06563 114.36146Q76.56563 113.65833 76.56563 111.54896Q76.56563 109.42396 76.06563 108.73646Q75.58125 108.03333 74.83125 108.03333Q74.1125 108.03333 73.675 108.64271Q73.12813 109.42396 73.12813 111.54896Z" fill-rule="nonzero"/><path fill="#000000" d="M165.99167 312.79376Q165.33542 312.54376 165.0073 312.10626Q164.6948 311.65314 164.6948 311.04376Q164.6948 310.10626 165.36667 309.46564Q166.05417 308.825 167.16354 308.825Q168.28854 308.825 168.97604 309.48126Q169.66354 310.1375 169.66354 311.075Q169.66354 311.66876 169.35104 312.10626Q169.03854 312.54376 168.39792 312.79376Q169.1948 313.04376 169.60104 313.6219Q170.0073 314.2 170.0073 314.9969Q170.0073 316.09064 169.22604 316.84064Q168.46042 317.59064 167.17917 317.59064Q165.91354 317.59064 165.1323 316.84064Q164.35104 316.09064 164.35104 314.96564Q164.35104 314.1219 164.77292 313.5594Q165.21042 312.9969 165.99167 312.79376ZM165.77292 310.9969Q165.77292 311.60626 166.16354 311.9969Q166.5698 312.3875 167.1948 312.3875Q167.80417 312.3875 168.1948 312.0125Q168.58542 311.6219 168.58542 311.0594Q168.58542 310.48126 168.17917 310.09064Q167.77292 309.6844 167.17917 309.6844Q166.5698 309.6844 166.16354 310.075Q165.77292 310.46564 165.77292 310.9969ZM165.4448 314.96564Q165.4448 315.41876 165.64792 315.84064Q165.86667 316.2625 166.28854 316.4969Q166.71042 316.73126 167.1948 316.73126Q167.9448 316.73126 168.42917 316.2469Q168.92917 315.7625 168.92917 315.0125Q168.92917 314.2469 168.42917 313.7469Q167.92917 313.2469 167.16354 313.2469Q166.41354 313.2469 165.92917 313.7469Q165.4448 314.23126 165.4448 314.96564Z" fill-rule="nonzero"/><path fill="#000000" d="M331.96875 310.96564L330.92188 311.04376Q330.78125 310.41876 330.53125 310.1375Q330.09375 309.6844 329.46875 309.6844Q328.96875 309.6844 328.57812 309.96564Q328.09375 310.34064 327.79688 311.04376Q327.51562 311.73126 327.5 313.0125Q327.875 312.4344 328.42188 312.15314Q328.98438 311.8719 329.59375 311.8719Q330.64062 311.8719 331.375 312.65314Q332.125 313.4344 332.125 314.65314Q332.125 315.46564 331.76562 316.16876Q331.42188 316.85626 330.8125 317.23126Q330.20312 317.59064 329.4375 317.59064Q328.10938 317.59064 327.28125 316.6219Q326.45312 315.65314 326.45312 313.4344Q326.45312 310.9344 327.375 309.8094Q328.17188 308.825 329.53125 308.825Q330.54688 308.825 331.1875 309.40314Q331.84375 309.96564 331.96875 310.96564ZM327.67188 314.66876Q327.67188 315.21564 327.89062 315.71564Q328.125 316.2 328.53125 316.46564Q328.95312 316.73126 329.42188 316.73126Q330.07812 316.73126 330.5625 316.2Q331.04688 315.65314 331.04688 314.73126Q331.04688 313.84064 330.5625 313.325Q330.09375 312.8094 329.375 312.8094Q328.65625 312.8094 328.15625 313.325Q327.67188 313.84064 327.67188 314.66876ZM336.875 317.45L336.875 315.3875L333.15625 315.3875L333.15625 314.41876L337.07812 308.85626L337.9375 308.85626L337.9375 314.41876L339.09375 314.41876L339.09375 315.3875L337.9375 315.3875L337.9375 317.45L336.875 317.45ZM336.875 314.41876L336.875 310.5594L334.1875 314.41876L336.875 314.41876Z" fill-rule="nonzero"/><path fill="#000000" d="M489.10208 317.45L488.0552 317.45L488.0552 310.73126Q487.66458 311.09064 487.03958 311.46564Q486.4302 311.825 485.94583 311.9969L485.94583 310.98126Q486.82083 310.5594 487.47708 309.98126Q488.14896 309.3875 488.4302 308.825L489.10208 308.825L489.10208 317.45ZM492.13333 313.21564Q492.13333 311.6844 492.44583 310.7625Q492.75833 309.825 493.3677 309.325Q493.9927 308.825 494.9302 308.825Q495.6177 308.825 496.13333 309.10626Q496.66458 309.3875 497.00833 309.91876Q497.35208 310.4344 497.53958 311.1844Q497.72708 311.9344 497.72708 313.21564Q497.72708 314.73126 497.41458 315.65314Q497.1177 316.575 496.4927 317.09064Q495.88333 317.59064 494.9302 317.59064Q493.69583 317.59064 492.97708 316.7Q492.13333 315.6375 492.13333 313.21564ZM493.21146 313.21564Q493.21146 315.325 493.71146 316.02814Q494.21146 316.73126 494.9302 316.73126Q495.66458 316.73126 496.14896 316.02814Q496.64896 315.325 496.64896 313.21564Q496.64896 311.09064 496.14896 310.40314Q495.66458 309.7 494.91458 309.7Q494.19583 309.7 493.75833 310.3094Q493.21146 311.09064 493.21146 313.21564ZM504.6802 316.4344L504.6802 317.45L498.9927 317.45Q498.9927 317.075 499.1177 316.71564Q499.33646 316.1375 499.8052 315.575Q500.28958 315.0125 501.19583 314.27814Q502.60208 313.1219 503.08646 312.45Q503.58646 311.77814 503.58646 311.1844Q503.58646 310.5594 503.13333 310.1375Q502.6802 309.7 501.96146 309.7Q501.19583 309.7 500.7427 310.15314Q500.28958 310.60626 500.27396 311.41876L499.19583 311.3094Q499.3052 310.09064 500.02396 309.46564Q500.75833 308.825 501.9927 308.825Q503.22708 308.825 503.94583 309.5125Q504.66458 310.2 504.66458 311.21564Q504.66458 311.73126 504.44583 312.23126Q504.2427 312.71564 503.7427 313.27814Q503.25833 313.825 502.13333 314.77814Q501.1802 315.575 500.89896 315.8719Q500.63333 316.15314 500.46146 316.4344L504.6802 316.4344ZM509.50833 317.45L509.50833 315.3875L505.78958 315.3875L505.78958 314.41876L509.71146 308.85626L510.57083 308.85626L510.57083 314.41876L511.72708 314.41876L511.72708 315.3875L510.57083 315.3875L510.57083 317.45L509.50833 317.45ZM509.50833 314.41876L509.50833 310.5594L506.82083 314.41876L509.50833 314.41876Z" fill-rule="nonzero"/><path stroke="#4285f4" stroke-width="4.0" stroke-linecap="butt" d="M247.0 85.416664L259.0 85.416664" fill-rule="nonzero"/><path fill="#1a1a1a" d="M270.10938 89.416664L270.10938 81.83854L267.28125 81.83854L267.28125 80.822914L274.09375 80.822914L274.09375 81.83854L271.25 81.83854L271.25 89.416664L270.10938 89.416664ZM281.0625 86.40104L282.1875 86.697914Q281.82812 88.08854 280.90625 88.822914Q279.98438 89.55729 278.64062 89.55729Q277.25 89.55729 276.375 88.99479Q275.5 88.43229 275.04688 87.36979Q274.59375 86.291664 274.59375 85.05729Q274.59375 83.71354 275.10938 82.71354Q275.625 81.71354 276.5625 81.197914Q277.51562 80.68229 278.65625 80.68229Q279.9375 80.68229 280.8125 81.33854Q281.70312 81.99479 282.04688 83.18229L280.92188 83.447914Q280.625 82.510414 280.04688 82.08854Q279.48438 81.65104 278.625 81.65104Q277.64062 81.65104 276.96875 82.135414Q276.3125 82.604164 276.03125 83.40104Q275.76562 84.197914 275.76562 85.05729Q275.76562 86.15104 276.07812 86.96354Q276.40625 87.77604 277.07812 88.18229Q277.75 88.58854 278.54688 88.58854Q279.5 88.58854 280.15625 88.041664Q280.82812 87.49479 281.0625 86.40104ZM283.92188 89.416664L283.92188 80.822914L287.17188 80.822914Q288.01562 80.822914 288.46875 80.90104Q289.10938 81.010414 289.53125 81.30729Q289.96875 81.604164 290.21875 82.135414Q290.48438 82.666664 290.48438 83.30729Q290.48438 84.40104 289.78125 85.166664Q289.09375 85.916664 287.26562 85.916664L285.0625 85.916664L285.0625 89.416664L283.92188 89.416664ZM285.0625 84.916664L287.28125 84.916664Q288.39062 84.916664 288.84375 84.510414Q289.3125 84.08854 289.3125 83.33854Q289.3125 82.80729 289.03125 82.43229Q288.76562 82.041664 288.32812 81.916664Q288.03125 81.83854 287.26562 81.83854L285.0625 81.83854L285.0625 84.916664Z" fill-rule="nonzero"/><path stroke="#ea4335" stroke-width="4.0" stroke-linecap="butt" d="M307.0 85.416664L319.0 85.416664" fill-rule="nonzero"/><path fill="#1a1a1a" d="M333.5625 80.822914L334.70312 80.822914L334.70312 85.791664Q334.70312 87.08854 334.40625 87.854164Q334.10938 88.604164 333.34375 89.08854Q332.57812 89.55729 331.34375 89.55729Q330.14062 89.55729 329.35938 89.15104Q328.59375 88.729164 328.26562 87.947914Q327.9375 87.15104 327.9375 85.791664L327.9375 80.822914L329.07812 80.822914L329.07812 85.77604Q329.07812 86.90104 329.28125 87.43229Q329.5 87.96354 330.0 88.260414Q330.51562 88.541664 331.25 88.541664Q332.5 88.541664 333.03125 87.979164Q333.5625 87.40104 333.5625 85.77604L333.5625 80.822914ZM336.92188 89.416664L336.92188 80.822914L339.89062 80.822914Q340.89062 80.822914 341.42188 80.947914Q342.15625 81.11979 342.67188 81.55729Q343.35938 82.135414 343.6875 83.041664Q344.03125 83.93229 344.03125 85.072914Q344.03125 86.05729 343.79688 86.80729Q343.57812 87.55729 343.21875 88.05729Q342.85938 88.55729 342.42188 88.83854Q342.0 89.11979 341.40625 89.27604Q340.8125 89.416664 340.03125 89.416664L336.92188 89.416664ZM338.0625 88.40104L339.89062 88.40104Q340.75 88.40104 341.23438 88.24479Q341.71875 88.08854 342.0 87.791664Q342.40625 87.40104 342.625 86.71354Q342.85938 86.02604 342.85938 85.05729Q342.85938 83.71354 342.40625 82.99479Q341.96875 82.260414 341.34375 82.010414Q340.875 81.83854 339.875 81.83854L338.0625 81.83854L338.0625 88.40104ZM345.92188 89.416664L345.92188 80.822914L349.17188 80.822914Q350.01562 80.822914 350.46875 80.90104Q351.10938 81.010414 351.53125 81.30729Q351.96875 81.604164 352.21875 82.135414Q352.48438 82.666664 352.48438 83.30729Q352.48438 84.40104 351.78125 85.166664Q351.09375 85.916664 349.26562 85.916664L347.0625 85.916664L347.0625 89.416664L345.92188 89.416664ZM347.0625 84.916664L349.28125 84.916664Q350.39062 84.916664 350.84375 84.510414Q351.3125 84.08854 351.3125 83.33854Q351.3125 82.80729 351.03125 82.43229Q350.76562 82.041664 350.32812 81.916664Q350.03125 81.83854 349.26562 81.83854L347.0625 81.83854L347.0625 84.916664Z" fill-rule="nonzero"/><path fill="#999999" d="M263.07812 63.05L263.07812 53.034374L266.85938 53.034374Q267.85938 53.034374 268.39062 53.128124Q269.125 53.253124 269.625 53.596874Q270.125 53.940624 270.42188 54.565624Q270.73438 55.175 270.73438 55.925Q270.73438 57.20625 269.92188 58.096874Q269.10938 58.971874 266.98438 58.971874L264.40625 58.971874L264.40625 63.05L263.07812 63.05ZM264.40625 57.8L267.0 57.8Q268.28125 57.8 268.8125 57.315624Q269.35938 56.83125 269.35938 55.971874Q269.35938 55.33125 269.04688 54.89375Q268.73438 54.440624 268.20312 54.3Q267.875 54.20625 266.96875 54.20625L264.40625 54.20625L264.40625 57.8ZM279.23438 59.534374L280.5625 59.878124Q280.14062 61.503124 279.04688 62.3625Q277.96875 63.221874 276.40625 63.221874Q274.78125 63.221874 273.76562 62.565624Q272.75 61.89375 272.21875 60.64375Q271.70312 59.39375 271.70312 57.95625Q271.70312 56.39375 272.29688 55.2375Q272.89062 54.065624 274.0 53.471874Q275.10938 52.8625 276.42188 52.8625Q277.9375 52.8625 278.95312 53.628124Q279.98438 54.39375 280.39062 55.76875L279.07812 56.08125Q278.73438 54.9875 278.0625 54.4875Q277.40625 53.9875 276.40625 53.9875Q275.25 53.9875 274.46875 54.55Q273.6875 55.096874 273.375 56.034374Q273.0625 56.971874 273.0625 57.95625Q273.0625 59.2375 273.4375 60.190624Q273.8125 61.14375 274.59375 61.6125Q275.375 62.08125 276.29688 62.08125Q277.40625 62.08125 278.17188 61.440624Q278.95312 60.8 279.23438 59.534374ZM285.4375 60.034374L285.4375 58.8L289.21875 58.8L289.21875 60.034374L285.4375 60.034374ZM295.03125 63.05L295.03125 53.034374L296.35938 53.034374L296.35938 61.8625L301.28125 61.8625L301.28125 63.05L295.03125 63.05ZM307.65625 62.159374Q306.98438 62.7375 306.34375 62.9875Q305.71875 63.221874 304.98438 63.221874Q303.79688 63.221874 303.14062 62.64375Q302.5 62.05 302.5 61.128124Q302.5 60.596874 302.73438 60.159374Q302.98438 59.721874 303.375 59.45625Q303.78125 59.190624 304.26562 59.05Q304.625 58.95625 305.35938 58.8625Q306.85938 58.690624 307.5625 58.440624Q307.5625 58.190624 307.5625 58.128124Q307.5625 57.3625 307.21875 57.065624Q306.75 56.64375 305.8125 56.64375Q304.95312 56.64375 304.53125 56.95625Q304.125 57.253124 303.92188 58.01875L302.71875 57.8625Q302.875 57.08125 303.25 56.6125Q303.64062 56.14375 304.34375 55.89375Q305.0625 55.628124 306.0 55.628124Q306.92188 55.628124 307.5 55.846874Q308.07812 56.065624 308.34375 56.39375Q308.625 56.721874 308.73438 57.2375Q308.79688 57.55 308.79688 58.3625L308.79688 60.003124Q308.79688 61.721874 308.875 62.175Q308.95312 62.628124 309.1875 63.05L307.90625 63.05Q307.71875 62.659374 307.65625 62.159374ZM307.5625 59.409374Q306.89062 59.675 305.54688 59.878124Q304.79688 59.9875 304.46875 60.128124Q304.15625 60.253124 303.98438 60.51875Q303.8125 60.784374 303.8125 61.096874Q303.8125 61.596874 304.1875 61.925Q304.5625 62.253124 305.28125 62.253124Q306.0 62.253124 306.54688 61.940624Q307.09375 61.628124 307.35938 61.08125Q307.5625 60.675 307.5625 59.8625L307.5625 59.409374ZM310.92188 65.83125L310.92188 55.784374L312.04688 55.784374L312.04688 56.7375Q312.4375 56.175 312.9375 55.909374Q313.4375 55.628124 314.15625 55.628124Q315.07812 55.628124 315.78125 56.1125Q316.5 56.58125 316.85938 57.45625Q317.21875 58.33125 317.21875 59.3625Q317.21875 60.471874 316.8125 61.378124Q316.42188 62.26875 315.65625 62.753124Q314.90625 63.221874 314.0625 63.221874Q313.45312 63.221874 312.95312 62.95625Q312.46875 62.690624 312.15625 62.3L312.15625 65.83125L310.92188 65.83125ZM312.03125 59.45625Q312.03125 60.8625 312.59375 61.534374Q313.17188 62.20625 313.98438 62.20625Q314.79688 62.20625 315.375 61.51875Q315.96875 60.815624 315.96875 59.3625Q315.96875 57.971874 315.39062 57.284374Q314.82812 56.596874 314.03125 56.596874Q313.25 56.596874 312.64062 57.33125Q312.03125 58.065624 312.03125 59.45625ZM321.60938 61.95625L321.78125 63.034374Q321.26562 63.14375 320.85938 63.14375Q320.1875 63.14375 319.8125 62.940624Q319.45312 62.721874 319.29688 62.378124Q319.15625 62.034374 319.15625 60.925L319.15625 56.753124L318.25 56.753124L318.25 55.784374L319.15625 55.784374L319.15625 53.9875L320.375 53.253124L320.375 55.784374L321.60938 55.784374L321.60938 56.753124L320.375 56.753124L320.375 60.9875Q320.375 61.51875 320.4375 61.675Q320.5 61.815624 320.64062 61.909374Q320.79688 62.003124 321.0625 62.003124Q321.28125 62.003124 321.60938 61.95625ZM322.46875 59.425Q322.46875 57.409374 323.59375 56.425Q324.51562 55.628124 325.875 55.628124Q327.35938 55.628124 328.3125 56.6125Q329.26562 57.58125 329.26562 59.315624Q329.26562 60.721874 328.84375 61.534374Q328.42188 62.33125 327.60938 62.784374Q326.8125 63.221874 325.875 63.221874Q324.34375 63.221874 323.40625 62.2375Q322.46875 61.253124 322.46875 59.425ZM323.73438 59.425Q323.73438 60.815624 324.34375 61.51875Q324.95312 62.20625 325.875 62.20625Q326.78125 62.20625 327.39062 61.503124Q328.0 60.8 328.0 59.378124Q328.0 58.034374 327.39062 57.346874Q326.78125 56.64375 325.875 56.64375Q324.95312 56.64375 324.34375 57.33125Q323.73438 58.01875 323.73438 59.425ZM330.92188 65.83125L330.92188 55.784374L332.04688 55.784374L332.04688 56.7375Q332.4375 56.175 332.9375 55.909374Q333.4375 55.628124 334.15625 55.628124Q335.07812 55.628124 335.78125 56.1125Q336.5 56.58125 336.85938 57.45625Q337.21875 58.33125 337.21875 59.3625Q337.21875 60.471874 336.8125 61.378124Q336.42188 62.26875 335.65625 62.753124Q334.90625 63.221874 334.0625 63.221874Q333.45312 63.221874 332.95312 62.95625Q332.46875 62.690624 332.15625 62.3L332.15625 65.83125L330.92188 65.83125ZM332.03125 59.45625Q332.03125 60.8625 332.59375 61.534374Q333.17188 62.20625 333.98438 62.20625Q334.79688 62.20625 335.375 61.51875Q335.96875 60.815624 335.96875 59.3625Q335.96875 57.971874 335.39062 57.284374Q334.82812 56.596874 334.03125 56.596874Q333.25 56.596874 332.64062 57.33125Q332.03125 58.065624 332.03125 59.45625Z" fill-rule="nonzero"/><path fill="#757575" d="M163.07812 37.55L163.07812 23.2375L169.42188 23.2375Q171.32812 23.2375 172.32812 23.628124Q173.32812 24.003124 173.92188 24.9875Q174.51562 25.95625 174.51562 27.14375Q174.51562 28.659374 173.53125 29.70625Q172.54688 30.753124 170.48438 31.034374Q171.23438 31.39375 171.625 31.753124Q172.45312 32.503124 173.20312 33.659374L175.6875 37.55L173.3125 37.55L171.40625 34.565624Q170.57812 33.284374 170.04688 32.596874Q169.51562 31.909374 169.07812 31.64375Q168.65625 31.3625 168.21875 31.253124Q167.89062 31.190624 167.17188 31.190624L164.96875 31.190624L164.96875 37.55L163.07812 37.55ZM164.96875 29.55L169.04688 29.55Q170.34375 29.55 171.0625 29.284374Q171.79688 29.01875 172.17188 28.425Q172.5625 27.83125 172.5625 27.14375Q172.5625 26.128124 171.82812 25.471874Q171.09375 24.815624 169.5 24.815624L164.96875 24.815624L164.96875 29.55ZM180.6875 37.55L180.6875 24.925L175.96875 24.925L175.96875 23.2375L187.3125 23.2375L187.3125 24.925L182.57812 24.925L182.57812 37.55L180.6875 37.55ZM192.6875 37.55L192.6875 24.925L187.96875 24.925L187.96875 23.2375L199.3125 23.2375L199.3125 24.925L194.57812 24.925L194.57812 37.55L192.6875 37.55ZM206.96875 37.55L206.96875 23.2375L208.85938 23.2375L208.85938 35.8625L215.90625 35.8625L215.90625 37.55L206.96875 37.55ZM224.59375 36.26875Q223.60938 37.096874 222.70312 37.440624Q221.79688 37.784374 220.76562 37.784374Q219.0625 37.784374 218.14062 36.95625Q217.21875 36.1125 217.21875 34.815624Q217.21875 34.05 217.5625 33.425Q217.92188 32.8 218.48438 32.425Q219.04688 32.034374 219.75 31.83125Q220.26562 31.70625 221.3125 31.565624Q223.4375 31.315624 224.4375 30.971874Q224.45312 30.6125 224.45312 30.503124Q224.45312 29.440624 223.95312 28.9875Q223.28125 28.39375 221.95312 28.39375Q220.70312 28.39375 220.10938 28.83125Q219.53125 29.26875 219.25 30.378124L217.53125 30.14375Q217.76562 29.034374 218.29688 28.3625Q218.82812 27.675 219.84375 27.315624Q220.85938 26.940624 222.20312 26.940624Q223.53125 26.940624 224.35938 27.253124Q225.1875 27.565624 225.57812 28.05Q225.96875 28.51875 226.125 29.2375Q226.21875 29.690624 226.21875 30.8625L226.21875 33.20625Q226.21875 35.659374 226.32812 36.315624Q226.4375 36.95625 226.78125 37.55L224.9375 37.55Q224.67188 37.003124 224.59375 36.26875ZM224.4375 32.346874Q223.48438 32.7375 221.5625 33.003124Q220.48438 33.159374 220.03125 33.3625Q219.59375 33.55 219.34375 33.925Q219.09375 34.3 219.09375 34.76875Q219.09375 35.471874 219.625 35.940624Q220.15625 36.409374 221.1875 36.409374Q222.20312 36.409374 222.98438 35.971874Q223.78125 35.51875 224.15625 34.753124Q224.4375 34.14375 224.4375 32.9875L224.4375 32.346874ZM232.65625 35.971874L232.90625 37.534374Q232.17188 37.690624 231.57812 37.690624Q230.625 37.690624 230.09375 37.39375Q229.57812 37.08125 229.35938 36.596874Q229.14062 36.096874 229.14062 34.51875L229.14062 28.55L227.85938 28.55L227.85938 27.175L229.14062 27.175L229.14062 24.6125L230.89062 23.55L230.89062 27.175L232.65625 27.175L232.65625 28.55L230.89062 28.55L230.89062 34.6125Q230.89062 35.3625 230.98438 35.58125Q231.07812 35.784374 231.28125 35.925Q231.5 36.05 231.89062 36.05Q232.17188 36.05 232.65625 35.971874ZM241.92188 34.20625L243.73438 34.440624Q243.3125 36.01875 242.14062 36.909374Q240.98438 37.784374 239.17188 37.784374Q236.90625 37.784374 235.5625 36.39375Q234.23438 34.9875 234.23438 32.45625Q234.23438 29.83125 235.57812 28.39375Q236.92188 26.940624 239.07812 26.940624Q241.15625 26.940624 242.46875 28.3625Q243.79688 29.76875 243.79688 32.346874Q243.79688 32.503124 243.78125 32.815624L236.04688 32.815624Q236.14062 34.51875 237.01562 35.425Q237.89062 36.33125 239.1875 36.33125Q240.15625 36.33125 240.82812 35.83125Q241.51562 35.315624 241.92188 34.20625ZM236.14062 31.3625L241.9375 31.3625Q241.82812 30.065624 241.28125 29.409374Q240.4375 28.39375 239.09375 28.39375Q237.89062 28.39375 237.0625 29.20625Q236.23438 30.003124 236.14062 31.3625ZM245.8125 37.55L245.8125 27.175L247.40625 27.175L247.40625 28.659374Q248.54688 26.940624 250.70312 26.940624Q251.64062 26.940624 252.42188 27.284374Q253.21875 27.6125 253.60938 28.159374Q254.0 28.70625 254.15625 29.45625Q254.25 29.95625 254.25 31.175L254.25 37.55L252.48438 37.55L252.48438 31.2375Q252.48438 30.159374 252.28125 29.628124Q252.07812 29.096874 251.54688 28.784374Q251.03125 28.471874 250.32812 28.471874Q249.20312 28.471874 248.39062 29.190624Q247.57812 29.89375 247.57812 31.878124L247.57812 37.55L245.8125 37.55ZM263.59375 33.753124L265.3125 33.971874Q265.03125 35.76875 263.85938 36.784374Q262.70312 37.784374 261.0 37.784374Q258.875 37.784374 257.57812 36.39375Q256.28125 35.003124 256.28125 32.409374Q256.28125 30.721874 256.82812 29.471874Q257.39062 28.20625 258.53125 27.58125Q259.67188 26.940624 261.01562 26.940624Q262.70312 26.940624 263.76562 27.8Q264.84375 28.659374 265.15625 30.221874L263.4375 30.4875Q263.20312 29.440624 262.57812 28.925Q261.95312 28.39375 261.07812 28.39375Q259.75 28.39375 258.92188 29.346874Q258.09375 30.3 258.09375 32.346874Q258.09375 34.440624 258.89062 35.39375Q259.6875 36.33125 260.98438 36.33125Q262.01562 36.33125 262.70312 35.70625Q263.40625 35.065624 263.59375 33.753124ZM266.73438 41.55L266.54688 39.89375Q267.125 40.05 267.54688 40.05Q268.14062 40.05 268.48438 39.846874Q268.84375 39.659374 269.0625 39.315624Q269.23438 39.05 269.60938 38.003124Q269.65625 37.846874 269.76562 37.565624L265.82812 27.175L267.71875 27.175L269.875 33.190624Q270.29688 34.33125 270.625 35.58125Q270.9375 34.378124 271.34375 33.221874L273.5625 27.175L275.32812 27.175L271.375 37.721874Q270.75 39.440624 270.39062 40.08125Q269.92188 40.95625 269.3125 41.346874Q268.71875 41.753124 267.875 41.753124Q267.35938 41.753124 266.73438 41.55ZM287.14062 37.55L281.59375 23.2375L283.64062 23.2375L287.35938 33.628124Q287.8125 34.878124 288.10938 35.971874Q288.4375 34.8 288.89062 33.628124L292.75 23.2375L294.6875 23.2375L289.07812 37.55L287.14062 37.55ZM295.40625 32.95625L297.1875 32.8Q297.3125 33.8625 297.76562 34.55Q298.23438 35.2375 299.20312 35.675Q300.1875 36.096874 301.42188 36.096874Q302.5 36.096874 303.32812 35.784374Q304.15625 35.45625 304.5625 34.89375Q304.96875 34.33125 304.96875 33.659374Q304.96875 32.9875 304.57812 32.4875Q304.1875 31.9875 303.29688 31.64375Q302.71875 31.409374 300.73438 30.940624Q298.76562 30.471874 297.98438 30.05Q296.95312 29.51875 296.45312 28.721874Q295.95312 27.925 295.95312 26.940624Q295.95312 25.846874 296.5625 24.909374Q297.17188 23.971874 298.35938 23.4875Q299.54688 22.9875 300.98438 22.9875Q302.57812 22.9875 303.79688 23.503124Q305.01562 24.01875 305.65625 25.01875Q306.3125 26.003124 306.35938 27.26875L304.54688 27.409374Q304.40625 26.05 303.5625 25.3625Q302.71875 24.659374 301.0625 24.659374Q299.34375 24.659374 298.54688 25.3Q297.76562 25.925 297.76562 26.8Q297.76562 27.58125 298.32812 28.08125Q298.875 28.58125 301.1875 29.096874Q303.5 29.6125 304.35938 30.003124Q305.60938 30.58125 306.20312 31.471874Q306.79688 32.346874 306.79688 33.503124Q306.79688 34.64375 306.14062 35.659374Q305.48438 36.675 304.25 37.2375Q303.03125 37.8 301.5 37.8Q299.5625 37.8 298.25 37.2375Q296.9375 36.659374 296.1875 35.51875Q295.4375 34.378124 295.40625 32.95625ZM314.98438 37.55L314.98438 23.2375L317.84375 23.2375L321.21875 33.3625Q321.6875 34.784374 321.90625 35.4875Q322.15625 34.70625 322.67188 33.190624L326.09375 23.2375L328.64062 23.2375L328.64062 37.55L326.82812 37.55L326.82812 25.565624L322.65625 37.55L320.95312 37.55L316.8125 25.3625L316.8125 37.55L314.98438 37.55ZM338.92188 34.20625L340.73438 34.440624Q340.3125 36.01875 339.14062 36.909374Q337.98438 37.784374 336.17188 37.784374Q333.90625 37.784374 332.5625 36.39375Q331.23438 34.9875 331.23438 32.45625Q331.23438 29.83125 332.57812 28.39375Q333.92188 26.940624 336.07812 26.940624Q338.15625 26.940624 339.46875 28.3625Q340.79688 29.76875 340.79688 32.346874Q340.79688 32.503124 340.78125 32.815624L333.04688 32.815624Q333.14062 34.51875 334.01562 35.425Q334.89062 36.33125 336.1875 36.33125Q337.15625 36.33125 337.82812 35.83125Q338.51562 35.315624 338.92188 34.20625ZM333.14062 31.3625L338.9375 31.3625Q338.82812 30.065624 338.28125 29.409374Q337.4375 28.39375 336.09375 28.39375Q334.89062 28.39375 334.0625 29.20625Q333.23438 30.003124 333.14062 31.3625ZM342.10938 34.45625L343.85938 34.175Q344.0 35.221874 344.67188 35.784374Q345.34375 36.33125 346.54688 36.33125Q347.75 36.33125 348.32812 35.846874Q348.92188 35.346874 348.92188 34.690624Q348.92188 34.096874 348.40625 33.753124Q348.04688 33.51875 346.60938 33.159374Q344.67188 32.659374 343.92188 32.315624Q343.1875 31.95625 342.79688 31.33125Q342.40625 30.690624 342.40625 29.925Q342.40625 29.2375 342.71875 28.64375Q343.04688 28.05 343.59375 27.659374Q344.0 27.3625 344.70312 27.159374Q345.42188 26.940624 346.23438 26.940624Q347.45312 26.940624 348.375 27.3Q349.29688 27.64375 349.73438 28.253124Q350.17188 28.846874 350.34375 29.846874L348.625 30.08125Q348.5 29.284374 347.9375 28.846874Q347.375 28.39375 346.35938 28.39375Q345.14062 28.39375 344.625 28.8Q344.10938 29.190624 344.10938 29.721874Q344.10938 30.065624 344.32812 30.346874Q344.53125 30.628124 345.0 30.815624Q345.26562 30.909374 346.54688 31.253124Q348.42188 31.753124 349.15625 32.08125Q349.89062 32.39375 350.3125 33.003124Q350.73438 33.596874 350.73438 34.503124Q350.73438 35.378124 350.21875 36.159374Q349.70312 36.940624 348.73438 37.3625Q347.76562 37.784374 346.54688 37.784374Q344.53125 37.784374 343.46875 36.940624Q342.40625 36.096874 342.10938 34.45625ZM352.10938 34.45625L353.85938 34.175Q354.0 35.221874 354.67188 35.784374Q355.34375 36.33125 356.54688 36.33125Q357.75 36.33125 358.32812 35.846874Q358.92188 35.346874 358.92188 34.690624Q358.92188 34.096874 358.40625 33.753124Q358.04688 33.51875 356.60938 33.159374Q354.67188 32.659374 353.92188 32.315624Q353.1875 31.95625 352.79688 31.33125Q352.40625 30.690624 352.40625 29.925Q352.40625 29.2375 352.71875 28.64375Q353.04688 28.05 353.59375 27.659374Q354.0 27.3625 354.70312 27.159374Q355.42188 26.940624 356.23438 26.940624Q357.45312 26.940624 358.375 27.3Q359.29688 27.64375 359.73438 28.253124Q360.17188 28.846874 360.34375 29.846874L358.625 30.08125Q358.5 29.284374 357.9375 28.846874Q357.375 28.39375 356.35938 28.39375Q355.14062 28.39375 354.625 28.8Q354.10938 29.190624 354.10938 29.721874Q354.10938 30.065624 354.32812 30.346874Q354.53125 30.628124 355.0 30.815624Q355.26562 30.909374 356.54688 31.253124Q358.42188 31.753124 359.15625 32.08125Q359.89062 32.39375 360.3125 33.003124Q360.73438 33.596874 360.73438 34.503124Q360.73438 35.378124 360.21875 36.159374Q359.70312 36.940624 358.73438 37.3625Q357.76562 37.784374 356.54688 37.784374Q354.53125 37.784374 353.46875 36.940624Q352.40625 36.096874 352.10938 34.45625ZM369.59375 36.26875Q368.60938 37.096874 367.70312 37.440624Q366.79688 37.784374 365.76562 37.784374Q364.0625 37.784374 363.14062 36.95625Q362.21875 36.1125 362.21875 34.815624Q362.21875 34.05 362.5625 33.425Q362.92188 32.8 363.48438 32.425Q364.04688 32.034374 364.75 31.83125Q365.26562 31.70625 366.3125 31.565624Q368.4375 31.315624 369.4375 30.971874Q369.45312 30.6125 369.45312 30.503124Q369.45312 29.440624 368.95312 28.9875Q368.28125 28.39375 366.95312 28.39375Q365.70312 28.39375 365.10938 28.83125Q364.53125 29.26875 364.25 30.378124L362.53125 30.14375Q362.76562 29.034374 363.29688 28.3625Q363.82812 27.675 364.84375 27.315624Q365.85938 26.940624 367.20312 26.940624Q368.53125 26.940624 369.35938 27.253124Q370.1875 27.565624 370.57812 28.05Q370.96875 28.51875 371.125 29.2375Q371.21875 29.690624 371.21875 30.8625L371.21875 33.20625Q371.21875 35.659374 371.32812 36.315624Q371.4375 36.95625 371.78125 37.55L369.9375 37.55Q369.67188 37.003124 369.59375 36.26875ZM369.4375 32.346874Q368.48438 32.7375 366.5625 33.003124Q365.48438 33.159374 365.03125 33.3625Q364.59375 33.55 364.34375 33.925Q364.09375 34.3 364.09375 34.76875Q364.09375 35.471874 364.625 35.940624Q365.15625 36.409374 366.1875 36.409374Q367.20312 36.409374 367.98438 35.971874Q368.78125 35.51875 369.15625 34.753124Q369.4375 34.14375 369.4375 32.9875L369.4375 32.346874ZM373.5 38.409374L375.20312 38.659374Q375.3125 39.45625 375.79688 39.815624Q376.45312 40.3 377.59375 40.3Q378.8125 40.3 379.46875 39.815624Q380.14062 39.33125 380.375 38.45625Q380.51562 37.909374 380.5 36.190624Q379.34375 37.55 377.625 37.55Q375.48438 37.55 374.3125 36.003124Q373.14062 34.45625 373.14062 32.3Q373.14062 30.815624 373.67188 29.565624Q374.21875 28.315624 375.23438 27.628124Q376.26562 26.940624 377.64062 26.940624Q379.46875 26.940624 380.67188 28.425L380.67188 27.175L382.28125 27.175L382.28125 36.14375Q382.28125 38.565624 381.78125 39.565624Q381.29688 40.58125 380.21875 41.159374Q379.15625 41.753124 377.59375 41.753124Q375.75 41.753124 374.59375 40.925Q373.45312 40.096874 373.5 38.409374ZM374.95312 32.175Q374.95312 34.221874 375.76562 35.159374Q376.57812 36.096874 377.79688 36.096874Q379.0 36.096874 379.8125 35.159374Q380.64062 34.221874 380.64062 32.2375Q380.64062 30.33125 379.79688 29.3625Q378.95312 28.39375 377.76562 28.39375Q376.59375 28.39375 375.76562 29.346874Q374.95312 30.3 374.95312 32.175ZM391.92188 34.20625L393.73438 34.440624Q393.3125 36.01875 392.14062 36.909374Q390.98438 37.784374 389.17188 37.784374Q386.90625 37.784374 385.5625 36.39375Q384.23438 34.9875 384.23438 32.45625Q384.23438 29.83125 385.57812 28.39375Q386.92188 26.940624 389.07812 26.940624Q391.15625 26.940624 392.46875 28.3625Q393.79688 29.76875 393.79688 32.346874Q393.79688 32.503124 393.78125 32.815624L386.04688 32.815624Q386.14062 34.51875 387.01562 35.425Q387.89062 36.33125 389.1875 36.33125Q390.15625 36.33125 390.82812 35.83125Q391.51562 35.315624 391.92188 34.20625ZM386.14062 31.3625L391.9375 31.3625Q391.82812 30.065624 391.28125 29.409374Q390.4375 28.39375 389.09375 28.39375Q387.89062 28.39375 387.0625 29.20625Q386.23438 30.003124 386.14062 31.3625ZM401.40625 32.95625L403.1875 32.8Q403.3125 33.8625 403.76562 34.55Q404.23438 35.2375 405.20312 35.675Q406.1875 36.096874 407.42188 36.096874Q408.5 36.096874 409.32812 35.784374Q410.15625 35.45625 410.5625 34.89375Q410.96875 34.33125 410.96875 33.659374Q410.96875 32.9875 410.57812 32.4875Q410.1875 31.9875 409.29688 31.64375Q408.71875 31.409374 406.73438 30.940624Q404.76562 30.471874 403.98438 30.05Q402.95312 29.51875 402.45312 28.721874Q401.95312 27.925 401.95312 26.940624Q401.95312 25.846874 402.5625 24.909374Q403.17188 23.971874 404.35938 23.4875Q405.54688 22.9875 406.98438 22.9875Q408.57812 22.9875 409.79688 23.503124Q411.01562 24.01875 411.65625 25.01875Q412.3125 26.003124 412.35938 27.26875L410.54688 27.409374Q410.40625 26.05 409.5625 25.3625Q408.71875 24.659374 407.0625 24.659374Q405.34375 24.659374 404.54688 25.3Q403.76562 25.925 403.76562 26.8Q403.76562 27.58125 404.32812 28.08125Q404.875 28.58125 407.1875 29.096874Q409.5 29.6125 410.35938 30.003124Q411.60938 30.58125 412.20312 31.471874Q412.79688 32.346874 412.79688 33.503124Q412.79688 34.64375 412.14062 35.659374Q411.48438 36.675 410.25 37.2375Q409.03125 37.8 407.5 37.8Q405.5625 37.8 404.25 37.2375Q402.9375 36.659374 402.1875 35.51875Q401.4375 34.378124 401.40625 32.95625ZM414.82812 25.253124L414.82812 23.2375L416.59375 23.2375L416.59375 25.253124L414.82812 25.253124ZM414.82812 37.55L414.82812 27.175L416.59375 27.175L416.59375 37.55L414.82812 37.55ZM417.89062 37.55L417.89062 36.128124L424.5 28.55Q423.375 28.596874 422.51562 28.596874L418.28125 28.596874L418.28125 27.175L426.76562 27.175L426.76562 28.346874L421.14062 34.925L420.0625 36.128124Q421.23438 36.034374 422.28125 36.034374L427.07812 36.034374L427.07812 37.55L417.89062 37.55ZM435.92188 34.20625L437.73438 34.440624Q437.3125 36.01875 436.14062 36.909374Q434.98438 37.784374 433.17188 37.784374Q430.90625 37.784374 429.5625 36.39375Q428.23438 34.9875 428.23438 32.45625Q428.23438 29.83125 429.57812 28.39375Q430.92188 26.940624 433.07812 26.940624Q435.15625 26.940624 436.46875 28.3625Q437.79688 29.76875 437.79688 32.346874Q437.79688 32.503124 437.78125 32.815624L430.04688 32.815624Q430.14062 34.51875 431.01562 35.425Q431.89062 36.33125 433.1875 36.33125Q434.15625 36.33125 434.82812 35.83125Q435.51562 35.315624 435.92188 34.20625ZM430.14062 31.3625L435.9375 31.3625Q435.82812 30.065624 435.28125 29.409374Q434.4375 28.39375 433.09375 28.39375Q431.89062 28.39375 431.0625 29.20625Q430.23438 30.003124 430.14062 31.3625Z" fill-rule="nonzero"/></svg>