<svg version="1.1" viewBox="0.0 0.0 600.0 371.0" fill="none" stroke="none" stroke-linecap="square" stroke-miterlimit="10" width="600" height="371" xmlns:xlink="http://www.w3.org/1999/xlink" xmlns="http://www.w3.org/2000/svg"><path fill="#ffffff" d="M0 0L600.0 0L600.0 371.0L0 371.0L0 0Z" fill-rule="nonzero"/><path stroke="#333333" stroke-width="1.0" stroke-linecap="butt" d="M84.5 300.5L581.5 300.5" fill-rule="nonzero"/><path stroke="#cccccc" stroke-width="1.0" stroke-linecap="butt" d="M84.5 269.5L581.5 269.5" fill-rule="nonzero"/><path stroke="#cccccc" stroke-width="1.0" stroke-linecap="butt" d="M84.5 239.5L581.5 239.5" fill-rule="nonzero"/><path stroke="#cccccc" stroke-width="1.0" stroke-linecap="butt" d="M84.5 208.5L581.5 208.5" fill-rule="nonzero"/><path stroke="#cccccc" stroke-width="1.0" stroke-linecap="butt" d="M84.5 177.5L581.5 177.5" fill-rule="nonzero"/><path stroke="#cccccc" stroke-width="1.0" stroke-linecap="butt" d="M84.5 146.5L581.5 146.5" fill-rule="nonzero"/><path stroke="#cccccc" stroke-width="1.0" stroke-linecap="butt" d="M84.5 116.5L581.5 116.5" fill-rule="nonzero"/><path stroke="#cccccc" stroke-width="1.0" stroke-linecap="butt" d="M84.5 85.5L581.5 85.5" fill-rule="nonzero"/><path stroke="#e6e6e6" stroke-width="1.0" stroke-linecap="butt" d="M84.5 285.5L581.5 285.5" fill-rule="nonzero"/><path stroke="#e6e6e6" stroke-width="1.0" stroke-linecap="butt" d="M84.5 254.5L581.5 254.5" fill-rule="nonzero"/><path stroke="#e6e6e6" stroke-width="1.0" stroke-linecap="butt" d="M84.5 223.5L581.5 223.5" fill-rule="nonzero"/><path stroke="#e6e6e6" stroke-width="1.0" stroke-linecap="butt" d="M84.5 192.5L581.5 192.5" fill-rule="nonzero"/><path stroke="#e6e6e6" stroke-width="1.0" stroke-linecap="butt" d="M84.5 162.5L581.5 162.5" fill-rule="nonzero"/><path stroke="#e6e6e6" stroke-width="1.0" stroke-linecap="butt" d="M84.5 131.5L581.5 131.5" fill-rule="nonzero"/><path stroke="#e6e6e6" stroke-width="1.0" stroke-linecap="butt" d="M84.5 100.5L581.5 100.5" fill-rule="nonzero"/><clipPath id="id_0"><path d="M84.55 85.416664L581.45 85.416664L581.45 300.45L84.55 300.45L84.55 85.416664Z" clip-rule="nonzero"/></clipPath><path stroke="#4285f4" stroke-width="2.0" stroke-linecap="butt" clip-path="url(#id_0)" d="M134.24 172.26454L233.62 247.93784L333.0 280.82874L432.38 294.12393L531.76 298.76047" fill-rule="nonzero"/><path fill="#000000" fill-opacity="0.0" clip-path="url(#id_0)" d="M137.24 172.26454C137.24 173.92139 135.89685 175.26454 134.24 175.26454C132.58315 175.26454 131.24 173.92139 131.24 172.26454C131.24 170.60768 132.58315 169.26454 134.24 169.26454C135.89685 169.26454 137.24 170.60768 137.24 172.26454Z" fill-rule="nonzero"/><path fill="#000000" fill-opacity="0.0" clip-path="url(#id_0)" d="M236.62 247.93784C236.62 249.5947 235.27686 250.93784 233.62 250.93784C231.96315 250.93784 230.62 249.5947 230.62 247.93784C230.62 246.28098 231.96315 244.93784 233.62 244.93784C235.27686 244.93784 236.62 246.28098 236.62 247.93784Z" fill-rule="nonzero"/><path fill="#000000" fill-opacity="0.0" clip-path="url(#id_0)" d="M336.0 280.82874C336.0 282.48557 334.65686 283.82874 333.0 283.82874C331.34314 283.82874 330.0 282.48557 330.0 280.82874C330.0 279.17188 331.34314 277.82874 333.0 277.82874C334.65686 277.82874 336.0 279.17188 336.0 280.82874Z" fill-rule="nonzero"/><path fill="#000000" fill-opacity="0.0" clip-path="url(#id_0)" d="M435.38 294.12393C435.38 295.7808 434.03687 297.12393 432.38 297.12393C430.72314 297.12393 429.38 295.7808 429.38 294.12393C429.38 292.46707 430.72314 291.12393 432.38 291.12393C434.03687 291.12393 435.38 292.46707 435.38 294.12393Z" fill-rule="nonzero"/><path fill="#000000" fill-opacity="0.0" clip-path="url(#id_0)" d="M534.76 298.76047C534.76 300.4173 533.4169 301.76047 531.76 301.76047C530.10315 301.76047 528.76 300.4173 528.76 298.76047C528.76 297.1036 530.10315 295.76047 531.76 295.76047C533.4169 295.76047 534.76 297.1036 534.76 298.76047Z" fill-rule="nonzero"/><path fill="#000000" d="M270.89062 349.45L270.89062 340.85626L272.60938 340.85626L274.64062 346.9344Q274.92188 347.79376 275.04688 348.21564Q275.1875 347.7469 275.5 346.84064L277.5625 340.85626L279.09375 340.85626L279.09375 349.45L278.0 349.45L278.0 342.2625L275.5 349.45L274.46875 349.45L271.98438 342.1375L271.98438 349.45L270.89062 349.45ZM285.04688 347.45L286.14062 347.575Q285.89062 348.52814 285.1875 349.0594Q284.48438 349.59064 283.40625 349.59064Q282.04688 349.59064 281.23438 348.7469Q280.4375 347.90314 280.4375 346.3875Q280.4375 344.825 281.25 343.96564Q282.0625 343.09064 283.34375 343.09064Q284.59375 343.09064 285.375 343.9344Q286.17188 344.77814 286.17188 346.325Q286.17188 346.41876 286.17188 346.60626L281.53125 346.60626Q281.59375 347.6375 282.10938 348.1844Q282.625 348.71564 283.40625 348.71564Q283.98438 348.71564 284.39062 348.41876Q284.8125 348.10626 285.04688 347.45ZM281.59375 345.7469L285.0625 345.7469Q285.0 344.95 284.67188 344.5594Q284.15625 343.95 283.35938 343.95Q282.625 343.95 282.125 344.4344Q281.64062 344.91876 281.59375 345.7469ZM287.375 347.59064L288.40625 347.4344Q288.5 348.0594 288.89062 348.3875Q289.29688 348.71564 290.03125 348.71564Q290.75 348.71564 291.09375 348.4344Q291.45312 348.1375 291.45312 347.73126Q291.45312 347.3719 291.14062 347.16876Q290.92188 347.02814 290.0625 346.8094Q288.90625 346.5125 288.45312 346.3094Q288.01562 346.09064 287.78125 345.71564Q287.54688 345.34064 287.54688 344.8719Q287.54688 344.46564 287.73438 344.10626Q287.92188 343.7469 288.25 343.5125Q288.5 343.34064 288.92188 343.21564Q289.34375 343.09064 289.84375 343.09064Q290.5625 343.09064 291.10938 343.3094Q291.67188 343.5125 291.9375 343.8719Q292.20312 344.23126 292.29688 344.825L291.26562 344.96564Q291.20312 344.4969 290.85938 344.23126Q290.53125 343.95 289.90625 343.95Q289.1875 343.95 288.875 344.2Q288.5625 344.4344 288.5625 344.7625Q288.5625 344.96564 288.6875 345.1219Q288.82812 345.29376 289.09375 345.40314Q289.25 345.46564 290.03125 345.66876Q291.15625 345.98126 291.59375 346.16876Q292.03125 346.35626 292.28125 346.71564Q292.53125 347.075 292.53125 347.6219Q292.53125 348.15314 292.21875 348.6219Q291.92188 349.075 291.34375 349.34064Q290.76562 349.59064 290.03125 349.59064Q288.8125 349.59064 288.17188 349.09064Q287.54688 348.575 287.375 347.59064ZM293.375 347.59064L294.40625 347.4344Q294.5 348.0594 294.89062 348.3875Q295.29688 348.71564 296.03125 348.71564Q296.75 348.71564 297.09375 348.4344Q297.45312 348.1375 297.45312 347.73126Q297.45312 347.3719 297.14062 347.16876Q296.92188 347.02814 296.0625 346.8094Q294.90625 346.5125 294.45312 346.3094Q294.01562 346.09064 293.78125 345.71564Q293.54688 345.34064 293.54688 344.8719Q293.54688 344.46564 293.73438 344.10626Q293.92188 343.7469 294.25 343.5125Q294.5 343.34064 294.92188 343.21564Q295.34375 343.09064 295.84375 343.09064Q296.5625 343.09064 297.10938 343.3094Q297.67188 343.5125 297.9375 343.8719Q298.20312 344.23126 298.29688 344.825L297.26562 344.96564Q297.20312 344.4969 296.85938 344.23126Q296.53125 343.95 295.90625 343.95Q295.1875 343.95 294.875 344.2Q294.5625 344.4344 294.5625 344.7625Q294.5625 344.96564 294.6875 345.1219Q294.82812 345.29376 295.09375 345.40314Q295.25 345.46564 296.03125 345.66876Q297.15625 345.98126 297.59375 346.16876Q298.03125 346.35626 298.28125 346.71564Q298.53125 347.075 298.53125 347.6219Q298.53125 348.15314 298.21875 348.6219Q297.92188 349.075 297.34375 349.34064Q296.76562 349.59064 296.03125 349.59064Q294.8125 349.59064 294.17188 349.09064Q293.54688 348.575 293.375 347.59064ZM303.85938 348.6844Q303.26562 349.1844 302.71875 349.3875Q302.1875 349.59064 301.5625 349.59064Q300.53125 349.59064 299.98438 349.09064Q299.4375 348.59064 299.4375 347.8094Q299.4375 347.35626 299.64062 346.98126Q299.84375 346.59064 300.1875 346.3719Q300.53125 346.1375 300.95312 346.02814Q301.25 345.9344 301.89062 345.85626Q303.15625 345.71564 303.76562 345.4969Q303.76562 345.27814 303.76562 345.23126Q303.76562 344.575 303.46875 344.3094Q303.0625 343.96564 302.26562 343.96564Q301.53125 343.96564 301.17188 344.23126Q300.8125 344.48126 300.64062 345.1375L299.60938 344.9969Q299.75 344.34064 300.07812 343.9344Q300.40625 343.52814 301.01562 343.3094Q301.625 343.09064 302.42188 343.09064Q303.21875 343.09064 303.71875 343.27814Q304.21875 343.46564 304.45312 343.7469Q304.6875 344.02814 304.78125 344.46564Q304.82812 344.73126 304.82812 345.4344L304.82812 346.84064Q304.82812 348.3094 304.89062 348.7Q304.96875 349.09064 305.17188 349.45L304.0625 349.45Q303.90625 349.1219 303.85938 348.6844ZM303.76562 346.325Q303.1875 346.5594 302.04688 346.73126Q301.39062 346.825 301.125 346.95Q300.85938 347.0594 300.70312 347.27814Q300.5625 347.4969 300.5625 347.77814Q300.5625 348.2 300.875 348.48126Q301.20312 348.7625 301.8125 348.7625Q302.42188 348.7625 302.89062 348.4969Q303.375 348.23126 303.59375 347.7625Q303.76562 347.40314 303.76562 346.71564L303.76562 346.325ZM306.59375 349.96564L307.625 350.1219Q307.6875 350.59064 307.98438 350.8094Q308.375 351.10626 309.04688 351.10626Q309.78125 351.10626 310.17188 350.8094Q310.57812 350.5125 310.71875 349.9969Q310.8125 349.66876 310.79688 348.6375Q310.10938 349.45 309.07812 349.45Q307.79688 349.45 307.09375 348.52814Q306.39062 347.59064 306.39062 346.3094Q306.39062 345.41876 306.70312 344.66876Q307.03125 343.90314 307.64062 343.4969Q308.25 343.09064 309.07812 343.09064Q310.1875 343.09064 310.90625 343.98126L310.90625 343.23126L311.875 343.23126L311.875 348.60626Q311.875 350.0594 311.57812 350.66876Q311.28125 351.27814 310.64062 351.6219Q310.0 351.98126 309.0625 351.98126Q307.95312 351.98126 307.26562 351.48126Q306.57812 350.98126 306.59375 349.96564ZM307.46875 346.23126Q307.46875 347.45 307.95312 348.0125Q308.4375 348.575 309.17188 348.575Q309.90625 348.575 310.39062 348.0125Q310.89062 347.45 310.89062 346.2625Q310.89062 345.1219 310.375 344.54376Q309.875 343.96564 309.15625 343.96564Q308.45312 343.96564 307.95312 344.54376Q307.46875 345.10626 307.46875 346.23126ZM318.04688 347.45L319.14062 347.575Q318.89062 348.52814 318.1875 349.0594Q317.48438 349.59064 316.40625 349.59064Q315.04688 349.59064 314.23438 348.7469Q313.4375 347.90314 313.4375 346.3875Q313.4375 344.825 314.25 343.96564Q315.0625 343.09064 316.34375 343.09064Q317.59375 343.09064 318.375 343.9344Q319.17188 344.77814 319.17188 346.325Q319.17188 346.41876 319.17188 346.60626L314.53125 346.60626Q314.59375 347.6375 315.10938 348.1844Q315.625 348.71564 316.40625 348.71564Q316.98438 348.71564 317.39062 348.41876Q317.8125 348.10626 318.04688 347.45ZM314.59375 345.7469L318.0625 345.7469Q318.0 344.95 317.67188 344.5594Q317.15625 343.95 316.35938 343.95Q315.625 343.95 315.125 344.4344Q314.64062 344.91876 314.59375 345.7469ZM323.54688 346.6844L324.60938 346.59064Q324.6875 347.2469 324.96875 347.65314Q325.25 348.0594 325.82812 348.325Q326.42188 348.575 327.15625 348.575Q327.79688 348.575 328.29688 348.3875Q328.79688 348.1844 329.03125 347.85626Q329.28125 347.5125 329.28125 347.1219Q329.28125 346.71564 329.04688 346.41876Q328.8125 346.10626 328.28125 345.90314Q327.92188 345.7625 326.73438 345.48126Q325.5625 345.2 325.09375 344.95Q324.46875 344.6219 324.17188 344.15314Q323.875 343.66876 323.875 343.075Q323.875 342.4344 324.23438 341.8719Q324.60938 341.29376 325.3125 341.0125Q326.03125 340.71564 326.89062 340.71564Q327.84375 340.71564 328.57812 341.02814Q329.3125 341.325 329.70312 341.9344Q330.09375 342.52814 330.125 343.27814L329.03125 343.35626Q328.9375 342.54376 328.42188 342.1375Q327.92188 341.71564 326.9375 341.71564Q325.90625 341.71564 325.4375 342.09064Q324.96875 342.46564 324.96875 342.9969Q324.96875 343.46564 325.29688 343.7625Q325.625 344.0594 327.0 344.3719Q328.39062 344.6844 328.90625 344.91876Q329.65625 345.27814 330.01562 345.8094Q330.375 346.325 330.375 347.02814Q330.375 347.71564 329.98438 348.325Q329.59375 348.91876 328.85938 349.2625Q328.125 349.59064 327.20312 349.59064Q326.03125 349.59064 325.23438 349.2625Q324.45312 348.91876 324.0 348.23126Q323.5625 347.54376 323.54688 346.6844ZM331.79688 342.075L331.79688 340.85626L332.85938 340.85626L332.85938 342.075L331.79688 342.075ZM331.79688 349.45L331.79688 343.23126L332.85938 343.23126L332.85938 349.45L331.79688 349.45ZM334.23438 349.45L334.23438 348.59064L338.20312 344.04376Q337.51562 344.075 337.0 344.075L334.46875 344.075L334.46875 343.23126L339.5625 343.23126L339.5625 343.91876L336.1875 347.8719L335.53125 348.59064Q336.25 348.54376 336.85938 348.54376L339.75 348.54376L339.75 349.45L334.23438 349.45ZM345.04688 347.45L346.14062 347.575Q345.89062 348.52814 345.1875 349.0594Q344.48438 349.59064 343.40625 349.59064Q342.04688 349.59064 341.23438 348.7469Q340.4375 347.90314 340.4375 346.3875Q340.4375 344.825 341.25 343.96564Q342.0625 343.09064 343.34375 343.09064Q344.59375 343.09064 345.375 343.9344Q346.17188 344.77814 346.17188 346.325Q346.17188 346.41876 346.17188 346.60626L341.53125 346.60626Q341.59375 347.6375 342.10938 348.1844Q342.625 348.71564 343.40625 348.71564Q343.98438 348.71564 344.39062 348.41876Q344.8125 348.10626 345.04688 347.45ZM341.59375 345.7469L345.0625 345.7469Q345.0 344.95 344.67188 344.5594Q344.15625 343.95 343.35938 343.95Q342.625 343.95 342.125 344.4344Q341.64062 344.91876 341.59375 345.7469ZM352.8125 351.98126Q351.9375 350.8719 351.32812 349.40314Q350.73438 347.91876 350.73438 346.34064Q350.73438 344.95 351.17188 343.66876Q351.70312 342.1844 352.8125 340.71564L353.5625 340.71564Q352.85938 341.9344 352.625 342.45Q352.26562 343.2625 352.0625 344.1375Q351.8125 345.23126 351.8125 346.34064Q351.8125 349.16876 353.5625 351.98126L352.8125 351.98126ZM354.875 349.45L354.875 340.85626L356.01562 340.85626L356.01562 345.1219L360.28125 340.85626L361.82812 340.85626L358.21875 344.34064L361.98438 349.45L360.48438 349.45L357.42188 345.10626L356.01562 346.46564L356.01562 349.45L354.875 349.45ZM362.875 349.45L362.875 340.85626L366.10938 340.85626Q367.09375 340.85626 367.6875 341.1219Q368.28125 341.3875 368.60938 341.9344Q368.95312 342.46564 368.95312 343.0594Q368.95312 343.60626 368.65625 344.09064Q368.35938 344.575 367.75 344.8719Q368.53125 345.10626 368.9375 345.66876Q369.35938 346.21564 369.35938 346.96564Q369.35938 347.5594 369.10938 348.09064Q368.85938 348.60626 368.48438 348.8875Q368.10938 349.16876 367.53125 349.3094Q366.96875 349.45 366.15625 349.45L362.875 349.45ZM364.01562 344.46564L365.875 344.46564Q366.625 344.46564 366.95312 344.3719Q367.39062 344.2469 367.60938 343.95Q367.82812 343.6375 367.82812 343.1844Q367.82812 342.7625 367.625 342.4344Q367.42188 342.10626 367.03125 341.9969Q366.65625 341.8719 365.73438 341.8719L364.01562 341.8719L364.01562 344.46564ZM364.01562 348.4344L366.15625 348.4344Q366.70312 348.4344 366.92188 348.3875Q367.32812 348.325 367.57812 348.16876Q367.84375 347.9969 368.01562 347.6844Q368.1875 347.3719 368.1875 346.96564Q368.1875 346.48126 367.9375 346.1219Q367.70312 345.7625 367.26562 345.6219Q366.82812 345.48126 366.0 345.48126L364.01562 345.48126L364.01562 348.4344ZM370.75 351.84064L370.625 350.85626Q370.96875 350.95 371.23438 350.95Q371.57812 350.95 371.78125 350.825Q372.0 350.71564 372.14062 350.5125Q372.23438 350.34064 372.46875 349.71564Q372.48438 349.6375 372.5625 349.46564L370.1875 343.23126L371.32812 343.23126L372.625 346.825Q372.875 347.5125 373.07812 348.27814Q373.26562 347.54376 373.51562 346.85626L374.84375 343.23126L375.89062 343.23126L373.53125 349.5594Q373.14062 350.575 372.9375 350.96564Q372.65625 351.4969 372.28125 351.73126Q371.92188 351.98126 371.42188 351.98126Q371.125 351.98126 370.75 351.84064ZM379.09375 348.5125L379.25 349.4344Q378.79688 349.52814 378.45312 349.52814Q377.875 349.52814 377.5625 349.35626Q377.25 349.16876 377.10938 348.8719Q376.98438 348.575 376.98438 347.6219L376.98438 344.04376L376.21875 344.04376L376.21875 343.23126L376.98438 343.23126L376.98438 341.6844L378.03125 341.0594L378.03125 343.23126L379.09375 343.23126L379.09375 344.04376L378.03125 344.04376L378.03125 347.6844Q378.03125 348.1375 378.07812 348.2625Q378.14062 348.3875 378.26562 348.46564Q378.39062 348.54376 378.625 348.54376Q378.8125 348.54376 379.09375 348.5125ZM384.04688 347.45L385.14062 347.575Q384.89062 348.52814 384.1875 349.0594Q383.48438 349.59064 382.40625 349.59064Q381.04688 349.59064 380.23438 348.7469Q379.4375 347.90314 379.4375 346.3875Q379.4375 344.825 380.25 343.96564Q381.0625 343.09064 382.34375 343.09064Q383.59375 343.09064 384.375 343.9344Q385.17188 344.77814 385.17188 346.325Q385.17188 346.41876 385.17188 346.60626L380.53125 346.60626Q380.59375 347.6375 381.10938 348.1844Q381.625 348.71564 382.40625 348.71564Q382.98438 348.71564 383.39062 348.41876Q383.8125 348.10626 384.04688 347.45ZM380.59375 345.7469L384.0625 345.7469Q384.0 344.95 383.67188 344.5594Q383.15625 343.95 382.35938 343.95Q381.625 343.95 381.125 344.4344Q380.64062 344.91876 380.59375 345.7469ZM386.375 347.59064L387.40625 347.4344Q387.5 348.0594 387.89062 348.3875Q388.29688 348.71564 389.03125 348.71564Q389.75 348.71564 390.09375 348.4344Q390.45312 348.1375 390.45312 347.73126Q390.45312 347.3719 390.14062 347.16876Q389.92188 347.02814 389.0625 346.8094Q387.90625 346.5125 387.45312 346.3094Q387.01562 346.09064 386.78125 345.71564Q386.54688 345.34064 386.54688 344.8719Q386.54688 344.46564 386.73438 344.10626Q386.92188 343.7469 387.25 343.5125Q387.5 343.34064 387.92188 343.21564Q388.34375 343.09064 388.84375 343.09064Q389.5625 343.09064 390.10938 343.3094Q390.67188 343.5125 390.9375 343.8719Q391.20312 344.23126 391.29688 344.825L390.26562 344.96564Q390.20312 344.4969 389.85938 344.23126Q389.53125 343.95 388.90625 343.95Q388.1875 343.95 387.875 344.2Q387.5625 344.4344 387.5625 344.7625Q387.5625 344.96564 387.6875 345.1219Q387.82812 345.29376 388.09375 345.40314Q388.25 345.46564 389.03125 345.66876Q390.15625 345.98126 390.59375 346.16876Q391.03125 346.35626 391.28125 346.71564Q391.53125 347.075 391.53125 347.6219Q391.53125 348.15314 391.21875 348.6219Q390.92188 349.075 390.34375 349.34064Q389.76562 349.59064 389.03125 349.59064Q387.8125 349.59064 387.17188 349.09064Q386.54688 348.575 386.375 347.59064ZM393.48438 351.98126L392.73438 351.98126Q394.48438 349.16876 394.48438 346.34064Q394.48438 345.2469 394.23438 344.15314Q394.03125 343.27814 393.67188 342.46564Q393.4375 341.95 392.73438 340.71564L393.48438 340.71564Q394.57812 342.1844 395.10938 343.66876Q395.5625 344.95 395.5625 346.34064Q395.5625 347.91876 394.95312 349.40314Q394.34375 350.8719 393.48438 351.98126Z" fill-rule="nonzero"/><path fill="#000000" d="M29.550013 249.04271L20.956263 249.04271L20.956263 247.32396L27.034388 245.29271Q27.893763 245.01146 28.315638 244.88646Q27.846888 244.74583 26.940638 244.43333L20.956263 242.37083L20.956263 240.83958L29.550013 240.83958L29.550013 241.93333L22.362513 241.93333L29.550013 244.43333L29.550013 245.46458L22.237513 247.94896L29.550013 247.94896L29.550013 249.04271ZM27.550013 234.88646L27.675013 233.79271Q28.628138 234.04271 29.159388 234.74583Q29.690638 235.44896 29.690638 236.52708Q29.690638 237.88646 28.846888 238.69896Q28.003138 239.49583 26.487513 239.49583Q24.925013 239.49583 24.065638 238.68333Q23.190638 237.87083 23.190638 236.58958Q23.190638 235.33958 24.034388 234.55833Q24.878138 233.76146 26.425013 233.76146Q26.518763 233.76146 26.706263 233.76146L26.706263 238.40208Q27.737513 238.33958 28.284388 237.82396Q28.815638 237.30833 28.815638 236.52708Q28.815638 235.94896 28.518763 235.54271Q28.206263 235.12083 27.550013 234.88646ZM25.846888 238.33958L25.846888 234.87083Q25.050013 234.93333 24.659388 235.26146Q24.050013 235.77708 24.050013 236.57396Q24.050013 237.30833 24.534388 237.80833Q25.018763 238.29271 25.846888 238.33958ZM27.690638 232.55833L27.534388 231.52708Q28.159388 231.43333 28.487513 231.04271Q28.815638 230.63646 28.815638 229.90208Q28.815638 229.18333 28.534388 228.83958Q28.237513 228.48021 27.831263 228.48021Q27.471888 228.48021 27.268763 228.79271Q27.128138 229.01146 26.909388 229.87083Q26.612513 231.02708 26.409388 231.48021Q26.190638 231.91771 25.815638 232.15208Q25.440638 232.38646 24.971888 232.38646Q24.565638 232.38646 24.206263 232.19896Q23.846888 232.01146 23.612513 231.68333Q23.440638 231.43333 23.315638 231.01146Q23.190638 230.58958 23.190638 230.08958Q23.190638 229.37083 23.409388 228.82396Q23.612513 228.26146 23.971888 227.99583Q24.331263 227.73021 24.925013 227.63646L25.065638 228.66771Q24.596888 228.73021 24.331263 229.07396Q24.050013 229.40208 24.050013 230.02708Q24.050013 230.74583 24.300013 231.05833Q24.534388 231.37083 24.862513 231.37083Q25.065638 231.37083 25.221888 231.24583Q25.393763 231.10521 25.503138 230.83958Q25.565638 230.68333 25.768763 229.90208Q26.081263 228.77708 26.268763 228.33958Q26.456263 227.90208 26.815638 227.65208Q27.175013 227.40208 27.721888 227.40208Q28.253138 227.40208 28.721888 227.71458Q29.175013 228.01146 29.440638 228.58958Q29.690638 229.16771 29.690638 229.90208Q29.690638 231.12083 29.190638 231.76146Q28.675013 232.38646 27.690638 232.55833ZM27.690638 226.55833L27.534388 225.52708Q28.159388 225.43333 28.487513 225.04271Q28.815638 224.63646 28.815638 223.90208Q28.815638 223.18333 28.534388 222.83958Q28.237513 222.48021 27.831263 222.48021Q27.471888 222.48021 27.268763 222.79271Q27.128138 223.01146 26.909388 223.87083Q26.612513 225.02708 26.409388 225.48021Q26.190638 225.91771 25.815638 226.15208Q25.440638 226.38646 24.971888 226.38646Q24.565638 226.38646 24.206263 226.19896Q23.846888 226.01146 23.612513 225.68333Q23.440638 225.43333 23.315638 225.01146Q23.190638 224.58958 23.190638 224.08958Q23.190638 223.37083 23.409388 222.82396Q23.612513 222.26146 23.971888 221.99583Q24.331263 221.73021 24.925013 221.63646L25.065638 222.66771Q24.596888 222.73021 24.331263 223.07396Q24.050013 223.40208 24.050013 224.02708Q24.050013 224.74583 24.300013 225.05833Q24.534388 225.37083 24.862513 225.37083Q25.065638 225.37083 25.221888 225.24583Q25.393763 225.10521 25.503138 224.83958Q25.565638 224.68333 25.768763 223.90208Q26.081263 222.77708 26.268763 222.33958Q26.456263 221.90208 26.815638 221.65208Q27.175013 221.40208 27.721888 221.40208Q28.253138 221.40208 28.721888 221.71458Q29.175013 222.01146 29.440638 222.58958Q29.690638 223.16771 29.690638 223.90208Q29.690638 225.12083 29.190638 225.76146Q28.675013 226.38646 27.690638 226.55833ZM28.784388 216.07396Q29.284388 216.66771 29.487513 217.21458Q29.690638 217.74583 29.690638 218.37083Q29.690638 219.40208 29.190638 219.94896Q28.690638 220.49583 27.909388 220.49583Q27.456263 220.49583 27.081263 220.29271Q26.690638 220.08958 26.471888 219.74583Q26.237513 219.40208 26.128138 218.98021Q26.034388 218.68333 25.956263 218.04271Q25.815638 216.77708 25.596888 216.16771Q25.378138 216.16771 25.331263 216.16771Q24.675013 216.16771 24.409388 216.46458Q24.065638 216.87083 24.065638 217.66771Q24.065638 218.40208 24.331263 218.76146Q24.581263 219.12083 25.237513 219.29271L25.096888 220.32396Q24.440638 220.18333 24.034388 219.85521Q23.628138 219.52708 23.409388 218.91771Q23.190638 218.30833 23.190638 217.51146Q23.190638 216.71458 23.378138 216.21458Q23.565638 215.71458 23.846888 215.48021Q24.128138 215.24583 24.565638 215.15208Q24.831263 215.10521 25.534388 215.10521L26.940638 215.10521Q28.409388 215.10521 28.800013 215.04271Q29.190638 214.96458 29.550013 214.76146L29.550013 215.87083Q29.221888 216.02708 28.784388 216.07396ZM26.425013 216.16771Q26.659388 216.74583 26.831263 217.88646Q26.925013 218.54271 27.050013 218.80833Q27.159388 219.07396 27.378138 219.23021Q27.596888 219.37083 27.878138 219.37083Q28.300013 219.37083 28.581263 219.05833Q28.862513 218.73021 28.862513 218.12083Q28.862513 217.51146 28.596888 217.04271Q28.331263 216.55833 27.862513 216.33958Q27.503138 216.16771 26.815638 216.16771L26.425013 216.16771ZM30.065638 213.33958L30.221888 212.30833Q30.690638 212.24583 30.909388 211.94896Q31.206263 211.55833 31.206263 210.88646Q31.206263 210.15208 30.909388 209.76146Q30.612513 209.35521 30.096888 209.21458Q29.768763 209.12083 28.737513 209.13646Q29.550013 209.82396 29.550013 210.85521Q29.550013 212.13646 28.628138 212.83958Q27.690638 213.54271 26.409388 213.54271Q25.518763 213.54271 24.768763 213.23021Q24.003138 212.90208 23.596888 212.29271Q23.190638 211.68333 23.190638 210.85521Q23.190638 209.74583 24.081263 209.02708L23.331263 209.02708L23.331263 208.05833L28.706263 208.05833Q30.159388 208.05833 30.768763 208.35521Q31.378138 208.65208 31.721888 209.29271Q32.08126 209.93333 32.08126 210.87083Q32.08126 211.98021 31.581263 212.66771Q31.081263 213.35521 30.065638 213.33958ZM26.331263 212.46458Q27.550013 212.46458 28.112513 211.98021Q28.675013 211.49583 28.675013 210.76146Q28.675013 210.02708 28.112513 209.54271Q27.550013 209.04271 26.362513 209.04271Q25.221888 209.04271 24.643763 209.55833Q24.065638 210.05833 24.065638 210.77708Q24.065638 211.48021 24.643763 211.98021Q25.206263 212.46458 26.331263 212.46458ZM27.550013 201.88646L27.675013 200.79271Q28.628138 201.04271 29.159388 201.74583Q29.690638 202.44896 29.690638 203.52708Q29.690638 204.88646 28.846888 205.69896Q28.003138 206.49583 26.487513 206.49583Q24.925013 206.49583 24.065638 205.68333Q23.190638 204.87083 23.190638 203.58958Q23.190638 202.33958 24.034388 201.55833Q24.878138 200.76146 26.425013 200.76146Q26.518763 200.76146 26.706263 200.76146L26.706263 205.40208Q27.737513 205.33958 28.284388 204.82396Q28.815638 204.30833 28.815638 203.52708Q28.815638 202.94896 28.518763 202.54271Q28.206263 202.12083 27.550013 201.88646ZM25.846888 205.33958L25.846888 201.87083Q25.050013 201.93333 24.659388 202.26146Q24.050013 202.77708 24.050013 203.57396Q24.050013 204.30833 24.534388 204.80833Q25.018763 205.29271 25.846888 205.33958ZM27.690638 199.55833L27.534388 198.52708Q28.159388 198.43333 28.487513 198.04271Q28.815638 197.63646 28.815638 196.90208Q28.815638 196.18333 28.534388 195.83958Q28.237513 195.48021 27.831263 195.48021Q27.471888 195.48021 27.268763 195.79271Q27.128138 196.01146 26.909388 196.87083Q26.612513 198.02708 26.409388 198.48021Q26.190638 198.91771 25.815638 199.15208Q25.440638 199.38646 24.971888 199.38646Q24.565638 199.38646 24.206263 199.19896Q23.846888 199.01146 23.612513 198.68333Q23.440638 198.43333 23.315638 198.01146Q23.190638 197.58958 23.190638 197.08958Q23.190638 196.37083 23.409388 195.82396Q23.612513 195.26146 23.971888 194.99583Q24.331263 194.73021 24.925013 194.63646L25.065638 195.66771Q24.596888 195.73021 24.331263 196.07396Q24.050013 196.40208 24.050013 197.02708Q24.050013 197.74583 24.300013 198.05833Q24.534388 198.37083 24.862513 198.37083Q25.065638 198.37083 25.221888 198.24583Q25.393763 198.10521 25.503138 197.83958Q25.565638 197.68333 25.768763 196.90208Q26.081263 195.77708 26.268763 195.33958Q26.456263 194.90208 26.815638 194.65208Q27.175013 194.40208 27.721888 194.40208Q28.253138 194.40208 28.721888 194.71458Q29.175013 195.01146 29.440638 195.58958Q29.690638 196.16771 29.690638 196.90208Q29.690638 198.12083 29.190638 198.76146Q28.675013 199.38646 27.690638 199.55833ZM29.690638 193.93333L20.815638 191.44896L20.815638 190.60521L29.690638 193.08958L29.690638 193.93333ZM26.784388 190.38646L26.690638 189.32396Q27.346888 189.24583 27.753138 188.96458Q28.159388 188.68333 28.425013 188.10521Q28.675013 187.51146 28.675013 186.77708Q28.675013 186.13646 28.487513 185.63646Q28.284388 185.13646 27.956263 184.90208Q27.612513 184.65208 27.221888 184.65208Q26.815638 184.65208 26.518763 184.88646Q26.206263 185.12083 26.003138 185.65208Q25.862513 186.01146 25.581263 187.19896Q25.300013 188.37083 25.050013 188.83958Q24.721888 189.46458 24.253138 189.76146Q23.768763 190.05833 23.175013 190.05833Q22.534388 190.05833 21.971888 189.69896Q21.393763 189.32396 21.112513 188.62083Q20.815638 187.90208 20.815638 187.04271Q20.815638 186.08958 21.128138 185.35521Q21.425013 184.62083 22.034388 184.23021Q22.628138 183.83958 23.378138 183.80833L23.456263 184.90208Q22.643763 184.99583 22.237513 185.51146Q21.815638 186.01146 21.815638 186.99583Q21.815638 188.02708 22.190638 188.49583Q22.565638 188.96458 23.096888 188.96458Q23.565638 188.96458 23.862513 188.63646Q24.159388 188.30833 24.471888 186.93333Q24.784388 185.54271 25.018763 185.02708Q25.378138 184.27708 25.909388 183.91771Q26.425013 183.55833 27.128138 183.55833Q27.815638 183.55833 28.425013 183.94896Q29.018763 184.33958 29.362513 185.07396Q29.690638 185.80833 29.690638 186.73021Q29.690638 187.90208 29.362513 188.69896Q29.018763 189.48021 28.331263 189.93333Q27.643763 190.37083 26.784388 190.38646ZM27.550013 177.88646L27.675013 176.79271Q28.628138 177.04271 29.159388 177.74583Q29.690638 178.44896 29.690638 179.52708Q29.690638 180.88646 28.846888 181.69896Q28.003138 182.49583 26.487513 182.49583Q24.925013 182.49583 24.065638 181.68333Q23.190638 180.87083 23.190638 179.58958Q23.190638 178.33958 24.034388 177.55833Q24.878138 176.76146 26.425013 176.76146Q26.518763 176.76146 26.706263 176.76146L26.706263 181.40208Q27.737513 181.33958 28.284388 180.82396Q28.815638 180.30833 28.815638 179.52708Q28.815638 178.94896 28.518763 178.54271Q28.206263 178.12083 27.550013 177.88646ZM25.846888 181.33958L25.846888 177.87083Q25.050013 177.93333 24.659388 178.26146Q24.050013 178.77708 24.050013 179.57396Q24.050013 180.30833 24.534388 180.80833Q25.018763 181.29271 25.846888 181.33958ZM27.268763 171.07396L27.409388 170.04271Q28.471888 170.21458 29.081263 170.91771Q29.690638 171.62083 29.690638 172.63646Q29.690638 173.91771 28.862513 174.69896Q28.018763 175.46458 26.456263 175.46458Q25.456263 175.46458 24.706263 175.13646Q23.940638 174.79271 23.565638 174.12083Q23.190638 173.43333 23.190638 172.62083Q23.190638 171.62083 23.706263 170.98021Q24.206263 170.32396 25.159388 170.13646L25.315638 171.16771Q24.690638 171.30833 24.378138 171.68333Q24.050013 172.05833 24.050013 172.58958Q24.050013 173.38646 24.628138 173.88646Q25.190638 174.38646 26.425013 174.38646Q27.690638 174.38646 28.253138 173.90208Q28.815638 173.41771 28.815638 172.65208Q28.815638 172.02708 28.440638 171.62083Q28.065638 171.19896 27.268763 171.07396ZM26.440638 169.52708Q24.706263 169.52708 23.878138 168.57396Q23.190638 167.77708 23.190638 166.62083Q23.190638 165.33958 24.034388 164.52708Q24.862513 163.69896 26.346888 163.69896Q27.550013 163.69896 28.237513 164.05833Q28.925013 164.41771 29.315638 165.12083Q29.690638 165.80833 29.690638 166.62083Q29.690638 167.91771 28.862513 168.73021Q28.018763 169.52708 26.440638 169.52708ZM26.440638 168.44896Q27.628138 168.44896 28.221888 167.93333Q28.815638 167.40208 28.815638 166.62083Q28.815638 165.82396 28.221888 165.30833Q27.628138 164.79271 26.409388 164.79271Q25.253138 164.79271 24.659388 165.32396Q24.065638 165.83958 24.065638 166.62083Q24.065638 167.40208 24.659388 167.93333Q25.237513 168.44896 26.440638 168.44896ZM29.550013 162.13646L23.331263 162.13646L23.331263 161.19896L24.206263 161.19896Q23.190638 160.51146 23.190638 159.21458Q23.190638 158.65208 23.393763 158.18333Q23.596888 157.69896 23.925013 157.46458Q24.253138 157.23021 24.690638 157.13646Q24.987513 157.08958 25.721888 157.08958L29.550013 157.08958L29.550013 158.13646L25.768763 158.13646Q25.112513 158.13646 24.800013 158.26146Q24.487513 158.38646 24.300013 158.69896Q24.096888 159.01146 24.096888 159.43333Q24.096888 160.10521 24.534388 160.60521Q24.956263 161.08958 26.143763 161.08958L29.550013 161.08958L29.550013 162.13646ZM29.550013 151.10521L28.768763 151.10521Q29.690638 151.69896 29.690638 152.83958Q29.690638 153.58958 29.284388 154.21458Q28.862513 154.83958 28.128138 155.18333Q27.393763 155.52708 26.440638 155.52708Q25.518763 155.52708 24.753138 155.21458Q23.987513 154.90208 23.596888 154.27708Q23.190638 153.65208 23.190638 152.88646Q23.190638 152.32396 23.425013 151.88646Q23.659388 151.44896 24.034388 151.16771L20.956263 151.16771L20.956263 150.12083L29.550013 150.12083L29.550013 151.10521ZM26.440638 154.43333Q27.643763 154.43333 28.237513 153.93333Q28.815638 153.43333 28.815638 152.74583Q28.815638 152.05833 28.253138 151.57396Q27.690638 151.08958 26.534388 151.08958Q25.253138 151.08958 24.659388 151.58958Q24.065638 152.07396 24.065638 152.79271Q24.065638 153.49583 24.643763 153.96458Q25.206263 154.43333 26.440638 154.43333Z" fill-rule="nonzero"/><path fill="#000000" d="M72.05 300.21564Q72.05 298.6844 72.3625 297.7625Q72.675 296.825 73.28438 296.325Q73.90938 295.825 74.84688 295.825Q75.53438 295.825 76.05 296.10626Q76.58125 296.3875 76.925 296.91876Q77.26875 297.4344 77.45625 298.1844Q77.64375 298.9344 77.64375 300.21564Q77.64375 301.73126 77.33125 302.65314Q77.03438 303.575 76.40938 304.09064Q75.8 304.59064 74.84688 304.59064Q73.6125 304.59064 72.89375 303.7Q72.05 302.6375 72.05 300.21564ZM73.12813 300.21564Q73.12813 302.325 73.62813 303.02814Q74.12813 303.73126 74.84688 303.73126Q75.58125 303.73126 76.06563 303.02814Q76.56563 302.325 76.56563 300.21564Q76.56563 298.09064 76.06563 297.40314Q75.58125 296.7 74.83125 296.7Q74.1125 296.7 73.675 297.3094Q73.12813 298.09064 73.12813 300.21564Z" fill-rule="nonzero"/><path fill="#000000" d="M55.01875 273.73096L53.971874 273.73096L53.971874 267.0122Q53.58125 267.37158 52.95625 267.74658Q52.346874 268.10596 51.8625 268.27783L51.8625 267.2622Q52.7375 266.84033 53.39375 266.2622Q54.065624 265.66846 54.346874 265.10596L55.01875 265.10596L55.01875 273.73096ZM58.05 269.49658Q58.05 267.96533 58.3625 267.04346Q58.675 266.10596 59.284374 265.60596Q59.909374 265.10596 60.846874 265.10596Q61.534374 265.10596 62.05 265.3872Q62.58125 265.66846 62.925 266.1997Q63.26875 266.71533 63.45625 267.46533Q63.64375 268.21533 63.64375 269.49658Q63.64375 271.0122 63.33125 271.93408Q63.034374 272.85596 62.409374 273.37158Q61.8 273.87158 60.846874 273.87158Q59.6125 273.87158 58.89375 272.98096Q58.05 271.91846 58.05 269.49658ZM59.128124 269.49658Q59.128124 271.60596 59.628124 272.30908Q60.128124 273.0122 60.846874 273.0122Q61.58125 273.0122 62.065624 272.30908Q62.565624 271.60596 62.565624 269.49658Q62.565624 267.37158 62.065624 266.68408Q61.58125 265.98096 60.83125 265.98096Q60.1125 265.98096 59.675 266.59033Q59.128124 267.37158 59.128124 269.49658ZM65.05 269.49658Q65.05 267.96533 65.3625 267.04346Q65.675 266.10596 66.28438 265.60596Q66.90938 265.10596 67.84688 265.10596Q68.53438 265.10596 69.05 265.3872Q69.58125 265.66846 69.925 266.1997Q70.26875 266.71533 70.45625 267.46533Q70.64375 268.21533 70.64375 269.49658Q70.64375 271.0122 70.33125 271.93408Q70.03438 272.85596 69.40938 273.37158Q68.8 273.87158 67.84688 273.87158Q66.6125 273.87158 65.89375 272.98096Q65.05 271.91846 65.05 269.49658ZM66.12813 269.49658Q66.12813 271.60596 66.62813 272.30908Q67.12813 273.0122 67.84688 273.0122Q68.58125 273.0122 69.06563 272.30908Q69.56563 271.60596 69.56563 269.49658Q69.56563 267.37158 69.06563 266.68408Q68.58125 265.98096 67.83125 265.98096Q67.1125 265.98096 66.675 266.59033Q66.12813 267.37158 66.12813 269.49658ZM72.05 269.49658Q72.05 267.96533 72.3625 267.04346Q72.675 266.10596 73.28438 265.60596Q73.90938 265.10596 74.84688 265.10596Q75.53438 265.10596 76.05 265.3872Q76.58125 265.66846 76.925 266.1997Q77.26875 266.71533 77.45625 267.46533Q77.64375 268.21533 77.64375 269.49658Q77.64375 271.0122 77.33125 271.93408Q77.03438 272.85596 76.40938 273.37158Q75.8 273.87158 74.84688 273.87158Q73.6125 273.87158 72.89375 272.98096Q72.05 271.91846 72.05 269.49658ZM73.12813 269.49658Q73.12813 271.60596 73.62813 272.30908Q74.12813 273.0122 74.84688 273.0122Q75.58125 273.0122 76.06563 272.30908Q76.56563 271.60596 76.56563 269.49658Q76.56563 267.37158 76.06563 266.68408Q75.58125 265.98096 74.83125 265.98096Q74.1125 265.98096 73.675 266.59033Q73.12813 267.37158 73.12813 269.49658Z" fill-rule="nonzero"/><path fill="#000000" d="M56.596874 241.99628L56.596874 243.0119L50.909374 243.0119Q50.909374 242.6369 51.034374 242.27753Q51.253124 241.6994 51.721874 241.1369Q52.20625 240.5744 53.1125 239.84003Q54.51875 238.68378 55.003124 238.0119Q55.503124 237.34003 55.503124 236.74628Q55.503124 236.12128 55.05 235.6994Q54.596874 235.2619 53.878124 235.2619Q53.1125 235.2619 52.659374 235.71503Q52.20625 236.16815 52.190624 236.98065L51.1125 236.87128Q51.221874 235.65253 51.940624 235.02753Q52.675 234.3869 53.909374 234.3869Q55.14375 234.3869 55.8625 235.0744Q56.58125 235.7619 56.58125 236.77753Q56.58125 237.29315 56.3625 237.79315Q56.159374 238.27753 55.659374 238.84003Q55.175 239.3869 54.05 240.34003Q53.096874 241.1369 52.815624 241.43378Q52.55 241.71503 52.378124 241.99628L56.596874 241.99628ZM58.05 238.77753Q58.05 237.24628 58.3625 236.3244Q58.675 235.3869 59.284374 234.8869Q59.909374 234.3869 60.846874 234.3869Q61.534374 234.3869 62.05 234.66815Q62.58125 234.9494 62.925 235.48065Q63.26875 235.99628 63.45625 236.74628Q63.64375 237.49628 63.64375 238.77753Q63.64375 240.29315 63.33125 241.21503Q63.034374 242.1369 62.409374 242.65253Q61.8 243.15253 60.846874 243.15253Q59.6125 243.15253 58.89375 242.2619Q58.05 241.1994 58.05 238.77753ZM59.128124 238.77753Q59.128124 240.8869 59.628124 241.59003Q60.128124 242.29315 60.846874 242.29315Q61.58125 242.29315 62.065624 241.59003Q62.565624 240.8869 62.565624 238.77753Q62.565624 236.65253 62.065624 235.96503Q61.58125 235.2619 60.83125 235.2619Q60.1125 235.2619 59.675 235.87128Q59.128124 236.65253 59.128124 238.77753ZM65.05 238.77753Q65.05 237.24628 65.3625 236.3244Q65.675 235.3869 66.28438 234.8869Q66.90938 234.3869 67.84688 234.3869Q68.53438 234.3869 69.05 234.66815Q69.58125 234.9494 69.925 235.48065Q70.26875 235.99628 70.45625 236.74628Q70.64375 237.49628 70.64375 238.77753Q70.64375 240.29315 70.33125 241.21503Q70.03438 242.1369 69.40938 242.65253Q68.8 243.15253 67.84688 243.15253Q66.6125 243.15253 65.89375 242.2619Q65.05 241.1994 65.05 238.77753ZM66.12813 238.77753Q66.12813 240.8869 66.62813 241.59003Q67.12813 242.29315 67.84688 242.29315Q68.58125 242.29315 69.06563 241.59003Q69.56563 240.8869 69.56563 238.77753Q69.56563 236.65253 69.06563 235.96503Q68.58125 235.2619 67.83125 235.2619Q67.1125 235.2619 66.675 235.87128Q66.12813 236.65253 66.12813 238.77753ZM72.05 238.77753Q72.05 237.24628 72.3625 236.3244Q72.675 235.3869 73.28438 234.8869Q73.90938 234.3869 74.84688 234.3869Q75.53438 234.3869 76.05 234.66815Q76.58125 234.9494 76.925 235.48065Q77.26875 235.99628 77.45625 236.74628Q77.64375 237.49628 77.64375 238.77753Q77.64375 240.29315 77.33125 241.21503Q77.03438 242.1369 76.40938 242.65253Q75.8 243.15253 74.84688 243.15253Q73.6125 243.15253 72.89375 242.2619Q72.05 241.1994 72.05 238.77753ZM73.12813 238.77753Q73.12813 240.8869 73.62813 241.59003Q74.12813 242.29315 74.84688 242.29315Q75.58125 242.29315 76.06563 241.59003Q76.56563 240.8869 76.56563 238.77753Q76.56563 236.65253 76.06563 235.96503Q75.58125 235.2619 74.83125 235.2619Q74.1125 235.2619 73.675 235.87128Q73.12813 236.65253 73.12813 238.77753Z" fill-rule="nonzero"/><path fill="#000000" d="M51.05 210.02724L52.1125 209.88661Q52.284374 210.77724 52.721874 211.18349Q53.159374 211.57411 53.784374 211.57411Q54.534374 211.57411 55.05 211.05849Q55.565624 210.54286 55.565624 209.77724Q55.565624 209.05849 55.08125 208.58974Q54.6125 208.10536 53.878124 208.10536Q53.58125 208.10536 53.128124 208.23036L53.253124 207.29286Q53.3625 207.30849 53.425 207.30849Q54.096874 207.30849 54.628124 206.96474Q55.175 206.60536 55.175 205.87099Q55.175 205.29286 54.784374 204.91786Q54.39375 204.52724 53.76875 204.52724Q53.159374 204.52724 52.7375 204.91786Q52.33125 205.30849 52.221874 206.07411L51.159374 205.88661Q51.346874 204.83974 52.034374 204.26161Q52.721874 203.66786 53.7375 203.66786Q54.440624 203.66786 55.034374 203.98036Q55.628124 204.27724 55.940624 204.79286Q56.253124 205.30849 56.253124 205.90224Q56.253124 206.44911 55.95625 206.91786Q55.659374 207.37099 55.08125 207.63661Q55.83125 207.80849 56.253124 208.37099Q56.675 208.91786 56.675 209.76161Q56.675 210.88661 55.846874 211.66786Q55.034374 212.44911 53.784374 212.44911Q52.659374 212.44911 51.909374 211.77724Q51.159374 211.08974 51.05 210.02724ZM58.05 208.05849Q58.05 206.52724 58.3625 205.60536Q58.675 204.66786 59.284374 204.16786Q59.909374 203.66786 60.846874 203.66786Q61.534374 203.66786 62.05 203.94911Q62.58125 204.23036 62.925 204.76161Q63.26875 205.27724 63.45625 206.02724Q63.64375 206.77724 63.64375 208.05849Q63.64375 209.57411 63.33125 210.49599Q63.034374 211.41786 62.409374 211.93349Q61.8 212.43349 60.846874 212.43349Q59.6125 212.43349 58.89375 211.54286Q58.05 210.48036 58.05 208.05849ZM59.128124 208.05849Q59.128124 210.16786 59.628124 210.87099Q60.128124 211.57411 60.846874 211.57411Q61.58125 211.57411 62.065624 210.87099Q62.565624 210.16786 62.565624 208.05849Q62.565624 205.93349 62.065624 205.24599Q61.58125 204.54286 60.83125 204.54286Q60.1125 204.54286 59.675 205.15224Q59.128124 205.93349 59.128124 208.05849ZM65.05 208.05849Q65.05 206.52724 65.3625 205.60536Q65.675 204.66786 66.28438 204.16786Q66.90938 203.66786 67.84688 203.66786Q68.53438 203.66786 69.05 203.94911Q69.58125 204.23036 69.925 204.76161Q70.26875 205.27724 70.45625 206.02724Q70.64375 206.77724 70.64375 208.05849Q70.64375 209.57411 70.33125 210.49599Q70.03438 211.41786 69.40938 211.93349Q68.8 212.43349 67.84688 212.43349Q66.6125 212.43349 65.89375 211.54286Q65.05 210.48036 65.05 208.05849ZM66.12813 208.05849Q66.12813 210.16786 66.62813 210.87099Q67.12813 211.57411 67.84688 211.57411Q68.58125 211.57411 69.06563 210.87099Q69.56563 210.16786 69.56563 208.05849Q69.56563 205.93349 69.06563 205.24599Q68.58125 204.54286 67.83125 204.54286Q67.1125 204.54286 66.675 205.15224Q66.12813 205.93349 66.12813 208.05849ZM72.05 208.05849Q72.05 206.52724 72.3625 205.60536Q72.675 204.66786 73.28438 204.16786Q73.90938 203.66786 74.84688 203.66786Q75.53438 203.66786 76.05 203.94911Q76.58125 204.23036 76.925 204.76161Q77.26875 205.27724 77.45625 206.02724Q77.64375 206.77724 77.64375 208.05849Q77.64375 209.57411 77.33125 210.49599Q77.03438 211.41786 76.40938 211.93349Q75.8 212.43349 74.84688 212.43349Q73.6125 212.43349 72.89375 211.54286Q72.05 210.48036 72.05 208.05849ZM73.12813 208.05849Q73.12813 210.16786 73.62813 210.87099Q74.12813 211.57411 74.84688 211.57411Q75.58125 211.57411 76.06563 210.87099Q76.56563 210.16786 76.56563 208.05849Q76.56563 205.93349 76.06563 205.24599Q75.58125 204.54286 74.83125 204.54286Q74.1125 204.54286 73.675 205.15224Q73.12813 205.93349 73.12813 208.05849Z" fill-rule="nonzero"/><path fill="#000000" d="M54.425 181.5738L54.425 179.5113L50.70625 179.5113L50.70625 178.54256L54.628124 172.98006L55.4875 172.98006L55.4875 178.54256L56.64375 178.54256L56.64375 179.5113L55.4875 179.5113L55.4875 181.5738L54.425 181.5738ZM54.425 178.54256L54.425 174.68318L51.7375 178.54256L54.425 178.54256ZM58.05 177.33943Q58.05 175.80818 58.3625 174.8863Q58.675 173.9488 59.284374 173.4488Q59.909374 172.9488 60.846874 172.9488Q61.534374 172.9488 62.05 173.23006Q62.58125 173.5113 62.925 174.04256Q63.26875 174.55818 63.45625 175.30818Q63.64375 176.05818 63.64375 177.33943Q63.64375 178.85506 63.33125 179.77693Q63.034374 180.6988 62.409374 181.21443Q61.8 181.71443 60.846874 181.71443Q59.6125 181.71443 58.89375 180.8238Q58.05 179.7613 58.05 177.33943ZM59.128124 177.33943Q59.128124 179.4488 59.628124 180.15193Q60.128124 180.85506 60.846874 180.85506Q61.58125 180.85506 62.065624 180.15193Q62.565624 179.4488 62.565624 177.33943Q62.565624 175.21443 62.065624 174.52693Q61.58125 173.8238 60.83125 173.8238Q60.1125 173.8238 59.675 174.43318Q59.128124 175.21443 59.128124 177.33943ZM65.05 177.33943Q65.05 175.80818 65.3625 174.8863Q65.675 173.9488 66.28438 173.4488Q66.90938 172.9488 67.84688 172.9488Q68.53438 172.9488 69.05 173.23006Q69.58125 173.5113 69.925 174.04256Q70.26875 174.55818 70.45625 175.30818Q70.64375 176.05818 70.64375 177.33943Q70.64375 178.85506 70.33125 179.77693Q70.03438 180.6988 69.40938 181.21443Q68.8 181.71443 67.84688 181.71443Q66.6125 181.71443 65.89375 180.8238Q65.05 179.7613 65.05 177.33943ZM66.12813 177.33943Q66.12813 179.4488 66.62813 180.15193Q67.12813 180.85506 67.84688 180.85506Q68.58125 180.85506 69.06563 180.15193Q69.56563 179.4488 69.56563 177.33943Q69.56563 175.21443 69.06563 174.52693Q68.58125 173.8238 67.83125 173.8238Q67.1125 173.8238 66.675 174.43318Q66.12813 175.21443 66.12813 177.33943ZM72.05 177.33943Q72.05 175.80818 72.3625 174.8863Q72.675 173.9488 73.28438 173.4488Q73.90938 172.9488 74.84688 172.9488Q75.53438 172.9488 76.05 173.23006Q76.58125 173.5113 76.925 174.04256Q77.26875 174.55818 77.45625 175.30818Q77.64375 176.05818 77.64375 177.33943Q77.64375 178.85506 77.33125 179.77693Q77.03438 180.6988 76.40938 181.21443Q75.8 181.71443 74.84688 181.71443Q73.6125 181.71443 72.89375 180.8238Q72.05 179.7613 72.05 177.33943ZM73.12813 177.33943Q73.12813 179.4488 73.62813 180.15193Q74.12813 180.85506 74.84688 180.85506Q75.58125 180.85506 76.06563 180.15193Q76.56563 179.4488 76.56563 177.33943Q76.56563 175.21443 76.06563 174.52693Q75.58125 173.8238 74.83125 173.8238Q74.1125 173.8238 73.675 174.43318Q73.12813 175.21443 73.12813 177.33943Z" fill-rule="nonzero"/><path fill="#000000" d="M51.05 148.60477L52.159374 148.51102Q52.284374 149.32352 52.721874 149.72977Q53.175 150.13602 53.815624 150.13602Q54.565624 150.13602 55.096874 149.55789Q55.628124 148.97977 55.628124 148.04227Q55.628124 147.13602 55.1125 146.62039Q54.6125 146.08914 53.784374 146.08914Q53.284374 146.08914 52.8625 146.32352Q52.45625 146.55789 52.221874 146.91727L51.2375 146.79227L52.065624 142.38602L56.346874 142.38602L56.346874 143.38602L52.909374 143.38602L52.45625 145.69852Q53.221874 145.15164 54.065624 145.15164Q55.190624 145.15164 55.95625 145.93289Q56.7375 146.71414 56.7375 147.94852Q56.7375 149.10477 56.065624 149.96414Q55.2375 150.99539 53.815624 150.99539Q52.64375 150.99539 51.89375 150.33914Q51.159374 149.68289 51.05 148.60477ZM58.05 146.62039Q58.05 145.08914 58.3625 144.16727Q58.675 143.22977 59.284374 142.72977Q59.909374 142.22977 60.846874 142.22977Q61.534374 142.22977 62.05 142.51102Q62.58125 142.79227 62.925 143.32352Q63.26875 143.83914 63.45625 144.58914Q63.64375 145.33914 63.64375 146.62039Q63.64375 148.13602 63.33125 149.05789Q63.034374 149.97977 62.409374 150.49539Q61.8 150.99539 60.846874 150.99539Q59.6125 150.99539 58.89375 150.10477Q58.05 149.04227 58.05 146.62039ZM59.128124 146.62039Q59.128124 148.72977 59.628124 149.43289Q60.128124 150.13602 60.846874 150.13602Q61.58125 150.13602 62.065624 149.43289Q62.565624 148.72977 62.565624 146.62039Q62.565624 144.49539 62.065624 143.80789Q61.58125 143.10477 60.83125 143.10477Q60.1125 143.10477 59.675 143.71414Q59.128124 144.49539 59.128124 146.62039ZM65.05 146.62039Q65.05 145.08914 65.3625 144.16727Q65.675 143.22977 66.28438 142.72977Q66.90938 142.22977 67.84688 142.22977Q68.53438 142.22977 69.05 142.51102Q69.58125 142.79227 69.925 143.32352Q70.26875 143.83914 70.45625 144.58914Q70.64375 145.33914 70.64375 146.62039Q70.64375 148.13602 70.33125 149.05789Q70.03438 149.97977 69.40938 150.49539Q68.8 150.99539 67.84688 150.99539Q66.6125 150.99539 65.89375 150.10477Q65.05 149.04227 65.05 146.62039ZM66.12813 146.62039Q66.12813 148.72977 66.62813 149.43289Q67.12813 150.13602 67.84688 150.13602Q68.58125 150.13602 69.06563 149.43289Q69.56563 148.72977 69.56563 146.62039Q69.56563 144.49539 69.06563 143.80789Q68.58125 143.10477 67.83125 143.10477Q67.1125 143.10477 66.675 143.71414Q66.12813 144.49539 66.12813 146.62039ZM72.05 146.62039Q72.05 145.08914 72.3625 144.16727Q72.675 143.22977 73.28438 142.72977Q73.90938 142.22977 74.84688 142.22977Q75.53438 142.22977 76.05 142.51102Q76.58125 142.79227 76.925 143.32352Q77.26875 143.83914 77.45625 144.58914Q77.64375 145.33914 77.64375 146.62039Q77.64375 148.13602 77.33125 149.05789Q77.03438 149.97977 76.40938 150.49539Q75.8 150.99539 74.84688 150.99539Q73.6125 150.99539 72.89375 150.10477Q72.05 149.04227 72.05 146.62039ZM73.12813 146.62039Q73.12813 148.72977 73.62813 149.43289Q74.12813 150.13602 74.84688 150.13602Q75.58125 150.13602 76.06563 149.43289Q76.56563 148.72977 76.56563 146.62039Q76.56563 144.49539 76.06563 143.80789Q75.58125 143.10477 74.83125 143.10477Q74.1125 143.10477 73.675 143.71414Q73.12813 144.49539 73.12813 146.62039Z" fill-rule="nonzero"/><path fill="#000000" d="M56.51875 113.65134L55.471874 113.72946Q55.33125 113.10446 55.08125 112.82321Q54.64375 112.37009 54.01875 112.37009Q53.51875 112.37009 53.128124 112.65134Q52.64375 113.02634 52.346874 113.72946Q52.065624 114.41696 52.05 115.69821Q52.425 115.12009 52.971874 114.83884Q53.534374 114.55759 54.14375 114.55759Q55.190624 114.55759 55.925 115.33884Q56.675 116.12009 56.675 117.33884Q56.675 118.15134 56.315624 118.85446Q55.971874 119.54196 55.3625 119.91696Q54.753124 120.27634 53.9875 120.27634Q52.659374 120.27634 51.83125 119.30759Q51.003124 118.33884 51.003124 116.12009Q51.003124 113.62009 51.925 112.49509Q52.721874 111.51071 54.08125 111.51071Q55.096874 111.51071 55.7375 112.08884Q56.39375 112.65134 56.51875 113.65134ZM52.221874 117.35446Q52.221874 117.90134 52.440624 118.40134Q52.675 118.88571 53.08125 119.15134Q53.503124 119.41696 53.971874 119.41696Q54.628124 119.41696 55.1125 118.88571Q55.596874 118.33884 55.596874 117.41696Q55.596874 116.52634 55.1125 116.01071Q54.64375 115.49509 53.925 115.49509Q53.20625 115.49509 52.70625 116.01071Q52.221874 116.52634 52.221874 117.35446ZM58.05 115.90134Q58.05 114.37009 58.3625 113.44821Q58.675 112.51071 59.284374 112.01071Q59.909374 111.51071 60.846874 111.51071Q61.534374 111.51071 62.05 111.79196Q62.58125 112.07321 62.925 112.60446Q63.26875 113.12009 63.45625 113.87009Q63.64375 114.62009 63.64375 115.90134Q63.64375 117.41696 63.33125 118.33884Q63.034374 119.26071 62.409374 119.77634Q61.8 120.27634 60.846874 120.27634Q59.6125 120.27634 58.89375 119.38571Q58.05 118.32321 58.05 115.90134ZM59.128124 115.90134Q59.128124 118.01071 59.628124 118.71384Q60.128124 119.41696 60.846874 119.41696Q61.58125 119.41696 62.065624 118.71384Q62.565624 118.01071 62.565624 115.90134Q62.565624 113.77634 62.065624 113.08884Q61.58125 112.38571 60.83125 112.38571Q60.1125 112.38571 59.675 112.99509Q59.128124 113.77634 59.128124 115.90134ZM65.05 115.90134Q65.05 114.37009 65.3625 113.44821Q65.675 112.51071 66.28438 112.01071Q66.90938 111.51071 67.84688 111.51071Q68.53438 111.51071 69.05 111.79196Q69.58125 112.07321 69.925 112.60446Q70.26875 113.12009 70.45625 113.87009Q70.64375 114.62009 70.64375 115.90134Q70.64375 117.41696 70.33125 118.33884Q70.03438 119.26071 69.40938 119.77634Q68.8 120.27634 67.84688 120.27634Q66.6125 120.27634 65.89375 119.38571Q65.05 118.32321 65.05 115.90134ZM66.12813 115.90134Q66.12813 118.01071 66.62813 118.71384Q67.12813 119.41696 67.84688 119.41696Q68.58125 119.41696 69.06563 118.71384Q69.56563 118.01071 69.56563 115.90134Q69.56563 113.77634 69.06563 113.08884Q68.58125 112.38571 67.83125 112.38571Q67.1125 112.38571 66.675 112.99509Q66.12813 113.77634 66.12813 115.90134ZM72.05 115.90134Q72.05 114.37009 72.3625 113.44821Q72.675 112.51071 73.28438 112.01071Q73.90938 111.51071 74.84688 111.51071Q75.53438 111.51071 76.05 111.79196Q76.58125 112.07321 76.925 112.60446Q77.26875 113.12009 77.45625 113.87009Q77.64375 114.62009 77.64375 115.90134Q77.64375 117.41696 77.33125 118.33884Q77.03438 119.26071 76.40938 119.77634Q75.8 120.27634 74.84688 120.27634Q73.6125 120.27634 72.89375 119.38571Q72.05 118.32321 72.05 115.90134ZM73.12813 115.90134Q73.12813 118.01071 73.62813 118.71384Q74.12813 119.41696 74.84688 119.41696Q75.58125 119.41696 76.06563 118.71384Q76.56563 118.01071 76.56563 115.90134Q76.56563 113.77634 76.06563 113.08884Q75.58125 112.38571 74.83125 112.38571Q74.1125 112.38571 73.675 112.99509Q73.12813 113.77634 73.12813 115.90134Z" fill-rule="nonzero"/><path fill="#000000" d="M51.1125 81.947914L51.1125 80.93229L56.675 80.93229L56.675 81.760414Q55.8625 82.635414 55.05 84.08854Q54.253124 85.52604 53.815624 87.05729Q53.4875 88.135414 53.409374 89.416664L52.315624 89.416664Q52.33125 88.40104 52.70625 86.96354Q53.096874 85.52604 53.8 84.197914Q54.51875 82.86979 55.33125 81.947914L51.1125 81.947914ZM58.05 85.18229Q58.05 83.65104 58.3625 82.729164Q58.675 81.791664 59.284374 81.291664Q59.909374 80.791664 60.846874 80.791664Q61.534374 80.791664 62.05 81.072914Q62.58125 81.354164 62.925 81.885414Q63.26875 82.40104 63.45625 83.15104Q63.64375 83.90104 63.64375 85.18229Q63.64375 86.697914 63.33125 87.61979Q63.034374 88.541664 62.409374 89.05729Q61.8 89.55729 60.846874 89.55729Q59.6125 89.55729 58.89375 88.666664Q58.05 87.604164 58.05 85.18229ZM59.128124 85.18229Q59.128124 87.291664 59.628124 87.99479Q60.128124 88.697914 60.846874 88.697914Q61.58125 88.697914 62.065624 87.99479Q62.565624 87.291664 62.565624 85.18229Q62.565624 83.05729 62.065624 82.36979Q61.58125 81.666664 60.83125 81.666664Q60.1125 81.666664 59.675 82.27604Q59.128124 83.05729 59.128124 85.18229ZM65.05 85.18229Q65.05 83.65104 65.3625 82.729164Q65.675 81.791664 66.28438 81.291664Q66.90938 80.791664 67.84688 80.791664Q68.53438 80.791664 69.05 81.072914Q69.58125 81.354164 69.925 81.885414Q70.26875 82.40104 70.45625 83.15104Q70.64375 83.90104 70.64375 85.18229Q70.64375 86.697914 70.33125 87.61979Q70.03438 88.541664 69.40938 89.05729Q68.8 89.55729 67.84688 89.55729Q66.6125 89.55729 65.89375 88.666664Q65.05 87.604164 65.05 85.18229ZM66.12813 85.18229Q66.12813 87.291664 66.62813 87.99479Q67.12813 88.697914 67.84688 88.697914Q68.58125 88.697914 69.06563 87.99479Q69.56563 87.291664 69.56563 85.18229Q69.56563 83.05729 69.06563 82.36979Q68.58125 81.666664 67.83125 81.666664Q67.1125 81.666664 66.675 82.27604Q66.12813 83.05729 66.12813 85.18229ZM72.05 85.18229Q72.05 83.65104 72.3625 82.729164Q72.675 81.791664 73.28438 81.291664Q73.90938 80.791664 74.84688 80.791664Q75.53438 80.791664 76.05 81.072914Q76.58125 81.354164 76.925 81.885414Q77.26875 82.40104 77.45625 83.15104Q77.64375 83.90104 77.64375 85.18229Q77.64375 86.697914 77.33125 87.61979Q77.03438 88.541664 76.40938 89.05729Q75.8 89.55729 74.84688 89.55729Q73.6125 89.55729 72.89375 88.666664Q72.05 87.604164 72.05 85.18229ZM73.12813 85.18229Q73.12813 87.291664 73.62813 87.99479Q74.12813 88.697914 74.84688 88.697914Q75.58125 88.697914 76.06563 87.99479Q76.56563 87.291664 76.56563 85.18229Q76.56563 83.05729 76.06563 82.36979Q75.58125 81.666664 74.83125 81.666664Q74.1125 81.666664 73.675 82.27604Q73.12813 83.05729 73.12813 85.18229Z" fill-rule="nonzero"/><path fill="#000000" d="M135.20876 317.45L134.16188 317.45L134.16188 310.73126Q133.77126 311.09064 133.14626 311.46564Q132.53688 311.825 132.0525 311.9969L132.0525 310.98126Q132.9275 310.5594 133.58376 309.98126Q134.25563 309.3875 134.53688 308.825L135.20876 308.825L135.20876 317.45Z" fill-rule="nonzero"/><path fill="#000000" d="M231.08875 317.45L230.04187 317.45L230.04187 310.73126Q229.65125 311.09064 229.02625 311.46564Q228.41687 311.825 227.9325 311.9969L227.9325 310.98126Q228.8075 310.5594 229.46375 309.98126Q230.13562 309.3875 230.41687 308.825L231.08875 308.825L231.08875 317.45ZM239.58875 310.96564L238.54187 311.04376Q238.40125 310.41876 238.15125 310.1375Q237.71375 309.6844 237.08875 309.6844Q236.58875 309.6844 236.19812 309.96564Q235.71375 310.34064 235.41687 311.04376Q235.13562 311.73126 235.12 313.0125Q235.495 312.4344 236.04187 312.15314Q236.60437 311.8719 237.21375 311.8719Q238.26062 311.8719 238.995 312.65314Q239.745 313.4344 239.745 314.65314Q239.745 315.46564 239.38562 316.16876Q239.04187 316.85626 238.4325 317.23126Q237.82312 317.59064 237.0575 317.59064Q235.72937 317.59064 234.90125 316.6219Q234.07312 315.65314 234.07312 313.4344Q234.07312 310.9344 234.995 309.8094Q235.79187 308.825 237.15125 308.825Q238.16687 308.825 238.8075 309.40314Q239.46375 309.96564 239.58875 310.96564ZM235.29187 314.66876Q235.29187 315.21564 235.51062 315.71564Q235.745 316.2 236.15125 316.46564Q236.57312 316.73126 237.04187 316.73126Q237.69812 316.73126 238.1825 316.2Q238.66687 315.65314 238.66687 314.73126Q238.66687 313.84064 238.1825 313.325Q237.71375 312.8094 236.995 312.8094Q236.27625 312.8094 235.77625 313.325Q235.29187 313.84064 235.29187 314.66876Z" fill-rule="nonzero"/><path fill="#000000" d="M331.96875 310.96564L330.92188 311.04376Q330.78125 310.41876 330.53125 310.1375Q330.09375 309.6844 329.46875 309.6844Q328.96875 309.6844 328.57812 309.96564Q328.09375 310.34064 327.79688 311.04376Q327.51562 311.73126 327.5 313.0125Q327.875 312.4344 328.42188 312.15314Q328.98438 311.8719 329.59375 311.8719Q330.64062 311.8719 331.375 312.65314Q332.125 313.4344 332.125 314.65314Q332.125 315.46564 331.76562 316.16876Q331.42188 316.85626 330.8125 317.23126Q330.20312 317.59064 329.4375 317.59064Q328.10938 317.59064 327.28125 316.6219Q326.45312 315.65314 326.45312 313.4344Q326.45312 310.9344 327.375 309.8094Q328.17188 308.825 329.53125 308.825Q330.54688 308.825 331.1875 309.40314Q331.84375 309.96564 331.96875 310.96564ZM327.67188 314.66876Q327.67188 315.21564 327.89062 315.71564Q328.125 316.2 328.53125 316.46564Q328.95312 316.73126 329.42188 316.73126Q330.07812 316.73126 330.5625 316.2Q331.04688 315.65314 331.04688 314.73126Q331.04688 313.84064 330.5625 313.325Q330.09375 312.8094 329.375 312.8094Q328.65625 312.8094 328.15625 313.325Q327.67188 313.84064 327.67188 314.66876ZM336.875 317.45L336.875 315.3875L333.15625 315.3875L333.15625 314.41876L337.07812 308.85626L337.9375 308.85626L337.9375 314.41876L339.09375 314.41876L339.09375 315.3875L337.9375 315.3875L337.9375 317.45L336.875 317.45ZM336.875 314.41876L336.875 310.5594L334.1875 314.41876L336.875 314.41876Z" fill-rule="nonzero"/><path fill="#000000" d="M427.92688 316.4344L427.92688 317.45L422.23938 317.45Q422.23938 317.075 422.36438 316.71564Q422.58313 316.1375 423.05188 315.575Q423.53625 315.0125 424.4425 314.27814Q425.84875 313.1219 426.33313 312.45Q426.83313 311.77814 426.83313 311.1844Q426.83313 310.5594 426.38 310.1375Q425.92688 309.7 425.20813 309.7Q424.4425 309.7 423.98938 310.15314Q423.53625 310.60626 423.52063 311.41876L422.4425 311.3094Q422.55188 310.09064 423.27063 309.46564Q424.005 308.825 425.23938 308.825Q426.47375 308.825 427.1925 309.5125Q427.91125 310.2 427.91125 311.21564Q427.91125 311.73126 427.6925 312.23126Q427.48938 312.71564 426.98938 313.27814Q426.505 313.825 425.38 314.77814Q424.42688 315.575 424.14563 315.8719Q423.88 316.15314 423.70813 316.4344L427.92688 316.4344ZM429.38 315.2L430.48938 315.10626Q430.61438 315.91876 431.05188 316.325Q431.505 316.73126 432.14563 316.73126Q432.89563 316.73126 433.42688 316.15314Q433.95813 315.575 433.95813 314.6375Q433.95813 313.73126 433.4425 313.21564Q432.9425 312.6844 432.11438 312.6844Q431.61438 312.6844 431.1925 312.91876Q430.78625 313.15314 430.55188 313.5125L429.5675 313.3875L430.39563 308.98126L434.67688 308.98126L434.67688 309.98126L431.23938 309.98126L430.78625 312.29376Q431.55188 311.7469 432.39563 311.7469Q433.52063 311.7469 434.28625 312.52814Q435.0675 313.3094 435.0675 314.54376Q435.0675 315.7 434.39563 316.5594Q433.5675 317.59064 432.14563 317.59064Q430.97375 317.59064 430.22375 316.9344Q429.48938 316.27814 429.38 315.2ZM441.84875 310.96564L440.80188 311.04376Q440.66125 310.41876 440.41125 310.1375Q439.97375 309.6844 439.34875 309.6844Q438.84875 309.6844 438.45813 309.96564Q437.97375 310.34064 437.67688 311.04376Q437.39563 311.73126 437.38 313.0125Q437.755 312.4344 438.30188 312.15314Q438.86438 311.8719 439.47375 311.8719Q440.52063 311.8719 441.255 312.65314Q442.005 313.4344 442.005 314.65314Q442.005 315.46564 441.64563 316.16876Q441.30188 316.85626 440.6925 317.23126Q440.08313 317.59064 439.3175 317.59064Q437.98938 317.59064 437.16125 316.6219Q436.33313 315.65314 436.33313 313.4344Q436.33313 310.9344 437.255 309.8094Q438.05188 308.825 439.41125 308.825Q440.42688 308.825 441.0675 309.40314Q441.72375 309.96564 441.84875 310.96564ZM437.55188 314.66876Q437.55188 315.21564 437.77063 315.71564Q438.005 316.2 438.41125 316.46564Q438.83313 316.73126 439.30188 316.73126Q439.95813 316.73126 440.4425 316.2Q440.92688 315.65314 440.92688 314.73126Q440.92688 313.84064 440.4425 313.325Q439.97375 312.8094 439.255 312.8094Q438.53625 312.8094 438.03625 313.325Q437.55188 313.84064 437.55188 314.66876Z" fill-rule="nonzero"/><path fill="#000000" d="M522.22876 317.45L521.1819 317.45L521.1819 310.73126Q520.79126 311.09064 520.16626 311.46564Q519.5569 311.825 519.0725 311.9969L519.0725 310.98126Q519.9475 310.5594 520.60376 309.98126Q521.27563 309.3875 521.5569 308.825L522.22876 308.825L522.22876 317.45ZM525.26 313.21564Q525.26 311.6844 525.5725 310.7625Q525.885 309.825 526.4944 309.325Q527.1194 308.825 528.0569 308.825Q528.7444 308.825 529.26 309.10626Q529.79126 309.3875 530.135 309.91876Q530.47876 310.4344 530.66626 311.1844Q530.85376 311.9344 530.85376 313.21564Q530.85376 314.73126 530.54126 315.65314Q530.2444 316.575 529.6194 317.09064Q529.01 317.59064 528.0569 317.59064Q526.8225 317.59064 526.10376 316.7Q525.26 315.6375 525.26 313.21564ZM526.33813 313.21564Q526.33813 315.325 526.83813 316.02814Q527.33813 316.73126 528.0569 316.73126Q528.79126 316.73126 529.27563 316.02814Q529.77563 315.325 529.77563 313.21564Q529.77563 311.09064 529.27563 310.40314Q528.79126 309.7 528.04126 309.7Q527.3225 309.7 526.885 310.3094Q526.33813 311.09064 526.33813 313.21564ZM537.8069 316.4344L537.8069 317.45L532.1194 317.45Q532.1194 317.075 532.2444 316.71564Q532.46313 316.1375 532.9319 315.575Q533.41626 315.0125 534.3225 314.27814Q535.72876 313.1219 536.21313 312.45Q536.71313 311.77814 536.71313 311.1844Q536.71313 310.5594 536.26 310.1375Q535.8069 309.7 535.08813 309.7Q534.3225 309.7 533.8694 310.15314Q533.41626 310.60626 533.40063 311.41876L532.3225 311.3094Q532.4319 310.09064 533.15063 309.46564Q533.885 308.825 535.1194 308.825Q536.35376 308.825 537.0725 309.5125Q537.79126 310.2 537.79126 311.21564Q537.79126 311.73126 537.5725 312.23126Q537.3694 312.71564 536.8694 313.27814Q536.385 313.825 535.26 314.77814Q534.3069 315.575 534.02563 315.8719Q533.76 316.15314 533.58813 316.4344L537.8069 316.4344ZM542.635 317.45L542.635 315.3875L538.91626 315.3875L538.91626 314.41876L542.83813 308.85626L543.6975 308.85626L543.6975 314.41876L544.85376 314.41876L544.85376 315.3875L543.6975 315.3875L543.6975 317.45L542.635 317.45ZM542.635 314.41876L542.635 310.5594L539.9475 314.41876L542.635 314.41876Z" fill-rule="nonzero"/><path fill="#999999" d="M263.07812 63.05L263.07812 53.034374L266.85938 53.034374Q267.85938 53.034374 268.39062 53.128124Q269.125 53.253124 269.625 53.596874Q270.125 53.940624 270.42188 54.565624Q270.73438 55.175 270.73438 55.925Q270.73438 57.20625 269.92188 58.096874Q269.10938 58.971874 266.98438 58.971874L264.40625 58.971874L264.40625 63.05L263.07812 63.05ZM264.40625 57.8L267.0 57.8Q268.28125 57.8 268.8125 57.315624Q269.35938 56.83125 269.35938 55.971874Q269.35938 55.33125 269.04688 54.89375Q268.73438 54.440624 268.20312 54.3Q267.875 54.20625 266.96875 54.20625L264.40625 54.20625L264.40625 57.8ZM279.23438 59.534374L280.5625 59.878124Q280.14062 61.503124 279.04688 62.3625Q277.96875 63.221874 276.40625 63.221874Q274.78125 63.221874 273.76562 62.565624Q272.75 61.89375 272.21875 60.64375Q271.70312 59.39375 271.70312 57.95625Q271.70312 56.39375 272.29688 55.2375Q272.89062 54.065624 274.0 53.471874Q275.10938 52.8625 276.42188 52.8625Q277.9375 52.8625 278.95312 53.628124Q279.98438 54.39375 280.39062 55.76875L279.07812 56.08125Q278.73438 54.9875 278.0625 54.4875Q277.40625 53.9875 276.40625 53.9875Q275.25 53.9875 274.46875 54.55Q273.6875 55.096874 273.375 56.034374Q273.0625 56.971874 273.0625 57.95625Q273.0625 59.2375 273.4375 60.190624Q273.8125 61.14375 274.59375 61.6125Q275.375 62.08125 276.29688 62.08125Q277.40625 62.08125 278.17188 61.440624Q278.95312 60.8 279.23438 59.534374ZM285.4375 60.034374L285.4375 58.8L289.21875 58.8L289.21875 60.034374L285.4375 60.034374ZM295.03125 63.05L295.03125 53.034374L296.35938 53.034374L296.35938 61.8625L301.28125 61.8625L301.28125 63.05L295.03125 63.05ZM307.65625 62.159374Q306.98438 62.7375 306.34375 62.9875Q305.71875 63.221874 304.98438 63.221874Q303.79688 63.221874 303.14062 62.64375Q302.5 62.05 302.5 61.128124Q302.5 60.596874 302.73438 60.159374Q302.98438 59.721874 303.375 59.45625Q303.78125 59.190624 304.26562 59.05Q304.625 58.95625 305.35938 58.8625Q306.85938 58.690624 307.5625 58.440624Q307.5625 58.190624 307.5625 58.128124Q307.5625 57.3625 307.21875 57.065624Q306.75 56.64375 305.8125 56.64375Q304.95312 56.64375 304.53125 56.95625Q304.125 57.253124 303.92188 58.01875L302.71875 57.8625Q302.875 57.08125 303.25 56.6125Q303.64062 56.14375 304.34375 55.89375Q305.0625 55.628124 306.0 55.628124Q306.92188 55.628124 307.5 55.846874Q308.07812 56.065624 308.34375 56.39375Q308.625 56.721874 308.73438 57.2375Q308.79688 57.55 308.79688 58.3625L308.79688 60.003124Q308.79688 61.721874 308.875 62.175Q308.95312 62.628124 309.1875 63.05L307.90625 63.05Q307.71875 62.659374 307.65625 62.159374ZM307.5625 59.409374Q306.89062 59.675 305.54688 59.878124Q304.79688 59.9875 304.46875 60.128124Q304.15625 60.253124 303.98438 60.51875Q303.8125 60.784374 303.8125 61.096874Q303.8125 61.596874 304.1875 61.925Q304.5625 62.253124 305.28125 62.253124Q306.0 62.253124 306.54688 61.940624Q307.09375 61.628124 307.35938 61.08125Q307.5625 60.675 307.5625 59.8625L307.5625 59.409374ZM310.92188 65.83125L310.92188 55.784374L312.04688 55.784374L312.04688 56.7375Q312.4375 56.175 312.9375 55.909374Q313.4375 55.628124 314.15625 55.628124Q315.07812 55.628124 315.78125 56.1125Q316.5 56.58125 316.85938 57.45625Q317.21875 58.33125 317.21875 59.3625Q317.21875 60.471874 316.8125 61.378124Q316.42188 62.26875 315.65625 62.753124Q314.90625 63.221874 314.0625 63.221874Q313.45312 63.221874 312.95312 62.95625Q312.46875 62.690624 312.15625 62.3L312.15625 65.83125L310.92188 65.83125ZM312.03125 59.45625Q312.03125 60.8625 312.59375 61.534374Q313.17188 62.20625 313.98438 62.20625Q314.79688 62.20625 315.375 61.51875Q315.96875 60.815624 315.96875 59.3625Q315.96875 57.971874 315.39062 57.284374Q314.82812 56.596874 314.03125 56.596874Q313.25 56.596874 312.64062 57.33125Q312.03125 58.065624 312.03125 59.45625ZM321.60938 61.95625L321.78125 63.034374Q321.26562 63.14375 320.85938 63.14375Q320.1875 63.14375 319.8125 62.940624Q319.45312 62.721874 319.29688 62.378124Q319.15625 62.034374 319.15625 60.925L319.15625 56.753124L318.25 56.753124L318.25 55.784374L319.15625 55.784374L319.15625 53.9875L320.375 53.253124L320.375 55.784374L321.60938 55.784374L321.60938 56.753124L320.375 56.753124L320.375 60.9875Q320.375 61.51875 320.4375 61.675Q320.5 61.815624 320.64062 61.909374Q320.79688 62.003124 321.0625 62.003124Q321.28125 62.003124 321.60938 61.95625ZM322.46875 59.425Q322.46875 57.409374 323.59375 56.425Q324.51562 55.628124 325.875 55.628124Q327.35938 55.628124 328.3125 56.6125Q329.26562 57.58125 329.26562 59.315624Q329.26562 60.721874 328.84375 61.534374Q328.42188 62.33125 327.60938 62.784374Q326.8125 63.221874 325.875 63.221874Q324.34375 63.221874 323.40625 62.2375Q322.46875 61.253124 322.46875 59.425ZM323.73438 59.425Q323.73438 60.815624 324.34375 61.51875Q324.95312 62.20625 325.875 62.20625Q326.78125 62.20625 327.39062 61.503124Q328.0 60.8 328.0 59.378124Q328.0 58.034374 327.39062 57.346874Q326.78125 56.64375 325.875 56.64375Q324.95312 56.64375 324.34375 57.33125Q323.73438 58.01875 323.73438 59.425ZM330.92188 65.83125L330.92188 55.784374L332.04688 55.784374L332.04688 56.7375Q332.4375 56.175 332.9375 55.909374Q333.4375 55.628124 334.15625 55.628124Q335.07812 55.628124 335.78125 56.1125Q336.5 56.58125 336.85938 57.45625Q337.21875 58.33125 337.21875 59.3625Q337.21875 60.471874 336.8125 61.378124Q336.42188 62.26875 335.65625 62.753124Q334.90625 63.221874 334.0625 63.221874Q333.45312 63.221874 332.95312 62.95625Q332.46875 62.690624 332.15625 62.3L332.15625 65.83125L330.92188 65.83125ZM332.03125 59.45625Q332.03125 60.8625 332.59375 61.534374Q333.17188 62.20625 333.98438 62.20625Q334.79688 62.20625 335.375 61.51875Q335.96875 60.815624 335.96875 59.3625Q335.96875 57.971874 335.39062 57.284374Q334.82812 56.596874 334.03125 56.596874Q333.25 56.596874 332.64062 57.33125Q332.03125 58.065624 332.03125 59.45625Z" fill-rule="nonzero"/><path fill="#757575" d="M143.1875 37.55L143.1875 24.925L138.46875 24.925L138.46875 23.2375L149.8125 23.2375L149.8125 24.925L145.07812 24.925L145.07812 37.55L143.1875 37.55ZM151.3125 37.55L151.3125 23.2375L153.07812 23.2375L153.07812 28.3625Q154.3125 26.940624 156.1875 26.940624Q157.32812 26.940624 158.17188 27.39375Q159.03125 27.846874 159.39062 28.659374Q159.76562 29.45625 159.76562 30.971874L159.76562 37.55L158.01562 37.55L158.01562 30.971874Q158.01562 29.659374 157.4375 29.065624Q156.85938 28.45625 155.82812 28.45625Q155.04688 28.45625 154.34375 28.8625Q153.65625 29.26875 153.35938 29.971874Q153.07812 30.659374 153.07812 31.878124L153.07812 37.55L151.3125 37.55ZM162.29688 37.55L162.29688 27.175L163.875 27.175L163.875 28.753124Q164.48438 27.64375 165.0 27.3Q165.51562 26.940624 166.125 26.940624Q167.01562 26.940624 167.9375 27.503124L167.32812 29.14375Q166.6875 28.753124 166.04688 28.753124Q165.46875 28.753124 165.0 29.1125Q164.54688 29.45625 164.34375 30.065624Q164.0625 31.003124 164.0625 32.1125L164.0625 37.55L162.29688 37.55ZM168.67188 32.3625Q168.67188 29.4875 170.26562 28.096874Q171.60938 26.940624 173.53125 26.940624Q175.67188 26.940624 177.01562 28.346874Q178.375 29.753124 178.375 32.221874Q178.375 34.221874 177.78125 35.378124Q177.1875 36.51875 176.03125 37.159374Q174.89062 37.784374 173.53125 37.784374Q171.34375 37.784374 170.0 36.39375Q168.67188 34.9875 168.67188 32.3625ZM170.46875 32.3625Q170.46875 34.3625 171.32812 35.346874Q172.20312 36.33125 173.53125 36.33125Q174.84375 36.33125 175.70312 35.346874Q176.57812 34.346874 176.57812 32.3Q176.57812 30.378124 175.70312 29.39375Q174.82812 28.39375 173.53125 28.39375Q172.20312 28.39375 171.32812 29.39375Q170.46875 30.378124 170.46875 32.3625ZM187.10938 37.55L187.10938 36.01875Q185.90625 37.784374 183.82812 37.784374Q182.90625 37.784374 182.10938 37.440624Q181.3125 37.08125 180.92188 36.55Q180.54688 36.01875 180.39062 35.2375Q180.28125 34.721874 180.28125 33.596874L180.28125 27.175L182.03125 27.175L182.03125 32.925Q182.03125 34.3 182.14062 34.784374Q182.3125 35.471874 182.84375 35.878124Q183.39062 36.26875 184.17188 36.26875Q184.96875 36.26875 185.65625 35.8625Q186.35938 35.45625 186.64062 34.76875Q186.9375 34.065624 186.9375 32.7375L186.9375 27.175L188.6875 27.175L188.6875 37.55L187.10938 37.55ZM191.0 38.409374L192.70312 38.659374Q192.8125 39.45625 193.29688 39.815624Q193.95312 40.3 195.09375 40.3Q196.3125 40.3 196.96875 39.815624Q197.64062 39.33125 197.875 38.45625Q198.01562 37.909374 198.0 36.190624Q196.84375 37.55 195.125 37.55Q192.98438 37.55 191.8125 36.003124Q190.64062 34.45625 190.64062 32.3Q190.64062 30.815624 191.17188 29.565624Q191.71875 28.315624 192.73438 27.628124Q193.76562 26.940624 195.14062 26.940624Q196.96875 26.940624 198.17188 28.425L198.17188 27.175L199.78125 27.175L199.78125 36.14375Q199.78125 38.565624 199.28125 39.565624Q198.79688 40.58125 197.71875 41.159374Q196.65625 41.753124 195.09375 41.753124Q193.25 41.753124 192.09375 40.925Q190.95312 40.096874 191.0 38.409374ZM192.45312 32.175Q192.45312 34.221874 193.26562 35.159374Q194.07812 36.096874 195.29688 36.096874Q196.5 36.096874 197.3125 35.159374Q198.14062 34.221874 198.14062 32.2375Q198.14062 30.33125 197.29688 29.3625Q196.45312 28.39375 195.26562 28.39375Q194.09375 28.39375 193.26562 29.346874Q192.45312 30.3 192.45312 32.175ZM202.3125 37.55L202.3125 23.2375L204.07812 23.2375L204.07812 28.3625Q205.3125 26.940624 207.1875 26.940624Q208.32812 26.940624 209.17188 27.39375Q210.03125 27.846874 210.39062 28.659374Q210.76562 29.45625 210.76562 30.971874L210.76562 37.55L209.01562 37.55L209.01562 30.971874Q209.01562 29.659374 208.4375 29.065624Q207.85938 28.45625 206.82812 28.45625Q206.04688 28.45625 205.34375 28.8625Q204.65625 29.26875 204.35938 29.971874Q204.07812 30.659374 204.07812 31.878124L204.07812 37.55L202.3125 37.55ZM213.3125 41.51875L213.3125 27.175L214.92188 27.175L214.92188 28.51875Q215.48438 27.7375 216.1875 27.346874Q216.90625 26.940624 217.92188 26.940624Q219.25 26.940624 220.26562 27.628124Q221.28125 28.315624 221.79688 29.565624Q222.32812 30.8 222.32812 32.284374Q222.32812 33.878124 221.75 35.159374Q221.1875 36.425 220.09375 37.1125Q219.0 37.784374 217.79688 37.784374Q216.92188 37.784374 216.21875 37.409374Q215.53125 37.034374 215.07812 36.471874L215.07812 41.51875L213.3125 41.51875ZM214.90625 32.425Q214.90625 34.425 215.71875 35.378124Q216.53125 36.33125 217.6875 36.33125Q218.85938 36.33125 219.6875 35.346874Q220.53125 34.3625 220.53125 32.26875Q220.53125 30.3 219.70312 29.315624Q218.89062 28.315624 217.76562 28.315624Q216.64062 28.315624 215.76562 29.378124Q214.90625 30.425 214.90625 32.425ZM231.10938 37.55L231.10938 36.01875Q229.90625 37.784374 227.82812 37.784374Q226.90625 37.784374 226.10938 37.440624Q225.3125 37.08125 224.92188 36.55Q224.54688 36.01875 224.39062 35.2375Q224.28125 34.721874 224.28125 33.596874L224.28125 27.175L226.03125 27.175L226.03125 32.925Q226.03125 34.3 226.14062 34.784374Q226.3125 35.471874 226.84375 35.878124Q227.39062 36.26875 228.17188 36.26875Q228.96875 36.26875 229.65625 35.8625Q230.35938 35.45625 230.64062 34.76875Q230.9375 34.065624 230.9375 32.7375L230.9375 27.175L232.6875 27.175L232.6875 37.55L231.10938 37.55ZM239.15625 35.971874L239.40625 37.534374Q238.67188 37.690624 238.07812 37.690624Q237.125 37.690624 236.59375 37.39375Q236.07812 37.08125 235.85938 36.596874Q235.64062 36.096874 235.64062 34.51875L235.64062 28.55L234.35938 28.55L234.35938 27.175L235.64062 27.175L235.64062 24.6125L237.39062 23.55L237.39062 27.175L239.15625 27.175L239.15625 28.55L237.39062 28.55L237.39062 34.6125Q237.39062 35.3625 237.48438 35.58125Q237.57812 35.784374 237.78125 35.925Q238.0 36.05 238.39062 36.05Q238.67188 36.05 239.15625 35.971874ZM251.64062 37.55L246.09375 23.2375L248.14062 23.2375L251.85938 33.628124Q252.3125 34.878124 252.60938 35.971874Q252.9375 34.8 253.39062 33.628124L257.25 23.2375L259.1875 23.2375L253.57812 37.55L251.64062 37.55ZM259.90625 32.95625L261.6875 32.8Q261.8125 33.8625 262.26562 34.55Q262.73438 35.2375 263.70312 35.675Q264.6875 36.096874 265.92188 36.096874Q267.0 36.096874 267.82812 35.784374Q268.65625 35.45625 269.0625 34.89375Q269.46875 34.33125 269.46875 33.659374Q269.46875 32.9875 269.07812 32.4875Q268.6875 31.9875 267.79688 31.64375Q267.21875 31.409374 265.23438 30.940624Q263.26562 30.471874 262.48438 30.05Q261.45312 29.51875 260.95312 28.721874Q260.45312 27.925 260.45312 26.940624Q260.45312 25.846874 261.0625 24.909374Q261.67188 23.971874 262.85938 23.4875Q264.04688 22.9875 265.48438 22.9875Q267.07812 22.9875 268.29688 23.503124Q269.51562 24.01875 270.15625 25.01875Q270.8125 26.003124 270.85938 27.26875L269.04688 27.409374Q268.90625 26.05 268.0625 25.3625Q267.21875 24.659374 265.5625 24.659374Q263.84375 24.659374 263.04688 25.3Q262.26562 25.925 262.26562 26.8Q262.26562 27.58125 262.82812 28.08125Q263.375 28.58125 265.6875 29.096874Q268.0 29.6125 268.85938 30.003124Q270.10938 30.58125 270.70312 31.471874Q271.29688 32.346874 271.29688 33.503124Q271.29688 34.64375 270.64062 35.659374Q269.98438 36.675 268.75 37.2375Q267.53125 37.8 266.0 37.8Q264.0625 37.8 262.75 37.2375Q261.4375 36.659374 260.6875 35.51875Q259.9375 34.378124 259.90625 32.95625ZM279.48438 37.55L279.48438 23.2375L282.34375 23.2375L285.71875 33.3625Q286.1875 34.784374 286.40625 35.4875Q286.65625 34.70625 287.17188 33.190624L290.59375 23.2375L293.14062 23.2375L293.14062 37.55L291.32812 37.55L291.32812 25.565624L287.15625 37.55L285.45312 37.55L281.3125 25.3625L281.3125 37.55L279.48438 37.55ZM303.42188 34.20625L305.23438 34.440624Q304.8125 36.01875 303.64062 36.909374Q302.48438 37.784374 300.67188 37.784374Q298.40625 37.784374 297.0625 36.39375Q295.73438 34.9875 295.73438 32.45625Q295.73438 29.83125 297.07812 28.39375Q298.42188 26.940624 300.57812 26.940624Q302.65625 26.940624 303.96875 28.3625Q305.29688 29.76875 305.29688 32.346874Q305.29688 32.503124 305.28125 32.815624L297.54688 32.815624Q297.64062 34.51875 298.51562 35.425Q299.39062 36.33125 300.6875 36.33125Q301.65625 36.33125 302.32812 35.83125Q303.01562 35.315624 303.42188 34.20625ZM297.64062 31.3625L303.4375 31.3625Q303.32812 30.065624 302.78125 29.409374Q301.9375 28.39375 300.59375 28.39375Q299.39062 28.39375 298.5625 29.20625Q297.73438 30.003124 297.64062 31.3625ZM306.60938 34.45625L308.35938 34.175Q308.5 35.221874 309.17188 35.784374Q309.84375 36.33125 311.04688 36.33125Q312.25 36.33125 312.82812 35.846874Q313.42188 35.346874 313.42188 34.690624Q313.42188 34.096874 312.90625 33.753124Q312.54688 33.51875 311.10938 33.159374Q309.17188 32.659374 308.42188 32.315624Q307.6875 31.95625 307.29688 31.33125Q306.90625 30.690624 306.90625 29.925Q306.90625 29.2375 307.21875 28.64375Q307.54688 28.05 308.09375 27.659374Q308.5 27.3625 309.20312 27.159374Q309.92188 26.940624 310.73438 26.940624Q311.95312 26.940624 312.875 27.3Q313.79688 27.64375 314.23438 28.253124Q314.67188 28.846874 314.84375 29.846874L313.125 30.08125Q313.0 29.284374 312.4375 28.846874Q311.875 28.39375 310.85938 28.39375Q309.64062 28.39375 309.125 28.8Q308.60938 29.190624 308.60938 29.721874Q308.60938 30.065624 308.82812 30.346874Q309.03125 30.628124 309.5 30.815624Q309.76562 30.909374 311.04688 31.253124Q312.92188 31.753124 313.65625 32.08125Q314.39062 32.39375 314.8125 33.003124Q315.23438 33.596874 315.23438 34.503124Q315.23438 35.378124 314.71875 36.159374Q314.20312 36.940624 313.23438 37.3625Q312.26562 37.784374 311.04688 37.784374Q309.03125 37.784374 307.96875 36.940624Q306.90625 36.096874 306.60938 34.45625ZM316.60938 34.45625L318.35938 34.175Q318.5 35.221874 319.17188 35.784374Q319.84375 36.33125 321.04688 36.33125Q322.25 36.33125 322.82812 35.846874Q323.42188 35.346874 323.42188 34.690624Q323.42188 34.096874 322.90625 33.753124Q322.54688 33.51875 321.10938 33.159374Q319.17188 32.659374 318.42188 32.315624Q317.6875 31.95625 317.29688 31.33125Q316.90625 30.690624 316.90625 29.925Q316.90625 29.2375 317.21875 28.64375Q317.54688 28.05 318.09375 27.659374Q318.5 27.3625 319.20312 27.159374Q319.92188 26.940624 320.73438 26.940624Q321.95312 26.940624 322.875 27.3Q323.79688 27.64375 324.23438 28.253124Q324.67188 28.846874 324.84375 29.846874L323.125 30.08125Q323.0 29.284374 322.4375 28.846874Q321.875 28.39375 320.85938 28.39375Q319.64062 28.39375 319.125 28.8Q318.60938 29.190624 318.60938 29.721874Q318.60938 30.065624 318.82812 30.346874Q319.03125 30.628124 319.5 30.815624Q319.76562 30.909374 321.04688 31.253124Q322.92188 31.753124 323.65625 32.08125Q324.39062 32.39375 324.8125 33.003124Q325.23438 33.596874 325.23438 34.503124Q325.23438 35.378124 324.71875 36.159374Q324.20312 36.940624 323.23438 37.3625Q322.26562 37.784374 321.04688 37.784374Q319.03125 37.784374 317.96875 36.940624Q316.90625 36.096874 316.60938 34.45625ZM334.09375 36.26875Q333.10938 37.096874 332.20312 37.440624Q331.29688 37.784374 330.26562 37.784374Q328.5625 37.784374 327.64062 36.95625Q326.71875 36.1125 326.71875 34.815624Q326.71875 34.05 327.0625 33.425Q327.42188 32.8 327.98438 32.425Q328.54688 32.034374 329.25 31.83125Q329.76562 31.70625 330.8125 31.565624Q332.9375 31.315624 333.9375 30.971874Q333.95312 30.6125 333.95312 30.503124Q333.95312 29.440624 333.45312 28.9875Q332.78125 28.39375 331.45312 28.39375Q330.20312 28.39375 329.60938 28.83125Q329.03125 29.26875 328.75 30.378124L327.03125 30.14375Q327.26562 29.034374 327.79688 28.3625Q328.32812 27.675 329.34375 27.315624Q330.35938 26.940624 331.70312 26.940624Q333.03125 26.940624 333.85938 27.253124Q334.6875 27.565624 335.07812 28.05Q335.46875 28.51875 335.625 29.2375Q335.71875 29.690624 335.71875 30.8625L335.71875 33.20625Q335.71875 35.659374 335.82812 36.315624Q335.9375 36.95625 336.28125 37.55L334.4375 37.55Q334.17188 37.003124 334.09375 36.26875ZM333.9375 32.346874Q332.98438 32.7375 331.0625 33.003124Q329.98438 33.159374 329.53125 33.3625Q329.09375 33.55 328.84375 33.925Q328.59375 34.3 328.59375 34.76875Q328.59375 35.471874 329.125 35.940624Q329.65625 36.409374 330.6875 36.409374Q331.70312 36.409374 332.48438 35.971874Q333.28125 35.51875 333.65625 34.753124Q333.9375 34.14375 333.9375 32.9875L333.9375 32.346874ZM338.0 38.409374L339.70312 38.659374Q339.8125 39.45625 340.29688 39.815624Q340.95312 40.3 342.09375 40.3Q343.3125 40.3 343.96875 39.815624Q344.64062 39.33125 344.875 38.45625Q345.01562 37.909374 345.0 36.190624Q343.84375 37.55 342.125 37.55Q339.98438 37.55 338.8125 36.003124Q337.64062 34.45625 337.64062 32.3Q337.64062 30.815624 338.17188 29.565624Q338.71875 28.315624 339.73438 27.628124Q340.76562 26.940624 342.14062 26.940624Q343.96875 26.940624 345.17188 28.425L345.17188 27.175L346.78125 27.175L346.78125 36.14375Q346.78125 38.565624 346.28125 39.565624Q345.79688 40.58125 344.71875 41.159374Q343.65625 41.753124 342.09375 41.753124Q340.25 41.753124 339.09375 40.925Q337.95312 40.096874 338.0 38.409374ZM339.45312 32.175Q339.45312 34.221874 340.26562 35.159374Q341.07812 36.096874 342.29688 36.096874Q343.5 36.096874 344.3125 35.159374Q345.14062 34.221874 345.14062 32.2375Q345.14062 30.33125 344.29688 29.3625Q343.45312 28.39375 342.26562 28.39375Q341.09375 28.39375 340.26562 29.346874Q339.45312 30.3 339.45312 32.175ZM356.42188 34.20625L358.23438 34.440624Q357.8125 36.01875 356.64062 36.909374Q355.48438 37.784374 353.67188 37.784374Q351.40625 37.784374 350.0625 36.39375Q348.73438 34.9875 348.73438 32.45625Q348.73438 29.83125 350.07812 28.39375Q351.42188 26.940624 353.57812 26.940624Q355.65625 26.940624 356.96875 28.3625Q358.29688 29.76875 358.29688 32.346874Q358.29688 32.503124 358.28125 32.815624L350.54688 32.815624Q350.64062 34.51875 351.51562 35.425Q352.39062 36.33125 353.6875 36.33125Q354.65625 36.33125 355.32812 35.83125Q356.01562 35.315624 356.42188 34.20625ZM350.64062 31.3625L356.4375 31.3625Q356.32812 30.065624 355.78125 29.409374Q354.9375 28.39375 353.59375 28.39375Q352.39062 28.39375 351.5625 29.20625Q350.73438 30.003124 350.64062 31.3625ZM365.90625 32.95625L367.6875 32.8Q367.8125 33.8625 368.26562 34.55Q368.73438 35.2375 369.70312 35.675Q370.6875 36.096874 371.92188 36.096874Q373.0 36.096874 373.82812 35.784374Q374.65625 35.45625 375.0625 34.89375Q375.46875 34.33125 375.46875 33.659374Q375.46875 32.9875 375.07812 32.4875Q374.6875 31.9875 373.79688 31.64375Q373.21875 31.409374 371.23438 30.940624Q369.26562 30.471874 368.48438 30.05Q367.45312 29.51875 366.95312 28.721874Q366.45312 27.925 366.45312 26.940624Q366.45312 25.846874 367.0625 24.909374Q367.67188 23.971874 368.85938 23.4875Q370.04688 22.9875 371.48438 22.9875Q373.07812 22.9875 374.29688 23.503124Q375.51562 24.01875 376.15625 25.01875Q376.8125 26.003124 376.85938 27.26875L375.04688 27.409374Q374.90625 26.05 374.0625 25.3625Q373.21875 24.659374 371.5625 24.659374Q369.84375 24.659374 369.04688 25.3Q368.26562 25.925 368.26562 26.8Q368.26562 27.58125 368.82812 28.08125Q369.375 28.58125 371.6875 29.096874Q374.0 29.6125 374.85938 30.003124Q376.10938 30.58125 376.70312 31.471874Q377.29688 32.346874 377.29688 33.503124Q377.29688 34.64375 376.64062 35.659374Q375.98438 36.675 374.75 37.2375Q373.53125 37.8 372.0 37.8Q370.0625 37.8 368.75 37.2375Q367.4375 36.659374 366.6875 35.51875Q365.9375 34.378124 365.90625 32.95625ZM379.32812 25.253124L379.32812 23.2375L381.09375 23.2375L381.09375 25.253124L379.32812 25.253124ZM379.32812 37.55L379.32812 27.175L381.09375 27.175L381.09375 37.55L379.32812 37.55ZM382.39062 37.55L382.39062 36.128124L389.0 28.55Q387.875 28.596874 387.01562 28.596874L382.78125 28.596874L382.78125 27.175L391.26562 27.175L391.26562 28.346874L385.64062 34.925L384.5625 36.128124Q385.73438 36.034374 386.78125 36.034374L391.57812 36.034374L391.57812 37.55L382.39062 37.55ZM400.42188 34.20625L402.23438 34.440624Q401.8125 36.01875 400.64062 36.909374Q399.48438 37.784374 397.67188 37.784374Q395.40625 37.784374 394.0625 36.39375Q392.73438 34.9875 392.73438 32.45625Q392.73438 29.83125 394.07812 28.39375Q395.42188 26.940624 397.57812 26.940624Q399.65625 26.940624 400.96875 28.3625Q402.29688 29.76875 402.29688 32.346874Q402.29688 32.503124 402.28125 32.815624L394.54688 32.815624Q394.64062 34.51875 395.51562 35.425Q396.39062 36.33125 397.6875 36.33125Q398.65625 36.33125 399.32812 35.83125Q400.01562 35.315624 400.42188 34.20625ZM394.64062 31.3625L400.4375 31.3625Q400.32812 30.065624 399.78125 29.409374Q398.9375 28.39375 397.59375 28.39375Q396.39062 28.39375 395.5625 29.20625Q394.73438 30.003124 394.64062 31.3625ZM413.67188 41.753124Q412.21875 39.925 411.21875 37.471874Q410.21875 35.003124 410.21875 32.3625Q410.21875 30.034374 410.96875 27.909374Q411.84375 25.440624 413.67188 22.9875L414.9375 22.9875Q413.75 25.01875 413.375 25.89375Q412.78125 27.2375 412.4375 28.70625Q412.01562 30.534374 412.01562 32.378124Q412.01562 37.065624 414.9375 41.753124L413.67188 41.753124ZM421.1875 37.55L421.1875 24.925L416.46875 24.925L416.46875 23.2375L427.8125 23.2375L427.8125 24.925L423.07812 24.925L423.07812 37.55L421.1875 37.55ZM439.76562 32.534374L441.65625 33.003124Q441.0625 35.346874 439.51562 36.58125Q437.96875 37.8 435.71875 37.8Q433.40625 37.8 431.95312 36.8625Q430.51562 35.909374 429.75 34.128124Q429.0 32.33125 429.0 30.284374Q429.0 28.05 429.84375 26.39375Q430.70312 24.721874 432.28125 23.8625Q433.85938 22.9875 435.75 22.9875Q437.90625 22.9875 439.35938 24.08125Q440.82812 25.175 441.40625 27.159374L439.54688 27.596874Q439.04688 26.034374 438.09375 25.33125Q437.15625 24.6125 435.71875 24.6125Q434.0625 24.6125 432.95312 25.409374Q431.84375 26.190624 431.39062 27.534374Q430.95312 28.8625 430.95312 30.26875Q430.95312 32.096874 431.48438 33.471874Q432.01562 34.83125 433.14062 35.503124Q434.26562 36.175 435.5625 36.175Q437.15625 36.175 438.26562 35.253124Q439.375 34.33125 439.76562 32.534374ZM443.54688 37.55L443.54688 23.2375L448.9375 23.2375Q450.375 23.2375 451.125 23.3625Q452.17188 23.55 452.89062 24.05Q453.60938 24.534374 454.03125 25.425Q454.46875 26.315624 454.46875 27.378124Q454.46875 29.20625 453.29688 30.471874Q452.14062 31.721874 449.10938 31.721874L445.4375 31.721874L445.4375 37.55L443.54688 37.55ZM445.4375 30.034374L449.14062 30.034374Q450.96875 30.034374 451.73438 29.3625Q452.51562 28.675 452.51562 27.425Q452.51562 26.534374 452.0625 25.89375Q451.60938 25.253124 450.875 25.05Q450.39062 24.925 449.09375 24.925L445.4375 24.925L445.4375 30.034374ZM457.46875 41.753124L456.21875 41.753124Q459.125 37.065624 459.125 32.378124Q459.125 30.534374 458.71875 28.7375Q458.375 27.26875 457.78125 25.925Q457.40625 25.034374 456.21875 22.9875L457.46875 22.9875Q459.3125 25.440624 460.1875 27.909374Q460.9375 30.034374 460.9375 32.3625Q460.9375 35.003124 459.92188 37.471874Q458.92188 39.925 457.46875 41.753124Z" fill-rule="nonzero"/></svg>