<svg version="1.1" viewBox="0.0 0.0 847.0 524.0" fill="none" stroke="none" stroke-linecap="square" stroke-miterlimit="10" width="847" height="524" xmlns:xlink="http://www.w3.org/1999/xlink" xmlns="http://www.w3.org/2000/svg"><path fill="#ffffff" d="M0 0L847.0 0L847.0 524.0L0 524.0L0 0Z" fill-rule="nonzero"/><path stroke="#333333" stroke-width="1.0" stroke-linecap="butt" d="M85.5 445.5L820.5 445.5" fill-rule="nonzero"/><path stroke="#cccccc" stroke-width="1.0" stroke-linecap="butt" d="M85.5 332.5L820.5 332.5" fill-rule="nonzero"/><path stroke="#cccccc" stroke-width="1.0" stroke-linecap="butt" d="M85.5 219.5L820.5 219.5" fill-rule="nonzero"/><path stroke="#cccccc" stroke-width="1.0" stroke-linecap="butt" d="M85.5 106.5L820.5 106.5" fill-rule="nonzero"/><clipPath id="id_0"><path d="M85.2 106.13333L820.8 106.13333L820.8 445.8L85.2 445.8L85.2 106.13333Z" clip-rule="nonzero"/></clipPath><path stroke="#4285f4" stroke-width="2.0" stroke-linecap="butt" clip-path="url(#id_0)" d="M126.066666 392.58554L207.8 356.6375L289.53333 315.02832L371.26666 272.9946L453.0 236.905L534.73334 214.26056L616.4667 200.81541L698.2 193.03139L779.93335 186.52112" fill-rule="nonzero"/><path stroke="#ea4335" stroke-width="2.0" stroke-linecap="butt" clip-path="url(#id_0)" d="M126.066666 388.62277L207.8 363.00626L289.53333 308.94263L371.26666 256.43582L453.0 212.56223L534.73334 181.8507L616.4667 160.19695L698.2 146.32722L779.93335 140.94917" fill-rule="nonzero"/><path stroke="#fbbc04" stroke-width="2.0" stroke-linecap="butt" clip-path="url(#id_0)" d="M126.066666 400.65265L207.8 387.34903L289.53333 384.0939L371.26666 399.66196L453.0 413.95624L534.73334 419.90042L616.4667 425.9861L698.2 426.55222L779.93335 426.55222" fill-rule="nonzero"/><path stroke="#34a853" stroke-width="2.0" stroke-linecap="butt" clip-path="url(#id_0)" d="M126.066666 397.53903L207.8 385.93375L289.53333 382.96167L371.26666 403.90778L453.0 402.91708L534.73334 420.74957L616.4667 424.4293L698.2 426.69376L779.93335 425.9861" fill-rule="nonzero"/><path fill="#000000" fill-opacity="0.0" clip-path="url(#id_0)" d="M129.06667 392.58554C129.06667 394.2424 127.72352 395.58554 126.066666 395.58554C124.40981 395.58554 123.066666 394.2424 123.066666 392.58554C123.066666 390.9287 124.40981 389.58554 126.066666 389.58554C127.72352 389.58554 129.06667 390.9287 129.06667 392.58554Z" fill-rule="nonzero"/><path fill="#000000" fill-opacity="0.0" clip-path="url(#id_0)" d="M210.8 356.6375C210.8 358.29434 209.45685 359.6375 207.8 359.6375C206.14314 359.6375 204.8 358.29434 204.8 356.6375C204.8 354.98065 206.14314 353.6375 207.8 353.6375C209.45685 353.6375 210.8 354.98065 210.8 356.6375Z" fill-rule="nonzero"/><path fill="#000000" fill-opacity="0.0" clip-path="url(#id_0)" d="M292.53333 315.02832C292.53333 316.68518 291.1902 318.02832 289.53333 318.02832C287.87646 318.02832 286.53333 316.68518 286.53333 315.02832C286.53333 313.3715 287.87646 312.02832 289.53333 312.02832C291.1902 312.02832 292.53333 313.3715 292.53333 315.02832Z" fill-rule="nonzero"/><path fill="#000000" fill-opacity="0.0" clip-path="url(#id_0)" d="M374.26666 272.9946C374.26666 274.65143 372.92352 275.9946 371.26666 275.9946C369.6098 275.9946 368.26666 274.65143 368.26666 272.9946C368.26666 271.33774 369.6098 269.9946 371.26666 269.9946C372.92352 269.9946 374.26666 271.33774 374.26666 272.9946Z" fill-rule="nonzero"/><path fill="#000000" fill-opacity="0.0" clip-path="url(#id_0)" d="M456.0 236.905C456.0 238.56186 454.65686 239.905 453.0 239.905C451.34314 239.905 450.0 238.56186 450.0 236.905C450.0 235.24814 451.34314 233.905 453.0 233.905C454.65686 233.905 456.0 235.24814 456.0 236.905Z" fill-rule="nonzero"/><path fill="#000000" fill-opacity="0.0" clip-path="url(#id_0)" d="M537.73334 214.26056C537.73334 215.9174 536.3902 217.26056 534.73334 217.26056C533.0765 217.26056 531.73334 215.9174 531.73334 214.26056C531.73334 212.6037 533.0765 211.26056 534.73334 211.26056C536.3902 211.26056 537.73334 212.6037 537.73334 214.26056Z" fill-rule="nonzero"/><path fill="#000000" fill-opacity="0.0" clip-path="url(#id_0)" d="M619.4667 200.81541C619.4667 202.47227 618.12354 203.81541 616.4667 203.81541C614.8098 203.81541 613.4667 202.47227 613.4667 200.81541C613.4667 199.15857 614.8098 197.81541 616.4667 197.81541C618.12354 197.81541 619.4667 199.15857 619.4667 200.81541Z" fill-rule="nonzero"/><path fill="#000000" fill-opacity="0.0" clip-path="url(#id_0)" d="M701.2 193.03139C701.2 194.68825 699.8569 196.03139 698.2 196.03139C696.54315 196.03139 695.2 194.68825 695.2 193.03139C695.2 191.37454 696.54315 190.03139 698.2 190.03139C699.8569 190.03139 701.2 191.37454 701.2 193.03139Z" fill-rule="nonzero"/><path fill="#000000" fill-opacity="0.0" clip-path="url(#id_0)" d="M782.93335 186.52112C782.93335 188.17796 781.5902 189.52112 779.93335 189.52112C778.2765 189.52112 776.93335 188.17796 776.93335 186.52112C776.93335 184.86426 778.2765 183.52112 779.93335 183.52112C781.5902 183.52112 782.93335 184.86426 782.93335 186.52112Z" fill-rule="nonzero"/><path fill="#000000" fill-opacity="0.0" clip-path="url(#id_0)" d="M129.06667 388.62277C129.06667 390.27963 127.72352 391.62277 126.066666 391.62277C124.40981 391.62277 123.066666 390.27963 123.066666 388.62277C123.066666 386.9659 124.40981 385.62277 126.066666 385.62277C127.72352 385.62277 129.06667 386.9659 129.06667 388.62277Z" fill-rule="nonzero"/><path fill="#000000" fill-opacity="0.0" clip-path="url(#id_0)" d="M210.8 363.00626C210.8 364.66312 209.45685 366.00626 207.8 366.00626C206.14314 366.00626 204.8 364.66312 204.8 363.00626C204.8 361.3494 206.14314 360.00626 207.8 360.00626C209.45685 360.00626 210.8 361.3494 210.8 363.00626Z" fill-rule="nonzero"/><path fill="#000000" fill-opacity="0.0" clip-path="url(#id_0)" d="M292.53333 308.94263C292.53333 310.5995 291.1902 311.94263 289.53333 311.94263C287.87646 311.94263 286.53333 310.5995 286.53333 308.94263C286.53333 307.2858 287.87646 305.94263 289.53333 305.94263C291.1902 305.94263 292.53333 307.2858 292.53333 308.94263Z" fill-rule="nonzero"/><path fill="#000000" fill-opacity="0.0" clip-path="url(#id_0)" d="M374.26666 256.43582C374.26666 258.09268 372.92352 259.43582 371.26666 259.43582C369.6098 259.43582 368.26666 258.09268 368.26666 256.43582C368.26666 254.77898 369.6098 253.43584 371.26666 253.43584C372.92352 253.43584 374.26666 254.77898 374.26666 256.43582Z" fill-rule="nonzero"/><path fill="#000000" fill-opacity="0.0" clip-path="url(#id_0)" d="M456.0 212.56223C456.0 214.21907 454.65686 215.56223 453.0 215.56223C451.34314 215.56223 450.0 214.21907 450.0 212.56223C450.0 210.90536 451.34314 209.56223 453.0 209.56223C454.65686 209.56223 456.0 210.90536 456.0 212.56223Z" fill-rule="nonzero"/><path fill="#000000" fill-opacity="0.0" clip-path="url(#id_0)" d="M537.73334 181.8507C537.73334 183.50755 536.3902 184.8507 534.73334 184.8507C533.0765 184.8507 531.73334 183.50755 531.73334 181.8507C531.73334 180.19385 533.0765 178.8507 534.73334 178.8507C536.3902 178.8507 537.73334 180.19385 537.73334 181.8507Z" fill-rule="nonzero"/><path fill="#000000" fill-opacity="0.0" clip-path="url(#id_0)" d="M619.4667 160.19695C619.4667 161.8538 618.12354 163.19695 616.4667 163.19695C614.8098 163.19695 613.4667 161.8538 613.4667 160.19695C613.4667 158.54008 614.8098 157.19695 616.4667 157.19695C618.12354 157.19695 619.4667 158.54008 619.4667 160.19695Z" fill-rule="nonzero"/><path fill="#000000" fill-opacity="0.0" clip-path="url(#id_0)" d="M701.2 146.32722C701.2 147.98407 699.8569 149.32722 698.2 149.32722C696.54315 149.32722 695.2 147.98407 695.2 146.32722C695.2 144.67036 696.54315 143.32722 698.2 143.32722C699.8569 143.32722 701.2 144.67036 701.2 146.32722Z" fill-rule="nonzero"/><path fill="#000000" fill-opacity="0.0" clip-path="url(#id_0)" d="M782.93335 140.94917C782.93335 142.60602 781.5902 143.94917 779.93335 143.94917C778.2765 143.94917 776.93335 142.60602 776.93335 140.94917C776.93335 139.29231 778.2765 137.94917 779.93335 137.94917C781.5902 137.94917 782.93335 139.29231 782.93335 140.94917Z" fill-rule="nonzero"/><path fill="#000000" fill-opacity="0.0" clip-path="url(#id_0)" d="M129.06667 400.65265C129.06667 402.30948 127.72352 403.65265 126.066666 403.65265C124.40981 403.65265 123.066666 402.30948 123.066666 400.65265C123.066666 398.9958 124.40981 397.65265 126.066666 397.65265C127.72352 397.65265 129.06667 398.9958 129.06667 400.65265Z" fill-rule="nonzero"/><path fill="#000000" fill-opacity="0.0" clip-path="url(#id_0)" d="M210.8 387.34903C210.8 389.0059 209.45685 390.34903 207.8 390.34903C206.14314 390.34903 204.8 389.0059 204.8 387.34903C204.8 385.69217 206.14314 384.34903 207.8 384.34903C209.45685 384.34903 210.8 385.69217 210.8 387.34903Z" fill-rule="nonzero"/><path fill="#000000" fill-opacity="0.0" clip-path="url(#id_0)" d="M292.53333 384.0939C292.53333 385.75073 291.1902 387.0939 289.53333 387.0939C287.87646 387.0939 286.53333 385.75073 286.53333 384.0939C286.53333 382.43704 287.87646 381.0939 289.53333 381.0939C291.1902 381.0939 292.53333 382.43704 292.53333 384.0939Z" fill-rule="nonzero"/><path fill="#000000" fill-opacity="0.0" clip-path="url(#id_0)" d="M374.26666 399.66196C374.26666 401.3188 372.92352 402.66196 371.26666 402.66196C369.6098 402.66196 368.26666 401.3188 368.26666 399.66196C368.26666 398.0051 369.6098 396.66196 371.26666 396.66196C372.92352 396.66196 374.26666 398.0051 374.26666 399.66196Z" fill-rule="nonzero"/><path fill="#000000" fill-opacity="0.0" clip-path="url(#id_0)" d="M456.0 413.95624C456.0 415.6131 454.65686 416.95624 453.0 416.95624C451.34314 416.95624 450.0 415.6131 450.0 413.95624C450.0 412.2994 451.34314 410.95624 453.0 410.95624C454.65686 410.95624 456.0 412.2994 456.0 413.95624Z" fill-rule="nonzero"/><path fill="#000000" fill-opacity="0.0" clip-path="url(#id_0)" d="M537.73334 419.90042C537.73334 421.55728 536.3902 422.90042 534.73334 422.90042C533.0765 422.90042 531.73334 421.55728 531.73334 419.90042C531.73334 418.24356 533.0765 416.90042 534.73334 416.90042C536.3902 416.90042 537.73334 418.24356 537.73334 419.90042Z" fill-rule="nonzero"/><path fill="#000000" fill-opacity="0.0" clip-path="url(#id_0)" d="M619.4667 425.9861C619.4667 427.64297 618.12354 428.9861 616.4667 428.9861C614.8098 428.9861 613.4667 427.64297 613.4667 425.9861C613.4667 424.32925 614.8098 422.9861 616.4667 422.9861C618.12354 422.9861 619.4667 424.32925 619.4667 425.9861Z" fill-rule="nonzero"/><path fill="#000000" fill-opacity="0.0" clip-path="url(#id_0)" d="M701.2 426.55222C701.2 428.20908 699.8569 429.55222 698.2 429.55222C696.54315 429.55222 695.2 428.20908 695.2 426.55222C695.2 424.89536 696.54315 423.55222 698.2 423.55222C699.8569 423.55222 701.2 424.89536 701.2 426.55222Z" fill-rule="nonzero"/><path fill="#000000" fill-opacity="0.0" clip-path="url(#id_0)" d="M782.93335 426.55222C782.93335 428.20908 781.5902 429.55222 779.93335 429.55222C778.2765 429.55222 776.93335 428.20908 776.93335 426.55222C776.93335 424.89536 778.2765 423.55222 779.93335 423.55222C781.5902 423.55222 782.93335 424.89536 782.93335 426.55222Z" fill-rule="nonzero"/><path fill="#000000" fill-opacity="0.0" clip-path="url(#id_0)" d="M129.06667 397.53903C129.06667 399.1959 127.72352 400.53903 126.066666 400.53903C124.40981 400.53903 123.066666 399.1959 123.066666 397.53903C123.066666 395.88217 124.40981 394.53903 126.066666 394.53903C127.72352 394.53903 129.06667 395.88217 129.06667 397.53903Z" fill-rule="nonzero"/><path fill="#000000" fill-opacity="0.0" clip-path="url(#id_0)" d="M210.8 385.93375C210.8 387.5906 209.45685 388.93375 207.8 388.93375C206.14314 388.93375 204.8 387.5906 204.8 385.93375C204.8 384.2769 206.14314 382.93375 207.8 382.93375C209.45685 382.93375 210.8 384.2769 210.8 385.93375Z" fill-rule="nonzero"/><path fill="#000000" fill-opacity="0.0" clip-path="url(#id_0)" d="M292.53333 382.96167C292.53333 384.61853 291.1902 385.96167 289.53333 385.96167C287.87646 385.96167 286.53333 384.61853 286.53333 382.96167C286.53333 381.3048 287.87646 379.96167 289.53333 379.96167C291.1902 379.96167 292.53333 381.3048 292.53333 382.96167Z" fill-rule="nonzero"/><path fill="#000000" fill-opacity="0.0" clip-path="url(#id_0)" d="M374.26666 403.90778C374.26666 405.56464 372.92352 406.90778 371.26666 406.90778C369.6098 406.90778 368.26666 405.56464 368.26666 403.90778C368.26666 402.25092 369.6098 400.90778 371.26666 400.90778C372.92352 400.90778 374.26666 402.25092 374.26666 403.90778Z" fill-rule="nonzero"/><path fill="#000000" fill-opacity="0.0" clip-path="url(#id_0)" d="M456.0 402.91708C456.0 404.57394 454.65686 405.91708 453.0 405.91708C451.34314 405.91708 450.0 404.57394 450.0 402.91708C450.0 401.26022 451.34314 399.91708 453.0 399.91708C454.65686 399.91708 456.0 401.26022 456.0 402.91708Z" fill-rule="nonzero"/><path fill="#000000" fill-opacity="0.0" clip-path="url(#id_0)" d="M537.73334 420.74957C537.73334 422.40643 536.3902 423.74957 534.73334 423.74957C533.0765 423.74957 531.73334 422.40643 531.73334 420.74957C531.73334 419.09274 533.0765 417.74957 534.73334 417.74957C536.3902 417.74957 537.73334 419.09274 537.73334 420.74957Z" fill-rule="nonzero"/><path fill="#000000" fill-opacity="0.0" clip-path="url(#id_0)" d="M619.4667 424.4293C619.4667 426.08615 618.12354 427.4293 616.4667 427.4293C614.8098 427.4293 613.4667 426.08615 613.4667 424.4293C613.4667 422.77246 614.8098 421.4293 616.4667 421.4293C618.12354 421.4293 619.4667 422.77246 619.4667 424.4293Z" fill-rule="nonzero"/><path fill="#000000" fill-opacity="0.0" clip-path="url(#id_0)" d="M701.2 426.69376C701.2 428.35062 699.8569 429.69376 698.2 429.69376C696.54315 429.69376 695.2 428.35062 695.2 426.69376C695.2 425.0369 696.54315 423.69376 698.2 423.69376C699.8569 423.69376 701.2 425.0369 701.2 426.69376Z" fill-rule="nonzero"/><path fill="#000000" fill-opacity="0.0" clip-path="url(#id_0)" d="M782.93335 425.9861C782.93335 427.64297 781.5902 428.9861 779.93335 428.9861C778.2765 428.9861 776.93335 427.64297 776.93335 425.9861C776.93335 424.32925 778.2765 422.9861 779.93335 422.9861C781.5902 422.9861 782.93335 424.32925 782.93335 425.9861Z" fill-rule="nonzero"/><path fill="#000000" d="M396.92188 494.8L394.64062 486.20624L395.8125 486.20624L397.125 491.84686Q397.32812 492.72186 397.48438 493.59686Q397.8125 492.22186 397.875 492.0031L399.5 486.20624L400.875 486.20624L402.10938 490.55Q402.5625 492.175 402.78125 493.59686Q402.9375 492.78436 403.20312 491.72186L404.54688 486.20624L405.6875 486.20624L403.34375 494.8L402.23438 494.8L400.4375 488.2531Q400.20312 487.4406 400.15625 487.2531Q400.03125 487.83124 399.90625 488.2531L398.09375 494.8L396.92188 494.8ZM406.29688 487.425L406.29688 486.20624L407.35938 486.20624L407.35938 487.425L406.29688 487.425ZM406.29688 494.8L406.29688 488.58124L407.35938 488.58124L407.35938 494.8L406.29688 494.8ZM409.29688 494.8L409.29688 488.58124L410.23438 488.58124L410.23438 489.45624Q410.92188 488.4406 412.21875 488.4406Q412.78125 488.4406 413.25 488.64374Q413.73438 488.84686 413.96875 489.175Q414.20312 489.5031 414.29688 489.9406Q414.34375 490.2375 414.34375 490.97186L414.34375 494.8L413.29688 494.8L413.29688 491.01874Q413.29688 490.3625 413.17188 490.05Q413.04688 489.7375 412.73438 489.55Q412.42188 489.34686 412.0 489.34686Q411.32812 489.34686 410.82812 489.78436Q410.34375 490.20624 410.34375 491.39374L410.34375 494.8L409.29688 494.8ZM420.32812 494.8L420.32812 494.01874Q419.73438 494.9406 418.59375 494.9406Q417.84375 494.9406 417.21875 494.53436Q416.59375 494.1125 416.25 493.3781Q415.90625 492.64374 415.90625 491.6906Q415.90625 490.76874 416.21875 490.0031Q416.53125 489.2375 417.15625 488.84686Q417.78125 488.4406 418.54688 488.4406Q419.10938 488.4406 419.54688 488.675Q419.98438 488.90936 420.26562 489.28436L420.26562 486.20624L421.3125 486.20624L421.3125 494.8L420.32812 494.8ZM417.0 491.6906Q417.0 492.89374 417.5 493.4875Q418.0 494.0656 418.6875 494.0656Q419.375 494.0656 419.85938 493.5031Q420.34375 492.9406 420.34375 491.78436Q420.34375 490.5031 419.84375 489.90936Q419.35938 489.3156 418.64062 489.3156Q417.9375 489.3156 417.46875 489.89374Q417.0 490.45624 417.0 491.6906ZM422.90625 491.6906Q422.90625 489.95624 423.85938 489.1281Q424.65625 488.4406 425.8125 488.4406Q427.09375 488.4406 427.90625 489.28436Q428.73438 490.1125 428.73438 491.59686Q428.73438 492.8 428.375 493.4875Q428.01562 494.175 427.3125 494.5656Q426.625 494.9406 425.8125 494.9406Q424.51562 494.9406 423.70312 494.1125Q422.90625 493.26874 422.90625 491.6906ZM423.98438 491.6906Q423.98438 492.8781 424.5 493.47186Q425.03125 494.0656 425.8125 494.0656Q426.60938 494.0656 427.125 493.47186Q427.64062 492.8781 427.64062 491.65936Q427.64062 490.5031 427.10938 489.90936Q426.59375 489.3156 425.8125 489.3156Q425.03125 489.3156 424.5 489.90936Q423.98438 490.4875 423.98438 491.6906ZM431.4375 494.8L429.53125 488.58124L430.625 488.58124L431.60938 492.175L431.98438 493.5031Q432.01562 493.40936 432.3125 492.22186L433.29688 488.58124L434.375 488.58124L435.3125 492.1906L435.625 493.3781L435.98438 492.175L437.04688 488.58124L438.07812 488.58124L436.125 494.8L435.03125 494.8L434.04688 491.0656L433.79688 490.01874L432.54688 494.8L431.4375 494.8ZM442.04688 492.03436L443.10938 491.9406Q443.1875 492.59686 443.46875 493.0031Q443.75 493.40936 444.32812 493.675Q444.92188 493.925 445.65625 493.925Q446.29688 493.925 446.79688 493.7375Q447.29688 493.53436 447.53125 493.20624Q447.78125 492.8625 447.78125 492.47186Q447.78125 492.0656 447.54688 491.76874Q447.3125 491.45624 446.78125 491.2531Q446.42188 491.1125 445.23438 490.83124Q444.0625 490.55 443.59375 490.3Q442.96875 489.97186 442.67188 489.5031Q442.375 489.01874 442.375 488.425Q442.375 487.78436 442.73438 487.22186Q443.10938 486.64374 443.8125 486.3625Q444.53125 486.0656 445.39062 486.0656Q446.34375 486.0656 447.07812 486.3781Q447.8125 486.675 448.20312 487.28436Q448.59375 487.8781 448.625 488.6281L447.53125 488.70624Q447.4375 487.89374 446.92188 487.4875Q446.42188 487.0656 445.4375 487.0656Q444.40625 487.0656 443.9375 487.4406Q443.46875 487.8156 443.46875 488.34686Q443.46875 488.8156 443.79688 489.1125Q444.125 489.40936 445.5 489.72186Q446.89062 490.03436 447.40625 490.26874Q448.15625 490.6281 448.51562 491.15936Q448.875 491.675 448.875 492.3781Q448.875 493.0656 448.48438 493.675Q448.09375 494.26874 447.35938 494.6125Q446.625 494.9406 445.70312 494.9406Q444.53125 494.9406 443.73438 494.6125Q442.95312 494.26874 442.5 493.58124Q442.0625 492.89374 442.04688 492.03436ZM450.29688 487.425L450.29688 486.20624L451.35938 486.20624L451.35938 487.425L450.29688 487.425ZM450.29688 494.8L450.29688 488.58124L451.35938 488.58124L451.35938 494.8L450.29688 494.8ZM452.73438 494.8L452.73438 493.9406L456.70312 489.39374Q456.01562 489.425 455.5 489.425L452.96875 489.425L452.96875 488.58124L458.0625 488.58124L458.0625 489.26874L454.6875 493.22186L454.03125 493.9406Q454.75 493.89374 455.35938 493.89374L458.25 493.89374L458.25 494.8L452.73438 494.8ZM463.54688 492.8L464.64062 492.925Q464.39062 493.8781 463.6875 494.40936Q462.98438 494.9406 461.90625 494.9406Q460.54688 494.9406 459.73438 494.09686Q458.9375 493.2531 458.9375 491.7375Q458.9375 490.175 459.75 489.3156Q460.5625 488.4406 461.84375 488.4406Q463.09375 488.4406 463.875 489.28436Q464.67188 490.1281 464.67188 491.675Q464.67188 491.76874 464.67188 491.95624L460.03125 491.95624Q460.09375 492.9875 460.60938 493.53436Q461.125 494.0656 461.90625 494.0656Q462.48438 494.0656 462.89062 493.76874Q463.3125 493.45624 463.54688 492.8ZM460.09375 491.09686L463.5625 491.09686Q463.5 490.3 463.17188 489.90936Q462.65625 489.3 461.85938 489.3Q461.125 489.3 460.625 489.78436Q460.14062 490.26874 460.09375 491.09686ZM471.3125 497.33124Q470.4375 496.22186 469.82812 494.7531Q469.23438 493.26874 469.23438 491.6906Q469.23438 490.3 469.67188 489.01874Q470.20312 487.53436 471.3125 486.0656L472.0625 486.0656Q471.35938 487.28436 471.125 487.8Q470.76562 488.6125 470.5625 489.4875Q470.3125 490.58124 470.3125 491.6906Q470.3125 494.51874 472.0625 497.33124L471.3125 497.33124ZM474.26562 494.8L473.28125 494.8L473.28125 486.20624L474.34375 486.20624L474.34375 489.26874Q475.01562 488.4406 476.04688 488.4406Q476.625 488.4406 477.125 488.675Q477.64062 488.89374 477.96875 489.3156Q478.3125 489.7375 478.5 490.33124Q478.6875 490.925 478.6875 491.59686Q478.6875 493.1906 477.89062 494.0656Q477.09375 494.9406 476.0 494.9406Q474.89062 494.9406 474.26562 494.01874L474.26562 494.8ZM474.25 491.64374Q474.25 492.7531 474.5625 493.2531Q475.0625 494.0656 475.90625 494.0656Q476.59375 494.0656 477.09375 493.47186Q477.60938 492.8781 477.60938 491.675Q477.60938 490.45624 477.125 489.8781Q476.64062 489.3 475.95312 489.3Q475.26562 489.3 474.75 489.90936Q474.25 490.5031 474.25 491.64374ZM480.26562 494.8L480.26562 486.20624L481.32812 486.20624L481.32812 494.8L480.26562 494.8ZM482.90625 491.6906Q482.90625 489.95624 483.85938 489.1281Q484.65625 488.4406 485.8125 488.4406Q487.09375 488.4406 487.90625 489.28436Q488.73438 490.1125 488.73438 491.59686Q488.73438 492.8 488.375 493.4875Q488.01562 494.175 487.3125 494.5656Q486.625 494.9406 485.8125 494.9406Q484.51562 494.9406 483.70312 494.1125Q482.90625 493.26874 482.90625 491.6906ZM483.98438 491.6906Q483.98438 492.8781 484.5 493.47186Q485.03125 494.0656 485.8125 494.0656Q486.60938 494.0656 487.125 493.47186Q487.64062 492.8781 487.64062 491.65936Q487.64062 490.5031 487.10938 489.90936Q486.59375 489.3156 485.8125 489.3156Q485.03125 489.3156 484.5 489.90936Q483.98438 490.4875 483.98438 491.6906ZM494.35938 492.51874L495.39062 492.65936Q495.21875 493.72186 494.51562 494.33124Q493.8125 494.9406 492.79688 494.9406Q491.51562 494.9406 490.73438 494.1125Q489.96875 493.26874 489.96875 491.70624Q489.96875 490.70624 490.29688 489.95624Q490.64062 489.1906 491.3125 488.8156Q492.0 488.4406 492.8125 488.4406Q493.8125 488.4406 494.45312 488.95624Q495.10938 489.45624 495.29688 490.40936L494.26562 490.5656Q494.125 489.9406 493.75 489.6281Q493.375 489.3 492.84375 489.3Q492.04688 489.3 491.54688 489.8781Q491.04688 490.4406 491.04688 491.675Q491.04688 492.9406 491.53125 493.5031Q492.01562 494.0656 492.78125 494.0656Q493.40625 494.0656 493.8125 493.6906Q494.23438 493.3156 494.35938 492.51874ZM496.29688 494.8L496.29688 486.20624L497.35938 486.20624L497.35938 491.1125L499.84375 488.58124L501.21875 488.58124L498.82812 490.8781L501.45312 494.8L500.15625 494.8L498.09375 491.6125L497.35938 492.33124L497.35938 494.8L496.29688 494.8ZM501.875 492.9406L502.90625 492.78436Q503.0 493.40936 503.39062 493.7375Q503.79688 494.0656 504.53125 494.0656Q505.25 494.0656 505.59375 493.78436Q505.95312 493.4875 505.95312 493.08124Q505.95312 492.72186 505.64062 492.51874Q505.42188 492.3781 504.5625 492.15936Q503.40625 491.8625 502.95312 491.65936Q502.51562 491.4406 502.28125 491.0656Q502.04688 490.6906 502.04688 490.22186Q502.04688 489.8156 502.23438 489.45624Q502.42188 489.09686 502.75 488.8625Q503.0 488.6906 503.42188 488.5656Q503.84375 488.4406 504.34375 488.4406Q505.0625 488.4406 505.60938 488.65936Q506.17188 488.8625 506.4375 489.22186Q506.70312 489.58124 506.79688 490.175L505.76562 490.3156Q505.70312 489.84686 505.35938 489.58124Q505.03125 489.3 504.40625 489.3Q503.6875 489.3 503.375 489.55Q503.0625 489.78436 503.0625 490.1125Q503.0625 490.3156 503.1875 490.47186Q503.32812 490.64374 503.59375 490.7531Q503.75 490.8156 504.53125 491.01874Q505.65625 491.33124 506.09375 491.51874Q506.53125 491.70624 506.78125 492.0656Q507.03125 492.425 507.03125 492.97186Q507.03125 493.5031 506.71875 493.97186Q506.42188 494.425 505.84375 494.6906Q505.26562 494.9406 504.53125 494.9406Q503.3125 494.9406 502.67188 494.4406Q502.04688 493.925 501.875 492.9406ZM508.98438 497.33124L508.23438 497.33124Q509.98438 494.51874 509.98438 491.6906Q509.98438 490.59686 509.73438 489.5031Q509.53125 488.6281 509.17188 487.8156Q508.9375 487.3 508.23438 486.0656L508.98438 486.0656Q510.07812 487.53436 510.60938 489.01874Q511.0625 490.3 511.0625 491.6906Q511.0625 493.26874 510.45312 494.7531Q509.84375 496.22186 508.98438 497.33124Z" fill-rule="nonzero"/><path fill="#000000" d="M37.19999 363.3573L29.621862 363.3573L29.621862 366.18542L28.606237 366.18542L28.606237 359.37292L29.621862 359.37292L29.621862 362.21667L37.19999 362.21667L37.19999 363.3573ZM37.19999 358.6698L28.606237 358.6698L28.606237 357.62292L31.684362 357.62292Q30.840612 356.88855 30.840612 355.76355Q30.840612 355.06042 31.121862 354.56042Q31.387487 354.0448 31.871862 353.82605Q32.340614 353.6073 33.26249 353.6073L37.19999 353.6073L37.19999 354.65417L33.26249 354.65417Q32.465614 354.65417 32.10624 354.99792Q31.746862 355.34167 31.746862 355.96667Q31.746862 356.43542 31.996862 356.8573Q32.23124 357.26355 32.653114 357.45105Q33.059364 357.62292 33.79374 357.62292L37.19999 357.62292L37.19999 358.6698ZM37.19999 351.68542L30.981237 351.68542L30.981237 350.7323L31.918737 350.7323Q31.262487 350.37292 31.059362 350.07605Q30.840612 349.76355 30.840612 349.38855Q30.840612 348.8573 31.168737 348.31042L32.153114 348.6698Q31.918737 349.06042 31.918737 349.43542Q31.918737 349.7948 32.13749 350.07605Q32.340614 350.34167 32.715614 350.45105Q33.278114 350.63855 33.934364 350.63855L37.19999 350.63855L37.19999 351.68542ZM34.090614 348.06042Q32.35624 348.06042 31.528112 347.1073Q30.840612 346.31042 30.840612 345.15417Q30.840612 343.87292 31.684362 343.06042Q32.51249 342.2323 33.996864 342.2323Q35.19999 342.2323 35.88749 342.59167Q36.57499 342.95105 36.965614 343.65417Q37.340614 344.34167 37.340614 345.15417Q37.340614 346.45105 36.51249 347.26355Q35.66874 348.06042 34.090614 348.06042ZM34.090614 346.9823Q35.278114 346.9823 35.871864 346.46667Q36.465614 345.93542 36.465614 345.15417Q36.465614 344.3573 35.871864 343.84167Q35.278114 343.32605 34.059364 343.32605Q32.903114 343.32605 32.309364 343.8573Q31.715612 344.37292 31.715612 345.15417Q31.715612 345.93542 32.309364 346.46667Q32.88749 346.9823 34.090614 346.9823ZM37.19999 336.59167L36.278114 336.59167Q37.340614 337.32605 37.340614 338.57605Q37.340614 339.12292 37.13749 339.6073Q36.91874 340.07605 36.60624 340.31042Q36.278114 340.5448 35.809364 340.63855Q35.51249 340.70105 34.82499 340.70105L30.981237 340.70105L30.981237 339.63855L34.434364 339.63855Q35.246864 339.63855 35.54374 339.57605Q35.94999 339.4823 36.19999 339.1698Q36.434364 338.84167 36.434364 338.3573Q36.434364 337.88855 36.19999 337.4823Q35.94999 337.06042 35.528114 336.88855Q35.10624 336.70105 34.309364 336.70105L30.981237 336.70105L30.981237 335.65417L37.19999 335.65417L37.19999 336.59167ZM37.715614 333.87292L37.871864 332.84167Q38.340614 332.77917 38.559364 332.4823Q38.85624 332.09167 38.85624 331.4198Q38.85624 330.68542 38.559364 330.2948Q38.26249 329.88855 37.746864 329.74792Q37.41874 329.65417 36.38749 329.6698Q37.19999 330.3573 37.19999 331.38855Q37.19999 332.6698 36.278114 333.37292Q35.340614 334.07605 34.059364 334.07605Q33.16874 334.07605 32.41874 333.76355Q31.653112 333.43542 31.246862 332.82605Q30.840612 332.21667 30.840612 331.38855Q30.840612 330.27917 31.731237 329.56042L30.981237 329.56042L30.981237 328.59167L36.35624 328.59167Q37.809364 328.59167 38.41874 328.88855Q39.028114 329.18542 39.371864 329.82605Q39.73124 330.46667 39.73124 331.40417Q39.73124 332.51355 39.23124 333.20105Q38.73124 333.88855 37.715614 333.87292ZM33.98124 332.99792Q35.19999 332.99792 35.76249 332.51355Q36.32499 332.02917 36.32499 331.2948Q36.32499 330.56042 35.76249 330.07605Q35.19999 329.57605 34.01249 329.57605Q32.871864 329.57605 32.29374 330.09167Q31.715612 330.59167 31.715612 331.31042Q31.715612 332.01355 32.29374 332.51355Q32.85624 332.99792 33.98124 332.99792ZM37.19999 326.6698L28.606237 326.6698L28.606237 325.62292L31.684362 325.62292Q30.840612 324.88855 30.840612 323.76355Q30.840612 323.06042 31.121862 322.56042Q31.387487 322.0448 31.871862 321.82605Q32.340614 321.6073 33.26249 321.6073L37.19999 321.6073L37.19999 322.65417L33.26249 322.65417Q32.465614 322.65417 32.10624 322.99792Q31.746862 323.34167 31.746862 323.96667Q31.746862 324.43542 31.996862 324.8573Q32.23124 325.26355 32.653114 325.45105Q33.059364 325.62292 33.79374 325.62292L37.19999 325.62292L37.19999 326.6698ZM39.590614 319.6698L30.981237 319.6698L30.981237 318.71667L31.778112 318.71667Q31.309362 318.37292 31.074987 317.95105Q30.840612 317.51355 30.840612 316.90417Q30.840612 316.1073 31.246862 315.49792Q31.653112 314.88855 32.403114 314.59167Q33.153114 314.27917 34.04374 314.27917Q34.996864 314.27917 35.76249 314.62292Q36.528114 314.95105 36.934364 315.6073Q37.340614 316.26355 37.340614 316.9823Q37.340614 317.51355 37.121864 317.93542Q36.88749 318.3573 36.559364 318.62292L39.590614 318.62292L39.590614 319.6698ZM34.121864 318.71667Q35.32499 318.71667 35.903114 318.2323Q36.465614 317.74792 36.465614 317.06042Q36.465614 316.3573 35.871864 315.8573Q35.278114 315.3573 34.028114 315.3573Q32.840614 315.3573 32.26249 315.84167Q31.668737 316.32605 31.668737 317.01355Q31.668737 317.68542 32.29374 318.20105Q32.91874 318.71667 34.121864 318.71667ZM37.19999 308.59167L36.278114 308.59167Q37.340614 309.32605 37.340614 310.57605Q37.340614 311.12292 37.13749 311.6073Q36.91874 312.07605 36.60624 312.31042Q36.278114 312.5448 35.809364 312.63855Q35.51249 312.70105 34.82499 312.70105L30.981237 312.70105L30.981237 311.63855L34.434364 311.63855Q35.246864 311.63855 35.54374 311.57605Q35.94999 311.4823 36.19999 311.1698Q36.434364 310.84167 36.434364 310.3573Q36.434364 309.88855 36.19999 309.4823Q35.94999 309.06042 35.528114 308.88855Q35.10624 308.70105 34.309364 308.70105L30.981237 308.70105L30.981237 307.65417L37.19999 307.65417L37.19999 308.59167ZM36.26249 303.37292L37.184364 303.21667Q37.278114 303.6698 37.278114 304.01355Q37.278114 304.59167 37.10624 304.90417Q36.91874 305.21667 36.621864 305.3573Q36.32499 305.4823 35.371864 305.4823L31.793737 305.4823L31.793737 306.24792L30.981237 306.24792L30.981237 305.4823L29.434362 305.4823L28.809362 304.43542L30.981237 304.43542L30.981237 303.37292L31.793737 303.37292L31.793737 304.43542L35.434364 304.43542Q35.88749 304.43542 36.01249 304.38855Q36.13749 304.32605 36.215614 304.20105Q36.29374 304.07605 36.29374 303.84167Q36.29374 303.65417 36.26249 303.37292ZM39.73124 297.65417Q38.621864 298.52917 37.153114 299.13855Q35.66874 299.7323 34.090614 299.7323Q32.69999 299.7323 31.418737 299.2948Q29.934362 298.76355 28.465612 297.65417L28.465612 296.90417Q29.684362 297.6073 30.199987 297.84167Q31.012487 298.20105 31.887487 298.40417Q32.98124 298.65417 34.090614 298.65417Q36.91874 298.65417 39.73124 296.90417L39.73124 297.65417ZM37.19999 294.70105L37.19999 295.68542L28.606237 295.68542L28.606237 294.62292L31.668737 294.62292Q30.840612 293.95105 30.840612 292.9198Q30.840612 292.34167 31.074987 291.84167Q31.293737 291.32605 31.715612 290.99792Q32.13749 290.65417 32.73124 290.46667Q33.32499 290.27917 33.996864 290.27917Q35.590614 290.27917 36.465614 291.07605Q37.340614 291.87292 37.340614 292.96667Q37.340614 294.07605 36.41874 294.70105L37.19999 294.70105ZM34.04374 294.71667Q35.153114 294.71667 35.653114 294.40417Q36.465614 293.90417 36.465614 293.06042Q36.465614 292.37292 35.871864 291.87292Q35.278114 291.3573 34.07499 291.3573Q32.85624 291.3573 32.278114 291.84167Q31.699987 292.32605 31.699987 293.01355Q31.699987 293.70105 32.309364 294.21667Q32.903114 294.71667 34.04374 294.71667ZM39.590614 288.71667L38.60624 288.84167Q38.69999 288.49792 38.69999 288.2323Q38.69999 287.88855 38.57499 287.68542Q38.465614 287.46667 38.26249 287.32605Q38.090614 287.2323 37.465614 286.99792Q37.38749 286.9823 37.215614 286.90417L30.981237 289.27917L30.981237 288.13855L34.57499 286.84167Q35.26249 286.59167 36.028114 286.38855Q35.29374 286.20105 34.60624 285.95105L30.981237 284.62292L30.981237 283.57605L37.309364 285.93542Q38.32499 286.32605 38.715614 286.52917Q39.246864 286.81042 39.48124 287.18542Q39.73124 287.5448 39.73124 288.0448Q39.73124 288.34167 39.590614 288.71667ZM36.26249 280.37292L37.184364 280.21667Q37.278114 280.6698 37.278114 281.01355Q37.278114 281.59167 37.10624 281.90417Q36.91874 282.21667 36.621864 282.3573Q36.32499 282.4823 35.371864 282.4823L31.793737 282.4823L31.793737 283.24792L30.981237 283.24792L30.981237 282.4823L29.434362 282.4823L28.809362 281.43542L30.981237 281.43542L30.981237 280.37292L31.793737 280.37292L31.793737 281.43542L35.434364 281.43542Q35.88749 281.43542 36.01249 281.38855Q36.13749 281.32605 36.215614 281.20105Q36.29374 281.07605 36.29374 280.84167Q36.29374 280.65417 36.26249 280.37292ZM35.19999 275.4198L35.32499 274.32605Q36.278114 274.57605 36.809364 275.27917Q37.340614 275.9823 37.340614 277.06042Q37.340614 278.4198 36.496864 279.2323Q35.653114 280.02917 34.13749 280.02917Q32.57499 280.02917 31.715612 279.21667Q30.840612 278.40417 30.840612 277.12292Q30.840612 275.87292 31.684362 275.09167Q32.528114 274.2948 34.07499 274.2948Q34.16874 274.2948 34.35624 274.2948L34.35624 278.93542Q35.38749 278.87292 35.934364 278.3573Q36.465614 277.84167 36.465614 277.06042Q36.465614 276.4823 36.16874 276.07605Q35.85624 275.65417 35.19999 275.4198ZM33.496864 278.87292L33.496864 275.40417Q32.69999 275.46667 32.309364 275.7948Q31.699987 276.31042 31.699987 277.1073Q31.699987 277.84167 32.184364 278.34167Q32.66874 278.82605 33.496864 278.87292ZM35.340614 273.09167L35.184364 272.06042Q35.809364 271.96667 36.13749 271.57605Q36.465614 271.1698 36.465614 270.43542Q36.465614 269.71667 36.184364 269.37292Q35.88749 269.01355 35.48124 269.01355Q35.121864 269.01355 34.91874 269.32605Q34.778114 269.5448 34.559364 270.40417Q34.26249 271.56042 34.059364 272.01355Q33.840614 272.45105 33.465614 272.68542Q33.090614 272.9198 32.621864 272.9198Q32.215614 272.9198 31.856237 272.7323Q31.496862 272.5448 31.262487 272.21667Q31.090612 271.96667 30.965612 271.5448Q30.840612 271.12292 30.840612 270.62292Q30.840612 269.90417 31.059362 269.3573Q31.262487 268.7948 31.621862 268.52917Q31.981237 268.26355 32.57499 268.1698L32.715614 269.20105Q32.246864 269.26355 31.981237 269.6073Q31.699987 269.93542 31.699987 270.56042Q31.699987 271.27917 31.949987 271.59167Q32.184364 271.90417 32.51249 271.90417Q32.715614 271.90417 32.871864 271.77917Q33.04374 271.63855 33.153114 271.37292Q33.215614 271.21667 33.41874 270.43542Q33.73124 269.31042 33.91874 268.87292Q34.10624 268.43542 34.465614 268.18542Q34.82499 267.93542 35.371864 267.93542Q35.903114 267.93542 36.371864 268.24792Q36.82499 268.5448 37.090614 269.12292Q37.340614 269.70105 37.340614 270.43542Q37.340614 271.65417 36.840614 272.2948Q36.32499 272.9198 35.340614 273.09167ZM37.340614 267.46667L28.465612 264.9823L28.465612 264.13855L37.340614 266.62292L37.340614 267.46667ZM37.19999 263.6698L30.981237 263.6698L30.981237 262.7323L31.856237 262.7323Q31.387487 262.43542 31.121862 261.95105Q30.840612 261.46667 30.840612 260.84167Q30.840612 260.15417 31.121862 259.71667Q31.403112 259.26355 31.918737 259.09167Q30.840612 258.34167 30.840612 257.1698Q30.840612 256.2323 31.356237 255.74792Q31.856237 255.24792 32.934364 255.24792L37.19999 255.24792L37.19999 256.2948L33.278114 256.2948Q32.653114 256.2948 32.371864 256.40417Q32.090614 256.49792 31.918737 256.76355Q31.746862 257.02917 31.746862 257.40417Q31.746862 258.06042 32.184364 258.49792Q32.621864 258.9198 33.590614 258.9198L37.19999 258.9198L37.19999 259.9823L33.153114 259.9823Q32.44999 259.9823 32.10624 260.24792Q31.746862 260.49792 31.746862 261.07605Q31.746862 261.52917 31.981237 261.90417Q32.215614 262.27917 32.66874 262.45105Q33.121864 262.62292 33.965614 262.62292L37.19999 262.62292L37.19999 263.6698ZM29.824987 253.6698L28.606237 253.6698L28.606237 252.6073L29.824987 252.6073L29.824987 253.6698ZM37.19999 253.6698L30.981237 253.6698L30.981237 252.6073L37.19999 252.6073L37.19999 253.6698ZM37.19999 250.70105L28.606237 250.70105L28.606237 249.63855L37.19999 249.63855L37.19999 250.70105ZM37.19999 247.70105L28.606237 247.70105L28.606237 246.63855L37.19999 246.63855L37.19999 247.70105ZM29.824987 244.6698L28.606237 244.6698L28.606237 243.6073L29.824987 243.6073L29.824987 244.6698ZM37.19999 244.6698L30.981237 244.6698L30.981237 243.6073L37.19999 243.6073L37.19999 244.6698ZM35.340614 242.09167L35.184364 241.06042Q35.809364 240.96667 36.13749 240.57605Q36.465614 240.1698 36.465614 239.43542Q36.465614 238.71667 36.184364 238.37292Q35.88749 238.01355 35.48124 238.01355Q35.121864 238.01355 34.91874 238.32605Q34.778114 238.5448 34.559364 239.40417Q34.26249 240.56042 34.059364 241.01355Q33.840614 241.45105 33.465614 241.68542Q33.090614 241.9198 32.621864 241.9198Q32.215614 241.9198 31.856237 241.7323Q31.496862 241.5448 31.262487 241.21667Q31.090612 240.96667 30.965612 240.5448Q30.840612 240.12292 30.840612 239.62292Q30.840612 238.90417 31.059362 238.3573Q31.262487 237.7948 31.621862 237.52917Q31.981237 237.26355 32.57499 237.1698L32.715614 238.20105Q32.246864 238.26355 31.981237 238.6073Q31.699987 238.93542 31.699987 239.56042Q31.699987 240.27917 31.949987 240.59167Q32.184364 240.90417 32.51249 240.90417Q32.715614 240.90417 32.871864 240.77917Q33.04374 240.63855 33.153114 240.37292Q33.215614 240.21667 33.41874 239.43542Q33.73124 238.31042 33.91874 237.87292Q34.10624 237.43542 34.465614 237.18542Q34.82499 236.93542 35.371864 236.93542Q35.903114 236.93542 36.371864 237.24792Q36.82499 237.5448 37.090614 238.12292Q37.340614 238.70105 37.340614 239.43542Q37.340614 240.65417 36.840614 241.2948Q36.32499 241.9198 35.340614 242.09167ZM35.19999 231.4198L35.32499 230.32605Q36.278114 230.57605 36.809364 231.27917Q37.340614 231.9823 37.340614 233.06042Q37.340614 234.4198 36.496864 235.2323Q35.653114 236.02917 34.13749 236.02917Q32.57499 236.02917 31.715612 235.21667Q30.840612 234.40417 30.840612 233.12292Q30.840612 231.87292 31.684362 231.09167Q32.528114 230.2948 34.07499 230.2948Q34.16874 230.2948 34.35624 230.2948L34.35624 234.93542Q35.38749 234.87292 35.934364 234.3573Q36.465614 233.84167 36.465614 233.06042Q36.465614 232.4823 36.16874 232.07605Q35.85624 231.65417 35.19999 231.4198ZM33.496864 234.87292L33.496864 231.40417Q32.69999 231.46667 32.309364 231.7948Q31.699987 232.31042 31.699987 233.1073Q31.699987 233.84167 32.184364 234.34167Q32.66874 234.82605 33.496864 234.87292ZM34.91874 224.6073L35.059364 223.57605Q36.121864 223.74792 36.73124 224.45105Q37.340614 225.15417 37.340614 226.1698Q37.340614 227.45105 36.51249 228.2323Q35.66874 228.99792 34.10624 228.99792Q33.10624 228.99792 32.35624 228.6698Q31.590612 228.32605 31.215612 227.65417Q30.840612 226.96667 30.840612 226.15417Q30.840612 225.15417 31.356237 224.51355Q31.856237 223.8573 32.809364 223.6698L32.965614 224.70105Q32.340614 224.84167 32.028114 225.21667Q31.699987 225.59167 31.699987 226.12292Q31.699987 226.9198 32.278114 227.4198Q32.840614 227.9198 34.07499 227.9198Q35.340614 227.9198 35.903114 227.43542Q36.465614 226.95105 36.465614 226.18542Q36.465614 225.56042 36.090614 225.15417Q35.715614 224.7323 34.91874 224.6073ZM34.090614 223.06042Q32.35624 223.06042 31.528112 222.1073Q30.840612 221.31042 30.840612 220.15417Q30.840612 218.87292 31.684362 218.06042Q32.51249 217.2323 33.996864 217.2323Q35.19999 217.2323 35.88749 217.59167Q36.57499 217.95105 36.965614 218.65417Q37.340614 219.34167 37.340614 220.15417Q37.340614 221.45105 36.51249 222.26355Q35.66874 223.06042 34.090614 223.06042ZM34.090614 221.9823Q35.278114 221.9823 35.871864 221.46667Q36.465614 220.93542 36.465614 220.15417Q36.465614 219.3573 35.871864 218.84167Q35.278114 218.32605 34.059364 218.32605Q32.903114 218.32605 32.309364 218.8573Q31.715612 219.37292 31.715612 220.15417Q31.715612 220.93542 32.309364 221.46667Q32.88749 221.9823 34.090614 221.9823ZM37.19999 215.6698L30.981237 215.6698L30.981237 214.7323L31.856237 214.7323Q30.840612 214.0448 30.840612 212.74792Q30.840612 212.18542 31.043737 211.71667Q31.246862 211.2323 31.574987 210.99792Q31.903112 210.76355 32.340614 210.6698Q32.63749 210.62292 33.371864 210.62292L37.19999 210.62292L37.19999 211.6698L33.41874 211.6698Q32.76249 211.6698 32.44999 211.7948Q32.13749 211.9198 31.949987 212.2323Q31.746862 212.5448 31.746862 212.96667Q31.746862 213.63855 32.184364 214.13855Q32.60624 214.62292 33.79374 214.62292L37.19999 214.62292L37.19999 215.6698ZM37.19999 204.63855L36.41874 204.63855Q37.340614 205.2323 37.340614 206.37292Q37.340614 207.12292 36.934364 207.74792Q36.51249 208.37292 35.778114 208.71667Q35.04374 209.06042 34.090614 209.06042Q33.16874 209.06042 32.403114 208.74792Q31.637487 208.43542 31.246862 207.81042Q30.840612 207.18542 30.840612 206.4198Q30.840612 205.8573 31.074987 205.4198Q31.309362 204.9823 31.684362 204.70105L28.606237 204.70105L28.606237 203.65417L37.19999 203.65417L37.19999 204.63855ZM34.090614 207.96667Q35.29374 207.96667 35.88749 207.46667Q36.465614 206.96667 36.465614 206.27917Q36.465614 205.59167 35.903114 205.1073Q35.340614 204.62292 34.184364 204.62292Q32.903114 204.62292 32.309364 205.12292Q31.715612 205.6073 31.715612 206.32605Q31.715612 207.02917 32.29374 207.49792Q32.85624 207.96667 34.090614 207.96667ZM39.73124 200.9823L39.73124 201.7323Q36.91874 199.9823 34.090614 199.9823Q32.996864 199.9823 31.903112 200.2323Q31.028112 200.43542 30.215612 200.7948Q29.699987 201.02917 28.465612 201.7323L28.465612 200.9823Q29.934362 199.88855 31.418737 199.3573Q32.69999 198.90417 34.090614 198.90417Q35.66874 198.90417 37.153114 199.51355Q38.621864 200.12292 39.73124 200.9823Z" fill-rule="nonzero"/><path fill="#000000" d="M72.7 445.5656Q72.7 444.03436 73.0125 443.1125Q73.325 442.175 73.93437 441.675Q74.55937 441.175 75.49687 441.175Q76.18437 441.175 76.7 441.45624Q77.23125 441.7375 77.575 442.26874Q77.91875 442.78436 78.10625 443.53436Q78.29375 444.28436 78.29375 445.5656Q78.29375 447.08124 77.98125 448.0031Q77.68437 448.925 77.05937 449.4406Q76.45 449.9406 75.49687 449.9406Q74.2625 449.9406 73.54375 449.05Q72.7 447.9875 72.7 445.5656ZM73.77812 445.5656Q73.77812 447.675 74.27812 448.3781Q74.77812 449.08124 75.49687 449.08124Q76.23125 449.08124 76.71562 448.3781Q77.21562 447.675 77.21562 445.5656Q77.21562 443.4406 76.71562 442.7531Q76.23125 442.05 75.48125 442.05Q74.7625 442.05 74.325 442.65936Q73.77812 443.4406 73.77812 445.5656Z" fill-rule="nonzero"/><path fill="#000000" d="M64.24687 335.56216L64.24687 336.5778L58.559376 336.5778Q58.559376 336.2028 58.684376 335.8434Q58.903126 335.2653 59.371876 334.7028Q59.85625 334.1403 60.7625 333.4059Q62.16875 332.24966 62.653126 331.5778Q63.153126 330.9059 63.153126 330.31216Q63.153126 329.68716 62.7 329.2653Q62.246876 328.8278 61.528126 328.8278Q60.7625 328.8278 60.309376 329.2809Q59.85625 329.73404 59.840626 330.54654L58.7625 330.43716Q58.871876 329.2184 59.590626 328.5934Q60.325 327.9528 61.559376 327.9528Q62.79375 327.9528 63.5125 328.6403Q64.23125 329.3278 64.23125 330.3434Q64.23125 330.85904 64.0125 331.35904Q63.809376 331.8434 63.309376 332.4059Q62.825 332.9528 61.7 333.9059Q60.746876 334.7028 60.465626 334.99966Q60.2 335.2809 60.028126 335.56216L64.24687 335.56216ZM65.7 332.3434Q65.7 330.81216 66.0125 329.8903Q66.325 328.9528 66.93437 328.4528Q67.55937 327.9528 68.49687 327.9528Q69.18437 327.9528 69.7 328.23404Q70.23125 328.5153 70.575 329.04654Q70.91875 329.56216 71.10625 330.31216Q71.29375 331.06216 71.29375 332.3434Q71.29375 333.85904 70.98125 334.7809Q70.68437 335.7028 70.05937 336.2184Q69.45 336.7184 68.49687 336.7184Q67.2625 336.7184 66.54375 335.8278Q65.7 334.7653 65.7 332.3434ZM66.77812 332.3434Q66.77812 334.4528 67.27812 335.1559Q67.77812 335.85904 68.49687 335.85904Q69.23125 335.85904 69.71562 335.1559Q70.21562 334.4528 70.21562 332.3434Q70.21562 330.2184 69.71562 329.5309Q69.23125 328.8278 68.48125 328.8278Q67.7625 328.8278 67.325 329.43716Q66.77812 330.2184 66.77812 332.3434ZM72.7 332.3434Q72.7 330.81216 73.0125 329.8903Q73.325 328.9528 73.93437 328.4528Q74.55937 327.9528 75.49687 327.9528Q76.18437 327.9528 76.7 328.23404Q77.23125 328.5153 77.575 329.04654Q77.91875 329.56216 78.10625 330.31216Q78.29375 331.06216 78.29375 332.3434Q78.29375 333.85904 77.98125 334.7809Q77.68437 335.7028 77.05937 336.2184Q76.45 336.7184 75.49687 336.7184Q74.2625 336.7184 73.54375 335.8278Q72.7 334.7653 72.7 332.3434ZM73.77812 332.3434Q73.77812 334.4528 74.27812 335.1559Q74.77812 335.85904 75.49687 335.85904Q76.23125 335.85904 76.71562 335.1559Q77.21562 334.4528 77.21562 332.3434Q77.21562 330.2184 76.71562 329.5309Q76.23125 328.8278 75.48125 328.8278Q74.7625 328.8278 74.325 329.43716Q73.77812 330.2184 73.77812 332.3434Z" fill-rule="nonzero"/><path fill="#000000" d="M62.075 223.35556L62.075 221.29306L58.35625 221.29306L58.35625 220.32431L62.278126 214.76181L63.1375 214.76181L63.1375 220.32431L64.29375 220.32431L64.29375 221.29306L63.1375 221.29306L63.1375 223.35556L62.075 223.35556ZM62.075 220.32431L62.075 216.46494L59.3875 220.32431L62.075 220.32431ZM65.7 219.12119Q65.7 217.58994 66.0125 216.66806Q66.325 215.73056 66.93437 215.23056Q67.55937 214.73056 68.49687 214.73056Q69.18437 214.73056 69.7 215.01181Q70.23125 215.29306 70.575 215.82431Q70.91875 216.33994 71.10625 217.08994Q71.29375 217.83994 71.29375 219.12119Q71.29375 220.63681 70.98125 221.55869Q70.68437 222.48056 70.05937 222.99619Q69.45 223.49619 68.49687 223.49619Q67.2625 223.49619 66.54375 222.60556Q65.7 221.54306 65.7 219.12119ZM66.77812 219.12119Q66.77812 221.23056 67.27812 221.93369Q67.77812 222.63681 68.49687 222.63681Q69.23125 222.63681 69.71562 221.93369Q70.21562 221.23056 70.21562 219.12119Q70.21562 216.99619 69.71562 216.30869Q69.23125 215.60556 68.48125 215.60556Q67.7625 215.60556 67.325 216.21494Q66.77812 216.99619 66.77812 219.12119ZM72.7 219.12119Q72.7 217.58994 73.0125 216.66806Q73.325 215.73056 73.93437 215.23056Q74.55937 214.73056 75.49687 214.73056Q76.18437 214.73056 76.7 215.01181Q77.23125 215.29306 77.575 215.82431Q77.91875 216.33994 78.10625 217.08994Q78.29375 217.83994 78.29375 219.12119Q78.29375 220.63681 77.98125 221.55869Q77.68437 222.48056 77.05937 222.99619Q76.45 223.49619 75.49687 223.49619Q74.2625 223.49619 73.54375 222.60556Q72.7 221.54306 72.7 219.12119ZM73.77812 219.12119Q73.77812 221.23056 74.27812 221.93369Q74.77812 222.63681 75.49687 222.63681Q76.23125 222.63681 76.71562 221.93369Q77.21562 221.23056 77.21562 219.12119Q77.21562 216.99619 76.71562 216.30869Q76.23125 215.60556 75.48125 215.60556Q74.7625 215.60556 74.325 216.21494Q73.77812 216.99619 73.77812 219.12119Z" fill-rule="nonzero"/><path fill="#000000" d="M64.16875 103.64896L63.121876 103.72708Q62.98125 103.10208 62.73125 102.82083Q62.29375 102.36771 61.66875 102.36771Q61.16875 102.36771 60.778126 102.64896Q60.29375 103.02396 59.996876 103.72708Q59.715626 104.41458 59.7 105.69583Q60.075 105.11771 60.621876 104.83646Q61.184376 104.55521 61.79375 104.55521Q62.840626 104.55521 63.575 105.33646Q64.325 106.11771 64.325 107.33646Q64.325 108.14896 63.965626 108.85208Q63.621876 109.53958 63.0125 109.91458Q62.403126 110.27396 61.6375 110.27396Q60.309376 110.27396 59.48125 109.30521Q58.653126 108.33646 58.653126 106.11771Q58.653126 103.61771 59.575 102.49271Q60.371876 101.50833 61.73125 101.50833Q62.746876 101.50833 63.3875 102.08646Q64.04375 102.64896 64.16875 103.64896ZM59.871876 107.35208Q59.871876 107.89896 60.090626 108.39896Q60.325 108.88333 60.73125 109.14896Q61.153126 109.41458 61.621876 109.41458Q62.278126 109.41458 62.7625 108.88333Q63.246876 108.33646 63.246876 107.41458Q63.246876 106.52396 62.7625 106.00833Q62.29375 105.49271 61.575 105.49271Q60.85625 105.49271 60.35625 106.00833Q59.871876 106.52396 59.871876 107.35208ZM65.7 105.89896Q65.7 104.36771 66.0125 103.44583Q66.325 102.50833 66.93437 102.00833Q67.55937 101.50833 68.49687 101.50833Q69.18437 101.50833 69.7 101.78958Q70.23125 102.07083 70.575 102.60208Q70.91875 103.11771 71.10625 103.86771Q71.29375 104.61771 71.29375 105.89896Q71.29375 107.41458 70.98125 108.33646Q70.68437 109.25833 70.05937 109.77396Q69.45 110.27396 68.49687 110.27396Q67.2625 110.27396 66.54375 109.38333Q65.7 108.32083 65.7 105.89896ZM66.77812 105.89896Q66.77812 108.00833 67.27812 108.71146Q67.77812 109.41458 68.49687 109.41458Q69.23125 109.41458 69.71562 108.71146Q70.21562 108.00833 70.21562 105.89896Q70.21562 103.77396 69.71562 103.08646Q69.23125 102.38333 68.48125 102.38333Q67.7625 102.38333 67.325 102.99271Q66.77812 103.77396 66.77812 105.89896ZM72.7 105.89896Q72.7 104.36771 73.0125 103.44583Q73.325 102.50833 73.93437 102.00833Q74.55937 101.50833 75.49687 101.50833Q76.18437 101.50833 76.7 101.78958Q77.23125 102.07083 77.575 102.60208Q77.91875 103.11771 78.10625 103.86771Q78.29375 104.61771 78.29375 105.89896Q78.29375 107.41458 77.98125 108.33646Q77.68437 109.25833 77.05937 109.77396Q76.45 110.27396 75.49687 110.27396Q74.2625 110.27396 73.54375 109.38333Q72.7 108.32083 72.7 105.89896ZM73.77812 105.89896Q73.77812 108.00833 74.27812 108.71146Q74.77812 109.41458 75.49687 109.41458Q76.23125 109.41458 76.71562 108.71146Q77.21562 108.00833 77.21562 105.89896Q77.21562 103.77396 76.71562 103.08646Q76.23125 102.38333 75.48125 102.38333Q74.7625 102.38333 74.325 102.99271Q73.77812 103.77396 73.77812 105.89896Z" fill-rule="nonzero"/><path fill="#000000" d="M126.441666 462.8L126.441666 460.7375L122.722916 460.7375L122.722916 459.76874L126.64479 454.20624L127.504166 454.20624L127.504166 459.76874L128.66042 459.76874L128.66042 460.7375L127.504166 460.7375L127.504166 462.8L126.441666 462.8ZM126.441666 459.76874L126.441666 455.90936L123.754166 459.76874L126.441666 459.76874Z" fill-rule="nonzero"/><path fill="#000000" d="M206.425 458.14374Q205.76875 457.89374 205.44063 457.45624Q205.12813 457.0031 205.12813 456.39374Q205.12813 455.45624 205.8 454.8156Q206.4875 454.175 207.59688 454.175Q208.72188 454.175 209.40938 454.83124Q210.09688 455.4875 210.09688 456.425Q210.09688 457.01874 209.78438 457.45624Q209.47188 457.89374 208.83125 458.14374Q209.62813 458.39374 210.03438 458.97186Q210.44063 459.55 210.44063 460.34686Q210.44063 461.4406 209.65938 462.1906Q208.89375 462.9406 207.6125 462.9406Q206.34688 462.9406 205.56563 462.1906Q204.78438 461.4406 204.78438 460.3156Q204.78438 459.47186 205.20625 458.90936Q205.64375 458.34686 206.425 458.14374ZM206.20625 456.34686Q206.20625 456.95624 206.59688 457.34686Q207.00313 457.7375 207.62813 457.7375Q208.2375 457.7375 208.62813 457.3625Q209.01875 456.97186 209.01875 456.40936Q209.01875 455.83124 208.6125 455.4406Q208.20625 455.03436 207.6125 455.03436Q207.00313 455.03436 206.59688 455.425Q206.20625 455.8156 206.20625 456.34686ZM205.87813 460.3156Q205.87813 460.76874 206.08125 461.1906Q206.3 461.6125 206.72188 461.84686Q207.14375 462.08124 207.62813 462.08124Q208.37813 462.08124 208.8625 461.59686Q209.3625 461.1125 209.3625 460.3625Q209.3625 459.59686 208.8625 459.09686Q208.3625 458.59686 207.59688 458.59686Q206.84688 458.59686 206.3625 459.09686Q205.87813 459.58124 205.87813 460.3156Z" fill-rule="nonzero"/><path fill="#000000" d="M287.00208 462.8L285.9552 462.8L285.9552 456.08124Q285.56458 456.4406 284.93958 456.8156Q284.3302 457.175 283.84583 457.34686L283.84583 456.33124Q284.72083 455.90936 285.37708 455.33124Q286.04895 454.7375 286.3302 454.175L287.00208 454.175L287.00208 462.8ZM295.50208 456.3156L294.4552 456.39374Q294.31458 455.76874 294.06458 455.4875Q293.62708 455.03436 293.00208 455.03436Q292.50208 455.03436 292.11145 455.3156Q291.62708 455.6906 291.3302 456.39374Q291.04895 457.08124 291.03333 458.3625Q291.40833 457.78436 291.9552 457.5031Q292.5177 457.22186 293.12708 457.22186Q294.17395 457.22186 294.90833 458.0031Q295.65833 458.78436 295.65833 460.0031Q295.65833 460.8156 295.29895 461.51874Q294.9552 462.20624 294.34583 462.58124Q293.73645 462.9406 292.97083 462.9406Q291.6427 462.9406 290.81458 461.97186Q289.98645 461.0031 289.98645 458.78436Q289.98645 456.28436 290.90833 455.15936Q291.7052 454.175 293.06458 454.175Q294.0802 454.175 294.72083 454.7531Q295.37708 455.3156 295.50208 456.3156ZM291.2052 460.01874Q291.2052 460.5656 291.42395 461.0656Q291.65833 461.55 292.06458 461.8156Q292.48645 462.08124 292.9552 462.08124Q293.61145 462.08124 294.09583 461.55Q294.5802 461.0031 294.5802 460.08124Q294.5802 459.1906 294.09583 458.675Q293.62708 458.15936 292.90833 458.15936Q292.18958 458.15936 291.68958 458.675Q291.2052 459.1906 291.2052 460.01874Z" fill-rule="nonzero"/><path fill="#000000" d="M364.76666 460.53436L365.82916 460.39374Q366.00104 461.28436 366.43854 461.6906Q366.87604 462.08124 367.50104 462.08124Q368.25104 462.08124 368.76666 461.5656Q369.2823 461.05 369.2823 460.28436Q369.2823 459.5656 368.7979 459.09686Q368.32916 458.6125 367.5948 458.6125Q367.2979 458.6125 366.8448 458.7375L366.9698 457.8Q367.07916 457.8156 367.14166 457.8156Q367.81354 457.8156 368.3448 457.47186Q368.89166 457.1125 368.89166 456.3781Q368.89166 455.8 368.50104 455.425Q368.1104 455.03436 367.4854 455.03436Q366.87604 455.03436 366.45416 455.425Q366.0479 455.8156 365.93854 456.58124L364.87604 456.39374Q365.06354 455.34686 365.75104 454.76874Q366.43854 454.175 367.45416 454.175Q368.1573 454.175 368.75104 454.4875Q369.3448 454.78436 369.6573 455.3Q369.9698 455.8156 369.9698 456.40936Q369.9698 456.95624 369.6729 457.425Q369.37604 457.8781 368.7979 458.14374Q369.5479 458.3156 369.9698 458.8781Q370.39166 459.425 370.39166 460.26874Q370.39166 461.39374 369.56354 462.175Q368.75104 462.95624 367.50104 462.95624Q366.37604 462.95624 365.62604 462.28436Q364.87604 461.59686 364.76666 460.53436ZM377.31354 461.78436L377.31354 462.8L371.62604 462.8Q371.62604 462.425 371.75104 462.0656Q371.9698 461.4875 372.43854 460.925Q372.9229 460.3625 373.82916 459.6281Q375.2354 458.47186 375.7198 457.8Q376.2198 457.1281 376.2198 456.53436Q376.2198 455.90936 375.76666 455.4875Q375.31354 455.05 374.5948 455.05Q373.82916 455.05 373.37604 455.5031Q372.9229 455.95624 372.9073 456.76874L371.82916 456.65936Q371.93854 455.4406 372.6573 454.8156Q373.39166 454.175 374.62604 454.175Q375.8604 454.175 376.57916 454.8625Q377.2979 455.55 377.2979 456.5656Q377.2979 457.08124 377.07916 457.58124Q376.87604 458.0656 376.37604 458.6281Q375.89166 459.175 374.76666 460.1281Q373.81354 460.925 373.5323 461.22186Q373.26666 461.5031 373.0948 461.78436L377.31354 461.78436Z" fill-rule="nonzero"/><path fill="#000000" d="M451.96875 456.3156L450.92188 456.39374Q450.78125 455.76874 450.53125 455.4875Q450.09375 455.03436 449.46875 455.03436Q448.96875 455.03436 448.57812 455.3156Q448.09375 455.6906 447.79688 456.39374Q447.51562 457.08124 447.5 458.3625Q447.875 457.78436 448.42188 457.5031Q448.98438 457.22186 449.59375 457.22186Q450.64062 457.22186 451.375 458.0031Q452.125 458.78436 452.125 460.0031Q452.125 460.8156 451.76562 461.51874Q451.42188 462.20624 450.8125 462.58124Q450.20312 462.9406 449.4375 462.9406Q448.10938 462.9406 447.28125 461.97186Q446.45312 461.0031 446.45312 458.78436Q446.45312 456.28436 447.375 455.15936Q448.17188 454.175 449.53125 454.175Q450.54688 454.175 451.1875 454.7531Q451.84375 455.3156 451.96875 456.3156ZM447.67188 460.01874Q447.67188 460.5656 447.89062 461.0656Q448.125 461.55 448.53125 461.8156Q448.95312 462.08124 449.42188 462.08124Q450.07812 462.08124 450.5625 461.55Q451.04688 461.0031 451.04688 460.08124Q451.04688 459.1906 450.5625 458.675Q450.09375 458.15936 449.375 458.15936Q448.65625 458.15936 448.15625 458.675Q447.67188 459.1906 447.67188 460.01874ZM456.875 462.8L456.875 460.7375L453.15625 460.7375L453.15625 459.76874L457.07812 454.20624L457.9375 454.20624L457.9375 459.76874L459.09375 459.76874L459.09375 460.7375L457.9375 460.7375L457.9375 462.8L456.875 462.8ZM456.875 459.76874L456.875 455.90936L454.1875 459.76874L456.875 459.76874Z" fill-rule="nonzero"/><path fill="#000000" d="M528.7021 462.8L527.6552 462.8L527.6552 456.08124Q527.2646 456.4406 526.6396 456.8156Q526.0302 457.175 525.54584 457.34686L525.54584 456.33124Q526.42084 455.90936 527.0771 455.33124Q527.74896 454.7375 528.0302 454.175L528.7021 454.175L528.7021 462.8ZM537.2802 461.78436L537.2802 462.8L531.5927 462.8Q531.5927 462.425 531.7177 462.0656Q531.93646 461.4875 532.4052 460.925Q532.8896 460.3625 533.79584 459.6281Q535.2021 458.47186 535.68646 457.8Q536.18646 457.1281 536.18646 456.53436Q536.18646 455.90936 535.73334 455.4875Q535.2802 455.05 534.56146 455.05Q533.79584 455.05 533.3427 455.5031Q532.8896 455.95624 532.87396 456.76874L531.79584 456.65936Q531.9052 455.4406 532.62396 454.8156Q533.35834 454.175 534.5927 454.175Q535.8271 454.175 536.54584 454.8625Q537.2646 455.55 537.2646 456.5656Q537.2646 457.08124 537.04584 457.58124Q536.8427 458.0656 536.3427 458.6281Q535.85834 459.175 534.73334 460.1281Q533.7802 460.925 533.49896 461.22186Q533.23334 461.5031 533.06146 461.78436L537.2802 461.78436ZM540.35834 458.14374Q539.7021 457.89374 539.37396 457.45624Q539.06146 457.0031 539.06146 456.39374Q539.06146 455.45624 539.73334 454.8156Q540.42084 454.175 541.5302 454.175Q542.6552 454.175 543.3427 454.83124Q544.0302 455.4875 544.0302 456.425Q544.0302 457.01874 543.7177 457.45624Q543.4052 457.89374 542.7646 458.14374Q543.56146 458.39374 543.9677 458.97186Q544.37396 459.55 544.37396 460.34686Q544.37396 461.4406 543.5927 462.1906Q542.8271 462.9406 541.54584 462.9406Q540.2802 462.9406 539.49896 462.1906Q538.7177 461.4406 538.7177 460.3156Q538.7177 459.47186 539.1396 458.90936Q539.5771 458.34686 540.35834 458.14374ZM540.1396 456.34686Q540.1396 456.95624 540.5302 457.34686Q540.93646 457.7375 541.56146 457.7375Q542.17084 457.7375 542.56146 457.3625Q542.9521 456.97186 542.9521 456.40936Q542.9521 455.83124 542.54584 455.4406Q542.1396 455.03436 541.54584 455.03436Q540.93646 455.03436 540.5302 455.425Q540.1396 455.8156 540.1396 456.34686ZM539.81146 460.3156Q539.81146 460.76874 540.0146 461.1906Q540.23334 461.6125 540.6552 461.84686Q541.0771 462.08124 541.56146 462.08124Q542.31146 462.08124 542.79584 461.59686Q543.29584 461.1125 543.29584 460.3625Q543.29584 459.59686 542.79584 459.09686Q542.29584 458.59686 541.5302 458.59686Q540.7802 458.59686 540.29584 459.09686Q539.81146 459.58124 539.81146 460.3156Z" fill-rule="nonzero"/><path fill="#000000" d="M612.01355 461.78436L612.01355 462.8L606.32605 462.8Q606.32605 462.425 606.45105 462.0656Q606.6698 461.4875 607.13855 460.925Q607.6229 460.3625 608.5292 459.6281Q609.9354 458.47186 610.4198 457.8Q610.9198 457.1281 610.9198 456.53436Q610.9198 455.90936 610.4667 455.4875Q610.01355 455.05 609.2948 455.05Q608.5292 455.05 608.07605 455.5031Q607.6229 455.95624 607.6073 456.76874L606.5292 456.65936Q606.63855 455.4406 607.3573 454.8156Q608.0917 454.175 609.32605 454.175Q610.5604 454.175 611.2792 454.8625Q611.9979 455.55 611.9979 456.5656Q611.9979 457.08124 611.7792 457.58124Q611.57605 458.0656 611.07605 458.6281Q610.5917 459.175 609.4667 460.1281Q608.51355 460.925 608.2323 461.22186Q607.9667 461.5031 607.7948 461.78436L612.01355 461.78436ZM613.4667 460.55L614.57605 460.45624Q614.70105 461.26874 615.13855 461.675Q615.5917 462.08124 616.2323 462.08124Q616.9823 462.08124 617.51355 461.5031Q618.0448 460.925 618.0448 459.9875Q618.0448 459.08124 617.5292 458.5656Q617.0292 458.03436 616.20105 458.03436Q615.70105 458.03436 615.2792 458.26874Q614.8729 458.5031 614.63855 458.8625L613.6542 458.7375L614.4823 454.33124L618.76355 454.33124L618.76355 455.33124L615.32605 455.33124L614.8729 457.64374Q615.63855 457.09686 616.4823 457.09686Q617.6073 457.09686 618.3729 457.8781Q619.1542 458.65936 619.1542 459.89374Q619.1542 461.05 618.4823 461.90936Q617.6542 462.9406 616.2323 462.9406Q615.0604 462.9406 614.3104 462.28436Q613.57605 461.6281 613.4667 460.55ZM625.9354 456.3156L624.88855 456.39374Q624.7479 455.76874 624.4979 455.4875Q624.0604 455.03436 623.4354 455.03436Q622.9354 455.03436 622.5448 455.3156Q622.0604 455.6906 621.76355 456.39374Q621.4823 457.08124 621.4667 458.3625Q621.8417 457.78436 622.38855 457.5031Q622.95105 457.22186 623.5604 457.22186Q624.6073 457.22186 625.3417 458.0031Q626.0917 458.78436 626.0917 460.0031Q626.0917 460.8156 625.7323 461.51874Q625.38855 462.20624 624.7792 462.58124Q624.1698 462.9406 623.4042 462.9406Q622.07605 462.9406 621.2479 461.97186Q620.4198 461.0031 620.4198 458.78436Q620.4198 456.28436 621.3417 455.15936Q622.13855 454.175 623.4979 454.175Q624.51355 454.175 625.1542 454.7531Q625.8104 455.3156 625.9354 456.3156ZM621.63855 460.01874Q621.63855 460.5656 621.8573 461.0656Q622.0917 461.55 622.4979 461.8156Q622.9198 462.08124 623.38855 462.08124Q624.0448 462.08124 624.5292 461.55Q625.01355 461.0031 625.01355 460.08124Q625.01355 459.1906 624.5292 458.675Q624.0604 458.15936 623.3417 458.15936Q622.6229 458.15936 622.1229 458.675Q621.63855 459.1906 621.63855 460.01874Z" fill-rule="nonzero"/><path fill="#000000" d="M688.2 460.55L689.3094 460.45624Q689.4344 461.26874 689.8719 461.675Q690.325 462.08124 690.96564 462.08124Q691.71564 462.08124 692.2469 461.5031Q692.77814 460.925 692.77814 459.9875Q692.77814 459.08124 692.2625 458.5656Q691.7625 458.03436 690.9344 458.03436Q690.4344 458.03436 690.0125 458.26874Q689.60626 458.5031 689.3719 458.8625L688.3875 458.7375L689.21564 454.33124L693.4969 454.33124L693.4969 455.33124L690.0594 455.33124L689.60626 457.64374Q690.3719 457.09686 691.21564 457.09686Q692.34064 457.09686 693.10626 457.8781Q693.8875 458.65936 693.8875 459.89374Q693.8875 461.05 693.21564 461.90936Q692.3875 462.9406 690.96564 462.9406Q689.79376 462.9406 689.04376 462.28436Q688.3094 461.6281 688.2 460.55ZM699.16876 462.8L698.1219 462.8L698.1219 456.08124Q697.73126 456.4406 697.10626 456.8156Q696.4969 457.175 696.0125 457.34686L696.0125 456.33124Q696.8875 455.90936 697.54376 455.33124Q698.21564 454.7375 698.4969 454.175L699.16876 454.175L699.16876 462.8ZM707.7469 461.78436L707.7469 462.8L702.0594 462.8Q702.0594 462.425 702.1844 462.0656Q702.40314 461.4875 702.8719 460.925Q703.35626 460.3625 704.2625 459.6281Q705.66876 458.47186 706.15314 457.8Q706.65314 457.1281 706.65314 456.53436Q706.65314 455.90936 706.2 455.4875Q705.7469 455.05 705.02814 455.05Q704.2625 455.05 703.8094 455.5031Q703.35626 455.95624 703.34064 456.76874L702.2625 456.65936Q702.3719 455.4406 703.09064 454.8156Q703.825 454.175 705.0594 454.175Q706.29376 454.175 707.0125 454.8625Q707.73126 455.55 707.73126 456.5656Q707.73126 457.08124 707.5125 457.58124Q707.3094 458.0656 706.8094 458.6281Q706.325 459.175 705.2 460.1281Q704.2469 460.925 703.96564 461.22186Q703.7 461.5031 703.52814 461.78436L707.7469 461.78436Z" fill-rule="nonzero"/><path fill="#000000" d="M770.4021 462.8L769.3552 462.8L769.3552 456.08124Q768.9646 456.4406 768.3396 456.8156Q767.7302 457.175 767.24585 457.34686L767.24585 456.33124Q768.12085 455.90936 768.7771 455.33124Q769.449 454.7375 769.7302 454.175L770.4021 454.175L770.4021 462.8ZM773.43335 458.5656Q773.43335 457.03436 773.74585 456.1125Q774.05835 455.175 774.6677 454.675Q775.2927 454.175 776.2302 454.175Q776.9177 454.175 777.43335 454.45624Q777.9646 454.7375 778.30835 455.26874Q778.6521 455.78436 778.8396 456.53436Q779.0271 457.28436 779.0271 458.5656Q779.0271 460.08124 778.7146 461.0031Q778.4177 461.925 777.7927 462.4406Q777.18335 462.9406 776.2302 462.9406Q774.99585 462.9406 774.2771 462.05Q773.43335 460.9875 773.43335 458.5656ZM774.5115 458.5656Q774.5115 460.675 775.0115 461.3781Q775.5115 462.08124 776.2302 462.08124Q776.9646 462.08124 777.449 461.3781Q777.949 460.675 777.949 458.5656Q777.949 456.4406 777.449 455.7531Q776.9646 455.05 776.2146 455.05Q775.49585 455.05 775.05835 455.65936Q774.5115 456.4406 774.5115 458.5656ZM785.9802 461.78436L785.9802 462.8L780.2927 462.8Q780.2927 462.425 780.4177 462.0656Q780.6365 461.4875 781.1052 460.925Q781.5896 460.3625 782.49585 459.6281Q783.9021 458.47186 784.3865 457.8Q784.8865 457.1281 784.8865 456.53436Q784.8865 455.90936 784.43335 455.4875Q783.9802 455.05 783.2615 455.05Q782.49585 455.05 782.0427 455.5031Q781.5896 455.95624 781.574 456.76874L780.49585 456.65936Q780.6052 455.4406 781.324 454.8156Q782.05835 454.175 783.2927 454.175Q784.5271 454.175 785.24585 454.8625Q785.9646 455.55 785.9646 456.5656Q785.9646 457.08124 785.74585 457.58124Q785.5427 458.0656 785.0427 458.6281Q784.55835 459.175 783.43335 460.1281Q782.4802 460.925 782.199 461.22186Q781.93335 461.5031 781.7615 461.78436L785.9802 461.78436ZM790.80835 462.8L790.80835 460.7375L787.0896 460.7375L787.0896 459.76874L791.0115 454.20624L791.87085 454.20624L791.87085 459.76874L793.0271 459.76874L793.0271 460.7375L791.87085 460.7375L791.87085 462.8L790.80835 462.8ZM790.80835 459.76874L790.80835 455.90936L788.12085 459.76874L790.80835 459.76874Z" fill-rule="nonzero"/><path stroke="#4285f4" stroke-width="4.0" stroke-linecap="butt" d="M247.5 74.666664L259.5 74.666664" fill-rule="nonzero"/><path fill="#1a1a1a" d="M268.4375 78.666664L268.4375 70.072914L272.25 70.072914Q273.40625 70.072914 274.0 70.30729Q274.59375 70.541664 274.95312 71.135414Q275.3125 71.71354 275.3125 72.416664Q275.3125 73.33854 274.71875 73.96354Q274.125 74.58854 272.89062 74.760414Q273.34375 74.979164 273.57812 75.18229Q274.07812 75.635414 274.51562 76.322914L276.01562 78.666664L274.57812 78.666664L273.45312 76.885414Q272.95312 76.104164 272.625 75.697914Q272.3125 75.291664 272.04688 75.135414Q271.79688 74.96354 271.53125 74.885414Q271.34375 74.854164 270.90625 74.854164L269.57812 74.854164L269.57812 78.666664L268.4375 78.666664ZM269.57812 73.86979L272.03125 73.86979Q272.79688 73.86979 273.23438 73.71354Q273.6875 73.541664 273.90625 73.197914Q274.14062 72.83854 274.14062 72.416664Q274.14062 71.80729 273.6875 71.416664Q273.25 71.02604 272.29688 71.02604L269.57812 71.02604L269.57812 73.86979ZM281.54688 76.666664L282.64062 76.791664Q282.39062 77.74479 281.6875 78.27604Q280.98438 78.80729 279.90625 78.80729Q278.54688 78.80729 277.73438 77.96354Q276.9375 77.11979 276.9375 75.604164Q276.9375 74.041664 277.75 73.18229Q278.5625 72.30729 279.84375 72.30729Q281.09375 72.30729 281.875 73.15104Q282.67188 73.99479 282.67188 75.541664Q282.67188 75.635414 282.67188 75.822914L278.03125 75.822914Q278.09375 76.854164 278.60938 77.40104Q279.125 77.93229 279.90625 77.93229Q280.48438 77.93229 280.89062 77.635414Q281.3125 77.322914 281.54688 76.666664ZM278.09375 74.96354L281.5625 74.96354Q281.5 74.166664 281.17188 73.77604Q280.65625 73.166664 279.85938 73.166664Q279.125 73.166664 278.625 73.65104Q278.14062 74.135414 278.09375 74.96354ZM288.35938 77.90104Q287.76562 78.40104 287.21875 78.604164Q286.6875 78.80729 286.0625 78.80729Q285.03125 78.80729 284.48438 78.30729Q283.9375 77.80729 283.9375 77.02604Q283.9375 76.572914 284.14062 76.197914Q284.34375 75.80729 284.6875 75.58854Q285.03125 75.354164 285.45312 75.24479Q285.75 75.15104 286.39062 75.072914Q287.65625 74.93229 288.26562 74.71354Q288.26562 74.49479 288.26562 74.447914Q288.26562 73.791664 287.96875 73.52604Q287.5625 73.18229 286.76562 73.18229Q286.03125 73.18229 285.67188 73.447914Q285.3125 73.697914 285.14062 74.354164L284.10938 74.21354Q284.25 73.55729 284.57812 73.15104Q284.90625 72.74479 285.51562 72.52604Q286.125 72.30729 286.92188 72.30729Q287.71875 72.30729 288.21875 72.49479Q288.71875 72.68229 288.95312 72.96354Q289.1875 73.24479 289.28125 73.68229Q289.32812 73.947914 289.32812 74.65104L289.32812 76.05729Q289.32812 77.52604 289.39062 77.916664Q289.46875 78.30729 289.67188 78.666664L288.5625 78.666664Q288.40625 78.33854 288.35938 77.90104ZM288.26562 75.541664Q287.6875 75.77604 286.54688 75.947914Q285.89062 76.041664 285.625 76.166664Q285.35938 76.27604 285.20312 76.49479Q285.0625 76.71354 285.0625 76.99479Q285.0625 77.416664 285.375 77.697914Q285.70312 77.979164 286.3125 77.979164Q286.92188 77.979164 287.39062 77.71354Q287.875 77.447914 288.09375 76.979164Q288.26562 76.61979 288.26562 75.93229L288.26562 75.541664ZM295.32812 78.666664L295.32812 77.885414Q294.73438 78.80729 293.59375 78.80729Q292.84375 78.80729 292.21875 78.40104Q291.59375 77.979164 291.25 77.24479Q290.90625 76.510414 290.90625 75.55729Q290.90625 74.635414 291.21875 73.86979Q291.53125 73.104164 292.15625 72.71354Q292.78125 72.30729 293.54688 72.30729Q294.10938 72.30729 294.54688 72.541664Q294.98438 72.77604 295.26562 73.15104L295.26562 70.072914L296.3125 70.072914L296.3125 78.666664L295.32812 78.666664ZM292.0 75.55729Q292.0 76.760414 292.5 77.354164Q293.0 77.93229 293.6875 77.93229Q294.375 77.93229 294.85938 77.36979Q295.34375 76.80729 295.34375 75.65104Q295.34375 74.36979 294.84375 73.77604Q294.35938 73.18229 293.64062 73.18229Q292.9375 73.18229 292.46875 73.760414Q292.0 74.322914 292.0 75.55729Z" fill-rule="nonzero"/><path stroke="#ea4335" stroke-width="4.0" stroke-linecap="butt" d="M313.5 74.666664L325.5 74.666664" fill-rule="nonzero"/><path fill="#1a1a1a" d="M335.92188 78.666664L333.64062 70.072914L334.8125 70.072914L336.125 75.71354Q336.32812 76.58854 336.48438 77.46354Q336.8125 76.08854 336.875 75.86979L338.5 70.072914L339.875 70.072914L341.10938 74.416664Q341.5625 76.041664 341.78125 77.46354Q341.9375 76.65104 342.20312 75.58854L343.54688 70.072914L344.6875 70.072914L342.34375 78.666664L341.23438 78.666664L339.4375 72.11979Q339.20312 71.30729 339.15625 71.11979Q339.03125 71.697914 338.90625 72.11979L337.09375 78.666664L335.92188 78.666664ZM345.28125 78.666664L345.28125 72.447914L346.23438 72.447914L346.23438 73.385414Q346.59375 72.729164 346.89062 72.52604Q347.20312 72.30729 347.57812 72.30729Q348.10938 72.30729 348.65625 72.635414L348.29688 73.61979Q347.90625 73.385414 347.53125 73.385414Q347.17188 73.385414 346.89062 73.604164Q346.625 73.80729 346.51562 74.18229Q346.32812 74.74479 346.32812 75.40104L346.32812 78.666664L345.28125 78.666664ZM349.29688 71.291664L349.29688 70.072914L350.35938 70.072914L350.35938 71.291664L349.29688 71.291664ZM349.29688 78.666664L349.29688 72.447914L350.35938 72.447914L350.35938 78.666664L349.29688 78.666664ZM354.59375 77.729164L354.75 78.65104Q354.29688 78.74479 353.95312 78.74479Q353.375 78.74479 353.0625 78.572914Q352.75 78.385414 352.60938 78.08854Q352.48438 77.791664 352.48438 76.83854L352.48438 73.260414L351.71875 73.260414L351.71875 72.447914L352.48438 72.447914L352.48438 70.90104L353.53125 70.27604L353.53125 72.447914L354.59375 72.447914L354.59375 73.260414L353.53125 73.260414L353.53125 76.90104Q353.53125 77.354164 353.57812 77.479164Q353.64062 77.604164 353.76562 77.68229Q353.89062 77.760414 354.125 77.760414Q354.3125 77.760414 354.59375 77.729164ZM359.54688 76.666664L360.64062 76.791664Q360.39062 77.74479 359.6875 78.27604Q358.98438 78.80729 357.90625 78.80729Q356.54688 78.80729 355.73438 77.96354Q354.9375 77.11979 354.9375 75.604164Q354.9375 74.041664 355.75 73.18229Q356.5625 72.30729 357.84375 72.30729Q359.09375 72.30729 359.875 73.15104Q360.67188 73.99479 360.67188 75.541664Q360.67188 75.635414 360.67188 75.822914L356.03125 75.822914Q356.09375 76.854164 356.60938 77.40104Q357.125 77.93229 357.90625 77.93229Q358.48438 77.93229 358.89062 77.635414Q359.3125 77.322914 359.54688 76.666664ZM356.09375 74.96354L359.5625 74.96354Q359.5 74.166664 359.17188 73.77604Q358.65625 73.166664 357.85938 73.166664Q357.125 73.166664 356.625 73.65104Q356.14062 74.135414 356.09375 74.96354Z" fill-rule="nonzero"/><path stroke="#fbbc04" stroke-width="4.0" stroke-linecap="butt" d="M377.5 74.666664L389.5 74.666664" fill-rule="nonzero"/><path fill="#1a1a1a" d="M398.4375 78.666664L398.4375 70.072914L402.25 70.072914Q403.40625 70.072914 404.0 70.30729Q404.59375 70.541664 404.95312 71.135414Q405.3125 71.71354 405.3125 72.416664Q405.3125 73.33854 404.71875 73.96354Q404.125 74.58854 402.89062 74.760414Q403.34375 74.979164 403.57812 75.18229Q404.07812 75.635414 404.51562 76.322914L406.01562 78.666664L404.57812 78.666664L403.45312 76.885414Q402.95312 76.104164 402.625 75.697914Q402.3125 75.291664 402.04688 75.135414Q401.79688 74.96354 401.53125 74.885414Q401.34375 74.854164 400.90625 74.854164L399.57812 74.854164L399.57812 78.666664L398.4375 78.666664ZM399.57812 73.86979L402.03125 73.86979Q402.79688 73.86979 403.23438 73.71354Q403.6875 73.541664 403.90625 73.197914Q404.14062 72.83854 404.14062 72.416664Q404.14062 71.80729 403.6875 71.416664Q403.25 71.02604 402.29688 71.02604L399.57812 71.02604L399.57812 73.86979ZM411.54688 76.666664L412.64062 76.791664Q412.39062 77.74479 411.6875 78.27604Q410.98438 78.80729 409.90625 78.80729Q408.54688 78.80729 407.73438 77.96354Q406.9375 77.11979 406.9375 75.604164Q406.9375 74.041664 407.75 73.18229Q408.5625 72.30729 409.84375 72.30729Q411.09375 72.30729 411.875 73.15104Q412.67188 73.99479 412.67188 75.541664Q412.67188 75.635414 412.67188 75.822914L408.03125 75.822914Q408.09375 76.854164 408.60938 77.40104Q409.125 77.93229 409.90625 77.93229Q410.48438 77.93229 410.89062 77.635414Q411.3125 77.322914 411.54688 76.666664ZM408.09375 74.96354L411.5625 74.96354Q411.5 74.166664 411.17188 73.77604Q410.65625 73.166664 409.85938 73.166664Q409.125 73.166664 408.625 73.65104Q408.14062 74.135414 408.09375 74.96354ZM418.35938 77.90104Q417.76562 78.40104 417.21875 78.604164Q416.6875 78.80729 416.0625 78.80729Q415.03125 78.80729 414.48438 78.30729Q413.9375 77.80729 413.9375 77.02604Q413.9375 76.572914 414.14062 76.197914Q414.34375 75.80729 414.6875 75.58854Q415.03125 75.354164 415.45312 75.24479Q415.75 75.15104 416.39062 75.072914Q417.65625 74.93229 418.26562 74.71354Q418.26562 74.49479 418.26562 74.447914Q418.26562 73.791664 417.96875 73.52604Q417.5625 73.18229 416.76562 73.18229Q416.03125 73.18229 415.67188 73.447914Q415.3125 73.697914 415.14062 74.354164L414.10938 74.21354Q414.25 73.55729 414.57812 73.15104Q414.90625 72.74479 415.51562 72.52604Q416.125 72.30729 416.92188 72.30729Q417.71875 72.30729 418.21875 72.49479Q418.71875 72.68229 418.95312 72.96354Q419.1875 73.24479 419.28125 73.68229Q419.32812 73.947914 419.32812 74.65104L419.32812 76.05729Q419.32812 77.52604 419.39062 77.916664Q419.46875 78.30729 419.67188 78.666664L418.5625 78.666664Q418.40625 78.33854 418.35938 77.90104ZM418.26562 75.541664Q417.6875 75.77604 416.54688 75.947914Q415.89062 76.041664 415.625 76.166664Q415.35938 76.27604 415.20312 76.49479Q415.0625 76.71354 415.0625 76.99479Q415.0625 77.416664 415.375 77.697914Q415.70312 77.979164 416.3125 77.979164Q416.92188 77.979164 417.39062 77.71354Q417.875 77.447914 418.09375 76.979164Q418.26562 76.61979 418.26562 75.93229L418.26562 75.541664ZM425.32812 78.666664L425.32812 77.885414Q424.73438 78.80729 423.59375 78.80729Q422.84375 78.80729 422.21875 78.40104Q421.59375 77.979164 421.25 77.24479Q420.90625 76.510414 420.90625 75.55729Q420.90625 74.635414 421.21875 73.86979Q421.53125 73.104164 422.15625 72.71354Q422.78125 72.30729 423.54688 72.30729Q424.10938 72.30729 424.54688 72.541664Q424.98438 72.77604 425.26562 73.15104L425.26562 70.072914L426.3125 70.072914L426.3125 78.666664L425.32812 78.666664ZM422.0 75.55729Q422.0 76.760414 422.5 77.354164Q423.0 77.93229 423.6875 77.93229Q424.375 77.93229 424.85938 77.36979Q425.34375 76.80729 425.34375 75.65104Q425.34375 74.36979 424.84375 73.77604Q424.35938 73.18229 423.64062 73.18229Q422.9375 73.18229 422.46875 73.760414Q422.0 74.322914 422.0 75.55729ZM431.42188 78.666664L431.42188 70.072914L434.39062 70.072914Q435.39062 70.072914 435.92188 70.197914Q436.65625 70.36979 437.17188 70.80729Q437.85938 71.385414 438.1875 72.291664Q438.53125 73.18229 438.53125 74.322914Q438.53125 75.30729 438.29688 76.05729Q438.07812 76.80729 437.71875 77.30729Q437.35938 77.80729 436.92188 78.08854Q436.5 78.36979 435.90625 78.52604Q435.3125 78.666664 434.53125 78.666664L431.42188 78.666664ZM432.5625 77.65104L434.39062 77.65104Q435.25 77.65104 435.73438 77.49479Q436.21875 77.33854 436.5 77.041664Q436.90625 76.65104 437.125 75.96354Q437.35938 75.27604 437.35938 74.30729Q437.35938 72.96354 436.90625 72.24479Q436.46875 71.510414 435.84375 71.260414Q435.375 71.08854 434.375 71.08854L432.5625 71.08854L432.5625 77.65104ZM440.28125 78.666664L440.28125 72.447914L441.23438 72.447914L441.23438 73.385414Q441.59375 72.729164 441.89062 72.52604Q442.20312 72.30729 442.57812 72.30729Q443.10938 72.30729 443.65625 72.635414L443.29688 73.61979Q442.90625 73.385414 442.53125 73.385414Q442.17188 73.385414 441.89062 73.604164Q441.625 73.80729 441.51562 74.18229Q441.32812 74.74479 441.32812 75.40104L441.32812 78.666664L440.28125 78.666664ZM443.90625 75.55729Q443.90625 73.822914 444.85938 72.99479Q445.65625 72.30729 446.8125 72.30729Q448.09375 72.30729 448.90625 73.15104Q449.73438 73.979164 449.73438 75.46354Q449.73438 76.666664 449.375 77.354164Q449.01562 78.041664 448.3125 78.43229Q447.625 78.80729 446.8125 78.80729Q445.51562 78.80729 444.70312 77.979164Q443.90625 77.135414 443.90625 75.55729ZM444.98438 75.55729Q444.98438 76.74479 445.5 77.33854Q446.03125 77.93229 446.8125 77.93229Q447.60938 77.93229 448.125 77.33854Q448.64062 76.74479 448.64062 75.52604Q448.64062 74.36979 448.10938 73.77604Q447.59375 73.18229 446.8125 73.18229Q446.03125 73.18229 445.5 73.77604Q444.98438 74.354164 444.98438 75.55729ZM451.29688 81.05729L451.29688 72.447914L452.25 72.447914L452.25 73.24479Q452.59375 72.77604 453.01562 72.541664Q453.45312 72.30729 454.0625 72.30729Q454.85938 72.30729 455.46875 72.71354Q456.07812 73.11979 456.375 73.86979Q456.6875 74.61979 456.6875 75.510414Q456.6875 76.46354 456.34375 77.229164Q456.01562 77.99479 455.35938 78.40104Q454.70312 78.80729 453.98438 78.80729Q453.45312 78.80729 453.03125 78.58854Q452.60938 78.354164 452.34375 78.02604L452.34375 81.05729L451.29688 81.05729ZM452.25 75.58854Q452.25 76.791664 452.73438 77.36979Q453.21875 77.93229 453.90625 77.93229Q454.60938 77.93229 455.10938 77.33854Q455.60938 76.74479 455.60938 75.49479Q455.60938 74.30729 455.125 73.729164Q454.64062 73.135414 453.95312 73.135414Q453.28125 73.135414 452.76562 73.760414Q452.25 74.385414 452.25 75.58854ZM458.29688 81.05729L458.29688 72.447914L459.25 72.447914L459.25 73.24479Q459.59375 72.77604 460.01562 72.541664Q460.45312 72.30729 461.0625 72.30729Q461.85938 72.30729 462.46875 72.71354Q463.07812 73.11979 463.375 73.86979Q463.6875 74.61979 463.6875 75.510414Q463.6875 76.46354 463.34375 77.229164Q463.01562 77.99479 462.35938 78.40104Q461.70312 78.80729 460.98438 78.80729Q460.45312 78.80729 460.03125 78.58854Q459.60938 78.354164 459.34375 78.02604L459.34375 81.05729L458.29688 81.05729ZM459.25 75.58854Q459.25 76.791664 459.73438 77.36979Q460.21875 77.93229 460.90625 77.93229Q461.60938 77.93229 462.10938 77.33854Q462.60938 76.74479 462.60938 75.49479Q462.60938 74.30729 462.125 73.729164Q461.64062 73.135414 460.95312 73.135414Q460.28125 73.135414 459.76562 73.760414Q459.25 74.385414 459.25 75.58854ZM465.29688 71.291664L465.29688 70.072914L466.35938 70.072914L466.35938 71.291664L465.29688 71.291664ZM465.29688 78.666664L465.29688 72.447914L466.35938 72.447914L466.35938 78.666664L465.29688 78.666664ZM468.29688 78.666664L468.29688 72.447914L469.23438 72.447914L469.23438 73.322914Q469.92188 72.30729 471.21875 72.30729Q471.78125 72.30729 472.25 72.510414Q472.73438 72.71354 472.96875 73.041664Q473.20312 73.36979 473.29688 73.80729Q473.34375 74.104164 473.34375 74.83854L473.34375 78.666664L472.29688 78.666664L472.29688 74.885414Q472.29688 74.229164 472.17188 73.916664Q472.04688 73.604164 471.73438 73.416664Q471.42188 73.21354 471.0 73.21354Q470.32812 73.21354 469.82812 73.65104Q469.34375 74.072914 469.34375 75.260414L469.34375 78.666664L468.29688 78.666664ZM475.09375 79.18229L476.125 79.33854Q476.1875 79.80729 476.48438 80.02604Q476.875 80.322914 477.54688 80.322914Q478.28125 80.322914 478.67188 80.02604Q479.07812 79.729164 479.21875 79.21354Q479.3125 78.885414 479.29688 77.854164Q478.60938 78.666664 477.57812 78.666664Q476.29688 78.666664 475.59375 77.74479Q474.89062 76.80729 474.89062 75.52604Q474.89062 74.635414 475.20312 73.885414Q475.53125 73.11979 476.14062 72.71354Q476.75 72.30729 477.57812 72.30729Q478.6875 72.30729 479.40625 73.197914L479.40625 72.447914L480.375 72.447914L480.375 77.822914Q480.375 79.27604 480.07812 79.885414Q479.78125 80.49479 479.14062 80.83854Q478.5 81.197914 477.5625 81.197914Q476.45312 81.197914 475.76562 80.697914Q475.07812 80.197914 475.09375 79.18229ZM475.96875 75.447914Q475.96875 76.666664 476.45312 77.229164Q476.9375 77.791664 477.67188 77.791664Q478.40625 77.791664 478.89062 77.229164Q479.39062 76.666664 479.39062 75.479164Q479.39062 74.33854 478.875 73.760414Q478.375 73.18229 477.65625 73.18229Q476.95312 73.18229 476.45312 73.760414Q475.96875 74.322914 475.96875 75.447914Z" fill-rule="nonzero"/><path stroke="#34a853" stroke-width="4.0" stroke-linecap="butt" d="M497.5 74.666664L509.5 74.666664" fill-rule="nonzero"/><path fill="#1a1a1a" d="M519.9219 78.666664L517.6406 70.072914L518.8125 70.072914L520.125 75.71354Q520.3281 76.58854 520.4844 77.46354Q520.8125 76.08854 520.875 75.86979L522.5 70.072914L523.875 70.072914L525.1094 74.416664Q525.5625 76.041664 525.78125 77.46354Q525.9375 76.65104 526.2031 75.58854L527.5469 70.072914L528.6875 70.072914L526.34375 78.666664L525.2344 78.666664L523.4375 72.11979Q523.2031 71.30729 523.15625 71.11979Q523.03125 71.697914 522.90625 72.11979L521.09375 78.666664L519.9219 78.666664ZM529.28125 78.666664L529.28125 72.447914L530.2344 72.447914L530.2344 73.385414Q530.59375 72.729164 530.8906 72.52604Q531.2031 72.30729 531.5781 72.30729Q532.1094 72.30729 532.65625 72.635414L532.2969 73.61979Q531.90625 73.385414 531.53125 73.385414Q531.1719 73.385414 530.8906 73.604164Q530.625 73.80729 530.5156 74.18229Q530.3281 74.74479 530.3281 75.40104L530.3281 78.666664L529.28125 78.666664ZM533.2969 71.291664L533.2969 70.072914L534.3594 70.072914L534.3594 71.291664L533.2969 71.291664ZM533.2969 78.666664L533.2969 72.447914L534.3594 72.447914L534.3594 78.666664L533.2969 78.666664ZM538.59375 77.729164L538.75 78.65104Q538.2969 78.74479 537.9531 78.74479Q537.375 78.74479 537.0625 78.572914Q536.75 78.385414 536.6094 78.08854Q536.4844 77.791664 536.4844 76.83854L536.4844 73.260414L535.71875 73.260414L535.71875 72.447914L536.4844 72.447914L536.4844 70.90104L537.53125 70.27604L537.53125 72.447914L538.59375 72.447914L538.59375 73.260414L537.53125 73.260414L537.53125 76.90104Q537.53125 77.354164 537.5781 77.479164Q537.6406 77.604164 537.7656 77.68229Q537.8906 77.760414 538.125 77.760414Q538.3125 77.760414 538.59375 77.729164ZM543.5469 76.666664L544.6406 76.791664Q544.3906 77.74479 543.6875 78.27604Q542.9844 78.80729 541.90625 78.80729Q540.5469 78.80729 539.7344 77.96354Q538.9375 77.11979 538.9375 75.604164Q538.9375 74.041664 539.75 73.18229Q540.5625 72.30729 541.84375 72.30729Q543.09375 72.30729 543.875 73.15104Q544.6719 73.99479 544.6719 75.541664Q544.6719 75.635414 544.6719 75.822914L540.03125 75.822914Q540.09375 76.854164 540.6094 77.40104Q541.125 77.93229 541.90625 77.93229Q542.4844 77.93229 542.8906 77.635414Q543.3125 77.322914 543.5469 76.666664ZM540.09375 74.96354L543.5625 74.96354Q543.5 74.166664 543.1719 73.77604Q542.65625 73.166664 541.8594 73.166664Q541.125 73.166664 540.625 73.65104Q540.1406 74.135414 540.09375 74.96354ZM549.4219 78.666664L549.4219 70.072914L552.3906 70.072914Q553.3906 70.072914 553.9219 70.197914Q554.65625 70.36979 555.1719 70.80729Q555.8594 71.385414 556.1875 72.291664Q556.53125 73.18229 556.53125 74.322914Q556.53125 75.30729 556.2969 76.05729Q556.0781 76.80729 555.71875 77.30729Q555.3594 77.80729 554.9219 78.08854Q554.5 78.36979 553.90625 78.52604Q553.3125 78.666664 552.53125 78.666664L549.4219 78.666664ZM550.5625 77.65104L552.3906 77.65104Q553.25 77.65104 553.7344 77.49479Q554.21875 77.33854 554.5 77.041664Q554.90625 76.65104 555.125 75.96354Q555.3594 75.27604 555.3594 74.30729Q555.3594 72.96354 554.90625 72.24479Q554.46875 71.510414 553.84375 71.260414Q553.375 71.08854 552.375 71.08854L550.5625 71.08854L550.5625 77.65104ZM558.28125 78.666664L558.28125 72.447914L559.2344 72.447914L559.2344 73.385414Q559.59375 72.729164 559.8906 72.52604Q560.2031 72.30729 560.5781 72.30729Q561.1094 72.30729 561.65625 72.635414L561.2969 73.61979Q560.90625 73.385414 560.53125 73.385414Q560.1719 73.385414 559.8906 73.604164Q559.625 73.80729 559.5156 74.18229Q559.3281 74.74479 559.3281 75.40104L559.3281 78.666664L558.28125 78.666664ZM561.90625 75.55729Q561.90625 73.822914 562.8594 72.99479Q563.65625 72.30729 564.8125 72.30729Q566.09375 72.30729 566.90625 73.15104Q567.7344 73.979164 567.7344 75.46354Q567.7344 76.666664 567.375 77.354164Q567.0156 78.041664 566.3125 78.43229Q565.625 78.80729 564.8125 78.80729Q563.5156 78.80729 562.7031 77.979164Q561.90625 77.135414 561.90625 75.55729ZM562.9844 75.55729Q562.9844 76.74479 563.5 77.33854Q564.03125 77.93229 564.8125 77.93229Q565.6094 77.93229 566.125 77.33854Q566.6406 76.74479 566.6406 75.52604Q566.6406 74.36979 566.1094 73.77604Q565.59375 73.18229 564.8125 73.18229Q564.03125 73.18229 563.5 73.77604Q562.9844 74.354164 562.9844 75.55729ZM569.2969 81.05729L569.2969 72.447914L570.25 72.447914L570.25 73.24479Q570.59375 72.77604 571.0156 72.541664Q571.4531 72.30729 572.0625 72.30729Q572.8594 72.30729 573.46875 72.71354Q574.0781 73.11979 574.375 73.86979Q574.6875 74.61979 574.6875 75.510414Q574.6875 76.46354 574.34375 77.229164Q574.0156 77.99479 573.3594 78.40104Q572.7031 78.80729 571.9844 78.80729Q571.4531 78.80729 571.03125 78.58854Q570.6094 78.354164 570.34375 78.02604L570.34375 81.05729L569.2969 81.05729ZM570.25 75.58854Q570.25 76.791664 570.7344 77.36979Q571.21875 77.93229 571.90625 77.93229Q572.6094 77.93229 573.1094 77.33854Q573.6094 76.74479 573.6094 75.49479Q573.6094 74.30729 573.125 73.729164Q572.6406 73.135414 571.9531 73.135414Q571.28125 73.135414 570.7656 73.760414Q570.25 74.385414 570.25 75.58854ZM576.2969 81.05729L576.2969 72.447914L577.25 72.447914L577.25 73.24479Q577.59375 72.77604 578.0156 72.541664Q578.4531 72.30729 579.0625 72.30729Q579.8594 72.30729 580.46875 72.71354Q581.0781 73.11979 581.375 73.86979Q581.6875 74.61979 581.6875 75.510414Q581.6875 76.46354 581.34375 77.229164Q581.0156 77.99479 580.3594 78.40104Q579.7031 78.80729 578.9844 78.80729Q578.4531 78.80729 578.03125 78.58854Q577.6094 78.354164 577.34375 78.02604L577.34375 81.05729L576.2969 81.05729ZM577.25 75.58854Q577.25 76.791664 577.7344 77.36979Q578.21875 77.93229 578.90625 77.93229Q579.6094 77.93229 580.1094 77.33854Q580.6094 76.74479 580.6094 75.49479Q580.6094 74.30729 580.125 73.729164Q579.6406 73.135414 578.9531 73.135414Q578.28125 73.135414 577.7656 73.760414Q577.25 74.385414 577.25 75.58854ZM583.2969 71.291664L583.2969 70.072914L584.3594 70.072914L584.3594 71.291664L583.2969 71.291664ZM583.2969 78.666664L583.2969 72.447914L584.3594 72.447914L584.3594 78.666664L583.2969 78.666664ZM586.2969 78.666664L586.2969 72.447914L587.2344 72.447914L587.2344 73.322914Q587.9219 72.30729 589.21875 72.30729Q589.78125 72.30729 590.25 72.510414Q590.7344 72.71354 590.96875 73.041664Q591.2031 73.36979 591.2969 73.80729Q591.34375 74.104164 591.34375 74.83854L591.34375 78.666664L590.2969 78.666664L590.2969 74.885414Q590.2969 74.229164 590.1719 73.916664Q590.0469 73.604164 589.7344 73.416664Q589.4219 73.21354 589.0 73.21354Q588.3281 73.21354 587.8281 73.65104Q587.34375 74.072914 587.34375 75.260414L587.34375 78.666664L586.2969 78.666664ZM593.09375 79.18229L594.125 79.33854Q594.1875 79.80729 594.4844 80.02604Q594.875 80.322914 595.5469 80.322914Q596.28125 80.322914 596.6719 80.02604Q597.0781 79.729164 597.21875 79.21354Q597.3125 78.885414 597.2969 77.854164Q596.6094 78.666664 595.5781 78.666664Q594.2969 78.666664 593.59375 77.74479Q592.8906 76.80729 592.8906 75.52604Q592.8906 74.635414 593.2031 73.885414Q593.53125 73.11979 594.1406 72.71354Q594.75 72.30729 595.5781 72.30729Q596.6875 72.30729 597.40625 73.197914L597.40625 72.447914L598.375 72.447914L598.375 77.822914Q598.375 79.27604 598.0781 79.885414Q597.78125 80.49479 597.1406 80.83854Q596.5 81.197914 595.5625 81.197914Q594.4531 81.197914 593.7656 80.697914Q593.0781 80.197914 593.09375 79.18229ZM593.96875 75.447914Q593.96875 76.666664 594.4531 77.229164Q594.9375 77.791664 595.6719 77.791664Q596.40625 77.791664 596.8906 77.229164Q597.3906 76.666664 597.3906 75.479164Q597.3906 74.33854 596.875 73.760414Q596.375 73.18229 595.65625 73.18229Q594.9531 73.18229 594.4531 73.760414Q593.96875 74.322914 593.96875 75.447914Z" fill-rule="nonzero"/><path fill="#757575" d="M304.6875 45.2L304.6875 32.575L299.96875 32.575L299.96875 30.8875L311.3125 30.8875L311.3125 32.575L306.57812 32.575L306.57812 45.2L304.6875 45.2ZM312.8125 45.2L312.8125 30.8875L314.57812 30.8875L314.57812 36.0125Q315.8125 34.590626 317.6875 34.590626Q318.82812 34.590626 319.67188 35.04375Q320.53125 35.496876 320.89062 36.309376Q321.26562 37.10625 321.26562 38.621876L321.26562 45.2L319.51562 45.2L319.51562 38.621876Q319.51562 37.309376 318.9375 36.715626Q318.35938 36.10625 317.32812 36.10625Q316.54688 36.10625 315.84375 36.5125Q315.15625 36.91875 314.85938 37.621876Q314.57812 38.309376 314.57812 39.528126L314.57812 45.2L312.8125 45.2ZM323.79688 45.2L323.79688 34.825L325.375 34.825L325.375 36.403126Q325.98438 35.29375 326.5 34.95Q327.01562 34.590626 327.625 34.590626Q328.51562 34.590626 329.4375 35.153126L328.82812 36.79375Q328.1875 36.403126 327.54688 36.403126Q326.96875 36.403126 326.5 36.7625Q326.04688 37.10625 325.84375 37.715626Q325.5625 38.653126 325.5625 39.7625L325.5625 45.2L323.79688 45.2ZM330.17188 40.0125Q330.17188 37.1375 331.76562 35.746876Q333.10938 34.590626 335.03125 34.590626Q337.17188 34.590626 338.51562 35.996876Q339.875 37.403126 339.875 39.871876Q339.875 41.871876 339.28125 43.028126Q338.6875 44.16875 337.53125 44.809376Q336.39062 45.434376 335.03125 45.434376Q332.84375 45.434376 331.5 44.04375Q330.17188 42.6375 330.17188 40.0125ZM331.96875 40.0125Q331.96875 42.0125 332.82812 42.996876Q333.70312 43.98125 335.03125 43.98125Q336.34375 43.98125 337.20312 42.996876Q338.07812 41.996876 338.07812 39.95Q338.07812 38.028126 337.20312 37.04375Q336.32812 36.04375 335.03125 36.04375Q333.70312 36.04375 332.82812 37.04375Q331.96875 38.028126 331.96875 40.0125ZM348.60938 45.2L348.60938 43.66875Q347.40625 45.434376 345.32812 45.434376Q344.40625 45.434376 343.60938 45.090626Q342.8125 44.73125 342.42188 44.2Q342.04688 43.66875 341.89062 42.8875Q341.78125 42.371876 341.78125 41.246876L341.78125 34.825L343.53125 34.825L343.53125 40.575Q343.53125 41.95 343.64062 42.434376Q343.8125 43.121876 344.34375 43.528126Q344.89062 43.91875 345.67188 43.91875Q346.46875 43.91875 347.15625 43.5125Q347.85938 43.10625 348.14062 42.41875Q348.4375 41.715626 348.4375 40.3875L348.4375 34.825L350.1875 34.825L350.1875 45.2L348.60938 45.2ZM352.5 46.059376L354.20312 46.309376Q354.3125 47.10625 354.79688 47.465626Q355.45312 47.95 356.59375 47.95Q357.8125 47.95 358.46875 47.465626Q359.14062 46.98125 359.375 46.10625Q359.51562 45.559376 359.5 43.840626Q358.34375 45.2 356.625 45.2Q354.48438 45.2 353.3125 43.653126Q352.14062 42.10625 352.14062 39.95Q352.14062 38.465626 352.67188 37.215626Q353.21875 35.965626 354.23438 35.278126Q355.26562 34.590626 356.64062 34.590626Q358.46875 34.590626 359.67188 36.075L359.67188 34.825L361.28125 34.825L361.28125 43.79375Q361.28125 46.215626 360.78125 47.215626Q360.29688 48.23125 359.21875 48.809376Q358.15625 49.403126 356.59375 49.403126Q354.75 49.403126 353.59375 48.575Q352.45312 47.746876 352.5 46.059376ZM353.95312 39.825Q353.95312 41.871876 354.76562 42.809376Q355.57812 43.746876 356.79688 43.746876Q358.0 43.746876 358.8125 42.809376Q359.64062 41.871876 359.64062 39.8875Q359.64062 37.98125 358.79688 37.0125Q357.95312 36.04375 356.76562 36.04375Q355.59375 36.04375 354.76562 36.996876Q353.95312 37.95 353.95312 39.825ZM363.8125 45.2L363.8125 30.8875L365.57812 30.8875L365.57812 36.0125Q366.8125 34.590626 368.6875 34.590626Q369.82812 34.590626 370.67188 35.04375Q371.53125 35.496876 371.89062 36.309376Q372.26562 37.10625 372.26562 38.621876L372.26562 45.2L370.51562 45.2L370.51562 38.621876Q370.51562 37.309376 369.9375 36.715626Q369.35938 36.10625 368.32812 36.10625Q367.54688 36.10625 366.84375 36.5125Q366.15625 36.91875 365.85938 37.621876Q365.57812 38.309376 365.57812 39.528126L365.57812 45.2L363.8125 45.2ZM374.8125 49.16875L374.8125 34.825L376.42188 34.825L376.42188 36.16875Q376.98438 35.3875 377.6875 34.996876Q378.40625 34.590626 379.42188 34.590626Q380.75 34.590626 381.76562 35.278126Q382.78125 35.965626 383.29688 37.215626Q383.82812 38.45 383.82812 39.934376Q383.82812 41.528126 383.25 42.809376Q382.6875 44.075 381.59375 44.7625Q380.5 45.434376 379.29688 45.434376Q378.42188 45.434376 377.71875 45.059376Q377.03125 44.684376 376.57812 44.121876L376.57812 49.16875L374.8125 49.16875ZM376.40625 40.075Q376.40625 42.075 377.21875 43.028126Q378.03125 43.98125 379.1875 43.98125Q380.35938 43.98125 381.1875 42.996876Q382.03125 42.0125 382.03125 39.91875Q382.03125 37.95 381.20312 36.965626Q380.39062 35.965626 379.26562 35.965626Q378.14062 35.965626 377.26562 37.028126Q376.40625 38.075 376.40625 40.075ZM392.60938 45.2L392.60938 43.66875Q391.40625 45.434376 389.32812 45.434376Q388.40625 45.434376 387.60938 45.090626Q386.8125 44.73125 386.42188 44.2Q386.04688 43.66875 385.89062 42.8875Q385.78125 42.371876 385.78125 41.246876L385.78125 34.825L387.53125 34.825L387.53125 40.575Q387.53125 41.95 387.64062 42.434376Q387.8125 43.121876 388.34375 43.528126Q388.89062 43.91875 389.67188 43.91875Q390.46875 43.91875 391.15625 43.5125Q391.85938 43.10625 392.14062 42.41875Q392.4375 41.715626 392.4375 40.3875L392.4375 34.825L394.1875 34.825L394.1875 45.2L392.60938 45.2ZM400.65625 43.621876L400.90625 45.184376Q400.17188 45.340626 399.57812 45.340626Q398.625 45.340626 398.09375 45.04375Q397.57812 44.73125 397.35938 44.246876Q397.14062 43.746876 397.14062 42.16875L397.14062 36.2L395.85938 36.2L395.85938 34.825L397.14062 34.825L397.14062 32.2625L398.89062 31.2L398.89062 34.825L400.65625 34.825L400.65625 36.2L398.89062 36.2L398.89062 42.2625Q398.89062 43.0125 398.98438 43.23125Q399.07812 43.434376 399.28125 43.575Q399.5 43.7 399.89062 43.7Q400.17188 43.7 400.65625 43.621876ZM411.70312 45.2L407.75 34.825L409.60938 34.825L411.84375 41.04375Q412.20312 42.04375 412.5 43.121876Q412.73438 42.309376 413.15625 41.153126L415.45312 34.825L417.26562 34.825L413.34375 45.2L411.70312 45.2ZM418.10938 42.10625L419.85938 41.825Q420.0 42.871876 420.67188 43.434376Q421.34375 43.98125 422.54688 43.98125Q423.75 43.98125 424.32812 43.496876Q424.92188 42.996876 424.92188 42.340626Q424.92188 41.746876 424.40625 41.403126Q424.04688 41.16875 422.60938 40.809376Q420.67188 40.309376 419.92188 39.965626Q419.1875 39.60625 418.79688 38.98125Q418.40625 38.340626 418.40625 37.575Q418.40625 36.8875 418.71875 36.29375Q419.04688 35.7 419.59375 35.309376Q420.0 35.0125 420.70312 34.809376Q421.42188 34.590626 422.23438 34.590626Q423.45312 34.590626 424.375 34.95Q425.29688 35.29375 425.73438 35.903126Q426.17188 36.496876 426.34375 37.496876L424.625 37.73125Q424.5 36.934376 423.9375 36.496876Q423.375 36.04375 422.35938 36.04375Q421.14062 36.04375 420.625 36.45Q420.10938 36.840626 420.10938 37.371876Q420.10938 37.715626 420.32812 37.996876Q420.53125 38.278126 421.0 38.465626Q421.26562 38.559376 422.54688 38.903126Q424.42188 39.403126 425.15625 39.73125Q425.89062 40.04375 426.3125 40.653126Q426.73438 41.246876 426.73438 42.153126Q426.73438 43.028126 426.21875 43.809376Q425.70312 44.590626 424.73438 45.0125Q423.76562 45.434376 422.54688 45.434376Q420.53125 45.434376 419.46875 44.590626Q418.40625 43.746876 418.10938 42.10625ZM437.54688 45.2L433.75 30.8875L435.6875 30.8875L437.85938 40.2625Q438.21875 41.746876 438.46875 43.2Q439.01562 40.903126 439.10938 40.54375L441.84375 30.8875L444.125 30.8875L446.17188 38.121876Q446.95312 40.825 447.29688 43.2Q447.5625 41.840626 448.0 40.075L450.25 30.8875L452.15625 30.8875L448.23438 45.2L446.40625 45.2L443.39062 34.29375Q443.0 32.91875 442.9375 32.60625Q442.70312 33.590626 442.51562 34.29375L439.48438 45.2L437.54688 45.2ZM453.82812 32.903126L453.82812 30.8875L455.59375 30.8875L455.59375 32.903126L453.82812 32.903126ZM453.82812 45.2L453.82812 34.825L455.59375 34.825L455.59375 45.2L453.82812 45.2ZM457.8125 45.2L457.8125 34.825L459.40625 34.825L459.40625 36.309376Q460.54688 34.590626 462.70312 34.590626Q463.64062 34.590626 464.42188 34.934376Q465.21875 35.2625 465.60938 35.809376Q466.0 36.35625 466.15625 37.10625Q466.25 37.60625 466.25 38.825L466.25 45.2L464.48438 45.2L464.48438 38.8875Q464.48438 37.809376 464.28125 37.278126Q464.07812 36.746876 463.54688 36.434376Q463.03125 36.121876 462.32812 36.121876Q461.20312 36.121876 460.39062 36.840626Q459.57812 37.54375 459.57812 39.528126L459.57812 45.2L457.8125 45.2ZM475.54688 45.2L475.54688 43.8875Q474.5625 45.434376 472.64062 45.434376Q471.40625 45.434376 470.35938 44.746876Q469.32812 44.059376 468.75 42.840626Q468.1875 41.621876 468.1875 40.028126Q468.1875 38.465626 468.70312 37.2Q469.21875 35.934376 470.25 35.2625Q471.29688 34.590626 472.5625 34.590626Q473.5 34.590626 474.23438 34.996876Q474.96875 35.3875 475.4375 36.0125L475.4375 30.8875L477.17188 30.8875L477.17188 45.2L475.54688 45.2ZM469.98438 40.028126Q469.98438 42.0125 470.82812 42.996876Q471.67188 43.98125 472.8125 43.98125Q473.96875 43.98125 474.76562 43.04375Q475.57812 42.10625 475.57812 40.16875Q475.57812 38.04375 474.75 37.04375Q473.9375 36.04375 472.73438 36.04375Q471.5625 36.04375 470.76562 37.0125Q469.98438 37.965626 469.98438 40.028126ZM479.17188 40.0125Q479.17188 37.1375 480.76562 35.746876Q482.10938 34.590626 484.03125 34.590626Q486.17188 34.590626 487.51562 35.996876Q488.875 37.403126 488.875 39.871876Q488.875 41.871876 488.28125 43.028126Q487.6875 44.16875 486.53125 44.809376Q485.39062 45.434376 484.03125 45.434376Q481.84375 45.434376 480.5 44.04375Q479.17188 42.6375 479.17188 40.0125ZM480.96875 40.0125Q480.96875 42.0125 481.82812 42.996876Q482.70312 43.98125 484.03125 43.98125Q485.34375 43.98125 486.20312 42.996876Q487.07812 41.996876 487.07812 39.95Q487.07812 38.028126 486.20312 37.04375Q485.32812 36.04375 484.03125 36.04375Q482.70312 36.04375 481.82812 37.04375Q480.96875 38.028126 480.96875 40.0125ZM492.73438 45.2L489.5625 34.825L491.375 34.825L493.03125 40.809376L493.64062 43.04375Q493.6875 42.871876 494.17188 40.903126L495.82812 34.825L497.64062 34.825L499.1875 40.840626L499.70312 42.825L500.29688 40.825L502.07812 34.825L503.78125 34.825L500.54688 45.2L498.71875 45.2L497.0625 38.98125L496.67188 37.215626L494.5625 45.2L492.73438 45.2ZM510.40625 40.60625L512.1875 40.45Q512.3125 41.5125 512.7656 42.2Q513.2344 42.8875 514.2031 43.325Q515.1875 43.746876 516.4219 43.746876Q517.5 43.746876 518.3281 43.434376Q519.15625 43.10625 519.5625 42.54375Q519.96875 41.98125 519.96875 41.309376Q519.96875 40.6375 519.5781 40.1375Q519.1875 39.6375 518.2969 39.29375Q517.71875 39.059376 515.7344 38.590626Q513.7656 38.121876 512.9844 37.7Q511.95312 37.16875 511.45312 36.371876Q510.95312 35.575 510.95312 34.590626Q510.95312 33.496876 511.5625 32.559376Q512.1719 31.621876 513.3594 31.1375Q514.5469 30.6375 515.9844 30.6375Q517.5781 30.6375 518.7969 31.153126Q520.0156 31.66875 520.65625 32.66875Q521.3125 33.653126 521.3594 34.91875L519.5469 35.059376Q519.40625 33.7 518.5625 33.0125Q517.71875 32.309376 516.0625 32.309376Q514.34375 32.309376 513.5469 32.95Q512.7656 33.575 512.7656 34.45Q512.7656 35.23125 513.3281 35.73125Q513.875 36.23125 516.1875 36.746876Q518.5 37.2625 519.3594 37.653126Q520.6094 38.23125 521.2031 39.121876Q521.7969 39.996876 521.7969 41.153126Q521.7969 42.29375 521.1406 43.309376Q520.4844 44.325 519.25 44.8875Q518.03125 45.45 516.5 45.45Q514.5625 45.45 513.25 44.8875Q511.9375 44.309376 511.1875 43.16875Q510.4375 42.028126 510.40625 40.60625ZM523.8281 32.903126L523.8281 30.8875L525.59375 30.8875L525.59375 32.903126L523.8281 32.903126ZM523.8281 45.2L523.8281 34.825L525.59375 34.825L525.59375 45.2L523.8281 45.2ZM526.8906 45.2L526.8906 43.778126L533.5 36.2Q532.375 36.246876 531.5156 36.246876L527.28125 36.246876L527.28125 34.825L535.7656 34.825L535.7656 35.996876L530.1406 42.575L529.0625 43.778126Q530.2344 43.684376 531.28125 43.684376L536.0781 43.684376L536.0781 45.2L526.8906 45.2ZM544.9219 41.85625L546.7344 42.090626Q546.3125 43.66875 545.1406 44.559376Q543.9844 45.434376 542.1719 45.434376Q539.90625 45.434376 538.5625 44.04375Q537.2344 42.6375 537.2344 40.10625Q537.2344 37.48125 538.5781 36.04375Q539.9219 34.590626 542.0781 34.590626Q544.15625 34.590626 545.46875 36.0125Q546.7969 37.41875 546.7969 39.996876Q546.7969 40.153126 546.78125 40.465626L539.0469 40.465626Q539.1406 42.16875 540.0156 43.075Q540.8906 43.98125 542.1875 43.98125Q543.15625 43.98125 543.8281 43.48125Q544.5156 42.965626 544.9219 41.85625ZM539.1406 39.0125L544.9375 39.0125Q544.8281 37.715626 544.28125 37.059376Q543.4375 36.04375 542.09375 36.04375Q540.8906 36.04375 540.0625 36.85625Q539.2344 37.653126 539.1406 39.0125Z" fill-rule="nonzero"/></svg>