<svg version="1.1" viewBox="0.0 0.0 877.0 542.0" fill="none" stroke="none" stroke-linecap="square" stroke-miterlimit="10" width="877" height="542" xmlns:xlink="http://www.w3.org/1999/xlink" xmlns="http://www.w3.org/2000/svg"><path fill="#ffffff" d="M0 0L877.0 0L877.0 542.0L0 542.0L0 0Z" fill-rule="nonzero"/><path stroke="#333333" stroke-width="1.0" stroke-linecap="butt" d="M93.5 462.5L849.5 462.5" fill-rule="nonzero"/><path stroke="#cccccc" stroke-width="1.0" stroke-linecap="butt" d="M93.5 391.5L849.5 391.5" fill-rule="nonzero"/><path stroke="#cccccc" stroke-width="1.0" stroke-linecap="butt" d="M93.5 321.5L849.5 321.5" fill-rule="nonzero"/><path stroke="#cccccc" stroke-width="1.0" stroke-linecap="butt" d="M93.5 250.5L849.5 250.5" fill-rule="nonzero"/><path stroke="#cccccc" stroke-width="1.0" stroke-linecap="butt" d="M93.5 179.5L849.5 179.5" fill-rule="nonzero"/><path stroke="#cccccc" stroke-width="1.0" stroke-linecap="butt" d="M93.5 108.5L849.5 108.5" fill-rule="nonzero"/><clipPath id="id_0"><path d="M93.1 108.23333L849.9 108.23333L849.9 462.9L93.1 462.9L93.1 108.23333Z" clip-rule="nonzero"/></clipPath><path stroke="#000000" stroke-width="0.0" stroke-linecap="butt" stroke-opacity="0.0" clip-path="url(#id_0)" d="M309.0 463.0L205.0 463.0L205.0 168.0C205.0 166.89543 205.89543 166.0 207.0 166.0L307.0 166.0C308.10458 166.0 309.0 166.89543 309.0 168.0Z" fill-rule="nonzero"/><path fill="#4285f4" clip-path="url(#id_0)" d="M309.0 463.0L205.0 463.0L205.0 168.0C205.0 166.89543 205.89543 166.0 207.0 166.0L307.0 166.0C308.10458 166.0 309.0 166.89543 309.0 168.0Z" fill-rule="nonzero"/><path stroke="#000000" stroke-width="0.0" stroke-linecap="butt" stroke-opacity="0.0" clip-path="url(#id_0)" d="M632.0 463.0L528.0 463.0L528.0 164.0C528.0 162.89543 528.89545 162.0 530.0 162.0L630.0 162.0C631.10455 162.0 632.0 162.89543 632.0 164.0Z" fill-rule="nonzero"/><path fill="#4285f4" clip-path="url(#id_0)" d="M632.0 463.0L528.0 463.0L528.0 164.0C528.0 162.89543 528.89545 162.0 530.0 162.0L630.0 162.0C631.10455 162.0 632.0 162.89543 632.0 164.0Z" fill-rule="nonzero"/><path stroke="#000000" stroke-width="0.0" stroke-linecap="butt" stroke-opacity="0.0" clip-path="url(#id_0)" d="M414.0 463.0L310.0 463.0L310.0 317.0C310.0 315.89542 310.89542 315.0 312.0 315.0L412.0 315.0C413.10458 315.0 414.0 315.89542 414.0 317.0Z" fill-rule="nonzero"/><path fill="#ea4335" clip-path="url(#id_0)" d="M414.0 463.0L310.0 463.0L310.0 317.0C310.0 315.89542 310.89542 315.0 312.0 315.0L412.0 315.0C413.10458 315.0 414.0 315.89542 414.0 317.0Z" fill-rule="nonzero"/><path stroke="#000000" stroke-width="0.0" stroke-linecap="butt" stroke-opacity="0.0" clip-path="url(#id_0)" d="M737.0 463.0L633.0 463.0L633.0 316.0C633.0 314.89542 633.89545 314.0 635.0 314.0L735.0 314.0C736.10455 314.0 737.0 314.89542 737.0 316.0Z" fill-rule="nonzero"/><path fill="#ea4335" clip-path="url(#id_0)" d="M737.0 463.0L633.0 463.0L633.0 316.0C633.0 314.89542 633.89545 314.0 635.0 314.0L735.0 314.0C736.10455 314.0 737.0 314.89542 737.0 316.0Z" fill-rule="nonzero"/><path fill="#000000" d="M444.625 511.9L444.625 503.30624L445.75 503.30624L445.75 511.9L444.625 511.9ZM447.42188 511.9L447.42188 503.30624L450.67188 503.30624Q451.51562 503.30624 451.96875 503.38437Q452.60938 503.49374 453.03125 503.79062Q453.46875 504.0875 453.71875 504.61874Q453.98438 505.15 453.98438 505.79062Q453.98438 506.88437 453.28125 507.65Q452.59375 508.4 450.76562 508.4L448.5625 508.4L448.5625 511.9L447.42188 511.9ZM448.5625 507.4L450.78125 507.4Q451.89062 507.4 452.34375 506.99374Q452.8125 506.57187 452.8125 505.82187Q452.8125 505.29062 452.53125 504.91562Q452.26562 504.525 451.82812 504.4Q451.53125 504.32187 450.76562 504.32187L448.5625 504.32187L448.5625 507.4ZM460.875 511.9L457.54688 503.30624L458.78125 503.30624L461.01562 509.55624Q461.28125 510.30624 461.46875 510.9625Q461.67188 510.25937 461.9375 509.55624L464.25 503.30624L465.40625 503.30624L462.04688 511.9L460.875 511.9ZM470.54688 509.9L471.64062 510.025Q471.39062 510.97812 470.6875 511.50937Q469.98438 512.04065 468.90625 512.04065Q467.54688 512.04065 466.73438 511.19687Q465.9375 510.35312 465.9375 508.8375Q465.9375 507.275 466.75 506.41562Q467.5625 505.54062 468.84375 505.54062Q470.09375 505.54062 470.875 506.38437Q471.67188 507.22812 471.67188 508.775Q471.67188 508.86874 471.67188 509.05624L467.03125 509.05624Q467.09375 510.0875 467.60938 510.63437Q468.125 511.16562 468.90625 511.16562Q469.48438 511.16562 469.89062 510.86874Q470.3125 510.55624 470.54688 509.9ZM467.09375 508.19687L470.5625 508.19687Q470.5 507.4 470.17188 507.00937Q469.65625 506.4 468.85938 506.4Q468.125 506.4 467.625 506.88437Q467.14062 507.36874 467.09375 508.19687ZM473.28125 511.9L473.28125 505.68124L474.23438 505.68124L474.23438 506.61874Q474.59375 505.9625 474.89062 505.75937Q475.20312 505.54062 475.57812 505.54062Q476.10938 505.54062 476.65625 505.86874L476.29688 506.85312Q475.90625 506.61874 475.53125 506.61874Q475.17188 506.61874 474.89062 506.8375Q474.625 507.04062 474.51562 507.41562Q474.32812 507.97812 474.32812 508.63437L474.32812 511.9L473.28125 511.9ZM476.875 510.04062L477.90625 509.88437Q478.0 510.50937 478.39062 510.8375Q478.79688 511.16562 479.53125 511.16562Q480.25 511.16562 480.59375 510.88437Q480.95312 510.5875 480.95312 510.18124Q480.95312 509.82187 480.64062 509.61874Q480.42188 509.47812 479.5625 509.25937Q478.40625 508.9625 477.95312 508.75937Q477.51562 508.54062 477.28125 508.16562Q477.04688 507.79062 477.04688 507.32187Q477.04688 506.91562 477.23438 506.55624Q477.42188 506.19687 477.75 505.9625Q478.0 505.79062 478.42188 505.66562Q478.84375 505.54062 479.34375 505.54062Q480.0625 505.54062 480.60938 505.75937Q481.17188 505.9625 481.4375 506.32187Q481.70312 506.68124 481.79688 507.275L480.76562 507.41562Q480.70312 506.94687 480.35938 506.68124Q480.03125 506.4 479.40625 506.4Q478.6875 506.4 478.375 506.65Q478.0625 506.88437 478.0625 507.2125Q478.0625 507.41562 478.1875 507.57187Q478.32812 507.74374 478.59375 507.85312Q478.75 507.91562 479.53125 508.11874Q480.65625 508.43124 481.09375 508.61874Q481.53125 508.80624 481.78125 509.16562Q482.03125 509.525 482.03125 510.07187Q482.03125 510.60312 481.71875 511.07187Q481.42188 511.525 480.84375 511.79062Q480.26562 512.04065 479.53125 512.04065Q478.3125 512.04065 477.67188 511.54062Q477.04688 511.025 476.875 510.04062ZM483.29688 504.525L483.29688 503.30624L484.35938 503.30624L484.35938 504.525L483.29688 504.525ZM483.29688 511.9L483.29688 505.68124L484.35938 505.68124L484.35938 511.9L483.29688 511.9ZM485.90625 508.79062Q485.90625 507.05624 486.85938 506.22812Q487.65625 505.54062 488.8125 505.54062Q490.09375 505.54062 490.90625 506.38437Q491.73438 507.2125 491.73438 508.69687Q491.73438 509.9 491.375 510.5875Q491.01562 511.275 490.3125 511.66562Q489.625 512.04065 488.8125 512.04065Q487.51562 512.04065 486.70312 511.2125Q485.90625 510.36874 485.90625 508.79062ZM486.98438 508.79062Q486.98438 509.97812 487.5 510.57187Q488.03125 511.16562 488.8125 511.16562Q489.60938 511.16562 490.125 510.57187Q490.64062 509.97812 490.64062 508.75937Q490.64062 507.60312 490.10938 507.00937Q489.59375 506.41562 488.8125 506.41562Q488.03125 506.41562 487.5 507.00937Q486.98438 507.5875 486.98438 508.79062ZM493.29688 511.9L493.29688 505.68124L494.23438 505.68124L494.23438 506.55624Q494.92188 505.54062 496.21875 505.54062Q496.78125 505.54062 497.25 505.74374Q497.73438 505.94687 497.96875 506.275Q498.20312 506.60312 498.29688 507.04062Q498.34375 507.3375 498.34375 508.07187L498.34375 511.9L497.29688 511.9L497.29688 508.11874Q497.29688 507.4625 497.17188 507.15Q497.04688 506.8375 496.73438 506.65Q496.42188 506.44687 496.0 506.44687Q495.32812 506.44687 494.82812 506.88437Q494.34375 507.30624 494.34375 508.49374L494.34375 511.9L493.29688 511.9Z" fill-rule="nonzero"/><path fill="#000000" d="M38.099995 372.95728L30.52187 372.95728L30.52187 375.7854L29.506245 375.7854L29.506245 368.9729L30.52187 368.9729L30.52187 371.81665L38.099995 371.81665L38.099995 372.95728ZM38.099995 368.26978L29.506245 368.26978L29.506245 367.2229L32.58437 367.2229Q31.74062 366.48853 31.74062 365.36353Q31.74062 364.6604 32.02187 364.1604Q32.287495 363.64478 32.77187 363.42603Q33.24062 363.20728 34.162495 363.20728L38.099995 363.20728L38.099995 364.25415L34.162495 364.25415Q33.36562 364.25415 33.006245 364.5979Q32.64687 364.94165 32.64687 365.56665Q32.64687 366.0354 32.89687 366.45728Q33.131245 366.86353 33.55312 367.05103Q33.95937 367.2229 34.693745 367.2229L38.099995 367.2229L38.099995 368.26978ZM38.099995 361.2854L31.881245 361.2854L31.881245 360.33228L32.818745 360.33228Q32.162495 359.9729 31.95937 359.67603Q31.74062 359.36353 31.74062 358.98853Q31.74062 358.45728 32.068745 357.9104L33.05312 358.26978Q32.818745 358.6604 32.818745 359.0354Q32.818745 359.39478 33.037495 359.67603Q33.24062 359.94165 33.61562 360.05103Q34.17812 360.23853 34.83437 360.23853L38.099995 360.23853L38.099995 361.2854ZM34.99062 357.6604Q33.256245 357.6604 32.42812 356.70728Q31.74062 355.9104 31.74062 354.75415Q31.74062 353.4729 32.58437 352.6604Q33.412495 351.83228 34.89687 351.83228Q36.099995 351.83228 36.787495 352.19165Q37.474995 352.55103 37.86562 353.25415Q38.24062 353.94165 38.24062 354.75415Q38.24062 356.05103 37.412495 356.86353Q36.568745 357.6604 34.99062 357.6604ZM34.99062 356.58228Q36.17812 356.58228 36.77187 356.06665Q37.36562 355.5354 37.36562 354.75415Q37.36562 353.95728 36.77187 353.44165Q36.17812 352.92603 34.95937 352.92603Q33.80312 352.92603 33.20937 353.45728Q32.61562 353.9729 32.61562 354.75415Q32.61562 355.5354 33.20937 356.06665Q33.787495 356.58228 34.99062 356.58228ZM38.099995 346.19165L37.17812 346.19165Q38.24062 346.92603 38.24062 348.17603Q38.24062 348.7229 38.037495 349.20728Q37.818745 349.67603 37.506245 349.9104Q37.17812 350.14478 36.70937 350.23853Q36.412495 350.30103 35.724995 350.30103L31.881245 350.30103L31.881245 349.23853L35.33437 349.23853Q36.14687 349.23853 36.443745 349.17603Q36.849995 349.08228 37.099995 348.76978Q37.33437 348.44165 37.33437 347.95728Q37.33437 347.48853 37.099995 347.08228Q36.849995 346.6604 36.42812 346.48853Q36.006245 346.30103 35.20937 346.30103L31.881245 346.30103L31.881245 345.25415L38.099995 345.25415L38.099995 346.19165ZM38.61562 343.4729L38.77187 342.44165Q39.24062 342.37915 39.45937 342.08228Q39.756245 341.69165 39.756245 341.01978Q39.756245 340.2854 39.45937 339.89478Q39.162495 339.48853 38.64687 339.3479Q38.318745 339.25415 37.287495 339.26978Q38.099995 339.95728 38.099995 340.98853Q38.099995 342.26978 37.17812 342.9729Q36.24062 343.67603 34.95937 343.67603Q34.068745 343.67603 33.318745 343.36353Q32.55312 343.0354 32.14687 342.42603Q31.74062 341.81665 31.74062 340.98853Q31.74062 339.87915 32.631245 339.1604L31.881245 339.1604L31.881245 338.19165L37.256245 338.19165Q38.70937 338.19165 39.318745 338.48853Q39.92812 338.7854 40.27187 339.42603Q40.631245 340.06665 40.631245 341.00415Q40.631245 342.11353 40.131245 342.80103Q39.631245 343.48853 38.61562 343.4729ZM34.881245 342.5979Q36.099995 342.5979 36.662495 342.11353Q37.224995 341.62915 37.224995 340.89478Q37.224995 340.1604 36.662495 339.67603Q36.099995 339.17603 34.912495 339.17603Q33.77187 339.17603 33.193745 339.69165Q32.61562 340.19165 32.61562 340.9104Q32.61562 341.61353 33.193745 342.11353Q33.756245 342.5979 34.881245 342.5979ZM38.099995 336.26978L29.506245 336.26978L29.506245 335.2229L32.58437 335.2229Q31.74062 334.48853 31.74062 333.36353Q31.74062 332.6604 32.02187 332.1604Q32.287495 331.64478 32.77187 331.42603Q33.24062 331.20728 34.162495 331.20728L38.099995 331.20728L38.099995 332.25415L34.162495 332.25415Q33.36562 332.25415 33.006245 332.5979Q32.64687 332.94165 32.64687 333.56665Q32.64687 334.0354 32.89687 334.45728Q33.131245 334.86353 33.55312 335.05103Q33.95937 335.2229 34.693745 335.2229L38.099995 335.2229L38.099995 336.26978ZM40.49062 329.26978L31.881245 329.26978L31.881245 328.31665L32.67812 328.31665Q32.20937 327.9729 31.974995 327.55103Q31.74062 327.11353 31.74062 326.50415Q31.74062 325.70728 32.14687 325.0979Q32.55312 324.48853 33.30312 324.19165Q34.05312 323.87915 34.943745 323.87915Q35.89687 323.87915 36.662495 324.2229Q37.42812 324.55103 37.83437 325.20728Q38.24062 325.86353 38.24062 326.58228Q38.24062 327.11353 38.02187 327.5354Q37.787495 327.95728 37.45937 328.2229L40.49062 328.2229L40.49062 329.26978ZM35.02187 328.31665Q36.224995 328.31665 36.80312 327.83228Q37.36562 327.3479 37.36562 326.6604Q37.36562 325.95728 36.77187 325.45728Q36.17812 324.95728 34.92812 324.95728Q33.74062 324.95728 33.162495 325.44165Q32.568745 325.92603 32.568745 326.61353Q32.568745 327.2854 33.193745 327.80103Q33.818745 328.31665 35.02187 328.31665ZM38.099995 318.19165L37.17812 318.19165Q38.24062 318.92603 38.24062 320.17603Q38.24062 320.7229 38.037495 321.20728Q37.818745 321.67603 37.506245 321.9104Q37.17812 322.14478 36.70937 322.23853Q36.412495 322.30103 35.724995 322.30103L31.881245 322.30103L31.881245 321.23853L35.33437 321.23853Q36.14687 321.23853 36.443745 321.17603Q36.849995 321.08228 37.099995 320.76978Q37.33437 320.44165 37.33437 319.95728Q37.33437 319.48853 37.099995 319.08228Q36.849995 318.6604 36.42812 318.48853Q36.006245 318.30103 35.20937 318.30103L31.881245 318.30103L31.881245 317.25415L38.099995 317.25415L38.099995 318.19165ZM37.162495 312.9729L38.08437 312.81665Q38.17812 313.26978 38.17812 313.61353Q38.17812 314.19165 38.006245 314.50415Q37.818745 314.81665 37.52187 314.95728Q37.224995 315.08228 36.27187 315.08228L32.693745 315.08228L32.693745 315.8479L31.881245 315.8479L31.881245 315.08228L30.33437 315.08228L29.70937 314.0354L31.881245 314.0354L31.881245 312.9729L32.693745 312.9729L32.693745 314.0354L36.33437 314.0354Q36.787495 314.0354 36.912495 313.98853Q37.037495 313.92603 37.11562 313.80103Q37.193745 313.67603 37.193745 313.44165Q37.193745 313.25415 37.162495 312.9729ZM40.631245 307.25415Q39.52187 308.12915 38.05312 308.73853Q36.568745 309.33228 34.99062 309.33228Q33.599995 309.33228 32.318745 308.89478Q30.83437 308.36353 29.36562 307.25415L29.36562 306.50415Q30.58437 307.20728 31.099995 307.44165Q31.912495 307.80103 32.787495 308.00415Q33.881245 308.25415 34.99062 308.25415Q37.818745 308.25415 40.631245 306.50415L40.631245 307.25415ZM38.099995 304.30103L38.099995 305.2854L29.506245 305.2854L29.506245 304.2229L32.568745 304.2229Q31.74062 303.55103 31.74062 302.51978Q31.74062 301.94165 31.974995 301.44165Q32.193745 300.92603 32.61562 300.5979Q33.037495 300.25415 33.631245 300.06665Q34.224995 299.87915 34.89687 299.87915Q36.49062 299.87915 37.36562 300.67603Q38.24062 301.4729 38.24062 302.56665Q38.24062 303.67603 37.318745 304.30103L38.099995 304.30103ZM34.943745 304.31665Q36.05312 304.31665 36.55312 304.00415Q37.36562 303.50415 37.36562 302.6604Q37.36562 301.9729 36.77187 301.4729Q36.17812 300.95728 34.974995 300.95728Q33.756245 300.95728 33.17812 301.44165Q32.599995 301.92603 32.599995 302.61353Q32.599995 303.30103 33.20937 303.81665Q33.80312 304.31665 34.943745 304.31665ZM40.49062 298.31665L39.506245 298.44165Q39.599995 298.0979 39.599995 297.83228Q39.599995 297.48853 39.474995 297.2854Q39.36562 297.06665 39.162495 296.92603Q38.99062 296.83228 38.36562 296.5979Q38.287495 296.58228 38.11562 296.50415L31.881245 298.87915L31.881245 297.73853L35.474995 296.44165Q36.162495 296.19165 36.92812 295.98853Q36.193745 295.80103 35.506245 295.55103L31.881245 294.2229L31.881245 293.17603L38.20937 295.5354Q39.224995 295.92603 39.61562 296.12915Q40.14687 296.4104 40.381245 296.7854Q40.631245 297.14478 40.631245 297.64478Q40.631245 297.94165 40.49062 298.31665ZM37.162495 289.9729L38.08437 289.81665Q38.17812 290.26978 38.17812 290.61353Q38.17812 291.19165 38.006245 291.50415Q37.818745 291.81665 37.52187 291.95728Q37.224995 292.08228 36.27187 292.08228L32.693745 292.08228L32.693745 292.8479L31.881245 292.8479L31.881245 292.08228L30.33437 292.08228L29.70937 291.0354L31.881245 291.0354L31.881245 289.9729L32.693745 289.9729L32.693745 291.0354L36.33437 291.0354Q36.787495 291.0354 36.912495 290.98853Q37.037495 290.92603 37.11562 290.80103Q37.193745 290.67603 37.193745 290.44165Q37.193745 290.25415 37.162495 289.9729ZM36.099995 285.01978L36.224995 283.92603Q37.17812 284.17603 37.70937 284.87915Q38.24062 285.58228 38.24062 286.6604Q38.24062 288.01978 37.39687 288.83228Q36.55312 289.62915 35.037495 289.62915Q33.474995 289.62915 32.61562 288.81665Q31.74062 288.00415 31.74062 286.7229Q31.74062 285.4729 32.58437 284.69165Q33.42812 283.89478 34.974995 283.89478Q35.068745 283.89478 35.256245 283.89478L35.256245 288.5354Q36.287495 288.4729 36.83437 287.95728Q37.36562 287.44165 37.36562 286.6604Q37.36562 286.08228 37.068745 285.67603Q36.756245 285.25415 36.099995 285.01978ZM34.39687 288.4729L34.39687 285.00415Q33.599995 285.06665 33.20937 285.39478Q32.599995 285.9104 32.599995 286.70728Q32.599995 287.44165 33.08437 287.94165Q33.568745 288.42603 34.39687 288.4729ZM36.24062 282.69165L36.08437 281.6604Q36.70937 281.56665 37.037495 281.17603Q37.36562 280.76978 37.36562 280.0354Q37.36562 279.31665 37.08437 278.9729Q36.787495 278.61353 36.381245 278.61353Q36.02187 278.61353 35.818745 278.92603Q35.67812 279.14478 35.45937 280.00415Q35.162495 281.1604 34.95937 281.61353Q34.74062 282.05103 34.36562 282.2854Q33.99062 282.51978 33.52187 282.51978Q33.11562 282.51978 32.756245 282.33228Q32.39687 282.14478 32.162495 281.81665Q31.99062 281.56665 31.86562 281.14478Q31.74062 280.7229 31.74062 280.2229Q31.74062 279.50415 31.95937 278.95728Q32.162495 278.39478 32.52187 278.12915Q32.881245 277.86353 33.474995 277.76978L33.61562 278.80103Q33.14687 278.86353 32.881245 279.20728Q32.599995 279.5354 32.599995 280.1604Q32.599995 280.87915 32.849995 281.19165Q33.08437 281.50415 33.412495 281.50415Q33.61562 281.50415 33.77187 281.37915Q33.943745 281.23853 34.05312 280.9729Q34.11562 280.81665 34.318745 280.0354Q34.631245 278.9104 34.818745 278.4729Q35.006245 278.0354 35.36562 277.7854Q35.724995 277.5354 36.27187 277.5354Q36.80312 277.5354 37.27187 277.8479Q37.724995 278.14478 37.99062 278.7229Q38.24062 279.30103 38.24062 280.0354Q38.24062 281.25415 37.74062 281.89478Q37.224995 282.51978 36.24062 282.69165ZM38.24062 277.06665L29.36562 274.58228L29.36562 273.73853L38.24062 276.2229L38.24062 277.06665ZM38.099995 273.26978L31.881245 273.26978L31.881245 272.33228L32.756245 272.33228Q32.287495 272.0354 32.02187 271.55103Q31.74062 271.06665 31.74062 270.44165Q31.74062 269.75415 32.02187 269.31665Q32.30312 268.86353 32.818745 268.69165Q31.74062 267.94165 31.74062 266.76978Q31.74062 265.83228 32.256245 265.3479Q32.756245 264.8479 33.83437 264.8479L38.099995 264.8479L38.099995 265.89478L34.17812 265.89478Q33.55312 265.89478 33.27187 266.00415Q32.99062 266.0979 32.818745 266.36353Q32.64687 266.62915 32.64687 267.00415Q32.64687 267.6604 33.08437 268.0979Q33.52187 268.51978 34.49062 268.51978L38.099995 268.51978L38.099995 269.58228L34.05312 269.58228Q33.349995 269.58228 33.006245 269.8479Q32.64687 270.0979 32.64687 270.67603Q32.64687 271.12915 32.881245 271.50415Q33.11562 271.87915 33.568745 272.05103Q34.02187 272.2229 34.86562 272.2229L38.099995 272.2229L38.099995 273.26978ZM30.724995 263.26978L29.506245 263.26978L29.506245 262.20728L30.724995 262.20728L30.724995 263.26978ZM38.099995 263.26978L31.881245 263.26978L31.881245 262.20728L38.099995 262.20728L38.099995 263.26978ZM38.099995 260.30103L29.506245 260.30103L29.506245 259.23853L38.099995 259.23853L38.099995 260.30103ZM38.099995 257.30103L29.506245 257.30103L29.506245 256.23853L38.099995 256.23853L38.099995 257.30103ZM30.724995 254.26979L29.506245 254.26979L29.506245 253.20728L30.724995 253.20728L30.724995 254.26979ZM38.099995 254.26979L31.881245 254.26979L31.881245 253.20728L38.099995 253.20728L38.099995 254.26979ZM36.24062 251.69165L36.08437 250.6604Q36.70937 250.56665 37.037495 250.17603Q37.36562 249.76978 37.36562 249.0354Q37.36562 248.31665 37.08437 247.9729Q36.787495 247.61353 36.381245 247.61353Q36.02187 247.61353 35.818745 247.92603Q35.67812 248.14478 35.45937 249.00415Q35.162495 250.1604 34.95937 250.61353Q34.74062 251.05103 34.36562 251.2854Q33.99062 251.51978 33.52187 251.51978Q33.11562 251.51978 32.756245 251.33228Q32.39687 251.14478 32.162495 250.81665Q31.99062 250.56665 31.86562 250.14478Q31.74062 249.7229 31.74062 249.2229Q31.74062 248.50415 31.95937 247.95728Q32.162495 247.39478 32.52187 247.12915Q32.881245 246.86353 33.474995 246.76978L33.61562 247.80103Q33.14687 247.86353 32.881245 248.20728Q32.599995 248.5354 32.599995 249.1604Q32.599995 249.87915 32.849995 250.19165Q33.08437 250.50415 33.412495 250.50415Q33.61562 250.50415 33.77187 250.37915Q33.943745 250.23853 34.05312 249.9729Q34.11562 249.81665 34.318745 249.0354Q34.631245 247.9104 34.818745 247.4729Q35.006245 247.0354 35.36562 246.7854Q35.724995 246.5354 36.27187 246.5354Q36.80312 246.5354 37.27187 246.8479Q37.724995 247.14478 37.99062 247.7229Q38.24062 248.30103 38.24062 249.0354Q38.24062 250.25415 37.74062 250.89478Q37.224995 251.51978 36.24062 251.69165ZM36.099995 241.01978L36.224995 239.92603Q37.17812 240.17603 37.70937 240.87915Q38.24062 241.58228 38.24062 242.6604Q38.24062 244.01978 37.39687 244.83228Q36.55312 245.62915 35.037495 245.62915Q33.474995 245.62915 32.61562 244.81665Q31.74062 244.00415 31.74062 242.7229Q31.74062 241.4729 32.58437 240.69165Q33.42812 239.89478 34.974995 239.89478Q35.068745 239.89478 35.256245 239.89478L35.256245 244.5354Q36.287495 244.4729 36.83437 243.95728Q37.36562 243.44165 37.36562 242.6604Q37.36562 242.08228 37.068745 241.67603Q36.756245 241.25415 36.099995 241.01978ZM34.39687 244.4729L34.39687 241.00415Q33.599995 241.06665 33.20937 241.39478Q32.599995 241.9104 32.599995 242.70728Q32.599995 243.44165 33.08437 243.94165Q33.568745 244.42603 34.39687 244.4729ZM35.818745 234.20728L35.95937 233.17603Q37.02187 233.3479 37.631245 234.05103Q38.24062 234.75415 38.24062 235.76978Q38.24062 237.05103 37.412495 237.83228Q36.568745 238.5979 35.006245 238.5979Q34.006245 238.5979 33.256245 238.26978Q32.49062 237.92603 32.11562 237.25415Q31.74062 236.56665 31.74062 235.75415Q31.74062 234.75415 32.256245 234.11353Q32.756245 233.45728 33.70937 233.26978L33.86562 234.30103Q33.24062 234.44165 32.92812 234.81665Q32.599995 235.19165 32.599995 235.7229Q32.599995 236.51978 33.17812 237.01978Q33.74062 237.51978 34.974995 237.51978Q36.24062 237.51978 36.80312 237.0354Q37.36562 236.55103 37.36562 235.7854Q37.36562 235.1604 36.99062 234.75415Q36.61562 234.33228 35.818745 234.20728ZM34.99062 232.6604Q33.256245 232.6604 32.42812 231.70728Q31.74062 230.9104 31.74062 229.75415Q31.74062 228.4729 32.58437 227.6604Q33.412495 226.83228 34.89687 226.83228Q36.099995 226.83228 36.787495 227.19165Q37.474995 227.55103 37.86562 228.25415Q38.24062 228.94165 38.24062 229.75415Q38.24062 231.05103 37.412495 231.86353Q36.568745 232.6604 34.99062 232.6604ZM34.99062 231.58228Q36.17812 231.58228 36.77187 231.06665Q37.36562 230.5354 37.36562 229.75415Q37.36562 228.95728 36.77187 228.44165Q36.17812 227.92603 34.95937 227.92603Q33.80312 227.92603 33.20937 228.45728Q32.61562 228.9729 32.61562 229.75415Q32.61562 230.5354 33.20937 231.06665Q33.787495 231.58228 34.99062 231.58228ZM38.099995 225.26978L31.881245 225.26978L31.881245 224.33228L32.756245 224.33228Q31.74062 223.64478 31.74062 222.3479Q31.74062 221.7854 31.943745 221.31665Q32.14687 220.83228 32.474995 220.5979Q32.80312 220.36353 33.24062 220.26978Q33.537495 220.2229 34.27187 220.2229L38.099995 220.2229L38.099995 221.26978L34.318745 221.26978Q33.662495 221.26978 33.349995 221.39478Q33.037495 221.51978 32.849995 221.83228Q32.64687 222.14478 32.64687 222.56665Q32.64687 223.23853 33.08437 223.73853Q33.506245 224.2229 34.693745 224.2229L38.099995 224.2229L38.099995 225.26978ZM38.099995 214.23853L37.318745 214.23853Q38.24062 214.83228 38.24062 215.9729Q38.24062 216.7229 37.83437 217.3479Q37.412495 217.9729 36.67812 218.31665Q35.943745 218.6604 34.99062 218.6604Q34.068745 218.6604 33.30312 218.3479Q32.537495 218.0354 32.14687 217.4104Q31.74062 216.7854 31.74062 216.01978Q31.74062 215.45728 31.974995 215.01978Q32.20937 214.58228 32.58437 214.30103L29.506245 214.30103L29.506245 213.25415L38.099995 213.25415L38.099995 214.23853ZM34.99062 217.56665Q36.193745 217.56665 36.787495 217.06665Q37.36562 216.56665 37.36562 215.87915Q37.36562 215.19165 36.80312 214.70728Q36.24062 214.2229 35.08437 214.2229Q33.80312 214.2229 33.20937 214.7229Q32.61562 215.20728 32.61562 215.92603Q32.61562 216.62915 33.193745 217.0979Q33.756245 217.56665 34.99062 217.56665ZM40.631245 210.58228L40.631245 211.33228Q37.818745 209.58228 34.99062 209.58228Q33.89687 209.58228 32.80312 209.83228Q31.92812 210.0354 31.11562 210.39478Q30.599995 210.62915 29.36562 211.33228L29.36562 210.58228Q30.83437 209.48853 32.318745 208.95728Q33.599995 208.50415 34.99062 208.50415Q36.568745 208.50415 38.05312 209.11353Q39.52187 209.7229 40.631245 210.58228Z" fill-rule="nonzero"/><path fill="#000000" d="M80.6 462.66562Q80.6 461.13437 80.9125 460.2125Q81.225 459.275 81.83437 458.775Q82.45937 458.275 83.39687 458.275Q84.08437 458.275 84.6 458.55624Q85.13125 458.8375 85.475 459.36874Q85.81875 459.88437 86.00625 460.63437Q86.19375 461.38437 86.19375 462.66562Q86.19375 464.18124 85.88125 465.10312Q85.58437 466.025 84.95937 466.54062Q84.35 467.04062 83.39687 467.04062Q82.1625 467.04062 81.44375 466.15Q80.6 465.0875 80.6 462.66562ZM81.67812 462.66562Q81.67812 464.775 82.17812 465.47812Q82.67812 466.18124 83.39687 466.18124Q84.13125 466.18124 84.61562 465.47812Q85.11562 464.775 85.11562 462.66562Q85.11562 460.54062 84.61562 459.85312Q84.13125 459.15 83.38125 459.15Q82.6625 459.15 82.225 459.75937Q81.67812 460.54062 81.67812 462.66562Z" fill-rule="nonzero"/><path fill="#000000" d="M72.14687 394.95105L72.14687 395.96667L66.45937 395.96667Q66.45937 395.59167 66.58437 395.2323Q66.80312 394.65417 67.27187 394.09167Q67.75625 393.52917 68.6625 392.7948Q70.06875 391.63855 70.55312 390.96667Q71.05312 390.2948 71.05312 389.70105Q71.05312 389.07605 70.6 388.65417Q70.14687 388.21667 69.42812 388.21667Q68.6625 388.21667 68.20937 388.6698Q67.75625 389.12292 67.74062 389.93542L66.6625 389.82605Q66.77187 388.6073 67.49062 387.9823Q68.225 387.34167 69.45937 387.34167Q70.69375 387.34167 71.4125 388.02917Q72.13125 388.71667 72.13125 389.7323Q72.13125 390.24792 71.9125 390.74792Q71.70937 391.2323 71.20937 391.7948Q70.725 392.34167 69.6 393.2948Q68.64687 394.09167 68.36562 394.38855Q68.1 394.6698 67.92812 394.95105L72.14687 394.95105ZM73.6 393.71667L74.70937 393.62292Q74.83437 394.43542 75.27187 394.84167Q75.725 395.24792 76.36562 395.24792Q77.11562 395.24792 77.64687 394.6698Q78.17812 394.09167 78.17812 393.15417Q78.17812 392.24792 77.6625 391.7323Q77.1625 391.20105 76.33437 391.20105Q75.83437 391.20105 75.4125 391.43542Q75.00625 391.6698 74.77187 392.02917L73.7875 391.90417L74.61562 387.49792L78.89687 387.49792L78.89687 388.49792L75.45937 388.49792L75.00625 390.81042Q75.77187 390.26355 76.61562 390.26355Q77.74062 390.26355 78.50625 391.0448Q79.2875 391.82605 79.2875 393.06042Q79.2875 394.21667 78.61562 395.07605Q77.7875 396.1073 76.36562 396.1073Q75.19375 396.1073 74.44375 395.45105Q73.70937 394.7948 73.6 393.71667ZM80.6 391.7323Q80.6 390.20105 80.9125 389.27917Q81.225 388.34167 81.83437 387.84167Q82.45937 387.34167 83.39687 387.34167Q84.08437 387.34167 84.6 387.62292Q85.13125 387.90417 85.475 388.43542Q85.81875 388.95105 86.00625 389.70105Q86.19375 390.45105 86.19375 391.7323Q86.19375 393.24792 85.88125 394.1698Q85.58437 395.09167 84.95937 395.6073Q84.35 396.1073 83.39687 396.1073Q82.1625 396.1073 81.44375 395.21667Q80.6 394.15417 80.6 391.7323ZM81.67812 391.7323Q81.67812 393.84167 82.17812 394.5448Q82.67812 395.24792 83.39687 395.24792Q84.13125 395.24792 84.61562 394.5448Q85.11562 393.84167 85.11562 391.7323Q85.11562 389.6073 84.61562 388.9198Q84.13125 388.21667 83.38125 388.21667Q82.6625 388.21667 82.225 388.82605Q81.67812 389.6073 81.67812 391.7323Z" fill-rule="nonzero"/><path fill="#000000" d="M66.6 322.78333L67.70937 322.68958Q67.83437 323.50208 68.27187 323.90833Q68.725 324.31458 69.36562 324.31458Q70.11562 324.31458 70.64687 323.73645Q71.17812 323.15833 71.17812 322.22083Q71.17812 321.31458 70.6625 320.79895Q70.1625 320.2677 69.33437 320.2677Q68.83437 320.2677 68.4125 320.50208Q68.00625 320.73645 67.77187 321.09583L66.7875 320.97083L67.61562 316.56458L71.89687 316.56458L71.89687 317.56458L68.45937 317.56458L68.00625 319.87708Q68.77187 319.3302 69.61562 319.3302Q70.74062 319.3302 71.50625 320.11145Q72.2875 320.8927 72.2875 322.12708Q72.2875 323.28333 71.61562 324.1427Q70.7875 325.17395 69.36562 325.17395Q68.19375 325.17395 67.44375 324.5177Q66.70937 323.86145 66.6 322.78333ZM73.6 320.79895Q73.6 319.2677 73.9125 318.34583Q74.225 317.40833 74.83437 316.90833Q75.45937 316.40833 76.39687 316.40833Q77.08437 316.40833 77.6 316.68958Q78.13125 316.97083 78.475 317.50208Q78.81875 318.0177 79.00625 318.7677Q79.19375 319.5177 79.19375 320.79895Q79.19375 322.31458 78.88125 323.23645Q78.58437 324.15833 77.95937 324.67395Q77.35 325.17395 76.39687 325.17395Q75.1625 325.17395 74.44375 324.28333Q73.6 323.22083 73.6 320.79895ZM74.67812 320.79895Q74.67812 322.90833 75.17812 323.61145Q75.67812 324.31458 76.39687 324.31458Q77.13125 324.31458 77.61562 323.61145Q78.11562 322.90833 78.11562 320.79895Q78.11562 318.67395 77.61562 317.98645Q77.13125 317.28333 76.38125 317.28333Q75.6625 317.28333 75.225 317.8927Q74.67812 318.67395 74.67812 320.79895ZM80.6 320.79895Q80.6 319.2677 80.9125 318.34583Q81.225 317.40833 81.83437 316.90833Q82.45937 316.40833 83.39687 316.40833Q84.08437 316.40833 84.6 316.68958Q85.13125 316.97083 85.475 317.50208Q85.81875 318.0177 86.00625 318.7677Q86.19375 319.5177 86.19375 320.79895Q86.19375 322.31458 85.88125 323.23645Q85.58437 324.15833 84.95937 324.67395Q84.35 325.17395 83.39687 325.17395Q82.1625 325.17395 81.44375 324.28333Q80.6 323.22083 80.6 320.79895ZM81.67812 320.79895Q81.67812 322.90833 82.17812 323.61145Q82.67812 324.31458 83.39687 324.31458Q84.13125 324.31458 84.61562 323.61145Q85.11562 322.90833 85.11562 320.79895Q85.11562 318.67395 84.61562 317.98645Q84.13125 317.28333 83.38125 317.28333Q82.6625 317.28333 82.225 317.8927Q81.67812 318.67395 81.67812 320.79895Z" fill-rule="nonzero"/><path fill="#000000" d="M66.6625 246.63126L66.6625 245.61563L72.225 245.61563L72.225 246.44376Q71.4125 247.31876 70.6 248.77188Q69.80312 250.20938 69.36562 251.74063Q69.0375 252.81876 68.95937 254.1L67.86562 254.1Q67.88125 253.08438 68.25625 251.64688Q68.64687 250.20938 69.35 248.88126Q70.06875 247.55313 70.88125 246.63126L66.6625 246.63126ZM73.6 251.85L74.70937 251.75626Q74.83437 252.56876 75.27187 252.975Q75.725 253.38126 76.36562 253.38126Q77.11562 253.38126 77.64687 252.80313Q78.17812 252.225 78.17812 251.2875Q78.17812 250.38126 77.6625 249.86563Q77.1625 249.33438 76.33437 249.33438Q75.83437 249.33438 75.4125 249.56876Q75.00625 249.80313 74.77187 250.1625L73.7875 250.0375L74.61562 245.63126L78.89687 245.63126L78.89687 246.63126L75.45937 246.63126L75.00625 248.94376Q75.77187 248.39688 76.61562 248.39688Q77.74062 248.39688 78.50625 249.17813Q79.2875 249.95938 79.2875 251.19376Q79.2875 252.35 78.61562 253.20938Q77.7875 254.24063 76.36562 254.24063Q75.19375 254.24063 74.44375 253.58438Q73.70937 252.92813 73.6 251.85ZM80.6 249.86563Q80.6 248.33438 80.9125 247.4125Q81.225 246.475 81.83437 245.975Q82.45937 245.475 83.39687 245.475Q84.08437 245.475 84.6 245.75626Q85.13125 246.0375 85.475 246.56876Q85.81875 247.08438 86.00625 247.83438Q86.19375 248.58438 86.19375 249.86563Q86.19375 251.38126 85.88125 252.30313Q85.58437 253.225 84.95937 253.74063Q84.35 254.24063 83.39687 254.24063Q82.1625 254.24063 81.44375 253.35Q80.6 252.2875 80.6 249.86563ZM81.67812 249.86563Q81.67812 251.975 82.17812 252.67813Q82.67812 253.38126 83.39687 253.38126Q84.13125 253.38126 84.61562 252.67813Q85.11562 251.975 85.11562 249.86563Q85.11562 247.74063 84.61562 247.05313Q84.13125 246.35 83.38125 246.35Q82.6625 246.35 82.225 246.95938Q81.67812 247.74063 81.67812 249.86563Z" fill-rule="nonzero"/><path fill="#000000" d="M63.56875 183.16667L62.521873 183.16667L62.521873 176.44792Q62.13125 176.8073 61.50625 177.1823Q60.896873 177.54167 60.4125 177.71355L60.4125 176.69792Q61.2875 176.27605 61.94375 175.69792Q62.615623 175.10417 62.896873 174.54167L63.56875 174.54167L63.56875 183.16667ZM66.6 178.9323Q66.6 177.40105 66.9125 176.47917Q67.225 175.54167 67.83437 175.04167Q68.45937 174.54167 69.39687 174.54167Q70.08437 174.54167 70.6 174.82292Q71.13125 175.10417 71.475 175.63542Q71.81875 176.15105 72.00625 176.90105Q72.19375 177.65105 72.19375 178.9323Q72.19375 180.44792 71.88125 181.3698Q71.58437 182.29167 70.95937 182.8073Q70.35 183.3073 69.39687 183.3073Q68.1625 183.3073 67.44375 182.41667Q66.6 181.35417 66.6 178.9323ZM67.67812 178.9323Q67.67812 181.04167 68.17812 181.7448Q68.67812 182.44792 69.39687 182.44792Q70.13125 182.44792 70.61562 181.7448Q71.11562 181.04167 71.11562 178.9323Q71.11562 176.8073 70.61562 176.1198Q70.13125 175.41667 69.38125 175.41667Q68.6625 175.41667 68.225 176.02605Q67.67812 176.8073 67.67812 178.9323ZM73.6 178.9323Q73.6 177.40105 73.9125 176.47917Q74.225 175.54167 74.83437 175.04167Q75.45937 174.54167 76.39687 174.54167Q77.08437 174.54167 77.6 174.82292Q78.13125 175.10417 78.475 175.63542Q78.81875 176.15105 79.00625 176.90105Q79.19375 177.65105 79.19375 178.9323Q79.19375 180.44792 78.88125 181.3698Q78.58437 182.29167 77.95937 182.8073Q77.35 183.3073 76.39687 183.3073Q75.1625 183.3073 74.44375 182.41667Q73.6 181.35417 73.6 178.9323ZM74.67812 178.9323Q74.67812 181.04167 75.17812 181.7448Q75.67812 182.44792 76.39687 182.44792Q77.13125 182.44792 77.61562 181.7448Q78.11562 181.04167 78.11562 178.9323Q78.11562 176.8073 77.61562 176.1198Q77.13125 175.41667 76.38125 175.41667Q75.6625 175.41667 75.225 176.02605Q74.67812 176.8073 74.67812 178.9323ZM80.6 178.9323Q80.6 177.40105 80.9125 176.47917Q81.225 175.54167 81.83437 175.04167Q82.45937 174.54167 83.39687 174.54167Q84.08437 174.54167 84.6 174.82292Q85.13125 175.10417 85.475 175.63542Q85.81875 176.15105 86.00625 176.90105Q86.19375 177.65105 86.19375 178.9323Q86.19375 180.44792 85.88125 181.3698Q85.58437 182.29167 84.95937 182.8073Q84.35 183.3073 83.39687 183.3073Q82.1625 183.3073 81.44375 182.41667Q80.6 181.35417 80.6 178.9323ZM81.67812 178.9323Q81.67812 181.04167 82.17812 181.7448Q82.67812 182.44792 83.39687 182.44792Q84.13125 182.44792 84.61562 181.7448Q85.11562 181.04167 85.11562 178.9323Q85.11562 176.8073 84.61562 176.1198Q84.13125 175.41667 83.38125 175.41667Q82.6625 175.41667 82.225 176.02605Q81.67812 176.8073 81.67812 178.9323Z" fill-rule="nonzero"/><path fill="#000000" d="M63.56875 112.23333L62.521873 112.23333L62.521873 105.51458Q62.13125 105.873955 61.50625 106.248955Q60.896873 106.60833 60.4125 106.780205L60.4125 105.76458Q61.2875 105.342705 61.94375 104.76458Q62.615623 104.17083 62.896873 103.60833L63.56875 103.60833L63.56875 112.23333ZM72.14687 111.217705L72.14687 112.23333L66.45937 112.23333Q66.45937 111.85833 66.58437 111.498955Q66.80312 110.92083 67.27187 110.35833Q67.75625 109.79583 68.6625 109.061455Q70.06875 107.905205 70.55312 107.23333Q71.05312 106.561455 71.05312 105.967705Q71.05312 105.342705 70.6 104.92083Q70.14687 104.48333 69.42812 104.48333Q68.6625 104.48333 68.20937 104.936455Q67.75625 105.38958 67.74062 106.20208L66.6625 106.092705Q66.77187 104.873955 67.49062 104.248955Q68.225 103.60833 69.45937 103.60833Q70.69375 103.60833 71.4125 104.29583Q72.13125 104.98333 72.13125 105.998955Q72.13125 106.51458 71.9125 107.01458Q71.70937 107.498955 71.20937 108.061455Q70.725 108.60833 69.6 109.561455Q68.64687 110.35833 68.36562 110.655205Q68.1 110.936455 67.92812 111.217705L72.14687 111.217705ZM73.6 109.98333L74.70937 109.88958Q74.83437 110.70208 75.27187 111.10833Q75.725 111.51458 76.36562 111.51458Q77.11562 111.51458 77.64687 110.936455Q78.17812 110.35833 78.17812 109.42083Q78.17812 108.51458 77.6625 107.998955Q77.1625 107.467705 76.33437 107.467705Q75.83437 107.467705 75.4125 107.70208Q75.00625 107.936455 74.77187 108.29583L73.7875 108.17083L74.61562 103.76458L78.89687 103.76458L78.89687 104.76458L75.45937 104.76458L75.00625 107.07708Q75.77187 106.530205 76.61562 106.530205Q77.74062 106.530205 78.50625 107.311455Q79.2875 108.092705 79.2875 109.32708Q79.2875 110.48333 78.61562 111.342705Q77.7875 112.373955 76.36562 112.373955Q75.19375 112.373955 74.44375 111.717705Q73.70937 111.061455 73.6 109.98333ZM80.6 107.998955Q80.6 106.467705 80.9125 105.54583Q81.225 104.60833 81.83437 104.10833Q82.45937 103.60833 83.39687 103.60833Q84.08437 103.60833 84.6 103.88958Q85.13125 104.17083 85.475 104.70208Q85.81875 105.217705 86.00625 105.967705Q86.19375 106.717705 86.19375 107.998955Q86.19375 109.51458 85.88125 110.436455Q85.58437 111.35833 84.95937 111.873955Q84.35 112.373955 83.39687 112.373955Q82.1625 112.373955 81.44375 111.48333Q80.6 110.42083 80.6 107.998955ZM81.67812 107.998955Q81.67812 110.10833 82.17812 110.811455Q82.67812 111.51458 83.39687 111.51458Q84.13125 111.51458 84.61562 110.811455Q85.11562 110.10833 85.11562 107.998955Q85.11562 105.873955 84.61562 105.186455Q84.13125 104.48333 83.38125 104.48333Q82.6625 104.48333 82.225 105.092705Q81.67812 105.873955 81.67812 107.998955Z" fill-rule="nonzero"/><path fill="#000000" d="M298.60373 479.9L298.60373 471.30624L299.72873 471.30624L299.72873 479.9L298.60373 479.9ZM301.4006 479.9L301.4006 471.30624L304.6506 471.30624Q305.49435 471.30624 305.94748 471.38437Q306.5881 471.49374 307.00998 471.79062Q307.44748 472.0875 307.69748 472.61874Q307.9631 473.15 307.9631 473.79062Q307.9631 474.88437 307.25998 475.65Q306.57248 476.4 304.74435 476.4L302.54123 476.4L302.54123 479.9L301.4006 479.9ZM302.54123 475.4L304.75998 475.4Q305.86935 475.4 306.32248 474.99374Q306.79123 474.57187 306.79123 473.82187Q306.79123 473.29062 306.50998 472.91562Q306.24435 472.525 305.80685 472.4Q305.50998 472.32187 304.74435 472.32187L302.54123 472.32187L302.54123 475.4ZM311.85373 479.9L308.5256 471.30624L309.75998 471.30624L311.99435 477.55624Q312.25998 478.30624 312.44748 478.9625Q312.6506 478.25937 312.91623 477.55624L315.22873 471.30624L316.38498 471.30624L313.0256 479.9L311.85373 479.9ZM320.35373 479.9L320.35373 477.8375L316.63498 477.8375L316.63498 476.86874L320.55685 471.30624L321.41623 471.30624L321.41623 476.86874L322.57248 476.86874L322.57248 477.8375L321.41623 477.8375L321.41623 479.9L320.35373 479.9ZM320.35373 476.86874L320.35373 473.00937L317.66623 476.86874L320.35373 476.86874Z" fill-rule="nonzero"/><path fill="#000000" d="M620.6463 479.9L620.6463 471.30624L621.7713 471.30624L621.7713 479.9L620.6463 479.9ZM623.4432 479.9L623.4432 471.30624L626.6932 471.30624Q627.5369 471.30624 627.99005 471.38437Q628.6307 471.49374 629.05255 471.79062Q629.49005 472.0875 629.74005 472.61874Q630.0057 473.15 630.0057 473.79062Q630.0057 474.88437 629.30255 475.65Q628.61505 476.4 626.7869 476.4L624.5838 476.4L624.5838 479.9L623.4432 479.9ZM624.5838 475.4L626.80255 475.4Q627.9119 475.4 628.36505 474.99374Q628.8338 474.57187 628.8338 473.82187Q628.8338 473.29062 628.55255 472.91562Q628.2869 472.525 627.8494 472.4Q627.55255 472.32187 626.7869 472.32187L624.5838 472.32187L624.5838 475.4ZM633.8963 479.9L630.5682 471.30624L631.80255 471.30624L634.0369 477.55624Q634.30255 478.30624 634.49005 478.9625Q634.6932 478.25937 634.9588 477.55624L637.2713 471.30624L638.42755 471.30624L635.0682 479.9L633.8963 479.9ZM644.49005 473.41562L643.4432 473.49374Q643.30255 472.86874 643.05255 472.5875Q642.61505 472.13437 641.99005 472.13437Q641.49005 472.13437 641.0994 472.41562Q640.61505 472.79062 640.3182 473.49374Q640.0369 474.18124 640.0213 475.4625Q640.3963 474.88437 640.9432 474.60312Q641.5057 474.32187 642.11505 474.32187Q643.1619 474.32187 643.8963 475.10312Q644.6463 475.88437 644.6463 477.10312Q644.6463 477.91562 644.2869 478.61874Q643.9432 479.30624 643.3338 479.68124Q642.7244 480.04062 641.9588 480.04062Q640.6307 480.04062 639.80255 479.07187Q638.9744 478.10312 638.9744 475.88437Q638.9744 473.38437 639.8963 472.25937Q640.6932 471.275 642.05255 471.275Q643.0682 471.275 643.7088 471.85312Q644.36505 472.41562 644.49005 473.41562ZM640.1932 477.11874Q640.1932 477.66562 640.4119 478.16562Q640.6463 478.65 641.05255 478.91562Q641.4744 479.18124 641.9432 479.18124Q642.5994 479.18124 643.0838 478.65Q643.5682 478.10312 643.5682 477.18124Q643.5682 476.29062 643.0838 475.775Q642.61505 475.25937 641.8963 475.25937Q641.17755 475.25937 640.67755 475.775Q640.1932 476.29062 640.1932 477.11874Z" fill-rule="nonzero"/><path fill="#4285f4" d="M381.5 71.166664C381.5 70.61438 381.94772 70.166664 382.5 70.166664L392.5 70.166664C393.05228 70.166664 393.5 70.61438 393.5 71.166664L393.5 81.166664C393.5 81.71895 393.05228 82.166664 392.5 82.166664L382.5 82.166664C381.94772 82.166664 381.5 81.71895 381.5 81.166664Z" fill-rule="nonzero"/><path fill="#1a1a1a" d="M402.4375 80.166664L402.4375 71.572914L406.25 71.572914Q407.40625 71.572914 408.0 71.80729Q408.59375 72.041664 408.95312 72.635414Q409.3125 73.21354 409.3125 73.916664Q409.3125 74.83854 408.71875 75.46354Q408.125 76.08854 406.89062 76.260414Q407.34375 76.479164 407.57812 76.68229Q408.07812 77.135414 408.51562 77.822914L410.01562 80.166664L408.57812 80.166664L407.45312 78.385414Q406.95312 77.604164 406.625 77.197914Q406.3125 76.791664 406.04688 76.635414Q405.79688 76.46354 405.53125 76.385414Q405.34375 76.354164 404.90625 76.354164L403.57812 76.354164L403.57812 80.166664L402.4375 80.166664ZM403.57812 75.36979L406.03125 75.36979Q406.79688 75.36979 407.23438 75.21354Q407.6875 75.041664 407.90625 74.697914Q408.14062 74.33854 408.14062 73.916664Q408.14062 73.30729 407.6875 72.916664Q407.25 72.52604 406.29688 72.52604L403.57812 72.52604L403.57812 75.36979ZM415.54688 78.166664L416.64062 78.291664Q416.39062 79.24479 415.6875 79.77604Q414.98438 80.30729 413.90625 80.30729Q412.54688 80.30729 411.73438 79.46354Q410.9375 78.61979 410.9375 77.104164Q410.9375 75.541664 411.75 74.68229Q412.5625 73.80729 413.84375 73.80729Q415.09375 73.80729 415.875 74.65104Q416.67188 75.49479 416.67188 77.041664Q416.67188 77.135414 416.67188 77.322914L412.03125 77.322914Q412.09375 78.354164 412.60938 78.90104Q413.125 79.43229 413.90625 79.43229Q414.48438 79.43229 414.89062 79.135414Q415.3125 78.822914 415.54688 78.166664ZM412.09375 76.46354L415.5625 76.46354Q415.5 75.666664 415.17188 75.27604Q414.65625 74.666664 413.85938 74.666664Q413.125 74.666664 412.625 75.15104Q412.14062 75.635414 412.09375 76.46354ZM422.35938 79.40104Q421.76562 79.90104 421.21875 80.104164Q420.6875 80.30729 420.0625 80.30729Q419.03125 80.30729 418.48438 79.80729Q417.9375 79.30729 417.9375 78.52604Q417.9375 78.072914 418.14062 77.697914Q418.34375 77.30729 418.6875 77.08854Q419.03125 76.854164 419.45312 76.74479Q419.75 76.65104 420.39062 76.572914Q421.65625 76.43229 422.26562 76.21354Q422.26562 75.99479 422.26562 75.947914Q422.26562 75.291664 421.96875 75.02604Q421.5625 74.68229 420.76562 74.68229Q420.03125 74.68229 419.67188 74.947914Q419.3125 75.197914 419.14062 75.854164L418.10938 75.71354Q418.25 75.05729 418.57812 74.65104Q418.90625 74.24479 419.51562 74.02604Q420.125 73.80729 420.92188 73.80729Q421.71875 73.80729 422.21875 73.99479Q422.71875 74.18229 422.95312 74.46354Q423.1875 74.74479 423.28125 75.18229Q423.32812 75.447914 423.32812 76.15104L423.32812 77.55729Q423.32812 79.02604 423.39062 79.416664Q423.46875 79.80729 423.67188 80.166664L422.5625 80.166664Q422.40625 79.83854 422.35938 79.40104ZM422.26562 77.041664Q421.6875 77.27604 420.54688 77.447914Q419.89062 77.541664 419.625 77.666664Q419.35938 77.77604 419.20312 77.99479Q419.0625 78.21354 419.0625 78.49479Q419.0625 78.916664 419.375 79.197914Q419.70312 79.479164 420.3125 79.479164Q420.92188 79.479164 421.39062 79.21354Q421.875 78.947914 422.09375 78.479164Q422.26562 78.11979 422.26562 77.43229L422.26562 77.041664ZM429.32812 80.166664L429.32812 79.385414Q428.73438 80.30729 427.59375 80.30729Q426.84375 80.30729 426.21875 79.90104Q425.59375 79.479164 425.25 78.74479Q424.90625 78.010414 424.90625 77.05729Q424.90625 76.135414 425.21875 75.36979Q425.53125 74.604164 426.15625 74.21354Q426.78125 73.80729 427.54688 73.80729Q428.10938 73.80729 428.54688 74.041664Q428.98438 74.27604 429.26562 74.65104L429.26562 71.572914L430.3125 71.572914L430.3125 80.166664L429.32812 80.166664ZM426.0 77.05729Q426.0 78.260414 426.5 78.854164Q427.0 79.43229 427.6875 79.43229Q428.375 79.43229 428.85938 78.86979Q429.34375 78.30729 429.34375 77.15104Q429.34375 75.86979 428.84375 75.27604Q428.35938 74.68229 427.64062 74.68229Q426.9375 74.68229 426.46875 75.260414Q426.0 75.822914 426.0 77.05729Z" fill-rule="nonzero"/><path fill="#ea4335" d="M447.5 71.166664C447.5 70.61438 447.94772 70.166664 448.5 70.166664L458.5 70.166664C459.05228 70.166664 459.5 70.61438 459.5 71.166664L459.5 81.166664C459.5 81.71895 459.05228 82.166664 458.5 82.166664L448.5 82.166664C447.94772 82.166664 447.5 81.71895 447.5 81.166664Z" fill-rule="nonzero"/><path fill="#1a1a1a" d="M469.92188 80.166664L467.64062 71.572914L468.8125 71.572914L470.125 77.21354Q470.32812 78.08854 470.48438 78.96354Q470.8125 77.58854 470.875 77.36979L472.5 71.572914L473.875 71.572914L475.10938 75.916664Q475.5625 77.541664 475.78125 78.96354Q475.9375 78.15104 476.20312 77.08854L477.54688 71.572914L478.6875 71.572914L476.34375 80.166664L475.23438 80.166664L473.4375 73.61979Q473.20312 72.80729 473.15625 72.61979Q473.03125 73.197914 472.90625 73.61979L471.09375 80.166664L469.92188 80.166664ZM479.28125 80.166664L479.28125 73.947914L480.23438 73.947914L480.23438 74.885414Q480.59375 74.229164 480.89062 74.02604Q481.20312 73.80729 481.57812 73.80729Q482.10938 73.80729 482.65625 74.135414L482.29688 75.11979Q481.90625 74.885414 481.53125 74.885414Q481.17188 74.885414 480.89062 75.104164Q480.625 75.30729 480.51562 75.68229Q480.32812 76.24479 480.32812 76.90104L480.32812 80.166664L479.28125 80.166664ZM483.29688 72.791664L483.29688 71.572914L484.35938 71.572914L484.35938 72.791664L483.29688 72.791664ZM483.29688 80.166664L483.29688 73.947914L484.35938 73.947914L484.35938 80.166664L483.29688 80.166664ZM488.59375 79.229164L488.75 80.15104Q488.29688 80.24479 487.95312 80.24479Q487.375 80.24479 487.0625 80.072914Q486.75 79.885414 486.60938 79.58854Q486.48438 79.291664 486.48438 78.33854L486.48438 74.760414L485.71875 74.760414L485.71875 73.947914L486.48438 73.947914L486.48438 72.40104L487.53125 71.77604L487.53125 73.947914L488.59375 73.947914L488.59375 74.760414L487.53125 74.760414L487.53125 78.40104Q487.53125 78.854164 487.57812 78.979164Q487.64062 79.104164 487.76562 79.18229Q487.89062 79.260414 488.125 79.260414Q488.3125 79.260414 488.59375 79.229164ZM493.54688 78.166664L494.64062 78.291664Q494.39062 79.24479 493.6875 79.77604Q492.98438 80.30729 491.90625 80.30729Q490.54688 80.30729 489.73438 79.46354Q488.9375 78.61979 488.9375 77.104164Q488.9375 75.541664 489.75 74.68229Q490.5625 73.80729 491.84375 73.80729Q493.09375 73.80729 493.875 74.65104Q494.67188 75.49479 494.67188 77.041664Q494.67188 77.135414 494.67188 77.322914L490.03125 77.322914Q490.09375 78.354164 490.60938 78.90104Q491.125 79.43229 491.90625 79.43229Q492.48438 79.43229 492.89062 79.135414Q493.3125 78.822914 493.54688 78.166664ZM490.09375 76.46354L493.5625 76.46354Q493.5 75.666664 493.17188 75.27604Q492.65625 74.666664 491.85938 74.666664Q491.125 74.666664 490.625 75.15104Q490.14062 75.635414 490.09375 76.46354Z" fill-rule="nonzero"/><path fill="#757575" d="M228.6875 46.1L228.6875 33.475L223.96875 33.475L223.96875 31.787498L235.3125 31.787498L235.3125 33.475L230.57812 33.475L230.57812 46.1L228.6875 46.1ZM236.8125 46.1L236.8125 31.787498L238.57812 31.787498L238.57812 36.9125Q239.8125 35.490623 241.6875 35.490623Q242.82812 35.490623 243.67188 35.94375Q244.53125 36.396873 244.89062 37.209373Q245.26562 38.00625 245.26562 39.521873L245.26562 46.1L243.51562 46.1L243.51562 39.521873Q243.51562 38.209373 242.9375 37.615623Q242.35938 37.00625 241.32812 37.00625Q240.54688 37.00625 239.84375 37.4125Q239.15625 37.81875 238.85938 38.521873Q238.57812 39.209373 238.57812 40.428123L238.57812 46.1L236.8125 46.1ZM247.79688 46.1L247.79688 35.725L249.375 35.725L249.375 37.303123Q249.98438 36.19375 250.5 35.85Q251.01562 35.490623 251.625 35.490623Q252.51562 35.490623 253.4375 36.053123L252.82812 37.69375Q252.1875 37.303123 251.54688 37.303123Q250.96875 37.303123 250.5 37.6625Q250.04688 38.00625 249.84375 38.615623Q249.5625 39.553123 249.5625 40.6625L249.5625 46.1L247.79688 46.1ZM254.17188 40.9125Q254.17188 38.0375 255.76562 36.646873Q257.10938 35.490623 259.03125 35.490623Q261.17188 35.490623 262.51562 36.896873Q263.875 38.303123 263.875 40.771873Q263.875 42.771873 263.28125 43.928123Q262.6875 45.06875 261.53125 45.709373Q260.39062 46.334373 259.03125 46.334373Q256.84375 46.334373 255.5 44.94375Q254.17188 43.5375 254.17188 40.9125ZM255.96875 40.9125Q255.96875 42.9125 256.82812 43.896873Q257.70312 44.88125 259.03125 44.88125Q260.34375 44.88125 261.20312 43.896873Q262.07812 42.896873 262.07812 40.85Q262.07812 38.928123 261.20312 37.94375Q260.32812 36.94375 259.03125 36.94375Q257.70312 36.94375 256.82812 37.94375Q255.96875 38.928123 255.96875 40.9125ZM272.60938 46.1L272.60938 44.56875Q271.40625 46.334373 269.32812 46.334373Q268.40625 46.334373 267.60938 45.990623Q266.8125 45.63125 266.42188 45.1Q266.04688 44.56875 265.89062 43.7875Q265.78125 43.271873 265.78125 42.146873L265.78125 35.725L267.53125 35.725L267.53125 41.475Q267.53125 42.85 267.64062 43.334373Q267.8125 44.021873 268.34375 44.428123Q268.89062 44.81875 269.67188 44.81875Q270.46875 44.81875 271.15625 44.4125Q271.85938 44.00625 272.14062 43.31875Q272.4375 42.615623 272.4375 41.2875L272.4375 35.725L274.1875 35.725L274.1875 46.1L272.60938 46.1ZM276.5 46.959373L278.20312 47.209373Q278.3125 48.00625 278.79688 48.365623Q279.45312 48.85 280.59375 48.85Q281.8125 48.85 282.46875 48.365623Q283.14062 47.88125 283.375 47.00625Q283.51562 46.459373 283.5 44.740623Q282.34375 46.1 280.625 46.1Q278.48438 46.1 277.3125 44.553123Q276.14062 43.00625 276.14062 40.85Q276.14062 39.365623 276.67188 38.115623Q277.21875 36.865623 278.23438 36.178123Q279.26562 35.490623 280.64062 35.490623Q282.46875 35.490623 283.67188 36.975L283.67188 35.725L285.28125 35.725L285.28125 44.69375Q285.28125 47.115623 284.78125 48.115623Q284.29688 49.13125 283.21875 49.709373Q282.15625 50.303123 280.59375 50.303123Q278.75 50.303123 277.59375 49.475Q276.45312 48.646873 276.5 46.959373ZM277.95312 40.725Q277.95312 42.771873 278.76562 43.709373Q279.57812 44.646873 280.79688 44.646873Q282.0 44.646873 282.8125 43.709373Q283.64062 42.771873 283.64062 40.7875Q283.64062 38.88125 282.79688 37.9125Q281.95312 36.94375 280.76562 36.94375Q279.59375 36.94375 278.76562 37.896873Q277.95312 38.85 277.95312 40.725ZM287.8125 46.1L287.8125 31.787498L289.57812 31.787498L289.57812 36.9125Q290.8125 35.490623 292.6875 35.490623Q293.82812 35.490623 294.67188 35.94375Q295.53125 36.396873 295.89062 37.209373Q296.26562 38.00625 296.26562 39.521873L296.26562 46.1L294.51562 46.1L294.51562 39.521873Q294.51562 38.209373 293.9375 37.615623Q293.35938 37.00625 292.32812 37.00625Q291.54688 37.00625 290.84375 37.4125Q290.15625 37.81875 289.85938 38.521873Q289.57812 39.209373 289.57812 40.428123L289.57812 46.1L287.8125 46.1ZM298.8125 50.06875L298.8125 35.725L300.42188 35.725L300.42188 37.06875Q300.98438 36.2875 301.6875 35.896873Q302.40625 35.490623 303.42188 35.490623Q304.75 35.490623 305.76562 36.178123Q306.78125 36.865623 307.29688 38.115623Q307.82812 39.35 307.82812 40.834373Q307.82812 42.428123 307.25 43.709373Q306.6875 44.975 305.59375 45.6625Q304.5 46.334373 303.29688 46.334373Q302.42188 46.334373 301.71875 45.959373Q301.03125 45.584373 300.57812 45.021873L300.57812 50.06875L298.8125 50.06875ZM300.40625 40.975Q300.40625 42.975 301.21875 43.928123Q302.03125 44.88125 303.1875 44.88125Q304.35938 44.88125 305.1875 43.896873Q306.03125 42.9125 306.03125 40.81875Q306.03125 38.85 305.20312 37.865623Q304.39062 36.865623 303.26562 36.865623Q302.14062 36.865623 301.26562 37.928123Q300.40625 38.975 300.40625 40.975ZM316.60938 46.1L316.60938 44.56875Q315.40625 46.334373 313.32812 46.334373Q312.40625 46.334373 311.60938 45.990623Q310.8125 45.63125 310.42188 45.1Q310.04688 44.56875 309.89062 43.7875Q309.78125 43.271873 309.78125 42.146873L309.78125 35.725L311.53125 35.725L311.53125 41.475Q311.53125 42.85 311.64062 43.334373Q311.8125 44.021873 312.34375 44.428123Q312.89062 44.81875 313.67188 44.81875Q314.46875 44.81875 315.15625 44.4125Q315.85938 44.00625 316.14062 43.31875Q316.4375 42.615623 316.4375 41.2875L316.4375 35.725L318.1875 35.725L318.1875 46.1L316.60938 46.1ZM324.65625 44.521873L324.90625 46.084373Q324.17188 46.240623 323.57812 46.240623Q322.625 46.240623 322.09375 45.94375Q321.57812 45.63125 321.35938 45.146873Q321.14062 44.646873 321.14062 43.06875L321.14062 37.1L319.85938 37.1L319.85938 35.725L321.14062 35.725L321.14062 33.1625L322.89062 32.1L322.89062 35.725L324.65625 35.725L324.65625 37.1L322.89062 37.1L322.89062 43.1625Q322.89062 43.9125 322.98438 44.13125Q323.07812 44.334373 323.28125 44.475Q323.5 44.6 323.89062 44.6Q324.17188 44.6 324.65625 44.521873ZM332.17188 40.9125Q332.17188 38.0375 333.76562 36.646873Q335.10938 35.490623 337.03125 35.490623Q339.17188 35.490623 340.51562 36.896873Q341.875 38.303123 341.875 40.771873Q341.875 42.771873 341.28125 43.928123Q340.6875 45.06875 339.53125 45.709373Q338.39062 46.334373 337.03125 46.334373Q334.84375 46.334373 333.5 44.94375Q332.17188 43.5375 332.17188 40.9125ZM333.96875 40.9125Q333.96875 42.9125 334.82812 43.896873Q335.70312 44.88125 337.03125 44.88125Q338.34375 44.88125 339.20312 43.896873Q340.07812 42.896873 340.07812 40.85Q340.07812 38.928123 339.20312 37.94375Q338.32812 36.94375 337.03125 36.94375Q335.70312 36.94375 334.82812 37.94375Q333.96875 38.928123 333.96875 40.9125ZM344.23438 46.1L344.23438 37.1L342.6875 37.1L342.6875 35.725L344.23438 35.725L344.23438 34.63125Q344.23438 33.584373 344.42188 33.06875Q344.67188 32.38125 345.3125 31.959373Q345.95312 31.537498 347.10938 31.537498Q347.85938 31.537498 348.75 31.709373L348.48438 33.240623Q347.9375 33.146873 347.45312 33.146873Q346.65625 33.146873 346.3125 33.490623Q345.98438 33.834373 345.98438 34.771873L345.98438 35.725L348.01562 35.725L348.01562 37.1L345.98438 37.1L345.98438 46.1L344.23438 46.1ZM356.35938 46.1L356.35938 31.787498L358.26562 31.787498L358.26562 46.1L356.35938 46.1ZM362.04688 46.1L362.04688 31.787498L367.4375 31.787498Q368.875 31.787498 369.625 31.912498Q370.67188 32.1 371.39062 32.6Q372.10938 33.084373 372.53125 33.975Q372.96875 34.865623 372.96875 35.928123Q372.96875 37.75625 371.79688 39.021873Q370.64062 40.271873 367.60938 40.271873L363.9375 40.271873L363.9375 46.1L362.04688 46.1ZM363.9375 38.584373L367.64062 38.584373Q369.46875 38.584373 370.23438 37.9125Q371.01562 37.225 371.01562 35.975Q371.01562 35.084373 370.5625 34.44375Q370.10938 33.803123 369.375 33.6Q368.89062 33.475 367.59375 33.475L363.9375 33.475L363.9375 38.584373ZM379.14062 46.1L373.59375 31.787498L375.64062 31.787498L379.35938 42.178123Q379.8125 43.428123 380.10938 44.521873Q380.4375 43.35 380.89062 42.178123L384.75 31.787498L386.6875 31.787498L381.07812 46.1L379.14062 46.1ZM392.96875 46.1L392.96875 42.678123L386.75 42.678123L386.75 41.053123L393.28125 31.787498L394.71875 31.787498L394.71875 41.053123L396.65625 41.053123L396.65625 42.678123L394.71875 42.678123L394.71875 46.1L392.96875 46.1ZM392.96875 41.053123L392.96875 34.6L388.48438 41.053123L392.96875 41.053123ZM407.70312 46.1L403.75 35.725L405.60938 35.725L407.84375 41.94375Q408.20312 42.94375 408.5 44.021873Q408.73438 43.209373 409.15625 42.053123L411.45312 35.725L413.26562 35.725L409.34375 46.1L407.70312 46.1ZM414.10938 43.00625L415.85938 42.725Q416.0 43.771873 416.67188 44.334373Q417.34375 44.88125 418.54688 44.88125Q419.75 44.88125 420.32812 44.396873Q420.92188 43.896873 420.92188 43.240623Q420.92188 42.646873 420.40625 42.303123Q420.04688 42.06875 418.60938 41.709373Q416.67188 41.209373 415.92188 40.865623Q415.1875 40.50625 414.79688 39.88125Q414.40625 39.240623 414.40625 38.475Q414.40625 37.7875 414.71875 37.19375Q415.04688 36.6 415.59375 36.209373Q416.0 35.9125 416.70312 35.709373Q417.42188 35.490623 418.23438 35.490623Q419.45312 35.490623 420.375 35.85Q421.29688 36.19375 421.73438 36.803123Q422.17188 37.396873 422.34375 38.396873L420.625 38.63125Q420.5 37.834373 419.9375 37.396873Q419.375 36.94375 418.35938 36.94375Q417.14062 36.94375 416.625 37.35Q416.10938 37.740623 416.10938 38.271873Q416.10938 38.615623 416.32812 38.896873Q416.53125 39.178123 417.0 39.365623Q417.26562 39.459373 418.54688 39.803123Q420.42188 40.303123 421.15625 40.63125Q421.89062 40.94375 422.3125 41.553123Q422.73438 42.146873 422.73438 43.053123Q422.73438 43.928123 422.21875 44.709373Q421.70312 45.490623 420.73438 45.9125Q419.76562 46.334373 418.54688 46.334373Q416.53125 46.334373 415.46875 45.490623Q414.40625 44.646873 414.10938 43.00625ZM431.35938 46.1L431.35938 31.787498L433.26562 31.787498L433.26562 46.1L431.35938 46.1ZM437.04688 46.1L437.04688 31.787498L442.4375 31.787498Q443.875 31.787498 444.625 31.912498Q445.67188 32.1 446.39062 32.6Q447.10938 33.084373 447.53125 33.975Q447.96875 34.865623 447.96875 35.928123Q447.96875 37.75625 446.79688 39.021873Q445.64062 40.271873 442.60938 40.271873L438.9375 40.271873L438.9375 46.1L437.04688 46.1ZM438.9375 38.584373L442.64062 38.584373Q444.46875 38.584373 445.23438 37.9125Q446.01562 37.225 446.01562 35.975Q446.01562 35.084373 445.5625 34.44375Q445.10938 33.803123 444.375 33.6Q443.89062 33.475 442.59375 33.475L438.9375 33.475L438.9375 38.584373ZM454.14062 46.1L448.59375 31.787498L450.64062 31.787498L454.35938 42.178123Q454.8125 43.428123 455.10938 44.521873Q455.4375 43.35 455.89062 42.178123L459.75 31.787498L461.6875 31.787498L456.07812 46.1L454.14062 46.1ZM471.45312 35.2875L469.70312 35.428123Q469.46875 34.396873 469.04688 33.928123Q468.32812 33.1625 467.28125 33.1625Q466.4375 33.1625 465.8125 33.63125Q464.98438 34.240623 464.5 35.4125Q464.01562 36.56875 464.0 38.709373Q464.64062 37.75625 465.54688 37.2875Q466.46875 36.81875 467.48438 36.81875Q469.23438 36.81875 470.46875 38.115623Q471.70312 39.396873 471.70312 41.44375Q471.70312 42.803123 471.125 43.959373Q470.54688 45.115623 469.53125 45.740623Q468.51562 46.35 467.21875 46.35Q465.03125 46.35 463.64062 44.740623Q462.25 43.115623 462.25 39.396873Q462.25 35.25625 463.78125 33.365623Q465.125 31.724998 467.39062 31.724998Q469.07812 31.724998 470.15625 32.678123Q471.23438 33.615623 471.45312 35.2875ZM464.28125 41.459373Q464.28125 42.365623 464.65625 43.19375Q465.04688 44.021873 465.73438 44.459373Q466.4375 44.896873 467.1875 44.896873Q468.3125 44.896873 469.10938 44.00625Q469.90625 43.1 469.90625 41.553123Q469.90625 40.06875 469.10938 39.225Q468.32812 38.365623 467.125 38.365623Q465.9375 38.365623 465.10938 39.225Q464.28125 40.06875 464.28125 41.459373ZM481.73438 46.1L478.5625 35.725L480.375 35.725L482.03125 41.709373L482.64062 43.94375Q482.6875 43.771873 483.17188 41.803123L484.82812 35.725L486.64062 35.725L488.1875 41.740623L488.70312 43.725L489.29688 41.725L491.07812 35.725L492.78125 35.725L489.54688 46.1L487.71875 46.1L486.0625 39.88125L485.67188 38.115623L483.5625 46.1L481.73438 46.1ZM493.82812 33.803123L493.82812 31.787498L495.59375 31.787498L495.59375 33.803123L493.82812 33.803123ZM493.82812 46.1L493.82812 35.725L495.59375 35.725L495.59375 46.1L493.82812 46.1ZM501.65625 44.521873L501.90625 46.084373Q501.17188 46.240623 500.57812 46.240623Q499.625 46.240623 499.09375 45.94375Q498.57812 45.63125 498.35938 45.146873Q498.14062 44.646873 498.14062 43.06875L498.14062 37.1L496.85938 37.1L496.85938 35.725L498.14062 35.725L498.14062 33.1625L499.89062 32.1L499.89062 35.725L501.65625 35.725L501.65625 37.1L499.89062 37.1L499.89062 43.1625Q499.89062 43.9125 499.98438 44.13125Q500.07812 44.334373 500.28125 44.475Q500.5 44.6 500.89062 44.6Q501.17188 44.6 501.65625 44.521873ZM503.8125 46.1L503.8125 31.787498L505.57812 31.787498L505.57812 36.9125Q506.8125 35.490623 508.6875 35.490623Q509.82812 35.490623 510.67188 35.94375Q511.53125 36.396873 511.89062 37.209373Q512.2656 38.00625 512.2656 39.521873L512.2656 46.1L510.51562 46.1L510.51562 39.521873Q510.51562 38.209373 509.9375 37.615623Q509.35938 37.00625 508.32812 37.00625Q507.54688 37.00625 506.84375 37.4125Q506.15625 37.81875 505.85938 38.521873Q505.57812 39.209373 505.57812 40.428123L505.57812 46.1L503.8125 46.1ZM522.7344 46.1L519.5625 35.725L521.375 35.725L523.03125 41.709373L523.6406 43.94375Q523.6875 43.771873 524.1719 41.803123L525.8281 35.725L527.6406 35.725L529.1875 41.740623L529.7031 43.725L530.2969 41.725L532.0781 35.725L533.78125 35.725L530.5469 46.1L528.71875 46.1L527.0625 39.88125L526.6719 38.115623L524.5625 46.1L522.7344 46.1ZM534.8281 33.803123L534.8281 31.787498L536.59375 31.787498L536.59375 33.803123L534.8281 33.803123ZM534.8281 46.1L534.8281 35.725L536.59375 35.725L536.59375 46.1L534.8281 46.1ZM538.8125 46.1L538.8125 35.725L540.40625 35.725L540.40625 37.209373Q541.5469 35.490623 543.7031 35.490623Q544.6406 35.490623 545.4219 35.834373Q546.21875 36.1625 546.6094 36.709373Q547.0 37.25625 547.15625 38.00625Q547.25 38.50625 547.25 39.725L547.25 46.1L545.4844 46.1L545.4844 39.7875Q545.4844 38.709373 545.28125 38.178123Q545.0781 37.646873 544.5469 37.334373Q544.03125 37.021873 543.3281 37.021873Q542.2031 37.021873 541.3906 37.740623Q540.5781 38.44375 540.5781 40.428123L540.5781 46.1L538.8125 46.1ZM556.5469 46.1L556.5469 44.7875Q555.5625 46.334373 553.6406 46.334373Q552.40625 46.334373 551.3594 45.646873Q550.3281 44.959373 549.75 43.740623Q549.1875 42.521873 549.1875 40.928123Q549.1875 39.365623 549.7031 38.1Q550.21875 36.834373 551.25 36.1625Q552.2969 35.490623 553.5625 35.490623Q554.5 35.490623 555.2344 35.896873Q555.96875 36.2875 556.4375 36.9125L556.4375 31.787498L558.1719 31.787498L558.1719 46.1L556.5469 46.1ZM550.9844 40.928123Q550.9844 42.9125 551.8281 43.896873Q552.6719 44.88125 553.8125 44.88125Q554.96875 44.88125 555.7656 43.94375Q556.5781 43.00625 556.5781 41.06875Q556.5781 38.94375 555.75 37.94375Q554.9375 36.94375 553.7344 36.94375Q552.5625 36.94375 551.7656 37.9125Q550.9844 38.865623 550.9844 40.928123ZM560.1719 40.9125Q560.1719 38.0375 561.7656 36.646873Q563.1094 35.490623 565.03125 35.490623Q567.1719 35.490623 568.5156 36.896873Q569.875 38.303123 569.875 40.771873Q569.875 42.771873 569.28125 43.928123Q568.6875 45.06875 567.53125 45.709373Q566.3906 46.334373 565.03125 46.334373Q562.84375 46.334373 561.5 44.94375Q560.1719 43.5375 560.1719 40.9125ZM561.96875 40.9125Q561.96875 42.9125 562.8281 43.896873Q563.7031 44.88125 565.03125 44.88125Q566.34375 44.88125 567.2031 43.896873Q568.0781 42.896873 568.0781 40.85Q568.0781 38.928123 567.2031 37.94375Q566.3281 36.94375 565.03125 36.94375Q563.7031 36.94375 562.8281 37.94375Q561.96875 38.928123 561.96875 40.9125ZM573.7344 46.1L570.5625 35.725L572.375 35.725L574.03125 41.709373L574.6406 43.94375Q574.6875 43.771873 575.1719 41.803123L576.8281 35.725L578.6406 35.725L580.1875 41.740623L580.7031 43.725L581.2969 41.725L583.0781 35.725L584.78125 35.725L581.5469 46.1L579.71875 46.1L578.0625 39.88125L577.6719 38.115623L575.5625 46.1L573.7344 46.1ZM591.1094 43.00625L592.8594 42.725Q593.0 43.771873 593.6719 44.334373Q594.34375 44.88125 595.5469 44.88125Q596.75 44.88125 597.3281 44.396873Q597.9219 43.896873 597.9219 43.240623Q597.9219 42.646873 597.40625 42.303123Q597.0469 42.06875 595.6094 41.709373Q593.6719 41.209373 592.9219 40.865623Q592.1875 40.50625 591.7969 39.88125Q591.40625 39.240623 591.40625 38.475Q591.40625 37.7875 591.71875 37.19375Q592.0469 36.6 592.59375 36.209373Q593.0 35.9125 593.7031 35.709373Q594.4219 35.490623 595.2344 35.490623Q596.4531 35.490623 597.375 35.85Q598.2969 36.19375 598.7344 36.803123Q599.1719 37.396873 599.34375 38.396873L597.625 38.63125Q597.5 37.834373 596.9375 37.396873Q596.375 36.94375 595.3594 36.94375Q594.1406 36.94375 593.625 37.35Q593.1094 37.740623 593.1094 38.271873Q593.1094 38.615623 593.3281 38.896873Q593.53125 39.178123 594.0 39.365623Q594.2656 39.459373 595.5469 39.803123Q597.4219 40.303123 598.15625 40.63125Q598.8906 40.94375 599.3125 41.553123Q599.7344 42.146873 599.7344 43.053123Q599.7344 43.928123 599.21875 44.709373Q598.7031 45.490623 597.7344 45.9125Q596.7656 46.334373 595.5469 46.334373Q593.53125 46.334373 592.46875 45.490623Q591.40625 44.646873 591.1094 43.00625ZM601.8281 33.803123L601.8281 31.787498L603.59375 31.787498L603.59375 33.803123L601.8281 33.803123ZM601.8281 46.1L601.8281 35.725L603.59375 35.725L603.59375 46.1L601.8281 46.1ZM604.8906 46.1L604.8906 44.678123L611.5 37.1Q610.375 37.146873 609.5156 37.146873L605.28125 37.146873L605.28125 35.725L613.7656 35.725L613.7656 36.896873L608.1406 43.475L607.0625 44.678123Q608.2344 44.584373 609.28125 44.584373L614.0781 44.584373L614.0781 46.1L604.8906 46.1ZM622.9219 42.75625L624.7344 42.990623Q624.3125 44.56875 623.1406 45.459373Q621.9844 46.334373 620.1719 46.334373Q617.90625 46.334373 616.5625 44.94375Q615.2344 43.5375 615.2344 41.00625Q615.2344 38.38125 616.5781 36.94375Q617.9219 35.490623 620.0781 35.490623Q622.15625 35.490623 623.46875 36.9125Q624.7969 38.31875 624.7969 40.896873Q624.7969 41.053123 624.78125 41.365623L617.0469 41.365623Q617.1406 43.06875 618.0156 43.975Q618.8906 44.88125 620.1875 44.88125Q621.15625 44.88125 621.8281 44.38125Q622.5156 43.865623 622.9219 42.75625ZM617.1406 39.9125L622.9375 39.9125Q622.8281 38.615623 622.28125 37.959373Q621.4375 36.94375 620.09375 36.94375Q618.8906 36.94375 618.0625 37.75625Q617.2344 38.553123 617.1406 39.9125ZM632.34375 42.31875L634.09375 42.084373Q634.40625 43.584373 635.125 44.240623Q635.8594 44.896873 636.90625 44.896873Q638.1406 44.896873 638.9844 44.0375Q639.84375 43.178123 639.84375 41.9125Q639.84375 40.69375 639.0469 39.9125Q638.2656 39.13125 637.0469 39.13125Q636.5469 39.13125 635.8125 39.31875L636.0 37.771873Q636.1719 37.803123 636.28125 37.803123Q637.40625 37.803123 638.2969 37.225Q639.2031 36.63125 639.2031 35.4125Q639.2031 34.44375 638.5469 33.803123Q637.8906 33.1625 636.8594 33.1625Q635.84375 33.1625 635.15625 33.81875Q634.46875 34.459373 634.28125 35.740623L632.5156 35.428123Q632.84375 33.6625 633.9844 32.69375Q635.125 31.724998 636.8281 31.724998Q638.0 31.724998 638.9844 32.225Q639.96875 32.725 640.4844 33.6Q641.0156 34.475 641.0156 35.44375Q641.0156 36.365623 640.5156 37.13125Q640.0156 37.896873 639.0469 38.35Q640.3125 38.63125 641.0156 39.56875Q641.71875 40.490623 641.71875 41.865623Q641.71875 43.740623 640.34375 45.053123Q638.9844 46.35 636.8906 46.35Q635.0 46.35 633.75 45.225Q632.5156 44.1 632.34375 42.31875ZM652.5625 44.4125L652.5625 46.1L643.1094 46.1Q643.09375 45.459373 643.3125 44.88125Q643.6719 43.9125 644.46875 42.975Q645.2656 42.0375 646.7656 40.803123Q649.1094 38.896873 649.9219 37.7875Q650.75 36.6625 650.75 35.6625Q650.75 34.615623 650.0 33.896873Q649.25 33.178123 648.0469 33.178123Q646.78125 33.178123 646.0156 33.94375Q645.25 34.709373 645.25 36.053123L643.4375 35.865623Q643.625 33.85 644.8281 32.7875Q646.0469 31.724998 648.09375 31.724998Q650.1406 31.724998 651.34375 32.865623Q652.5469 34.00625 652.5469 35.69375Q652.5469 36.553123 652.1875 37.396873Q651.84375 38.225 651.03125 39.146873Q650.21875 40.053123 648.3281 41.6625Q646.7344 42.990623 646.28125 43.459373Q645.84375 43.928123 645.5469 44.4125L652.5625 44.4125Z" fill-rule="nonzero"/></svg>