<svg version="1.1" viewBox="0.0 0.0 600.0 371.0" fill="none" stroke="none" stroke-linecap="square" stroke-miterlimit="10" width="600" height="371" xmlns:xlink="http://www.w3.org/1999/xlink" xmlns="http://www.w3.org/2000/svg"><path fill="#ffffff" d="M0 0L600.0 0L600.0 371.0L0 371.0L0 0Z" fill-rule="nonzero"/><path stroke="#cccccc" stroke-width="1.0" stroke-linecap="butt" d="M92.5 271.5L581.5 271.5" fill-rule="nonzero"/><path stroke="#cccccc" stroke-width="1.0" stroke-linecap="butt" d="M92.5 201.5L581.5 201.5" fill-rule="nonzero"/><path stroke="#cccccc" stroke-width="1.0" stroke-linecap="butt" d="M92.5 131.5L581.5 131.5" fill-rule="nonzero"/><path stroke="#cccccc" stroke-width="1.0" stroke-linecap="butt" d="M92.5 62.5L581.5 62.5" fill-rule="nonzero"/><clipPath id="id_0"><path d="M92.55 62.416668L581.45 62.416668L581.45 271.08334L92.55 271.08334L92.55 62.416668Z" clip-rule="nonzero"/></clipPath><path stroke="#4285f4" stroke-width="2.0" stroke-linecap="butt" clip-path="url(#id_0)" d="M141.44 105.005936L239.22 234.64302L337.0 232.33554L434.78 230.82202L532.56 240.54463" fill-rule="nonzero"/><path stroke="#db4437" stroke-width="2.0" stroke-linecap="butt" clip-path="url(#id_0)" d="M141.44 98.79979L239.22 215.99147L337.0 196.52791L434.78 200.02669L532.56 201.26028" fill-rule="nonzero"/><path fill="#000000" fill-opacity="0.0" clip-path="url(#id_0)" d="M144.44 105.005936C144.44 106.66279 143.09685 108.005936 141.44 108.005936C139.78314 108.005936 138.44 106.66279 138.44 105.005936C138.44 103.34908 139.78314 102.005936 141.44 102.005936C143.09685 102.005936 144.44 103.34908 144.44 105.005936Z" fill-rule="nonzero"/><path fill="#000000" fill-opacity="0.0" clip-path="url(#id_0)" d="M242.22 234.64302C242.22 236.29988 240.87686 237.64302 239.22 237.64302C237.56314 237.64302 236.22 236.29988 236.22 234.64302C236.22 232.98618 237.56314 231.64302 239.22 231.64302C240.87686 231.64302 242.22 232.98618 242.22 234.64302Z" fill-rule="nonzero"/><path fill="#000000" fill-opacity="0.0" clip-path="url(#id_0)" d="M340.0 232.33554C340.0 233.99239 338.65686 235.33554 337.0 235.33554C335.34314 235.33554 334.0 233.99239 334.0 232.33554C334.0 230.67868 335.34314 229.33554 337.0 229.33554C338.65686 229.33554 340.0 230.67868 340.0 232.33554Z" fill-rule="nonzero"/><path fill="#000000" fill-opacity="0.0" clip-path="url(#id_0)" d="M437.78 230.82202C437.78 232.47887 436.43686 233.82202 434.78 233.82202C433.12314 233.82202 431.78 232.47887 431.78 230.82202C431.78 229.16516 433.12314 227.82202 434.78 227.82202C436.43686 227.82202 437.78 229.16516 437.78 230.82202Z" fill-rule="nonzero"/><path fill="#000000" fill-opacity="0.0" clip-path="url(#id_0)" d="M535.56 240.54463C535.56 242.20149 534.21686 243.54463 532.56 243.54463C530.90314 243.54463 529.56 242.20149 529.56 240.54463C529.56 238.88779 530.90314 237.54463 532.56 237.54463C534.21686 237.54463 535.56 238.88779 535.56 240.54463Z" fill-rule="nonzero"/><path fill="#000000" fill-opacity="0.0" clip-path="url(#id_0)" d="M144.44 98.79979C144.44 100.45664 143.09685 101.79979 141.44 101.79979C139.78314 101.79979 138.44 100.45664 138.44 98.79979C138.44 97.14294 139.78314 95.79979 141.44 95.79979C143.09685 95.79979 144.44 97.14294 144.44 98.79979Z" fill-rule="nonzero"/><path fill="#000000" fill-opacity="0.0" clip-path="url(#id_0)" d="M242.22 215.99147C242.22 217.64833 240.87686 218.99147 239.22 218.99147C237.56314 218.99147 236.22 217.64833 236.22 215.99147C236.22 214.33461 237.56314 212.99147 239.22 212.99147C240.87686 212.99147 242.22 214.33461 242.22 215.99147Z" fill-rule="nonzero"/><path fill="#000000" fill-opacity="0.0" clip-path="url(#id_0)" d="M340.0 196.52791C340.0 198.18475 338.65686 199.52791 337.0 199.52791C335.34314 199.52791 334.0 198.18475 334.0 196.52791C334.0 194.87105 335.34314 193.52791 337.0 193.52791C338.65686 193.52791 340.0 194.87105 340.0 196.52791Z" fill-rule="nonzero"/><path fill="#000000" fill-opacity="0.0" clip-path="url(#id_0)" d="M437.78 200.02669C437.78 201.68353 436.43686 203.02669 434.78 203.02669C433.12314 203.02669 431.78 201.68353 431.78 200.02669C431.78 198.36983 433.12314 197.02669 434.78 197.02669C436.43686 197.02669 437.78 198.36983 437.78 200.02669Z" fill-rule="nonzero"/><path fill="#000000" fill-opacity="0.0" clip-path="url(#id_0)" d="M535.56 201.26028C535.56 202.91714 534.21686 204.26028 532.56 204.26028C530.90314 204.26028 529.56 202.91714 529.56 201.26028C529.56 199.60342 530.90314 198.26028 532.56 198.26028C534.21686 198.26028 535.56 199.60342 535.56 201.26028Z" fill-rule="nonzero"/><path fill="#424242" d="M292.04688 322.08334L290.92188 322.08334L286.625 315.50522L286.625 322.08334L285.48438 322.08334L285.48438 313.5521L286.625 313.5521L290.92188 320.16147L290.92188 313.5521L292.04688 313.5521L292.04688 322.08334ZM298.23438 321.45834Q297.60938 322.20834 296.375 322.20834Q295.35938 322.20834 294.82812 321.6146Q294.29688 321.02084 294.29688 319.8646L294.29688 315.7396L295.375 315.7396L295.375 319.83334Q295.375 321.28647 296.54688 321.28647Q297.79688 321.28647 298.20312 320.34897L298.20312 315.7396L299.29688 315.7396L299.29688 322.08334L298.26562 322.08334L298.23438 321.45834ZM302.34375 315.7396L302.375 316.44272Q303.0625 315.63022 304.25 315.63022Q305.57812 315.63022 306.0625 316.64584Q306.375 316.19272 306.875 315.91147Q307.39062 315.63022 308.07812 315.63022Q310.17188 315.63022 310.20312 317.83334L310.20312 322.08334L309.125 322.08334L309.125 317.89584Q309.125 317.22397 308.8125 316.89584Q308.5 316.5521 307.76562 316.5521Q307.15625 316.5521 306.75 316.91147Q306.35938 317.27084 306.29688 317.88022L306.29688 322.08334L305.21875 322.08334L305.21875 317.9271Q305.21875 316.5521 303.85938 316.5521Q302.79688 316.5521 302.40625 317.45834L302.40625 322.08334L301.3125 322.08334L301.3125 315.7396L302.34375 315.7396ZM317.6875 318.9896Q317.6875 320.44272 317.01562 321.33334Q316.35938 322.20834 315.23438 322.20834Q314.03125 322.20834 313.375 321.34897L313.3125 322.08334L312.32812 322.08334L312.32812 313.08334L313.40625 313.08334L313.40625 316.44272Q314.0625 315.63022 315.21875 315.63022Q316.375 315.63022 317.03125 316.50522Q317.6875 317.3646 317.6875 318.89584L317.6875 318.9896ZM316.60938 318.8646Q316.60938 317.75522 316.17188 317.16147Q315.75 316.5521 314.95312 316.5521Q313.875 316.5521 313.40625 317.53647L313.40625 320.28647Q313.90625 321.28647 314.95312 321.28647Q315.73438 321.28647 316.17188 320.6771Q316.60938 320.06772 316.60938 318.8646ZM321.95312 322.20834Q320.65625 322.20834 319.84375 321.3646Q319.04688 320.50522 319.04688 319.08334L319.04688 318.89584Q319.04688 317.94272 319.40625 317.20834Q319.76562 316.45834 320.40625 316.0521Q321.0625 315.63022 321.8125 315.63022Q323.04688 315.63022 323.73438 316.44272Q324.42188 317.25522 324.42188 318.77084L324.42188 319.22397L320.125 319.22397Q320.15625 320.16147 320.67188 320.7396Q321.20312 321.31772 322.01562 321.31772Q322.57812 321.31772 322.96875 321.08334Q323.375 320.84897 323.6875 320.45834L324.34375 320.97397Q323.54688 322.20834 321.95312 322.20834ZM321.8125 316.52084Q321.15625 316.52084 320.70312 317.00522Q320.26562 317.47397 320.17188 318.33334L323.34375 318.33334L323.34375 318.25522Q323.29688 317.4271 322.89062 316.97397Q322.5 316.52084 321.8125 316.52084ZM328.39062 316.70834Q328.14062 316.6771 327.85938 316.6771Q326.78125 316.6771 326.40625 317.58334L326.40625 322.08334L325.32812 322.08334L325.32812 315.7396L326.375 315.7396L326.39062 316.47397Q326.92188 315.63022 327.90625 315.63022Q328.21875 315.63022 328.39062 315.70834L328.39062 316.70834ZM332.03125 318.84897Q332.03125 317.9271 332.39062 317.1771Q332.76562 316.4271 333.42188 316.03647Q334.07812 315.63022 334.90625 315.63022Q336.20312 315.63022 337.0 316.52084Q337.8125 317.41147 337.8125 318.91147L337.8125 318.9896Q337.8125 319.91147 337.45312 320.64584Q337.09375 321.38022 336.4375 321.8021Q335.78125 322.20834 334.92188 322.20834Q333.64062 322.20834 332.82812 321.31772Q332.03125 320.41147 332.03125 318.9271L332.03125 318.84897ZM333.125 318.9896Q333.125 320.03647 333.60938 320.6771Q334.10938 321.31772 334.92188 321.31772Q335.75 321.31772 336.23438 320.6771Q336.71875 320.02084 336.71875 318.84897Q336.71875 317.81772 336.21875 317.1771Q335.73438 316.52084 334.90625 316.52084Q334.10938 316.52084 333.60938 317.16147Q333.125 317.78647 333.125 318.9896ZM339.85938 322.08334L339.85938 316.58334L338.85938 316.58334L338.85938 315.7396L339.85938 315.7396L339.85938 315.09897Q339.85938 314.06772 340.39062 313.52084Q340.9375 312.95834 341.9375 312.95834Q342.3125 312.95834 342.6875 313.0521L342.625 313.94272Q342.34375 313.88022 342.04688 313.88022Q341.51562 313.88022 341.21875 314.19272Q340.9375 314.50522 340.9375 315.06772L340.9375 315.7396L342.29688 315.7396L342.29688 316.58334L340.9375 316.58334L340.9375 322.08334L339.85938 322.08334ZM352.39062 314.47397L349.64062 314.47397L349.64062 322.08334L348.53125 322.08334L348.53125 314.47397L345.78125 314.47397L345.78125 313.5521L352.39062 313.5521L352.39062 314.47397ZM354.40625 316.50522Q355.125 315.63022 356.28125 315.63022Q358.29688 315.63022 358.3125 317.89584L358.3125 322.08334L357.21875 322.08334L357.21875 317.88022Q357.21875 317.20834 356.90625 316.88022Q356.60938 316.5521 355.95312 316.5521Q355.42188 316.5521 355.01562 316.83334Q354.625 317.1146 354.40625 317.56772L354.40625 322.08334L353.32812 322.08334L353.32812 313.08334L354.40625 313.08334L354.40625 316.50522ZM363.39062 316.70834Q363.14062 316.6771 362.85938 316.6771Q361.78125 316.6771 361.40625 317.58334L361.40625 322.08334L360.32812 322.08334L360.32812 315.7396L361.375 315.7396L361.39062 316.47397Q361.92188 315.63022 362.90625 315.63022Q363.21875 315.63022 363.39062 315.70834L363.39062 316.70834ZM366.95312 322.20834Q365.65625 322.20834 364.84375 321.3646Q364.04688 320.50522 364.04688 319.08334L364.04688 318.89584Q364.04688 317.94272 364.40625 317.20834Q364.76562 316.45834 365.40625 316.0521Q366.0625 315.63022 366.8125 315.63022Q368.04688 315.63022 368.73438 316.44272Q369.42188 317.25522 369.42188 318.77084L369.42188 319.22397L365.125 319.22397Q365.15625 320.16147 365.67188 320.7396Q366.20312 321.31772 367.01562 321.31772Q367.57812 321.31772 367.96875 321.08334Q368.375 320.84897 368.6875 320.45834L369.34375 320.97397Q368.54688 322.20834 366.95312 322.20834ZM366.8125 316.52084Q366.15625 316.52084 365.70312 317.00522Q365.26562 317.47397 365.17188 318.33334L368.34375 318.33334L368.34375 318.25522Q368.29688 317.4271 367.89062 316.97397Q367.5 316.52084 366.8125 316.52084ZM374.23438 322.08334Q374.14062 321.89584 374.07812 321.41147Q373.32812 322.20834 372.28125 322.20834Q371.34375 322.20834 370.73438 321.6771Q370.14062 321.14584 370.14062 320.31772Q370.14062 319.33334 370.89062 318.78647Q371.64062 318.2396 373.01562 318.2396L374.0625 318.2396L374.0625 317.7396Q374.0625 317.1771 373.71875 316.84897Q373.39062 316.50522 372.71875 316.50522Q372.14062 316.50522 371.75 316.8021Q371.35938 317.08334 371.35938 317.50522L370.26562 317.50522Q370.26562 317.02084 370.59375 316.58334Q370.9375 316.14584 371.51562 315.89584Q372.09375 315.63022 372.78125 315.63022Q373.89062 315.63022 374.5 316.1771Q375.125 316.72397 375.15625 317.6771L375.15625 320.59897Q375.15625 321.47397 375.375 321.9896L375.375 322.08334L374.23438 322.08334ZM372.4375 321.25522Q372.95312 321.25522 373.40625 320.9896Q373.85938 320.72397 374.0625 320.3021L374.0625 319.00522L373.21875 319.00522Q371.21875 319.00522 371.21875 320.1771Q371.21875 320.6771 371.5625 320.97397Q371.90625 321.25522 372.4375 321.25522ZM377.0625 318.8646Q377.0625 317.39584 377.75 316.52084Q378.4375 315.63022 379.5625 315.63022Q380.67188 315.63022 381.32812 316.38022L381.32812 313.08334L382.40625 313.08334L382.40625 322.08334L381.40625 322.08334L381.35938 321.39584Q380.70312 322.20834 379.54688 322.20834Q378.45312 322.20834 377.75 321.3021Q377.0625 320.39584 377.0625 318.94272L377.0625 318.8646ZM378.14062 318.9896Q378.14062 320.06772 378.57812 320.6771Q379.03125 321.28647 379.8125 321.28647Q380.84375 321.28647 381.32812 320.34897L381.32812 317.44272Q380.84375 316.5521 379.82812 316.5521Q379.03125 316.5521 378.57812 317.16147Q378.14062 317.77084 378.14062 318.9896ZM388.01562 320.39584Q388.01562 319.95834 387.67188 319.72397Q387.34375 319.47397 386.51562 319.3021Q385.70312 319.13022 385.21875 318.88022Q384.73438 318.63022 384.5 318.3021Q384.28125 317.95834 384.28125 317.4896Q384.28125 316.70834 384.9375 316.1771Q385.59375 315.63022 386.625 315.63022Q387.70312 315.63022 388.35938 316.19272Q389.03125 316.7396 389.03125 317.59897L387.95312 317.59897Q387.95312 317.16147 387.5625 316.84897Q387.1875 316.52084 386.625 316.52084Q386.03125 316.52084 385.6875 316.78647Q385.35938 317.03647 385.35938 317.44272Q385.35938 317.83334 385.67188 318.03647Q385.98438 318.2396 386.79688 318.4271Q387.60938 318.59897 388.10938 318.84897Q388.60938 319.09897 388.84375 319.45834Q389.09375 319.81772 389.09375 320.31772Q389.09375 321.1771 388.40625 321.69272Q387.73438 322.20834 386.65625 322.20834Q385.89062 322.20834 385.29688 321.94272Q384.71875 321.66147 384.39062 321.1771Q384.0625 320.69272 384.0625 320.13022L385.14062 320.13022Q385.17188 320.6771 385.57812 321.00522Q385.98438 321.31772 386.65625 321.31772Q387.26562 321.31772 387.64062 321.06772Q388.01562 320.81772 388.01562 320.39584Z" fill-rule="nonzero"/><path fill="#424242" d="M26.565636 228.45312Q27.815636 228.45312 28.753136 228.875Q29.67501 229.29688 30.17501 230.07812Q30.67501 230.84375 30.67501 231.875Q30.67501 232.875 30.17501 233.65625Q29.67501 234.4375 28.76876 234.875Q27.846886 235.29688 26.628136 235.3125L26.01876 235.3125Q24.784386 235.3125 23.846886 234.89062Q22.909386 234.45312 22.409386 233.67188Q21.89376 232.89062 21.89376 231.875Q21.89376 230.85938 22.39376 230.07812Q22.89376 229.29688 23.83126 228.875Q24.76876 228.45312 26.01876 228.45312L26.565636 228.45312ZM26.003136 229.5625Q24.48751 229.5625 23.67501 230.17188Q22.86251 230.78125 22.86251 231.875Q22.86251 232.95312 23.67501 233.5625Q24.48751 234.17188 25.92501 234.1875L26.565636 234.1875Q28.034386 234.1875 28.878136 233.57812Q29.70626 232.95312 29.70626 231.875Q29.70626 230.78125 28.92501 230.1875Q28.128136 229.57812 26.64376 229.5625L26.003136 229.5625ZM27.45626 221.82812Q28.89376 221.82812 29.784386 222.48438Q30.67501 223.14062 30.67501 224.28125Q30.67501 225.4375 29.940636 226.09375L32.98751 226.09375L32.98751 227.17188L24.20626 227.17188L24.20626 226.1875L24.909386 226.14062Q24.096886 225.46875 24.096886 224.29688Q24.096886 223.15625 24.95626 222.5Q25.815636 221.82812 27.346886 221.82812L27.45626 221.82812ZM27.33126 222.90625Q26.253136 222.90625 25.64376 223.375Q25.01876 223.82812 25.01876 224.625Q25.01876 225.60938 25.878136 226.09375L28.909386 226.09375Q29.784386 225.60938 29.784386 224.60938Q29.784386 223.82812 29.17501 223.375Q28.55001 222.90625 27.33126 222.90625ZM30.67501 217.54688Q30.67501 218.84375 29.83126 219.65625Q28.971886 220.45312 27.55001 220.45312L27.36251 220.45312Q26.409386 220.45312 25.67501 220.09375Q24.92501 219.73438 24.51876 219.09375Q24.096886 218.4375 24.096886 217.6875Q24.096886 216.45312 24.909386 215.76562Q25.721886 215.07812 27.23751 215.07812L27.690636 215.07812L27.690636 219.375Q28.628136 219.34375 29.20626 218.82812Q29.784386 218.29688 29.784386 217.48438Q29.784386 216.92188 29.55001 216.53125Q29.315636 216.125 28.92501 215.8125L29.440636 215.15625Q30.67501 215.95312 30.67501 217.54688ZM24.98751 217.6875Q24.98751 218.34375 25.471886 218.79688Q25.940636 219.23438 26.80001 219.32812L26.80001 216.15625L26.721886 216.15625Q25.89376 216.20312 25.440636 216.60938Q24.98751 217.0 24.98751 217.6875ZM25.17501 211.10938Q25.14376 211.35938 25.14376 211.64062Q25.14376 212.71875 26.05001 213.09375L30.55001 213.09375L30.55001 214.17188L24.20626 214.17188L24.20626 213.125L24.940636 213.10938Q24.096886 212.57812 24.096886 211.59375Q24.096886 211.28125 24.17501 211.10938L25.17501 211.10938ZM30.55001 206.26562Q30.36251 206.35938 29.878136 206.42188Q30.67501 207.17188 30.67501 208.21875Q30.67501 209.15625 30.14376 209.76562Q29.61251 210.35938 28.784386 210.35938Q27.80001 210.35938 27.253136 209.60938Q26.70626 208.85938 26.70626 207.48438L26.70626 206.4375L26.20626 206.4375Q25.64376 206.4375 25.315636 206.78125Q24.971886 207.10938 24.971886 207.78125Q24.971886 208.35938 25.26876 208.75Q25.55001 209.14062 25.971886 209.14062L25.971886 210.23438Q25.48751 210.23438 25.05001 209.90625Q24.61251 209.5625 24.36251 208.98438Q24.096886 208.40625 24.096886 207.71875Q24.096886 206.60938 24.64376 206.0Q25.190636 205.375 26.14376 205.34375L29.065636 205.34375Q29.940636 205.34375 30.45626 205.125L30.55001 205.125L30.55001 206.26562ZM29.721886 208.0625Q29.721886 207.54688 29.45626 207.09375Q29.190636 206.64062 28.76876 206.4375L27.471886 206.4375L27.471886 207.28125Q27.471886 209.28125 28.64376 209.28125Q29.14376 209.28125 29.440636 208.9375Q29.721886 208.59375 29.721886 208.0625ZM22.67501 201.70312L24.20626 201.70312L24.20626 200.53125L25.05001 200.53125L25.05001 201.70312L28.971886 201.70312Q29.36251 201.70312 29.55001 201.54688Q29.73751 201.39062 29.73751 201.01562Q29.73751 200.82812 29.67501 200.5L30.55001 200.5Q30.67501 200.92188 30.67501 201.32812Q30.67501 202.04688 30.23751 202.42188Q29.784386 202.79688 28.971886 202.79688L25.05001 202.79688L25.05001 203.95312L24.20626 203.95312L24.20626 202.79688L22.67501 202.79688L22.67501 201.70312ZM30.55001 198.0L30.55001 199.07812L24.20626 199.07812L24.20626 198.0L30.55001 198.0ZM22.534386 199.17188Q22.26876 199.17188 22.08126 199.01562Q21.89376 198.84375 21.89376 198.53125Q21.89376 198.21875 22.08126 198.0625Q22.26876 197.89062 22.534386 197.89062Q22.784386 197.89062 22.971886 198.0625Q23.14376 198.21875 23.14376 198.53125Q23.14376 198.84375 22.971886 199.01562Q22.784386 199.17188 22.534386 199.17188ZM27.315636 196.46875Q26.39376 196.46875 25.64376 196.10938Q24.89376 195.73438 24.503136 195.07812Q24.096886 194.42188 24.096886 193.59375Q24.096886 192.29688 24.98751 191.5Q25.878136 190.6875 27.378136 190.6875L27.45626 190.6875Q28.378136 190.6875 29.11251 191.04688Q29.846886 191.40625 30.26876 192.0625Q30.67501 192.71875 30.67501 193.57812Q30.67501 194.85938 29.784386 195.67188Q28.878136 196.46875 27.39376 196.46875L27.315636 196.46875ZM27.45626 195.375Q28.503136 195.375 29.14376 194.89062Q29.784386 194.39062 29.784386 193.57812Q29.784386 192.75 29.14376 192.26562Q28.48751 191.78125 27.315636 191.78125Q26.284386 191.78125 25.64376 192.28125Q24.98751 192.76562 24.98751 193.59375Q24.98751 194.39062 25.628136 194.89062Q26.253136 195.375 27.45626 195.375ZM24.20626 188.15625L25.003136 188.125Q24.096886 187.39062 24.096886 186.21875Q24.096886 184.20312 26.36251 184.1875L30.55001 184.1875L30.55001 185.28125L26.346886 185.28125Q25.67501 185.28125 25.346886 185.59375Q25.01876 185.89062 25.01876 186.54688Q25.01876 187.07812 25.30001 187.48438Q25.58126 187.875 26.034386 188.09375L30.55001 188.09375L30.55001 189.17188L24.20626 189.17188L24.20626 188.15625ZM28.86251 178.48438Q28.42501 178.48438 28.190636 178.82812Q27.940636 179.15625 27.76876 179.98438Q27.596886 180.79688 27.346886 181.28125Q27.096886 181.76562 26.76876 182.0Q26.42501 182.21875 25.95626 182.21875Q25.17501 182.21875 24.64376 181.5625Q24.096886 180.90625 24.096886 179.875Q24.096886 178.79688 24.659386 178.14062Q25.20626 177.46875 26.065636 177.46875L26.065636 178.54688Q25.628136 178.54688 25.315636 178.9375Q24.98751 179.3125 24.98751 179.875Q24.98751 180.46875 25.253136 180.8125Q25.503136 181.14062 25.909386 181.14062Q26.30001 181.14062 26.503136 180.82812Q26.70626 180.51562 26.89376 179.70312Q27.065636 178.89062 27.315636 178.39062Q27.565636 177.89062 27.92501 177.65625Q28.284386 177.40625 28.784386 177.40625Q29.64376 177.40625 30.159386 178.09375Q30.67501 178.76562 30.67501 179.84375Q30.67501 180.60938 30.409386 181.20312Q30.128136 181.78125 29.64376 182.10938Q29.159386 182.4375 28.596886 182.4375L28.596886 181.35938Q29.14376 181.32812 29.471886 180.92188Q29.784386 180.51562 29.784386 179.84375Q29.784386 179.23438 29.534386 178.85938Q29.284386 178.48438 28.86251 178.48438ZM31.284386 175.96875L31.284386 176.89062L22.01876 173.32812L22.01876 172.40625L31.284386 175.96875ZM22.01876 169.5625L28.971886 166.76562L22.01876 163.98438L22.01876 162.51562L30.55001 162.51562L30.55001 163.64062L27.221886 163.64062L23.64376 163.53125L30.55001 166.34375L30.55001 167.20312L23.659386 170.0L27.221886 169.89062L30.55001 169.89062L30.55001 171.01562L22.01876 171.01562L22.01876 169.5625ZM30.55001 160.0L30.55001 161.07812L24.20626 161.07812L24.20626 160.0L30.55001 160.0ZM22.534386 161.17188Q22.26876 161.17188 22.08126 161.01562Q21.89376 160.84375 21.89376 160.53125Q21.89376 160.21875 22.08126 160.0625Q22.26876 159.89062 22.534386 159.89062Q22.784386 159.89062 22.971886 160.0625Q23.14376 160.21875 23.14376 160.53125Q23.14376 160.84375 22.971886 161.01562Q22.784386 161.17188 22.534386 161.17188ZM30.55001 157.0L30.55001 158.07812L21.55001 158.07812L21.55001 157.0L30.55001 157.0ZM30.55001 154.0L30.55001 155.07812L21.55001 155.07812L21.55001 154.0L30.55001 154.0ZM30.55001 151.0L30.55001 152.07812L24.20626 152.07812L24.20626 151.0L30.55001 151.0ZM22.534386 152.17188Q22.26876 152.17188 22.08126 152.01562Q21.89376 151.84375 21.89376 151.53125Q21.89376 151.21875 22.08126 151.0625Q22.26876 150.89062 22.534386 150.89062Q22.784386 150.89062 22.971886 151.0625Q23.14376 151.21875 23.14376 151.53125Q23.14376 151.84375 22.971886 152.01562Q22.784386 152.17188 22.534386 152.17188ZM28.86251 145.48438Q28.42501 145.48438 28.190636 145.82812Q27.940636 146.15625 27.76876 146.98438Q27.596886 147.79688 27.346886 148.28125Q27.096886 148.76562 26.76876 149.0Q26.42501 149.21875 25.95626 149.21875Q25.17501 149.21875 24.64376 148.5625Q24.096886 147.90625 24.096886 146.875Q24.096886 145.79688 24.659386 145.14062Q25.20626 144.46875 26.065636 144.46875L26.065636 145.54688Q25.628136 145.54688 25.315636 145.9375Q24.98751 146.3125 24.98751 146.875Q24.98751 147.46875 25.253136 147.8125Q25.503136 148.14062 25.909386 148.14062Q26.30001 148.14062 26.503136 147.82812Q26.70626 147.51562 26.89376 146.70312Q27.065636 145.89062 27.315636 145.39062Q27.565636 144.89062 27.92501 144.65625Q28.284386 144.40625 28.784386 144.40625Q29.64376 144.40625 30.159386 145.09375Q30.67501 145.76562 30.67501 146.84375Q30.67501 147.60938 30.409386 148.20312Q30.128136 148.78125 29.64376 149.10938Q29.159386 149.4375 28.596886 149.4375L28.596886 148.35938Q29.14376 148.32812 29.471886 147.92188Q29.784386 147.51562 29.784386 146.84375Q29.784386 146.23438 29.534386 145.85938Q29.284386 145.48438 28.86251 145.48438ZM30.67501 140.54688Q30.67501 141.84375 29.83126 142.65625Q28.971886 143.45312 27.55001 143.45312L27.36251 143.45312Q26.409386 143.45312 25.67501 143.09375Q24.92501 142.73438 24.51876 142.09375Q24.096886 141.4375 24.096886 140.6875Q24.096886 139.45312 24.909386 138.76562Q25.721886 138.07812 27.23751 138.07812L27.690636 138.07812L27.690636 142.375Q28.628136 142.34375 29.20626 141.82812Q29.784386 141.29688 29.784386 140.48438Q29.784386 139.92188 29.55001 139.53125Q29.315636 139.125 28.92501 138.8125L29.440636 138.15625Q30.67501 138.95312 30.67501 140.54688ZM24.98751 140.6875Q24.98751 141.34375 25.471886 141.79688Q25.940636 142.23438 26.80001 142.32812L26.80001 139.15625L26.721886 139.15625Q25.89376 139.20312 25.440636 139.60938Q24.98751 140.0 24.98751 140.6875ZM29.784386 134.64062Q29.784386 134.0625 29.440636 133.625Q29.08126 133.1875 28.55001 133.14062L28.55001 132.10938Q29.096886 132.14062 29.596886 132.5Q30.08126 132.84375 30.378136 133.42188Q30.67501 133.98438 30.67501 134.64062Q30.67501 135.9375 29.815636 136.70312Q28.940636 137.45312 27.440636 137.45312L27.253136 137.45312Q26.33126 137.45312 25.61251 137.125Q24.89376 136.78125 24.503136 136.15625Q24.096886 135.51562 24.096886 134.64062Q24.096886 133.57812 24.73751 132.875Q25.36251 132.15625 26.39376 132.10938L26.39376 133.14062Q25.76876 133.1875 25.378136 133.60938Q24.98751 134.03125 24.98751 134.64062Q24.98751 135.46875 25.58126 135.92188Q26.17501 136.375 27.30001 136.375L27.503136 136.375Q28.596886 136.375 29.190636 135.92188Q29.784386 135.46875 29.784386 134.64062ZM27.315636 131.46875Q26.39376 131.46875 25.64376 131.10938Q24.89376 130.73438 24.503136 130.07812Q24.096886 129.42188 24.096886 128.59375Q24.096886 127.296875 24.98751 126.5Q25.878136 125.6875 27.378136 125.6875L27.45626 125.6875Q28.378136 125.6875 29.11251 126.046875Q29.846886 126.40625 30.26876 127.0625Q30.67501 127.71875 30.67501 128.57812Q30.67501 129.85938 29.784386 130.67188Q28.878136 131.46875 27.39376 131.46875L27.315636 131.46875ZM27.45626 130.375Q28.503136 130.375 29.14376 129.89062Q29.784386 129.39062 29.784386 128.57812Q29.784386 127.75 29.14376 127.265625Q28.48751 126.78125 27.315636 126.78125Q26.284386 126.78125 25.64376 127.28125Q24.98751 127.765625 24.98751 128.59375Q24.98751 129.39062 25.628136 129.89062Q26.253136 130.375 27.45626 130.375ZM24.20626 123.15625L25.003136 123.125Q24.096886 122.390625 24.096886 121.21875Q24.096886 119.203125 26.36251 119.1875L30.55001 119.1875L30.55001 120.28125L26.346886 120.28125Q25.67501 120.28125 25.346886 120.59375Q25.01876 120.890625 25.01876 121.546875Q25.01876 122.078125 25.30001 122.484375Q25.58126 122.875 26.034386 123.09375L30.55001 123.09375L30.55001 124.171875L24.20626 124.171875L24.20626 123.15625ZM27.33126 117.4375Q25.86251 117.4375 24.98751 116.75Q24.096886 116.0625 24.096886 114.9375Q24.096886 113.828125 24.846886 113.171875L21.55001 113.171875L21.55001 112.09375L30.55001 112.09375L30.55001 113.09375L29.86251 113.140625Q30.67501 113.796875 30.67501 114.953125Q30.67501 116.046875 29.76876 116.75Q28.86251 117.4375 27.409386 117.4375L27.33126 117.4375ZM27.45626 116.359375Q28.534386 116.359375 29.14376 115.921875Q29.753136 115.46875 29.753136 114.6875Q29.753136 113.65625 28.815636 113.171875L25.909386 113.171875Q25.01876 113.65625 25.01876 114.671875Q25.01876 115.46875 25.628136 115.921875Q26.23751 116.359375 27.45626 116.359375Z" fill-rule="nonzero"/><path fill="#757575" d="M63.83125 272.72397L65.01875 272.72397L65.01875 273.59897L63.83125 273.59897L63.83125 275.58334L62.753124 275.58334L62.753124 273.59897L58.8625 273.59897L58.8625 272.95834L62.675 267.0521L63.83125 267.0521L63.83125 272.72397ZM60.096874 272.72397L62.753124 272.72397L62.753124 268.53647L62.6125 268.77084L60.096874 272.72397ZM71.6125 271.94272Q71.6125 273.84897 70.95625 274.78647Q70.31563 275.70834 68.925 275.70834Q67.56563 275.70834 66.90938 274.8021Q66.25313 273.89584 66.22188 272.08334L66.22188 270.64584Q66.22188 268.75522 66.8625 267.84897Q67.51875 266.9271 68.90938 266.9271Q70.28438 266.9271 70.94063 267.81772Q71.59688 268.69272 71.6125 270.53647L71.6125 271.94272ZM70.51875 270.45834Q70.51875 269.08334 70.12813 268.45834Q69.75313 267.81772 68.90938 267.81772Q68.08125 267.81772 67.69063 268.45834Q67.31563 269.08334 67.31563 270.38022L67.31563 272.1146Q67.31563 273.4896 67.70625 274.16147Q68.1125 274.81772 68.925 274.81772Q69.72188 274.81772 70.1125 274.19272Q70.50313 273.56772 70.51875 272.2396L70.51875 270.45834ZM78.6125 271.94272Q78.6125 273.84897 77.95625 274.78647Q77.31563 275.70834 75.925 275.70834Q74.56563 275.70834 73.90938 274.8021Q73.25313 273.89584 73.22188 272.08334L73.22188 270.64584Q73.22188 268.75522 73.8625 267.84897Q74.51875 266.9271 75.90938 266.9271Q77.28438 266.9271 77.94063 267.81772Q78.59688 268.69272 78.6125 270.53647L78.6125 271.94272ZM77.51875 270.45834Q77.51875 269.08334 77.12813 268.45834Q76.75313 267.81772 75.90938 267.81772Q75.08125 267.81772 74.69063 268.45834Q74.31563 269.08334 74.31563 270.38022L74.31563 272.1146Q74.31563 273.4896 74.70625 274.16147Q75.1125 274.81772 75.925 274.81772Q76.72188 274.81772 77.1125 274.19272Q77.50313 273.56772 77.51875 272.2396L77.51875 270.45834ZM85.6125 271.94272Q85.6125 273.84897 84.95625 274.78647Q84.31563 275.70834 82.925 275.70834Q81.56563 275.70834 80.90938 274.8021Q80.25313 273.89584 80.22188 272.08334L80.22188 270.64584Q80.22188 268.75522 80.8625 267.84897Q81.51875 266.9271 82.90938 266.9271Q84.28438 266.9271 84.94063 267.81772Q85.59688 268.69272 85.6125 270.53647L85.6125 271.94272ZM84.51875 270.45834Q84.51875 269.08334 84.12813 268.45834Q83.75313 267.81772 82.90938 267.81772Q82.08125 267.81772 81.69063 268.45834Q81.31563 269.08334 81.31563 270.38022L81.31563 272.1146Q81.31563 273.4896 81.70625 274.16147Q82.1125 274.81772 82.925 274.81772Q83.72188 274.81772 84.1125 274.19272Q84.50313 273.56772 84.51875 272.2396L84.51875 270.45834Z" fill-rule="nonzero"/><path fill="#757575" d="M63.51875 197.49652L63.51875 198.40277L63.315624 198.40277Q62.05 198.43402 61.3 199.1684Q60.55 199.88715 60.425 201.19965Q61.1125 200.43402 62.26875 200.43402Q63.378124 200.43402 64.05 201.21527Q64.72188 201.99652 64.72188 203.24652Q64.72188 204.55902 64.00313 205.3559Q63.284374 206.15277 62.065624 206.15277Q60.846874 206.15277 60.08125 205.21527Q59.33125 204.26215 59.33125 202.77777L59.33125 202.37152Q59.33125 200.01215 60.33125 198.76215Q61.33125 197.51215 63.315624 197.49652L63.51875 197.49652ZM62.096874 201.34027Q61.534374 201.34027 61.065624 201.6684Q60.596874 201.99652 60.409374 202.51215L60.409374 202.90277Q60.409374 203.96527 60.878124 204.6059Q61.3625 205.24652 62.065624 205.24652Q62.8 205.24652 63.221874 204.71527Q63.64375 204.1684 63.64375 203.2934Q63.64375 202.4184 63.221874 201.88715Q62.8 201.34027 62.096874 201.34027ZM71.6125 202.38715Q71.6125 204.2934 70.95625 205.2309Q70.31563 206.15277 68.925 206.15277Q67.56563 206.15277 66.90938 205.24652Q66.25313 204.34027 66.22188 202.52777L66.22188 201.09027Q66.22188 199.19965 66.8625 198.2934Q67.51875 197.37152 68.90938 197.37152Q70.28438 197.37152 70.94063 198.26215Q71.59688 199.13715 71.6125 200.9809L71.6125 202.38715ZM70.51875 200.90277Q70.51875 199.52777 70.12813 198.90277Q69.75313 198.26215 68.90938 198.26215Q68.08125 198.26215 67.69063 198.90277Q67.31563 199.52777 67.31563 200.82465L67.31563 202.55902Q67.31563 203.93402 67.70625 204.6059Q68.1125 205.26215 68.925 205.26215Q69.72188 205.26215 70.1125 204.63715Q70.50313 204.01215 70.51875 202.68402L70.51875 200.90277ZM78.6125 202.38715Q78.6125 204.2934 77.95625 205.2309Q77.31563 206.15277 75.925 206.15277Q74.56563 206.15277 73.90938 205.24652Q73.25313 204.34027 73.22188 202.52777L73.22188 201.09027Q73.22188 199.19965 73.8625 198.2934Q74.51875 197.37152 75.90938 197.37152Q77.28438 197.37152 77.94063 198.26215Q78.59688 199.13715 78.6125 200.9809L78.6125 202.38715ZM77.51875 200.90277Q77.51875 199.52777 77.12813 198.90277Q76.75313 198.26215 75.90938 198.26215Q75.08125 198.26215 74.69063 198.90277Q74.31563 199.52777 74.31563 200.82465L74.31563 202.55902Q74.31563 203.93402 74.70625 204.6059Q75.1125 205.26215 75.925 205.26215Q76.72188 205.26215 77.1125 204.63715Q77.50313 204.01215 77.51875 202.68402L77.51875 200.90277ZM85.6125 202.38715Q85.6125 204.2934 84.95625 205.2309Q84.31563 206.15277 82.925 206.15277Q81.56563 206.15277 80.90938 205.24652Q80.25313 204.34027 80.22188 202.52777L80.22188 201.09027Q80.22188 199.19965 80.8625 198.2934Q81.51875 197.37152 82.90938 197.37152Q84.28438 197.37152 84.94063 198.26215Q85.59688 199.13715 85.6125 200.9809L85.6125 202.38715ZM84.51875 200.90277Q84.51875 199.52777 84.12813 198.90277Q83.75313 198.26215 82.90938 198.26215Q82.08125 198.26215 81.69063 198.90277Q81.31563 199.52777 81.31563 200.82465L81.31563 202.55902Q81.31563 203.93402 81.70625 204.6059Q82.1125 205.26215 82.925 205.26215Q83.72188 205.26215 84.1125 204.63715Q84.50313 204.01215 84.51875 202.68402L84.51875 200.90277Z" fill-rule="nonzero"/><path fill="#757575" d="M64.44063 130.15973Q64.44063 130.80035 64.09688 131.30035Q63.753124 131.80035 63.190624 132.0816Q63.846874 132.36285 64.2375 132.92535Q64.62813 133.47223 64.62813 134.17535Q64.62813 135.2691 63.878124 135.94098Q63.14375 136.59723 61.925 136.59723Q60.690624 136.59723 59.940624 135.94098Q59.20625 135.2691 59.20625 134.17535Q59.20625 133.47223 59.58125 132.92535Q59.95625 132.36285 60.628124 132.0816Q60.065624 131.80035 59.7375 131.30035Q59.409374 130.80035 59.409374 130.15973Q59.409374 129.0816 60.096874 128.4566Q60.784374 127.81598 61.925 127.81598Q63.05 127.81598 63.7375 128.4566Q64.44063 129.0816 64.44063 130.15973ZM63.55 134.1441Q63.55 133.42535 63.096874 132.98785Q62.64375 132.53473 61.909374 132.53473Q61.175 132.53473 60.721874 132.98785Q60.284374 133.42535 60.284374 134.15973Q60.284374 134.87848 60.721874 135.30035Q61.159374 135.7066 61.925 135.7066Q62.675 135.7066 63.1125 135.28473Q63.55 134.86285 63.55 134.1441ZM61.925 128.7066Q61.284374 128.7066 60.878124 129.11285Q60.4875 129.50348 60.4875 130.19098Q60.4875 130.8316 60.878124 131.23785Q61.26875 131.6441 61.909374 131.6441Q62.565624 131.6441 62.95625 131.23785Q63.346874 130.8316 63.346874 130.19098Q63.346874 129.53473 62.940624 129.12848Q62.534374 128.7066 61.925 128.7066ZM71.6125 132.8316Q71.6125 134.73785 70.95625 135.67535Q70.31563 136.59723 68.925 136.59723Q67.56563 136.59723 66.90938 135.69098Q66.25313 134.78473 66.22188 132.97223L66.22188 131.53473Q66.22188 129.6441 66.8625 128.73785Q67.51875 127.81598 68.90938 127.81598Q70.28438 127.81598 70.94063 128.7066Q71.59688 129.5816 71.6125 131.42535L71.6125 132.8316ZM70.51875 131.34723Q70.51875 129.97223 70.12813 129.34723Q69.75313 128.7066 68.90938 128.7066Q68.08125 128.7066 67.69063 129.34723Q67.31563 129.97223 67.31563 131.2691L67.31563 133.00348Q67.31563 134.37848 67.70625 135.05035Q68.1125 135.7066 68.925 135.7066Q69.72188 135.7066 70.1125 135.0816Q70.50313 134.4566 70.51875 133.12848L70.51875 131.34723ZM78.6125 132.8316Q78.6125 134.73785 77.95625 135.67535Q77.31563 136.59723 75.925 136.59723Q74.56563 136.59723 73.90938 135.69098Q73.25313 134.78473 73.22188 132.97223L73.22188 131.53473Q73.22188 129.6441 73.8625 128.73785Q74.51875 127.81598 75.90938 127.81598Q77.28438 127.81598 77.94063 128.7066Q78.59688 129.5816 78.6125 131.42535L78.6125 132.8316ZM77.51875 131.34723Q77.51875 129.97223 77.12813 129.34723Q76.75313 128.7066 75.90938 128.7066Q75.08125 128.7066 74.69063 129.34723Q74.31563 129.97223 74.31563 131.2691L74.31563 133.00348Q74.31563 134.37848 74.70625 135.05035Q75.1125 135.7066 75.925 135.7066Q76.72188 135.7066 77.1125 135.0816Q77.50313 134.4566 77.51875 133.12848L77.51875 131.34723ZM85.6125 132.8316Q85.6125 134.73785 84.95625 135.67535Q84.31563 136.59723 82.925 136.59723Q81.56563 136.59723 80.90938 135.69098Q80.25313 134.78473 80.22188 132.97223L80.22188 131.53473Q80.22188 129.6441 80.8625 128.73785Q81.51875 127.81598 82.90938 127.81598Q84.28438 127.81598 84.94063 128.7066Q85.59688 129.5816 85.6125 131.42535L85.6125 132.8316ZM84.51875 131.34723Q84.51875 129.97223 84.12813 129.34723Q83.75313 128.7066 82.90938 128.7066Q82.08125 128.7066 81.69063 129.34723Q81.31563 129.97223 81.31563 131.2691L81.31563 133.00348Q81.31563 134.37848 81.70625 135.05035Q82.1125 135.7066 82.925 135.7066Q83.72188 135.7066 84.1125 135.0816Q84.50313 134.4566 84.51875 133.12848L84.51875 131.34723Z" fill-rule="nonzero"/><path fill="#757575" d="M55.815624 66.916664L54.7375 66.916664L54.7375 59.697914L52.55 60.49479L52.55 59.510414L55.659374 58.33854L55.815624 58.33854L55.815624 66.916664ZM64.6125 63.27604Q64.6125 65.18229 63.95625 66.11979Q63.315624 67.041664 61.925 67.041664Q60.565624 67.041664 59.909374 66.135414Q59.253124 65.229164 59.221874 63.416664L59.221874 61.979164Q59.221874 60.08854 59.8625 59.18229Q60.51875 58.260414 61.909374 58.260414Q63.284374 58.260414 63.940624 59.15104Q64.59688 60.02604 64.6125 61.86979L64.6125 63.27604ZM63.51875 61.791664Q63.51875 60.416664 63.128124 59.791664Q62.753124 59.15104 61.909374 59.15104Q61.08125 59.15104 60.690624 59.791664Q60.315624 60.416664 60.315624 61.71354L60.315624 63.447914Q60.315624 64.822914 60.70625 65.49479Q61.1125 66.15104 61.925 66.15104Q62.721874 66.15104 63.1125 65.52604Q63.503124 64.90104 63.51875 63.572914L63.51875 61.791664ZM71.6125 63.27604Q71.6125 65.18229 70.95625 66.11979Q70.31563 67.041664 68.925 67.041664Q67.56563 67.041664 66.90938 66.135414Q66.25313 65.229164 66.22188 63.416664L66.22188 61.979164Q66.22188 60.08854 66.8625 59.18229Q67.51875 58.260414 68.90938 58.260414Q70.28438 58.260414 70.94063 59.15104Q71.59688 60.02604 71.6125 61.86979L71.6125 63.27604ZM70.51875 61.791664Q70.51875 60.416664 70.12813 59.791664Q69.75313 59.15104 68.90938 59.15104Q68.08125 59.15104 67.69063 59.791664Q67.31563 60.416664 67.31563 61.71354L67.31563 63.447914Q67.31563 64.822914 67.70625 65.49479Q68.1125 66.15104 68.925 66.15104Q69.72188 66.15104 70.1125 65.52604Q70.50313 64.90104 70.51875 63.572914L70.51875 61.791664ZM78.6125 63.27604Q78.6125 65.18229 77.95625 66.11979Q77.31563 67.041664 75.925 67.041664Q74.56563 67.041664 73.90938 66.135414Q73.25313 65.229164 73.22188 63.416664L73.22188 61.979164Q73.22188 60.08854 73.8625 59.18229Q74.51875 58.260414 75.90938 58.260414Q77.28438 58.260414 77.94063 59.15104Q78.59688 60.02604 78.6125 61.86979L78.6125 63.27604ZM77.51875 61.791664Q77.51875 60.416664 77.12813 59.791664Q76.75313 59.15104 75.90938 59.15104Q75.08125 59.15104 74.69063 59.791664Q74.31563 60.416664 74.31563 61.71354L74.31563 63.447914Q74.31563 64.822914 74.70625 65.49479Q75.1125 66.15104 75.925 66.15104Q76.72188 66.15104 77.1125 65.52604Q77.50313 64.90104 77.51875 63.572914L77.51875 61.791664ZM85.6125 63.27604Q85.6125 65.18229 84.95625 66.11979Q84.31563 67.041664 82.925 67.041664Q81.56563 67.041664 80.90938 66.135414Q80.25313 65.229164 80.22188 63.416664L80.22188 61.979164Q80.22188 60.08854 80.8625 59.18229Q81.51875 58.260414 82.90938 58.260414Q84.28438 58.260414 84.94063 59.15104Q85.59688 60.02604 85.6125 61.86979L85.6125 63.27604ZM84.51875 61.791664Q84.51875 60.416664 84.12813 59.791664Q83.75313 59.15104 82.90938 59.15104Q82.08125 59.15104 81.69063 59.791664Q81.31563 60.416664 81.31563 61.71354L81.31563 63.447914Q81.31563 64.822914 81.70625 65.49479Q82.1125 66.15104 82.925 66.15104Q83.72188 66.15104 84.1125 65.52604Q84.50313 64.90104 84.51875 63.572914L84.51875 61.791664Z" fill-rule="nonzero"/><path fill="#757575" d="M142.20563 289.08334L141.1275 289.08334L141.1275 281.8646L138.94 282.66147L138.94 281.6771L142.04938 280.50522L142.20563 280.50522L142.20563 289.08334Z" fill-rule="nonzero"/><path fill="#757575" d="M242.01688 289.08334L236.42313 289.08334L236.42313 288.3021L239.37625 285.02084Q240.0325 284.27084 240.2825 283.81772Q240.5325 283.34897 240.5325 282.84897Q240.5325 282.1771 240.12625 281.75522Q239.73563 281.31772 239.04813 281.31772Q238.25125 281.31772 237.79813 281.78647Q237.345 282.2396 237.345 283.06772L236.26688 283.06772Q236.26688 281.88022 237.01688 281.16147Q237.7825 280.4271 239.04813 280.4271Q240.25125 280.4271 240.93875 281.0521Q241.62625 281.6771 241.62625 282.72397Q241.62625 283.97397 240.01688 285.72397L237.73563 288.19272L242.01688 288.19272L242.01688 289.08334Z" fill-rule="nonzero"/><path fill="#757575" d="M338.78125 286.22397L339.96875 286.22397L339.96875 287.09897L338.78125 287.09897L338.78125 289.08334L337.70312 289.08334L337.70312 287.09897L333.8125 287.09897L333.8125 286.45834L337.625 280.5521L338.78125 280.5521L338.78125 286.22397ZM335.04688 286.22397L337.70312 286.22397L337.70312 282.03647L337.5625 282.27084L335.04688 286.22397Z" fill-rule="nonzero"/><path fill="#757575" d="M437.17062 282.77084Q437.17062 283.41147 436.82687 283.91147Q436.48312 284.41147 435.92062 284.69272Q436.57687 284.97397 436.9675 285.53647Q437.35812 286.08334 437.35812 286.78647Q437.35812 287.88022 436.60812 288.5521Q435.87375 289.20834 434.655 289.20834Q433.42062 289.20834 432.67062 288.5521Q431.93625 287.88022 431.93625 286.78647Q431.93625 286.08334 432.31125 285.53647Q432.68625 284.97397 433.35812 284.69272Q432.79562 284.41147 432.4675 283.91147Q432.13937 283.41147 432.13937 282.77084Q432.13937 281.69272 432.82687 281.06772Q433.51437 280.4271 434.655 280.4271Q435.78 280.4271 436.4675 281.06772Q437.17062 281.69272 437.17062 282.77084ZM436.28 286.75522Q436.28 286.03647 435.82687 285.59897Q435.37375 285.14584 434.63937 285.14584Q433.905 285.14584 433.45187 285.59897Q433.01437 286.03647 433.01437 286.77084Q433.01437 287.4896 433.45187 287.91147Q433.88937 288.31772 434.655 288.31772Q435.405 288.31772 435.8425 287.89584Q436.28 287.47397 436.28 286.75522ZM434.655 281.31772Q434.01437 281.31772 433.60812 281.72397Q433.2175 282.1146 433.2175 282.8021Q433.2175 283.44272 433.60812 283.84897Q433.99875 284.25522 434.63937 284.25522Q435.29562 284.25522 435.68625 283.84897Q436.07687 283.44272 436.07687 282.8021Q436.07687 282.14584 435.67062 281.7396Q435.26437 281.31772 434.655 281.31772Z" fill-rule="nonzero"/><path fill="#757575" d="M529.8256 289.08334L528.7475 289.08334L528.7475 281.8646L526.56 282.66147L526.56 281.6771L529.6694 280.50522L529.8256 280.50522L529.8256 289.08334ZM537.52875 280.5521L537.52875 281.45834L537.3256 281.45834Q536.06 281.4896 535.31 282.22397Q534.56 282.94272 534.435 284.25522Q535.1225 283.4896 536.27875 283.4896Q537.3881 283.4896 538.06 284.27084Q538.7319 285.0521 538.7319 286.3021Q538.7319 287.6146 538.0131 288.41147Q537.2944 289.20834 536.0756 289.20834Q534.8569 289.20834 534.09125 288.27084Q533.34125 287.31772 533.34125 285.83334L533.34125 285.4271Q533.34125 283.06772 534.34125 281.81772Q535.34125 280.56772 537.3256 280.5521L537.52875 280.5521ZM536.1069 284.39584Q535.5444 284.39584 535.0756 284.72397Q534.6069 285.0521 534.4194 285.56772L534.4194 285.95834Q534.4194 287.02084 534.8881 287.66147Q535.3725 288.3021 536.0756 288.3021Q536.81 288.3021 537.2319 287.77084Q537.65375 287.22397 537.65375 286.34897Q537.65375 285.47397 537.2319 284.94272Q536.81 284.39584 536.1069 284.39584Z" fill-rule="nonzero"/><path stroke="#4285f4" stroke-width="4.0" stroke-linecap="butt" d="M205.5 344.95L217.5 344.95" fill-rule="nonzero"/><path fill="#757575" d="M229.0 345.65314Q227.5625 345.23126 226.89062 344.6219Q226.23438 344.0125 226.23438 343.1219Q226.23438 342.1219 227.03125 341.46564Q227.84375 340.79376 229.14062 340.79376Q230.01562 340.79376 230.70312 341.1375Q231.39062 341.48126 231.76562 342.075Q232.15625 342.66876 232.15625 343.3875L231.01562 343.3875Q231.01562 342.60626 230.51562 342.16876Q230.03125 341.73126 229.14062 341.73126Q228.3125 341.73126 227.84375 342.10626Q227.375 342.46564 227.375 343.10626Q227.375 343.6375 227.8125 343.9969Q228.26562 344.35626 229.32812 344.65314Q230.39062 344.95 230.98438 345.3094Q231.59375 345.66876 231.875 346.15314Q232.17188 346.6375 232.17188 347.27814Q232.17188 348.325 231.35938 348.95Q230.54688 349.575 229.20312 349.575Q228.3125 349.575 227.54688 349.23126Q226.79688 348.8875 226.375 348.3094Q225.96875 347.71564 225.96875 346.98126L227.09375 346.98126Q227.09375 347.7469 227.67188 348.2Q228.25 348.65314 229.20312 348.65314Q230.09375 348.65314 230.5625 348.29376Q231.03125 347.91876 231.03125 347.29376Q231.03125 346.66876 230.59375 346.325Q230.15625 345.98126 229.0 345.65314ZM235.39062 347.85626L236.875 343.10626L238.03125 343.10626L235.48438 350.4344Q234.89062 352.0125 233.60938 352.0125L233.39062 351.9969L233.0 351.91876L233.0 351.04376L233.28125 351.0594Q233.84375 351.0594 234.14062 350.84064Q234.45312 350.6219 234.65625 350.02814L234.89062 349.3719L232.625 343.10626L233.8125 343.10626L235.39062 347.85626ZM240.34375 343.10626L240.375 343.90314Q241.10938 342.9969 242.28125 342.9969Q244.29688 342.9969 244.3125 345.2625L244.3125 349.45L243.21875 349.45L243.21875 345.2469Q243.21875 344.575 242.90625 344.2469Q242.60938 343.91876 241.95312 343.91876Q241.42188 343.91876 241.01562 344.2Q240.625 344.48126 240.40625 344.9344L240.40625 349.45L239.32812 349.45L239.32812 343.10626L240.34375 343.10626ZM248.85938 348.6844Q249.4375 348.6844 249.875 348.34064Q250.3125 347.98126 250.35938 347.45L251.39062 347.45Q251.35938 347.9969 251.0 348.4969Q250.65625 348.98126 250.07812 349.27814Q249.51562 349.575 248.85938 349.575Q247.5625 349.575 246.79688 348.71564Q246.04688 347.84064 246.04688 346.34064L246.04688 346.15314Q246.04688 345.23126 246.375 344.5125Q246.71875 343.79376 247.34375 343.40314Q247.98438 342.9969 248.85938 342.9969Q249.92188 342.9969 250.625 343.6375Q251.34375 344.2625 251.39062 345.29376L250.35938 345.29376Q250.3125 344.66876 249.89062 344.27814Q249.46875 343.8875 248.85938 343.8875Q248.03125 343.8875 247.57812 344.48126Q247.125 345.075 247.125 346.2L247.125 346.40314Q247.125 347.4969 247.57812 348.09064Q248.03125 348.6844 248.85938 348.6844ZM253.40625 343.8719Q254.125 342.9969 255.28125 342.9969Q257.29688 342.9969 257.3125 345.2625L257.3125 349.45L256.21875 349.45L256.21875 345.2469Q256.21875 344.575 255.90625 344.2469Q255.60938 343.91876 254.95312 343.91876Q254.42188 343.91876 254.01562 344.2Q253.625 344.48126 253.40625 344.9344L253.40625 349.45L252.32812 349.45L252.32812 340.45L253.40625 340.45L253.40625 343.8719ZM262.39062 344.075Q262.14062 344.04376 261.85938 344.04376Q260.78125 344.04376 260.40625 344.95L260.40625 349.45L259.32812 349.45L259.32812 343.10626L260.375 343.10626L260.39062 343.84064Q260.92188 342.9969 261.90625 342.9969Q262.21875 342.9969 262.39062 343.075L262.39062 344.075ZM263.03125 346.21564Q263.03125 345.29376 263.39062 344.54376Q263.76562 343.79376 264.42188 343.40314Q265.07812 342.9969 265.90625 342.9969Q267.20312 342.9969 268.0 343.8875Q268.8125 344.77814 268.8125 346.27814L268.8125 346.35626Q268.8125 347.27814 268.45312 348.0125Q268.09375 348.7469 267.4375 349.16876Q266.78125 349.575 265.92188 349.575Q264.64062 349.575 263.82812 348.6844Q263.03125 347.77814 263.03125 346.29376L263.03125 346.21564ZM264.125 346.35626Q264.125 347.40314 264.60938 348.04376Q265.10938 348.6844 265.92188 348.6844Q266.75 348.6844 267.23438 348.04376Q267.71875 347.3875 267.71875 346.21564Q267.71875 345.1844 267.21875 344.54376Q266.73438 343.8875 265.90625 343.8875Q265.10938 343.8875 264.60938 344.52814Q264.125 345.15314 264.125 346.35626ZM271.34375 343.10626L271.375 343.90314Q272.10938 342.9969 273.28125 342.9969Q275.29688 342.9969 275.3125 345.2625L275.3125 349.45L274.21875 349.45L274.21875 345.2469Q274.21875 344.575 273.90625 344.2469Q273.60938 343.91876 272.95312 343.91876Q272.42188 343.91876 272.01562 344.2Q271.625 344.48126 271.40625 344.9344L271.40625 349.45L270.32812 349.45L270.32812 343.10626L271.34375 343.10626ZM278.5 349.45L277.42188 349.45L277.42188 343.10626L278.5 343.10626L278.5 349.45ZM277.32812 341.4344Q277.32812 341.16876 277.48438 340.98126Q277.65625 340.79376 277.96875 340.79376Q278.28125 340.79376 278.4375 340.98126Q278.60938 341.16876 278.60938 341.4344Q278.60938 341.6844 278.4375 341.8719Q278.28125 342.04376 277.96875 342.04376Q277.65625 342.04376 277.48438 341.8719Q277.32812 341.6844 277.32812 341.4344ZM281.34375 348.5594L285.04688 348.5594L285.04688 349.45L280.01562 349.45L280.01562 348.65314L283.51562 344.0125L280.0625 344.0125L280.0625 343.10626L284.875 343.10626L284.875 343.8719L281.34375 348.5594ZM288.95312 349.575Q287.65625 349.575 286.84375 348.73126Q286.04688 347.8719 286.04688 346.45L286.04688 346.2625Q286.04688 345.3094 286.40625 344.575Q286.76562 343.825 287.40625 343.41876Q288.0625 342.9969 288.8125 342.9969Q290.04688 342.9969 290.73438 343.8094Q291.42188 344.6219 291.42188 346.1375L291.42188 346.59064L287.125 346.59064Q287.15625 347.52814 287.67188 348.10626Q288.20312 348.6844 289.01562 348.6844Q289.57812 348.6844 289.96875 348.45Q290.375 348.21564 290.6875 347.825L291.34375 348.34064Q290.54688 349.575 288.95312 349.575ZM288.8125 343.8875Q288.15625 343.8875 287.70312 344.3719Q287.26562 344.84064 287.17188 345.7L290.34375 345.7L290.34375 345.6219Q290.29688 344.79376 289.89062 344.34064Q289.5 343.8875 288.8125 343.8875ZM292.0625 346.23126Q292.0625 344.7625 292.75 343.8875Q293.4375 342.9969 294.5625 342.9969Q295.67188 342.9969 296.32812 343.7469L296.32812 340.45L297.40625 340.45L297.40625 349.45L296.40625 349.45L296.35938 348.7625Q295.70312 349.575 294.54688 349.575Q293.45312 349.575 292.75 348.66876Q292.0625 347.7625 292.0625 346.3094L292.0625 346.23126ZM293.14062 346.35626Q293.14062 347.4344 293.57812 348.04376Q294.03125 348.65314 294.8125 348.65314Q295.84375 348.65314 296.32812 347.71564L296.32812 344.8094Q295.84375 343.91876 294.82812 343.91876Q294.03125 343.91876 293.57812 344.52814Q293.14062 345.1375 293.14062 346.35626ZM303.625 348.52814L307.67188 348.52814L307.67188 349.45L302.48438 349.45L302.48438 340.91876L303.625 340.91876L303.625 348.52814ZM309.5 349.45L308.42188 349.45L308.42188 343.10626L309.5 343.10626L309.5 349.45ZM308.32812 341.4344Q308.32812 341.16876 308.48438 340.98126Q308.65625 340.79376 308.96875 340.79376Q309.28125 340.79376 309.4375 340.98126Q309.60938 341.16876 309.60938 341.4344Q309.60938 341.6844 309.4375 341.8719Q309.28125 342.04376 308.96875 342.04376Q308.65625 342.04376 308.48438 341.8719Q308.32812 341.6844 308.32812 341.4344ZM315.01562 347.7625Q315.01562 347.325 314.67188 347.09064Q314.34375 346.84064 313.51562 346.66876Q312.70312 346.4969 312.21875 346.2469Q311.73438 345.9969 311.5 345.66876Q311.28125 345.325 311.28125 344.85626Q311.28125 344.075 311.9375 343.54376Q312.59375 342.9969 313.625 342.9969Q314.70312 342.9969 315.35938 343.5594Q316.03125 344.10626 316.03125 344.96564L314.95312 344.96564Q314.95312 344.52814 314.5625 344.21564Q314.1875 343.8875 313.625 343.8875Q313.03125 343.8875 312.6875 344.15314Q312.35938 344.40314 312.35938 344.8094Q312.35938 345.2 312.67188 345.40314Q312.98438 345.60626 313.79688 345.79376Q314.60938 345.96564 315.10938 346.21564Q315.60938 346.46564 315.84375 346.825Q316.09375 347.1844 316.09375 347.6844Q316.09375 348.54376 315.40625 349.0594Q314.73438 349.575 313.65625 349.575Q312.89062 349.575 312.29688 349.3094Q311.71875 349.02814 311.39062 348.54376Q311.0625 348.0594 311.0625 347.4969L312.14062 347.4969Q312.17188 348.04376 312.57812 348.3719Q312.98438 348.6844 313.65625 348.6844Q314.26562 348.6844 314.64062 348.4344Q315.01562 348.1844 315.01562 347.7625ZM318.79688 341.575L318.79688 343.10626L319.96875 343.10626L319.96875 343.95L318.79688 343.95L318.79688 347.8719Q318.79688 348.2625 318.95312 348.45Q319.10938 348.6375 319.48438 348.6375Q319.67188 348.6375 320.0 348.575L320.0 349.45Q319.57812 349.575 319.17188 349.575Q318.45312 349.575 318.07812 349.1375Q317.70312 348.6844 317.70312 347.8719L317.70312 343.95L316.54688 343.95L316.54688 343.10626L317.70312 343.10626L317.70312 341.575L318.79688 341.575Z" fill-rule="nonzero"/><path stroke="#db4437" stroke-width="4.0" stroke-linecap="butt" d="M336.5 344.95L348.5 344.95" fill-rule="nonzero"/><path fill="#757575" d="M358.9375 340.91876L361.73438 347.8719L364.51562 340.91876L365.98438 340.91876L365.98438 349.45L364.85938 349.45L364.85938 346.1219L364.96875 342.54376L362.15625 349.45L361.29688 349.45L358.5 342.5594L358.60938 346.1219L358.60938 349.45L357.48438 349.45L357.48438 340.91876L358.9375 340.91876ZM369.39062 347.85626L370.875 343.10626L372.03125 343.10626L369.48438 350.4344Q368.89062 352.0125 367.60938 352.0125L367.39062 351.9969L367.0 351.91876L367.0 351.04376L367.28125 351.0594Q367.84375 351.0594 368.14062 350.84064Q368.45312 350.6219 368.65625 350.02814L368.89062 349.3719L366.625 343.10626L367.8125 343.10626L369.39062 347.85626ZM377.625 348.52814L381.67188 348.52814L381.67188 349.45L376.48438 349.45L376.48438 340.91876L377.625 340.91876L377.625 348.52814ZM383.5 349.45L382.42188 349.45L382.42188 343.10626L383.5 343.10626L383.5 349.45ZM382.32812 341.4344Q382.32812 341.16876 382.48438 340.98126Q382.65625 340.79376 382.96875 340.79376Q383.28125 340.79376 383.4375 340.98126Q383.60938 341.16876 383.60938 341.4344Q383.60938 341.6844 383.4375 341.8719Q383.28125 342.04376 382.96875 342.04376Q382.65625 342.04376 382.48438 341.8719Q382.32812 341.6844 382.32812 341.4344ZM389.01562 347.7625Q389.01562 347.325 388.67188 347.09064Q388.34375 346.84064 387.51562 346.66876Q386.70312 346.4969 386.21875 346.2469Q385.73438 345.9969 385.5 345.66876Q385.28125 345.325 385.28125 344.85626Q385.28125 344.075 385.9375 343.54376Q386.59375 342.9969 387.625 342.9969Q388.70312 342.9969 389.35938 343.5594Q390.03125 344.10626 390.03125 344.96564L388.95312 344.96564Q388.95312 344.52814 388.5625 344.21564Q388.1875 343.8875 387.625 343.8875Q387.03125 343.8875 386.6875 344.15314Q386.35938 344.40314 386.35938 344.8094Q386.35938 345.2 386.67188 345.40314Q386.98438 345.60626 387.79688 345.79376Q388.60938 345.96564 389.10938 346.21564Q389.60938 346.46564 389.84375 346.825Q390.09375 347.1844 390.09375 347.6844Q390.09375 348.54376 389.40625 349.0594Q388.73438 349.575 387.65625 349.575Q386.89062 349.575 386.29688 349.3094Q385.71875 349.02814 385.39062 348.54376Q385.0625 348.0594 385.0625 347.4969L386.14062 347.4969Q386.17188 348.04376 386.57812 348.3719Q386.98438 348.6844 387.65625 348.6844Q388.26562 348.6844 388.64062 348.4344Q389.01562 348.1844 389.01562 347.7625ZM392.79688 341.575L392.79688 343.10626L393.96875 343.10626L393.96875 343.95L392.79688 343.95L392.79688 347.8719Q392.79688 348.2625 392.95312 348.45Q393.10938 348.6375 393.48438 348.6375Q393.67188 348.6375 394.0 348.575L394.0 349.45Q393.57812 349.575 393.17188 349.575Q392.45312 349.575 392.07812 349.1375Q391.70312 348.6844 391.70312 347.8719L391.70312 343.95L390.54688 343.95L390.54688 343.10626L391.70312 343.10626L391.70312 341.575L392.79688 341.575Z" fill-rule="nonzero"/><path fill="#757575" d="M24.39375 31.20625Q21.971874 30.51875 20.878124 29.51875Q19.784374 28.503124 19.784374 27.01875Q19.784374 25.33125 21.128124 24.2375Q22.471874 23.128124 24.6125 23.128124Q26.08125 23.128124 27.221874 23.70625Q28.378124 24.26875 29.003124 25.26875Q29.628124 26.253124 29.628124 27.440624L27.753124 27.440624Q27.753124 26.159374 26.925 25.425Q26.1125 24.675 24.6125 24.675Q23.221874 24.675 22.440624 25.284374Q21.675 25.89375 21.675 26.9875Q21.675 27.846874 22.409374 28.45625Q23.14375 29.05 24.909374 29.55Q26.690624 30.05 27.690624 30.659374Q28.690624 31.253124 29.175 32.05Q29.659374 32.846874 29.659374 33.940624Q29.659374 35.659374 28.315624 36.70625Q26.971874 37.753124 24.70625 37.753124Q23.253124 37.753124 21.971874 37.190624Q20.70625 36.628124 20.01875 35.659374Q19.33125 34.675 19.33125 33.425L21.221874 33.425Q21.221874 34.721874 22.175 35.471874Q23.128124 36.20625 24.70625 36.20625Q26.190624 36.20625 26.9875 35.6125Q27.784374 35.003124 27.784374 33.95625Q27.784374 32.909374 27.05 32.346874Q26.315624 31.76875 24.39375 31.20625ZM35.378124 34.909374L37.83125 26.9875L39.76875 26.9875L35.51875 39.175Q34.534374 41.815624 32.39375 41.815624L32.05 41.784374L31.378124 41.659374L31.378124 40.190624L31.8625 40.2375Q32.784374 40.2375 33.284374 39.8625Q33.8 39.4875 34.128124 38.503124L34.534374 37.425L30.76875 26.9875L32.7375 26.9875L35.378124 34.909374ZM42.628124 26.9875L42.690624 28.315624Q43.89375 26.784374 45.846874 26.784374Q49.20625 26.784374 49.221874 30.565624L49.221874 37.55L47.425 37.55L47.425 30.55Q47.409374 29.409374 46.89375 28.8625Q46.39375 28.315624 45.3 28.315624Q44.425 28.315624 43.753124 28.784374Q43.096874 29.253124 42.721874 30.01875L42.721874 37.55L40.925 37.55L40.925 26.9875L42.628124 26.9875ZM56.159374 36.26875Q57.128124 36.26875 57.846874 35.690624Q58.565624 35.096874 58.64375 34.221874L60.3625 34.221874Q60.3 35.128124 59.721874 35.95625Q59.159374 36.76875 58.190624 37.26875Q57.2375 37.753124 56.159374 37.753124Q54.003124 37.753124 52.721874 36.315624Q51.45625 34.8625 51.45625 32.3625L51.45625 32.065624Q51.45625 30.51875 52.01875 29.315624Q52.58125 28.1125 53.64375 27.45625Q54.70625 26.784374 56.14375 26.784374Q57.925 26.784374 59.096874 27.846874Q60.284374 28.909374 60.3625 30.6125L58.64375 30.6125Q58.565624 29.596874 57.8625 28.940624Q57.175 28.26875 56.14375 28.26875Q54.76875 28.26875 54.003124 29.26875Q53.253124 30.253124 53.253124 32.128124L53.253124 32.471874Q53.253124 34.3 54.003124 35.284374Q54.753124 36.26875 56.159374 36.26875ZM63.721874 28.26875Q64.925 26.784374 66.84688 26.784374Q70.20625 26.784374 70.22188 30.565624L70.22188 37.55L68.425 37.55L68.425 30.55Q68.40938 29.409374 67.89375 28.8625Q67.39375 28.315624 66.3 28.315624Q65.425 28.315624 64.75313 28.784374Q64.09688 29.253124 63.721874 30.01875L63.721874 37.55L61.925 37.55L61.925 22.55L63.721874 22.55L63.721874 28.26875ZM78.01875 28.596874Q77.6125 28.534374 77.14375 28.534374Q75.3625 28.534374 74.72188 30.05L74.72188 37.55L72.925 37.55L72.925 26.9875L74.675 26.9875L74.70625 28.20625Q75.59688 26.784374 77.22188 26.784374Q77.75313 26.784374 78.01875 26.925L78.01875 28.596874ZM79.44063 32.175Q79.44063 30.6125 80.05 29.378124Q80.65938 28.128124 81.7375 27.45625Q82.83125 26.784374 84.2375 26.784374Q86.39375 26.784374 87.72188 28.284374Q89.06563 29.76875 89.06563 32.253124L89.06563 32.378124Q89.06563 33.925 88.47188 35.159374Q87.87813 36.378124 86.76875 37.065624Q85.675 37.753124 84.25313 37.753124Q82.1125 37.753124 80.76875 36.253124Q79.44063 34.753124 79.44063 32.3L79.44063 32.175ZM81.25313 32.378124Q81.25313 34.14375 82.06563 35.20625Q82.89375 36.26875 84.25313 36.26875Q85.62813 36.26875 86.44063 35.190624Q87.25313 34.1125 87.25313 32.175Q87.25313 30.425 86.425 29.346874Q85.59688 28.26875 84.2375 28.26875Q82.89375 28.26875 82.06563 29.33125Q81.25313 30.39375 81.25313 32.378124ZM92.62813 26.9875L92.69063 28.315624Q93.89375 26.784374 95.84688 26.784374Q99.20625 26.784374 99.22188 30.565624L99.22188 37.55L97.425 37.55L97.425 30.55Q97.40938 29.409374 96.89375 28.8625Q96.39375 28.315624 95.3 28.315624Q94.425 28.315624 93.75313 28.784374Q93.09688 29.253124 92.72188 30.01875L92.72188 37.55L90.925 37.55L90.925 26.9875L92.62813 26.9875ZM103.87813 37.55L102.08125 37.55L102.08125 26.9875L103.87813 26.9875L103.87813 37.55ZM101.925 24.175Q101.925 23.7375 102.19063 23.440624Q102.47188 23.128124 102.9875 23.128124Q103.51875 23.128124 103.78438 23.440624Q104.06563 23.7375 104.06563 24.175Q104.06563 24.6125 103.78438 24.909374Q103.51875 25.20625 102.9875 25.20625Q102.47188 25.20625 102.19063 24.909374Q101.925 24.6125 101.925 24.175ZM108.6125 36.08125L114.8 36.08125L114.8 37.55L106.40938 37.55L106.40938 36.221874L112.2375 28.471874L106.50313 28.471874L106.50313 26.9875L114.50313 26.9875L114.50313 28.26875L108.6125 36.08125ZM121.3 37.753124Q119.15938 37.753124 117.8 36.346874Q116.45625 34.925 116.45625 32.565624L116.45625 32.221874Q116.45625 30.659374 117.05 29.425Q117.65938 28.190624 118.7375 27.4875Q119.81563 26.784374 121.08125 26.784374Q123.14375 26.784374 124.28438 28.14375Q125.425 29.503124 125.425 32.034374L125.425 32.784374L118.26875 32.784374Q118.3 34.346874 119.175 35.315624Q120.05 36.26875 121.39375 36.26875Q122.3625 36.26875 123.01875 35.878124Q123.69063 35.4875 124.19063 34.846874L125.28438 35.70625Q123.95625 37.753124 121.3 37.753124ZM121.08125 28.26875Q119.9875 28.26875 119.2375 29.065624Q118.50313 29.8625 118.33125 31.3L123.6125 31.3L123.6125 31.159374Q123.53438 29.784374 122.8625 29.034374Q122.20625 28.26875 121.08125 28.26875ZM127.47188 32.175Q127.47188 29.753124 128.62813 28.26875Q129.78438 26.784374 131.64375 26.784374Q133.50313 26.784374 134.58125 28.05L134.58125 22.55L136.39375 22.55L136.39375 37.55L134.7375 37.55L134.64375 36.409374Q133.56563 37.753124 131.62813 37.753124Q129.8 37.753124 128.62813 36.253124Q127.47188 34.7375 127.47188 32.315624L127.47188 32.175ZM129.28438 32.378124Q129.28438 34.175 130.01875 35.190624Q130.76875 36.20625 132.08125 36.20625Q133.8 36.20625 134.58125 34.675L134.58125 29.815624Q133.78438 28.315624 132.09688 28.315624Q130.76875 28.315624 130.01875 29.346874Q129.28438 30.378124 129.28438 32.378124ZM146.08125 36.01875L152.83125 36.01875L152.83125 37.55L144.20625 37.55L144.20625 23.33125L146.08125 23.33125L146.08125 36.01875ZM156.87813 37.55L155.08125 37.55L155.08125 26.9875L156.87813 26.9875L156.87813 37.55ZM154.925 24.175Q154.925 23.7375 155.19063 23.440624Q155.47188 23.128124 155.9875 23.128124Q156.51875 23.128124 156.78438 23.440624Q157.06563 23.7375 157.06563 24.175Q157.06563 24.6125 156.78438 24.909374Q156.51875 25.20625 155.9875 25.20625Q155.47188 25.20625 155.19063 24.909374Q154.925 24.6125 154.925 24.175ZM166.06563 34.753124Q166.06563 34.01875 165.51875 33.6125Q164.97188 33.20625 163.59688 32.909374Q162.22188 32.6125 161.40938 32.20625Q160.6125 31.8 160.22188 31.2375Q159.84688 30.659374 159.84688 29.878124Q159.84688 28.58125 160.94063 27.690624Q162.03438 26.784374 163.75313 26.784374Q165.55 26.784374 166.65938 27.721874Q167.78438 28.64375 167.78438 30.08125L165.95625 30.08125Q165.95625 29.346874 165.33125 28.815624Q164.70625 28.26875 163.75313 28.26875Q162.75313 28.26875 162.19063 28.70625Q161.64375 29.128124 161.64375 29.83125Q161.64375 30.471874 162.15938 30.815624Q162.675 31.14375 164.03438 31.45625Q165.39375 31.753124 166.22188 32.175Q167.06563 32.58125 167.47188 33.175Q167.87813 33.76875 167.87813 34.6125Q167.87813 36.034374 166.7375 36.89375Q165.6125 37.753124 163.8 37.753124Q162.53438 37.753124 161.55 37.3Q160.58125 36.846874 160.01875 36.05Q159.47188 35.2375 159.47188 34.3L161.28438 34.3Q161.33125 35.20625 162.00313 35.7375Q162.69063 36.26875 163.8 36.26875Q164.83125 36.26875 165.44063 35.8625Q166.06563 35.440624 166.06563 34.753124ZM172.3625 24.425L172.3625 26.9875L174.34688 26.9875L174.34688 28.378124L172.3625 28.378124L172.3625 34.925Q172.3625 35.565624 172.62813 35.89375Q172.89375 36.20625 173.53438 36.20625Q173.84688 36.20625 174.39375 36.08125L174.39375 37.55Q173.675 37.753124 173.00313 37.753124Q171.8 37.753124 171.175 37.01875Q170.56563 36.284374 170.56563 34.925L170.56563 28.378124L168.64375 28.378124L168.64375 26.9875L170.56563 26.9875L170.56563 24.425L172.3625 24.425ZM185.40938 35.096874L188.01875 26.9875L189.8625 26.9875L186.08125 37.55L184.70625 37.55L180.87813 26.9875L182.72188 26.9875L185.40938 35.096874ZM198.06563 34.753124Q198.06563 34.01875 197.51875 33.6125Q196.97188 33.20625 195.59688 32.909374Q194.22188 32.6125 193.40938 32.20625Q192.6125 31.8 192.22188 31.2375Q191.84688 30.659374 191.84688 29.878124Q191.84688 28.58125 192.94063 27.690624Q194.03438 26.784374 195.75313 26.784374Q197.55 26.784374 198.65938 27.721874Q199.78438 28.64375 199.78438 30.08125L197.95625 30.08125Q197.95625 29.346874 197.33125 28.815624Q196.70625 28.26875 195.75313 28.26875Q194.75313 28.26875 194.19063 28.70625Q193.64375 29.128124 193.64375 29.83125Q193.64375 30.471874 194.15938 30.815624Q194.675 31.14375 196.03438 31.45625Q197.39375 31.753124 198.22188 32.175Q199.06563 32.58125 199.47188 33.175Q199.87813 33.76875 199.87813 34.6125Q199.87813 36.034374 198.7375 36.89375Q197.6125 37.753124 195.8 37.753124Q194.53438 37.753124 193.55 37.3Q192.58125 36.846874 192.01875 36.05Q191.47188 35.2375 191.47188 34.3L193.28438 34.3Q193.33125 35.20625 194.00313 35.7375Q194.69063 36.26875 195.8 36.26875Q196.83125 36.26875 197.44063 35.8625Q198.06563 35.440624 198.06563 34.753124ZM209.62813 23.33125L214.26875 34.925L218.925 23.33125L221.34688 23.33125L221.34688 37.55L219.47188 37.55L219.47188 32.01875L219.65938 26.034374L214.9875 37.55L213.55 37.55L208.89375 26.065624L209.08125 32.01875L209.08125 37.55L207.20625 37.55L207.20625 23.33125L209.62813 23.33125ZM227.37813 34.909374L229.83125 26.9875L231.76875 26.9875L227.51875 39.175Q226.53438 41.815624 224.39375 41.815624L224.05 41.784374L223.37813 41.659374L223.37813 40.190624L223.8625 40.2375Q224.78438 40.2375 225.28438 39.8625Q225.8 39.4875 226.12813 38.503124L226.53438 37.425L222.76875 26.9875L224.7375 26.9875L227.37813 34.909374ZM240.08125 36.01875L246.83125 36.01875L246.83125 37.55L238.20625 37.55L238.20625 23.33125L240.08125 23.33125L240.08125 36.01875ZM250.87813 37.55L249.08125 37.55L249.08125 26.9875L250.87813 26.9875L250.87813 37.55ZM248.925 24.175Q248.925 23.7375 249.19063 23.440624Q249.47188 23.128124 249.9875 23.128124Q250.51875 23.128124 250.78438 23.440624Q251.06563 23.7375 251.06563 24.175Q251.06563 24.6125 250.78438 24.909374Q250.51875 25.20625 249.9875 25.20625Q249.47188 25.20625 249.19063 24.909374Q248.925 24.6125 248.925 24.175ZM260.0656 34.753124Q260.0656 34.01875 259.51874 33.6125Q258.97186 33.20625 257.59686 32.909374Q256.22186 32.6125 255.40938 32.20625Q254.6125 31.8 254.22188 31.2375Q253.84688 30.659374 253.84688 29.878124Q253.84688 28.58125 254.94063 27.690624Q256.03436 26.784374 257.7531 26.784374Q259.55 26.784374 260.65936 27.721874Q261.78436 28.64375 261.78436 30.08125L259.95624 30.08125Q259.95624 29.346874 259.33124 28.815624Q258.70624 28.26875 257.7531 28.26875Q256.7531 28.26875 256.1906 28.70625Q255.64375 29.128124 255.64375 29.83125Q255.64375 30.471874 256.15936 30.815624Q256.675 31.14375 258.03436 31.45625Q259.39374 31.753124 260.22186 32.175Q261.0656 32.58125 261.47186 33.175Q261.8781 33.76875 261.8781 34.6125Q261.8781 36.034374 260.7375 36.89375Q259.6125 37.753124 257.8 37.753124Q256.53436 37.753124 255.55 37.3Q254.58125 36.846874 254.01875 36.05Q253.47188 35.2375 253.47188 34.3L255.28438 34.3Q255.33125 35.20625 256.0031 35.7375Q256.6906 36.26875 257.8 36.26875Q258.83124 36.26875 259.4406 35.8625Q260.0656 35.440624 260.0656 34.753124ZM266.3625 24.425L266.3625 26.9875L268.34686 26.9875L268.34686 28.378124L266.3625 28.378124L266.3625 34.925Q266.3625 35.565624 266.6281 35.89375Q266.89374 36.20625 267.53436 36.20625Q267.84686 36.20625 268.39374 36.08125L268.39374 37.55Q267.675 37.753124 267.0031 37.753124Q265.8 37.753124 265.175 37.01875Q264.5656 36.284374 264.5656 34.925L264.5656 28.378124L262.64374 28.378124L262.64374 26.9875L264.5656 26.9875L264.5656 24.425L266.3625 24.425ZM270.95624 36.596874Q270.95624 36.128124 271.2375 35.815624Q271.51874 35.503124 272.0656 35.503124Q272.6281 35.503124 272.90936 35.815624Q273.20624 36.128124 273.20624 36.596874Q273.20624 37.05 272.90936 37.3625Q272.6281 37.659374 272.0656 37.659374Q271.51874 37.659374 271.2375 37.3625Q270.95624 37.05 270.95624 36.596874ZM270.95624 27.596874Q270.95624 27.128124 271.2375 26.815624Q271.51874 26.503124 272.0656 26.503124Q272.6281 26.503124 272.90936 26.815624Q273.20624 27.128124 273.20624 27.596874Q273.20624 28.05 272.90936 28.3625Q272.6281 28.659374 272.0656 28.659374Q271.51874 28.659374 271.2375 28.3625Q270.95624 28.05 270.95624 27.596874ZM290.05 37.55L280.7375 37.55L280.7375 36.253124L285.65936 30.784374Q286.7531 29.534374 287.15936 28.76875Q287.58124 27.9875 287.58124 27.159374Q287.58124 26.05 286.90936 25.33125Q286.2375 24.6125 285.1125 24.6125Q283.7531 24.6125 283.0031 25.39375Q282.26874 26.159374 282.26874 27.51875L280.45624 27.51875Q280.45624 25.55 281.72186 24.346874Q282.9875 23.128124 285.1125 23.128124Q287.09686 23.128124 288.2375 24.175Q289.39374 25.221874 289.39374 26.940624Q289.39374 29.05 286.72186 31.940624L282.90936 36.08125L290.05 36.08125L290.05 37.55ZM300.64374 31.4875Q300.64374 34.659374 299.5656 36.20625Q298.4875 37.753124 296.175 37.753124Q293.89374 37.753124 292.8 36.2375Q291.70624 34.721874 291.675 31.721874L291.675 29.315624Q291.675 26.175 292.7531 24.659374Q293.84686 23.128124 296.15936 23.128124Q298.45624 23.128124 299.53436 24.6125Q300.6125 26.08125 300.64374 29.14375L300.64374 31.4875ZM298.84686 29.01875Q298.84686 26.721874 298.1906 25.675Q297.55 24.6125 296.15936 24.6125Q294.76874 24.6125 294.1281 25.659374Q293.5031 26.70625 293.4875 28.878124L293.4875 31.76875Q293.4875 34.065624 294.14374 35.175Q294.8156 36.26875 296.175 36.26875Q297.51874 36.26875 298.15936 35.2375Q298.8156 34.20625 298.84686 31.971874L298.84686 29.01875ZM302.58124 26.065624Q302.58124 24.784374 303.39374 23.95625Q304.20624 23.128124 305.4875 23.128124Q306.78436 23.128124 307.58124 23.971874Q308.39374 24.8 308.39374 26.128124L308.39374 26.815624Q308.39374 28.1125 307.58124 28.925Q306.76874 29.7375 305.5031 29.7375Q304.2375 29.7375 303.40936 28.925Q302.58124 28.1125 302.58124 26.753124L302.58124 26.065624ZM303.925 26.815624Q303.925 27.58125 304.34686 28.08125Q304.78436 28.565624 305.5031 28.565624Q306.20624 28.565624 306.6281 28.096874Q307.05 27.6125 307.05 26.784374L307.05 26.065624Q307.05 25.3 306.6281 24.8Q306.20624 24.3 305.4875 24.3Q304.76874 24.3 304.34686 24.8Q303.925 25.3 303.925 26.096874L303.925 26.815624ZM309.5031 34.065624Q309.5031 32.784374 310.3156 31.95625Q311.1281 31.128124 312.40936 31.128124Q313.6906 31.128124 314.5031 31.95625Q315.33124 32.76875 315.33124 34.128124L315.33124 34.83125Q315.33124 36.096874 314.51874 36.925Q313.70624 37.753124 312.425 37.753124Q311.15936 37.753124 310.33124 36.940624Q309.5031 36.128124 309.5031 34.76875L309.5031 34.065624ZM310.84686 34.83125Q310.84686 35.596874 311.26874 36.096874Q311.70624 36.58125 312.425 36.58125Q313.1281 36.58125 313.55 36.096874Q313.97186 35.6125 313.97186 34.784374L313.97186 34.065624Q313.97186 33.284374 313.55 32.8Q313.1281 32.315624 312.40936 32.315624Q311.72186 32.315624 311.28436 32.8Q310.84686 33.284374 310.84686 34.096874L310.84686 34.83125ZM305.90936 36.471874L304.89374 35.83125L311.83124 24.721874L312.8625 25.3625L305.90936 36.471874ZM326.26874 33.065624L326.53436 34.940624L326.9406 33.253124L329.7531 23.33125L331.33124 23.33125L334.08124 33.253124L334.47186 34.971874L334.76874 33.05L336.9875 23.33125L338.8625 23.33125L335.425 37.55L333.70624 37.55L330.78436 27.190624L330.55 26.096874L330.33124 27.190624L327.3 37.55L325.58124 37.55L322.14374 23.33125L324.01874 23.33125L326.26874 33.065624ZM346.01874 28.596874Q345.6125 28.534374 345.14374 28.534374Q343.3625 28.534374 342.72186 30.05L342.72186 37.55L340.925 37.55L340.925 26.9875L342.675 26.9875L342.70624 28.20625Q343.59686 26.784374 345.22186 26.784374Q345.7531 26.784374 346.01874 26.925L346.01874 28.596874ZM349.8781 37.55L348.08124 37.55L348.08124 26.9875L349.8781 26.9875L349.8781 37.55ZM347.925 24.175Q347.925 23.7375 348.1906 23.440624Q348.47186 23.128124 348.9875 23.128124Q349.51874 23.128124 349.78436 23.440624Q350.0656 23.7375 350.0656 24.175Q350.0656 24.6125 349.78436 24.909374Q349.51874 25.20625 348.9875 25.20625Q348.47186 25.20625 348.1906 24.909374Q347.925 24.6125 347.925 24.175ZM355.3625 24.425L355.3625 26.9875L357.34686 26.9875L357.34686 28.378124L355.3625 28.378124L355.3625 34.925Q355.3625 35.565624 355.6281 35.89375Q355.89374 36.20625 356.53436 36.20625Q356.84686 36.20625 357.39374 36.08125L357.39374 37.55Q356.675 37.753124 356.0031 37.753124Q354.8 37.753124 354.175 37.01875Q353.5656 36.284374 353.5656 34.925L353.5656 28.378124L351.64374 28.378124L351.64374 26.9875L353.5656 26.9875L353.5656 24.425L355.3625 24.425ZM364.3 37.753124Q362.15936 37.753124 360.8 36.346874Q359.45624 34.925 359.45624 32.565624L359.45624 32.221874Q359.45624 30.659374 360.05 29.425Q360.65936 28.190624 361.7375 27.4875Q362.8156 26.784374 364.08124 26.784374Q366.14374 26.784374 367.28436 28.14375Q368.425 29.503124 368.425 32.034374L368.425 32.784374L361.26874 32.784374Q361.3 34.346874 362.175 35.315624Q363.05 36.26875 364.39374 36.26875Q365.3625 36.26875 366.01874 35.878124Q366.6906 35.4875 367.1906 34.846874L368.28436 35.70625Q366.95624 37.753124 364.3 37.753124ZM364.08124 28.26875Q362.9875 28.26875 362.2375 29.065624Q361.5031 29.8625 361.33124 31.3L366.6125 31.3L366.6125 31.159374Q366.53436 29.784374 365.8625 29.034374Q365.20624 28.26875 364.08124 28.26875ZM377.0656 34.753124Q377.0656 34.01875 376.51874 33.6125Q375.97186 33.20625 374.59686 32.909374Q373.22186 32.6125 372.40936 32.20625Q371.6125 31.8 371.22186 31.2375Q370.84686 30.659374 370.84686 29.878124Q370.84686 28.58125 371.9406 27.690624Q373.03436 26.784374 374.7531 26.784374Q376.55 26.784374 377.65936 27.721874Q378.78436 28.64375 378.78436 30.08125L376.95624 30.08125Q376.95624 29.346874 376.33124 28.815624Q375.70624 28.26875 374.7531 28.26875Q373.7531 28.26875 373.1906 28.70625Q372.64374 29.128124 372.64374 29.83125Q372.64374 30.471874 373.15936 30.815624Q373.675 31.14375 375.03436 31.45625Q376.39374 31.753124 377.22186 32.175Q378.0656 32.58125 378.47186 33.175Q378.8781 33.76875 378.8781 34.6125Q378.8781 36.034374 377.7375 36.89375Q376.6125 37.753124 374.8 37.753124Q373.53436 37.753124 372.55 37.3Q371.58124 36.846874 371.01874 36.05Q370.47186 35.2375 370.47186 34.3L372.28436 34.3Q372.33124 35.20625 373.0031 35.7375Q373.6906 36.26875 374.8 36.26875Q375.83124 36.26875 376.4406 35.8625Q377.0656 35.440624 377.0656 34.753124ZM385.53436 33.7375Q385.53436 32.70625 386.09686 31.846874Q386.675 30.9875 388.28436 29.846874Q387.34686 28.690624 387.01874 27.9875Q386.70624 27.284374 386.70624 26.596874Q386.70624 24.971874 387.65936 24.05Q388.6125 23.128124 390.2531 23.128124Q391.72186 23.128124 392.675 23.9875Q393.6281 24.846874 393.6281 26.14375Q393.6281 27.003124 393.1906 27.7375Q392.76874 28.45625 391.675 29.253124L390.6281 30.034374L393.8 33.815624Q394.45624 32.534374 394.45624 30.9875L396.09686 30.9875Q396.09686 33.471874 394.89374 35.1125L396.925 37.55L394.7531 37.55L393.8156 36.425Q393.08124 37.065624 392.1125 37.409374Q391.14374 37.753124 390.14374 37.753124Q388.05 37.753124 386.78436 36.64375Q385.53436 35.534374 385.53436 33.7375ZM390.14374 36.26875Q391.5656 36.26875 392.76874 35.175L389.3 31.01875L388.97186 31.253124Q387.34686 32.45625 387.34686 33.7375Q387.34686 34.878124 388.08124 35.58125Q388.83124 36.26875 390.14374 36.26875ZM388.5031 26.534374Q388.5031 27.471874 389.65936 28.878124L390.8156 28.065624Q391.47186 27.596874 391.70624 27.175Q391.95624 26.753124 391.95624 26.14375Q391.95624 25.4875 391.47186 25.05Q390.9875 24.6125 390.2375 24.6125Q389.4406 24.6125 388.97186 25.159374Q388.5031 25.70625 388.5031 26.534374ZM411.3625 27.034374Q411.3625 28.1125 410.8 28.940624Q410.2375 29.76875 409.26874 30.2375Q410.39374 30.70625 411.03436 31.628124Q411.6906 32.55 411.6906 33.70625Q411.6906 35.55 410.4406 36.659374Q409.1906 37.753124 407.15936 37.753124Q405.1125 37.753124 403.8781 36.659374Q402.64374 35.55 402.64374 33.70625Q402.64374 32.565624 403.26874 31.64375Q403.90936 30.70625 405.01874 30.221874Q404.0656 29.753124 403.51874 28.925Q402.97186 28.096874 402.97186 27.034374Q402.97186 25.2375 404.1281 24.190624Q405.28436 23.128124 407.15936 23.128124Q409.03436 23.128124 410.1906 24.190624Q411.3625 25.2375 411.3625 27.034374ZM409.8781 33.675Q409.8781 32.4875 409.1125 31.7375Q408.3625 30.971874 407.14374 30.971874Q405.925 30.971874 405.1906 31.721874Q404.45624 32.45625 404.45624 33.675Q404.45624 34.878124 405.175 35.58125Q405.89374 36.26875 407.15936 36.26875Q408.4406 36.26875 409.15936 35.58125Q409.8781 34.878124 409.8781 33.675ZM407.15936 24.6125Q406.09686 24.6125 405.4406 25.284374Q404.78436 25.940624 404.78436 27.065624Q404.78436 28.159374 405.425 28.83125Q406.08124 29.4875 407.15936 29.4875Q408.2531 29.4875 408.89374 28.83125Q409.55 28.159374 409.55 27.08125Q409.55 25.9875 408.8781 25.3Q408.20624 24.6125 407.15936 24.6125ZM422.64374 31.4875Q422.64374 34.659374 421.5656 36.20625Q420.4875 37.753124 418.175 37.753124Q415.89374 37.753124 414.8 36.2375Q413.70624 34.721874 413.675 31.721874L413.675 29.315624Q413.675 26.175 414.7531 24.659374Q415.84686 23.128124 418.15936 23.128124Q420.45624 23.128124 421.53436 24.6125Q422.6125 26.08125 422.64374 29.14375L422.64374 31.4875ZM420.84686 29.01875Q420.84686 26.721874 420.1906 25.675Q419.55 24.6125 418.15936 24.6125Q416.76874 24.6125 416.1281 25.659374Q415.5031 26.70625 415.4875 28.878124L415.4875 31.76875Q415.4875 34.065624 416.14374 35.175Q416.8156 36.26875 418.175 36.26875Q419.51874 36.26875 420.15936 35.2375Q420.8156 34.20625 420.84686 31.971874L420.84686 29.01875ZM424.58124 26.065624Q424.58124 24.784374 425.39374 23.95625Q426.20624 23.128124 427.4875 23.128124Q428.78436 23.128124 429.58124 23.971874Q430.39374 24.8 430.39374 26.128124L430.39374 26.815624Q430.39374 28.1125 429.58124 28.925Q428.76874 29.7375 427.5031 29.7375Q426.2375 29.7375 425.40936 28.925Q424.58124 28.1125 424.58124 26.753124L424.58124 26.065624ZM425.925 26.815624Q425.925 27.58125 426.34686 28.08125Q426.78436 28.565624 427.5031 28.565624Q428.20624 28.565624 428.6281 28.096874Q429.05 27.6125 429.05 26.784374L429.05 26.065624Q429.05 25.3 428.6281 24.8Q428.20624 24.3 427.4875 24.3Q426.76874 24.3 426.34686 24.8Q425.925 25.3 425.925 26.096874L425.925 26.815624ZM431.5031 34.065624Q431.5031 32.784374 432.3156 31.95625Q433.1281 31.128124 434.40936 31.128124Q435.6906 31.128124 436.5031 31.95625Q437.33124 32.76875 437.33124 34.128124L437.33124 34.83125Q437.33124 36.096874 436.51874 36.925Q435.70624 37.753124 434.425 37.753124Q433.15936 37.753124 432.33124 36.940624Q431.5031 36.128124 431.5031 34.76875L431.5031 34.065624ZM432.84686 34.83125Q432.84686 35.596874 433.26874 36.096874Q433.70624 36.58125 434.425 36.58125Q435.1281 36.58125 435.55 36.096874Q435.97186 35.6125 435.97186 34.784374L435.97186 34.065624Q435.97186 33.284374 435.55 32.8Q435.1281 32.315624 434.40936 32.315624Q433.72186 32.315624 433.28436 32.8Q432.84686 33.284374 432.84686 34.096874L432.84686 34.83125ZM427.90936 36.471874L426.89374 35.83125L433.83124 24.721874L434.8625 25.3625L427.90936 36.471874ZM450.40936 31.8L447.08124 31.8L447.08124 37.55L445.1906 37.55L445.1906 23.33125L449.89374 23.33125Q452.3 23.33125 453.59686 24.425Q454.89374 25.51875 454.89374 27.6125Q454.89374 28.940624 454.175 29.925Q453.45624 30.909374 452.175 31.39375L455.51874 37.425L455.51874 37.55L453.5031 37.55L450.40936 31.8ZM447.08124 30.26875L449.95624 30.26875Q451.34686 30.26875 452.175 29.55Q453.0031 28.815624 453.0031 27.6125Q453.0031 26.284374 452.20624 25.58125Q451.425 24.878124 449.9406 24.878124L447.08124 24.878124L447.08124 30.26875ZM461.3 37.753124Q459.15936 37.753124 457.8 36.346874Q456.45624 34.925 456.45624 32.565624L456.45624 32.221874Q456.45624 30.659374 457.05 29.425Q457.65936 28.190624 458.7375 27.4875Q459.8156 26.784374 461.08124 26.784374Q463.14374 26.784374 464.28436 28.14375Q465.425 29.503124 465.425 32.034374L465.425 32.784374L458.26874 32.784374Q458.3 34.346874 459.175 35.315624Q460.05 36.26875 461.39374 36.26875Q462.3625 36.26875 463.01874 35.878124Q463.6906 35.4875 464.1906 34.846874L465.28436 35.70625Q463.95624 37.753124 461.3 37.753124ZM461.08124 28.26875Q459.9875 28.26875 459.2375 29.065624Q458.5031 29.8625 458.33124 31.3L463.6125 31.3L463.6125 31.159374Q463.53436 29.784374 462.8625 29.034374Q462.20624 28.26875 461.08124 28.26875ZM474.4406 37.55Q474.28436 37.2375 474.1906 36.440624Q472.925 37.753124 471.175 37.753124Q469.6125 37.753124 468.6125 36.8625Q467.6125 35.971874 467.6125 34.6125Q467.6125 32.971874 468.8625 32.065624Q470.1281 31.14375 472.39374 31.14375L474.15936 31.14375L474.15936 30.315624Q474.15936 29.3625 473.58124 28.8Q473.01874 28.2375 471.925 28.2375Q470.95624 28.2375 470.3 28.7375Q469.64374 29.221874 469.64374 29.909374L467.83124 29.909374Q467.83124 29.128124 468.39374 28.39375Q468.95624 27.64375 469.90936 27.221874Q470.8781 26.784374 472.03436 26.784374Q473.8625 26.784374 474.89374 27.70625Q475.925 28.6125 475.97186 30.221874L475.97186 35.08125Q475.97186 36.534374 476.33124 37.39375L476.33124 37.55L474.4406 37.55ZM471.4406 36.175Q472.3 36.175 473.05 35.7375Q473.8156 35.3 474.15936 34.596874L474.15936 32.425L472.7375 32.425Q469.425 32.425 469.425 34.3625Q469.425 35.221874 469.9875 35.70625Q470.55 36.175 471.4406 36.175ZM478.47186 32.175Q478.47186 29.753124 479.6281 28.26875Q480.78436 26.784374 482.64374 26.784374Q484.5031 26.784374 485.58124 28.05L485.58124 22.55L487.39374 22.55L487.39374 37.55L485.7375 37.55L485.64374 36.409374Q484.5656 37.753124 482.6281 37.753124Q480.8 37.753124 479.6281 36.253124Q478.47186 34.7375 478.47186 32.315624L478.47186 32.175ZM480.28436 32.378124Q480.28436 34.175 481.01874 35.190624Q481.76874 36.20625 483.08124 36.20625Q484.8 36.20625 485.58124 34.675L485.58124 29.815624Q484.78436 28.315624 483.09686 28.315624Q481.76874 28.315624 481.01874 29.346874Q480.28436 30.378124 480.28436 32.378124ZM496.0656 34.753124Q496.0656 34.01875 495.51874 33.6125Q494.97186 33.20625 493.59686 32.909374Q492.22186 32.6125 491.40936 32.20625Q490.6125 31.8 490.22186 31.2375Q489.84686 30.659374 489.84686 29.878124Q489.84686 28.58125 490.9406 27.690624Q492.03436 26.784374 493.7531 26.784374Q495.55 26.784374 496.65936 27.721874Q497.78436 28.64375 497.78436 30.08125L495.95624 30.08125Q495.95624 29.346874 495.33124 28.815624Q494.70624 28.26875 493.7531 28.26875Q492.7531 28.26875 492.1906 28.70625Q491.64374 29.128124 491.64374 29.83125Q491.64374 30.471874 492.15936 30.815624Q492.675 31.14375 494.03436 31.45625Q495.39374 31.753124 496.22186 32.175Q497.0656 32.58125 497.47186 33.175Q497.8781 33.76875 497.8781 34.6125Q497.8781 36.034374 496.7375 36.89375Q495.6125 37.753124 493.8 37.753124Q492.53436 37.753124 491.55 37.3Q490.58124 36.846874 490.01874 36.05Q489.47186 35.2375 489.47186 34.3L491.28436 34.3Q491.33124 35.20625 492.0031 35.7375Q492.6906 36.26875 493.8 36.26875Q494.83124 36.26875 495.4406 35.8625Q496.0656 35.440624 496.0656 34.753124Z" fill-rule="nonzero"/></svg>